<svg width="60" height="60" viewBox="0 0 60 60" fill="none" xmlns="http://www.w3.org/2000/svg">
<g clip-path="url(#clip0_1417_12343)">
<path d="M10.8984 9.90236C9.86719 10.3711 9.375 11.2031 9.375 12.4805C9.375 13.5469 9.21094 13.6289 8.8125 12.7735C8.0625 11.1445 5.8125 10.8164 4.54688 12.1524C3.78516 12.9492 3.69141 13.8985 4.23047 15.375L4.59375 16.3711L4.01953 17.1211C3.42188 17.918 2.83594 19.0313 2.51953 19.9805C2.36719 20.4727 2.13281 20.7539 1.13672 21.6914L-0.046875 22.8047L0.351562 23.7305C1.23047 25.7461 2.34375 27.0117 3.91406 27.7735C4.64062 28.125 5.76562 28.4649 8.69531 29.2031L12.5273 30.1758L16.3711 34.6406C18.4805 37.1016 20.4141 39.4453 20.6602 39.8555C21.3516 41.0391 21.7031 42.2578 21.7734 43.7813C21.8438 45.457 21.5859 46.5352 20.625 48.4922C20.2383 49.2891 19.9219 49.9922 19.9219 50.0508C19.9219 50.2031 23.8477 50.1797 25.1367 50.0274C27.9258 49.6875 30.3047 48.5391 32.2148 46.6172C33.7031 45.1289 34.793 43.1836 35.3555 41.0391C35.6484 39.9375 35.6484 39.7735 35.707 35.0625L35.7773 30.2344H37.3828H38.9883L39.0586 31.6641C39.1641 33.8438 39.7266 35.5899 40.8398 37.2539C41.5898 38.3789 43.207 39.8906 44.3438 40.5352C45.2344 41.0391 47.0156 41.7188 47.4609 41.7188C47.5781 41.7188 47.707 41.7656 47.7539 41.8242C47.8359 41.9766 47.6133 43.9922 47.332 45.4453C47.2031 46.1133 46.8633 47.3789 46.582 48.2695C46.2891 49.1602 46.0547 49.957 46.0547 50.0274C46.0547 50.2383 50.9414 50.1914 51.9727 49.9805C53.9531 49.5703 55.8516 48.1641 56.7422 46.4531C57.3164 45.3516 59.4609 39.211 59.7305 37.9102C59.9062 37.0547 59.9414 36.3164 59.9414 33.9844C59.9297 31.3242 59.9062 31.0078 59.625 29.6367C58.7109 25.3711 56.6836 21.6211 53.6719 18.6563C49.9102 14.9297 45.3633 12.8555 39.9727 12.4102C38.0859 12.2578 37.9805 12.2578 27.8672 13.3711L19.3359 14.3086L17.3203 13.6641C16.207 13.3242 15.1289 12.9961 14.9297 12.961C14.5781 12.8789 14.5664 12.8555 14.4961 12.1172C14.4258 11.2149 14.0742 10.5938 13.3477 10.1133C12.7383 9.71486 11.5547 9.60939 10.8984 9.90236Z" fill="white"/>
<path d="M10.0781 36.3984C10.0781 40.0078 10.0195 40.582 9.5625 41.4609C9.45703 41.6719 8.22656 43.7344 6.84375 46.0313L4.33594 50.2149L6.64453 50.25C7.92188 50.2734 9.38672 50.2266 9.90234 50.1563C11.8477 49.8867 13.8281 49.125 15.5391 47.9766C16.6758 47.2266 18.2109 45.7852 18.3867 45.3047C18.7031 44.5078 18.4688 42.6563 17.9297 41.5898C17.8008 41.3555 16.3594 39.5977 14.6953 37.6641C10.5938 32.8945 10.7578 33.0703 10.4062 32.9883L10.0781 32.9063V36.3984Z" fill="white"/>
<path d="M38.3789 41.1797C38.3672 43.4531 37.9102 45.9023 36.9375 48.7734L36.4688 50.1562H39.5039H42.5273L43.2891 47.7773C43.7109 46.4766 44.1328 45.1289 44.2266 44.7891L44.4023 44.168L43.7344 43.875C42.4453 43.3125 40.875 42.1406 39.5977 40.8047L38.3789 39.5391V41.1797Z" fill="white"/>
</g>
<defs>
<clipPath id="clip0_1417_12343">
<rect width="60" height="60" fill="white"/>
</clipPath>
</defs>
</svg>
