<svg width="45" height="46" viewBox="0 0 45 46" fill="none" xmlns="http://www.w3.org/2000/svg">
<path fill-rule="evenodd" clip-rule="evenodd" d="M28.992 24.6972C30.0701 24.8139 30.9747 24.5809 31.7201 24.0286C33.2065 22.9262 34.634 21.7433 36.0634 20.5658C36.3291 20.3467 36.5236 20.0203 36.6953 19.712C36.909 19.3271 36.995 18.9078 36.7192 18.5011C36.4668 18.1262 35.911 17.9767 35.3676 18.1572C35.0982 18.2464 34.821 18.3494 34.5909 18.5102C32.5928 19.9051 30.7325 21.4474 29.3369 23.4792C29.2169 23.6549 29.1114 23.8455 29.0369 24.044C28.989 24.1673 29.0132 24.3185 28.992 24.6972Z" fill="#90B956"/>
<path fill-rule="evenodd" clip-rule="evenodd" d="M15.6141 4.96087C15.6329 4.57864 15.7343 4.20094 15.6432 3.87719C15.5547 3.56716 15.3213 3.18884 15.0515 3.07131C14.7837 2.95415 14.3134 3.02345 14.0731 3.20062C13.7495 3.44033 13.4639 3.82875 13.3297 4.21244C12.6714 6.10368 12.0672 8.0154 11.4478 9.92119C11.4038 10.0563 11.3853 10.2014 11.3656 10.3422C11.2798 10.9855 11.4851 11.4949 11.8973 11.6131C12.454 11.7741 12.8942 11.5097 13.21 11.1077C13.5161 10.7191 13.7966 10.2829 13.963 9.82083C14.5448 8.2082 15.072 6.57293 15.6141 4.96087Z" fill="#90B956"/>
<path fill-rule="evenodd" clip-rule="evenodd" d="M27.524 11.7308C27.533 11.5177 27.603 11.2196 27.5386 10.9539C27.4786 10.7022 27.3269 10.3761 27.1228 10.2822C26.9168 10.1881 26.5163 10.2492 26.3467 10.4022C25.9264 10.7813 25.5462 11.222 25.2279 11.6907C24.3869 12.9323 23.5697 14.1927 22.7804 15.4676C22.4816 15.9462 22.2339 16.4721 22.0623 17.0095C21.9958 17.2198 22.1316 17.6029 22.3067 17.7523C22.4864 17.9046 22.8632 17.9682 23.0899 17.8892C23.4815 17.752 23.8993 17.5414 24.1734 17.2404C25.4787 15.8062 26.5904 14.2334 27.3225 12.4203C27.403 12.2219 27.4444 12.0099 27.524 11.7308Z" fill="#90B956"/>
<path fill-rule="evenodd" clip-rule="evenodd" d="M34.4307 32.7871C35.2843 33.3721 36.0559 33.4203 36.826 33.3429C38.6185 33.162 40.3208 32.6096 41.9927 31.966C42.5385 31.7563 43.0396 31.4395 43.0067 30.741C42.9778 30.144 42.3995 29.7438 41.5878 29.7298C41.3738 29.7257 41.1596 29.749 40.9458 29.7653C38.9951 29.9324 36.1204 31.2266 34.4307 32.7871Z" fill="#90B956"/>
<path fill-rule="evenodd" clip-rule="evenodd" d="M2.20204 8.37363C2.50471 7.9976 2.78839 7.77472 2.90063 7.4846C3.73305 5.33129 3.51209 3.1342 3.09207 0.939921C3.05496 0.744532 2.89326 0.567175 2.76676 0.397522C2.51118 0.0556896 1.89607 0.0678419 1.65253 0.432731C1.49856 0.664015 1.32718 0.922529 1.28866 1.18903C0.973321 3.33186 1.00656 5.46165 1.66505 7.54762C1.74225 7.79441 1.95381 7.99858 2.20204 8.37363Z" fill="#90B956"/>
<path fill-rule="evenodd" clip-rule="evenodd" d="M38.6666 42.6169C38.7655 42.8943 38.7795 43.1525 38.9156 43.2822C40.0801 44.3733 41.4545 44.8538 43.05 44.6058C43.6123 44.5184 44.0294 44.1133 44.0789 43.6555C44.1265 43.2024 43.7983 42.6808 43.2559 42.5297C41.7338 42.1086 40.2033 41.8172 38.6666 42.6169Z" fill="#90B956"/>
</svg>
