<svg xmlns="http://www.w3.org/2000/svg" version="1.1" xmlns:xlink="http://www.w3.org/1999/xlink" xmlns:svgjs="http://svgjs.com/svgjs" width="512" height="512" x="0" y="0" viewBox="0 0 512.003 512.003" style="enable-background:new 0 0 512 512" xml:space="preserve" class=""><g><circle cx="418.578" cy="378.561" r="85.925" style="stroke-width:15;stroke-linecap:round;stroke-linejoin:round;stroke-miterlimit:10;" fill="none" stroke="#ff2f00" stroke-width="15" stroke-linecap="round" stroke-linejoin="round" stroke-miterlimit="10" data-original="#000000" class=""></circle><path d="M405.337 322.13a58.118 58.118 0 0 1 13.241-1.52c32.005 0 57.95 25.945 57.95 57.95s-25.945 57.95-57.95 57.95-57.95-25.945-57.95-57.95c0-14.609 5.406-27.955 14.326-38.148" style="stroke-width:15;stroke-linecap:round;stroke-linejoin:round;stroke-miterlimit:10;" fill="none" stroke="#ff2f00" stroke-width="15" stroke-linecap="round" stroke-linejoin="round" stroke-miterlimit="10" data-original="#000000" class=""></path><circle cx="93.425" cy="378.561" r="57.95" style="stroke-width:15;stroke-linecap:round;stroke-linejoin:round;stroke-miterlimit:10;" fill="none" stroke="#ff2f00" stroke-width="15" stroke-linecap="round" stroke-linejoin="round" stroke-miterlimit="10" data-original="#000000" class=""></circle><path d="M173.787 409.044c-12.3 32.408-43.641 55.443-80.362 55.443-47.455 0-85.925-38.47-85.925-85.925 0-41.422 29.31-75.998 68.321-84.12M41.854 214.523l22.096-40.808c7.66-14.16 25.77-18.75 39.25-9.97l24.67 16.08c4.74 3.09 6.21 9.35 3.33 14.22l-.539.914" style="stroke-width:15;stroke-linecap:round;stroke-linejoin:round;stroke-miterlimit:10;" fill="none" stroke="#ff2f00" stroke-width="15" stroke-linecap="round" stroke-linejoin="round" stroke-miterlimit="10" data-original="#000000" class=""></path><path d="M251.868 425.524H192.59c-5.24 0-9.98-2.12-13.41-5.56a18.885 18.885 0 0 1-5.56-13.41c0-51.94-35.58-97.12-86.08-109.29l-62.35-15.02c-8.93-2.15-13.4-12.18-9.03-20.27l9.03-16.677M264.988 425.524h23.442c11.35 0 20.67-8.99 21.08-20.33l.898-24.649 1.027-21.834c3.504-33.217 23.742-61.777 52.655-76.467a97.607 97.607 0 0 1 27.66-9.15l16.67-2.85c15.87-2.71 31.33-7.4 46.02-13.96l36.13-16.11c5.27-2.35 8.67-7.58 8.67-13.36 0-8.22-6.71-14.64-14.61-14.64-.87 0-1.75.08-2.64.24l-98.064 17.816M248.06 179.174l36.084 35.349M242.511 100.652h0c25.053-9.5 53.365-2.779 71.474 16.968l62.167 67.786" style="stroke-width:15;stroke-linecap:round;stroke-linejoin:round;stroke-miterlimit:10;" fill="none" stroke="#ff2f00" stroke-width="15" stroke-linecap="round" stroke-linejoin="round" stroke-miterlimit="10" data-original="#000000" class=""></path><path d="M263.565 108.082h0c-11.457-12.493-31.937-9.309-39.061 6.072l-30.422 65.826a21.228 21.228 0 0 1-20.287 14.978H119.98a27.1 27.1 0 0 0-22.779 12.42h0c-7.606 11.802-2.353 27.612 10.803 32.517h0a27.01 27.01 0 0 0 27.034-4.819h0a20.083 20.083 0 0 1 15.002-4.758l35.58 3.407c21.126 2.023 41.208-9.584 50.001-28.899l32.047-70.829a23.75 23.75 0 0 0-4.103-25.915z" style="stroke-width:15;stroke-linecap:round;stroke-linejoin:round;stroke-miterlimit:10;" fill="none" stroke="#ff2f00" stroke-width="15" stroke-linecap="round" stroke-linejoin="round" stroke-miterlimit="10" data-original="#000000" class=""></path><path d="m216.42 117.524-22.44 24.72c-11.15 12.27-28.29 14.24-41.44 7.46-6.69-3.44-12.35-9.15-15.66-16.91a70.055 70.055 0 0 1-3.42-10.05c-5.34-20.75-.44-42.72 16.19-62.61 14.28-15.74 38.62-16.91 54.36-2.63l9.94 9.03c14.76 13.401 15.87 36.23 2.47 50.99z" style="stroke-width:15;stroke-linecap:round;stroke-linejoin:round;stroke-miterlimit:10;" fill="none" stroke="#ff2f00" stroke-width="15" stroke-linecap="round" stroke-linejoin="round" stroke-miterlimit="10" data-original="#000000" class=""></path><path d="m176.5 121.734-23.96 27.97c-6.69-3.44-12.35-9.15-15.66-16.91a70.055 70.055 0 0 1-3.42-10.05l29.05-33.9c2.32-2.72 6.64-2.33 8.44.76l7.31 12.5a16.983 16.983 0 0 1-1.76 19.63zM402.511 226.856l11.728-35.677a19.193 19.193 0 0 1 18.235-13.2h20.619a19.195 19.195 0 0 1 17.221 10.717l11.677 23.72M298.808 282.244h65.282M25.19 282.244h186.548M255.675 397.596h-43.218c-6.804 0-12.319-5.515-12.319-12.319v-19.073c0-6.804 5.515-12.319 12.319-12.319h36.938M442.25 177.979v-24.147" style="stroke-width:15;stroke-linecap:round;stroke-linejoin:round;stroke-miterlimit:10;" fill="none" stroke="#ff2f00" stroke-width="15" stroke-linecap="round" stroke-linejoin="round" stroke-miterlimit="10" data-original="#000000" class=""></path><circle cx="442.25" cy="138.832" r="15" style="stroke-width:15;stroke-linecap:round;stroke-linejoin:round;stroke-miterlimit:10;" fill="none" stroke="#ff2f00" stroke-width="15" stroke-linecap="round" stroke-linejoin="round" stroke-miterlimit="10" data-original="#000000" class=""></circle><path d="M388.425 206.331h0a33.599 33.599 0 0 0-8.27-16.559l-4.004-4.365-90.173 27.897-57.451 41.032h0c-17.272 11.485-21.987 34.784-10.541 52.082l40.443 59.903a17.357 17.357 0 0 1 2.577 16.459l-11.362 31.582a9.962 9.962 0 0 0 2.866 10.915h0a9.961 9.961 0 0 0 14.001-.979l38.343-43.78a24.904 24.904 0 0 0 2.846-28.835l-32.164-56.523 97.879-54.315a33.608 33.608 0 0 0 15.01-34.514z" style="stroke-width:15;stroke-linecap:round;stroke-linejoin:round;stroke-miterlimit:10;" fill="none" stroke="#ff2f00" stroke-width="15" stroke-linecap="round" stroke-linejoin="round" stroke-miterlimit="10" data-original="#000000" class=""></path></g></svg>