<svg width="16" height="16" viewBox="0 0 16 16" fill="none" xmlns="http://www.w3.org/2000/svg">
<g clip-path="url(#clip0_1552_692)">
<path fill-rule="evenodd" clip-rule="evenodd" d="M3.5 6C3.36739 6 3.24021 6.05268 3.14645 6.14645C3.05268 6.24021 3 6.36739 3 6.5V14.5C3 14.6326 3.05268 14.7598 3.14645 14.8536C3.24021 14.9473 3.36739 15 3.5 15H12.5C12.6326 15 12.7598 14.9473 12.8536 14.8536C12.9473 14.7598 13 14.6326 13 14.5V6.5C13 6.36739 12.9473 6.24021 12.8536 6.14645C12.7598 6.05268 12.6326 6 12.5 6H10.5C10.3674 6 10.2402 5.94732 10.1464 5.85355C10.0527 5.75979 10 5.63261 10 5.5C10 5.36739 10.0527 5.24021 10.1464 5.14645C10.2402 5.05268 10.3674 5 10.5 5H12.5C12.8978 5 13.2794 5.15804 13.5607 5.43934C13.842 5.72064 14 6.10218 14 6.5V14.5C14 14.8978 13.842 15.2794 13.5607 15.5607C13.2794 15.842 12.8978 16 12.5 16H3.5C3.10218 16 2.72064 15.842 2.43934 15.5607C2.15804 15.2794 2 14.8978 2 14.5V6.5C2 6.10218 2.15804 5.72064 2.43934 5.43934C2.72064 5.15804 3.10218 5 3.5 5H5.5C5.63261 5 5.75979 5.05268 5.85355 5.14645C5.94732 5.24021 6 5.36739 6 5.5C6 5.63261 5.94732 5.75979 5.85355 5.85355C5.75979 5.94732 5.63261 6 5.5 6H3.5Z" fill="#09100D"/>
<path fill-rule="evenodd" clip-rule="evenodd" d="M7.64663 0.146039C7.69308 0.0994761 7.74825 0.0625332 7.809 0.0373268C7.86974 0.0121203 7.93486 -0.000854492 8.00063 -0.000854492C8.0664 -0.000854492 8.13152 0.0121203 8.19227 0.0373268C8.25301 0.0625332 8.30819 0.0994761 8.35463 0.146039L11.3546 3.14604C11.4485 3.23993 11.5013 3.36726 11.5013 3.50004C11.5013 3.63282 11.4485 3.76015 11.3546 3.85404C11.2607 3.94793 11.1334 4.00067 11.0006 4.00067C10.8679 4.00067 10.7405 3.94793 10.6466 3.85404L8.50063 1.70704V10.5C8.50063 10.6326 8.44795 10.7598 8.35419 10.8536C8.26042 10.9474 8.13324 11 8.00063 11C7.86802 11 7.74085 10.9474 7.64708 10.8536C7.55331 10.7598 7.50063 10.6326 7.50063 10.5V1.70704L5.35463 3.85404C5.30814 3.90053 5.25295 3.9374 5.19222 3.96256C5.13148 3.98772 5.06638 4.00067 5.00063 4.00067C4.86786 4.00067 4.74052 3.94793 4.64663 3.85404C4.60014 3.80755 4.56327 3.75236 4.53811 3.69162C4.51295 3.63088 4.5 3.56578 4.5 3.50004C4.5 3.36726 4.55275 3.23993 4.64663 3.14604L7.64663 0.146039Z" fill="#09100D"/>
</g>
<defs>
<clipPath id="clip0_1552_692">
<rect width="16" height="16" fill="white"/>
</clipPath>
</defs>
</svg>
