<svg width="22" height="22" viewBox="0 0 22 22" fill="none" xmlns="http://www.w3.org/2000/svg">
<path d="M1.46094 0.197681C0.949609 0.335182 0.567188 0.657448 0.326563 1.16018L0.193359 1.43948V9.45315V17.4668L0.292188 17.716C0.433984 18.0641 0.790625 18.4379 1.15156 18.6141L1.43945 18.7559L4.97148 18.7688L8.50781 18.7774L10.6176 20.2899C11.7777 21.1192 12.7918 21.8153 12.8691 21.841C13.041 21.8926 13.2859 21.7895 13.359 21.6305C13.3891 21.5574 13.4062 21.0848 13.4062 20.1524V18.7817L14.8801 18.7688L16.3496 18.7559L16.6289 18.6184C16.9855 18.4422 17.282 18.1457 17.4582 17.7891L17.5957 17.5098L17.6086 14.777L17.6215 12.0442L17.5055 11.9324C17.3379 11.7649 17.0586 11.7692 16.8824 11.941L16.7578 12.0657V14.575C16.7578 16.1219 16.7406 17.1403 16.7148 17.2348C16.6461 17.4754 16.4957 17.6688 16.2852 17.7891L16.0918 17.8965L14.0809 17.918L12.0656 17.9395L11.9625 18.0598C11.8121 18.236 11.8207 18.4852 11.984 18.6528C12.0914 18.7559 12.143 18.7774 12.3277 18.7774H12.5469V19.6625C12.5469 20.3543 12.534 20.5391 12.4953 20.5133C12.4652 20.4961 11.6359 19.9074 10.6562 19.2114L8.87734 17.9395L5.28516 17.918L1.69727 17.8965L1.50391 17.7891C1.29336 17.6688 1.14297 17.4754 1.07422 17.2348C1.01406 17.0157 1.01406 1.88635 1.07852 1.66292C1.13438 1.45237 1.34922 1.21174 1.56836 1.11292C1.73164 1.03557 2.0668 1.03127 8.89453 1.03127C15.7223 1.03127 16.0574 1.03557 16.2207 1.11292C16.4398 1.21174 16.6547 1.45237 16.7105 1.66292C16.7406 1.76604 16.7578 2.5051 16.7578 3.63088V5.43557L13.5137 8.67971C11.7305 10.4629 10.2523 11.9711 10.2309 12.0313C10.2051 12.0914 10.0289 12.7231 9.83555 13.4364C9.59922 14.3172 9.49609 14.7727 9.51328 14.85C9.56055 15.0348 9.72813 15.168 9.91719 15.168C10.0074 15.168 10.6777 15.0133 11.4082 14.8285L12.7316 14.4891L17.1918 10.0289C20.4059 6.81487 21.682 5.50862 21.768 5.35823C21.9227 5.07464 21.957 4.65784 21.8496 4.33557C21.7852 4.13362 21.6949 4.0262 21.1879 3.51487C20.6465 2.96917 20.5863 2.9262 20.35 2.85745C20.0406 2.76721 19.6926 2.7887 19.4047 2.9176C19.2586 2.97776 18.9836 3.22268 18.4293 3.76409L17.6602 4.52464V3.1969C17.6602 2.46643 17.643 1.75745 17.6172 1.61995C17.5012 0.902369 16.9512 0.32229 16.2508 0.176197C16.0875 0.141823 13.9477 0.128931 8.86016 0.133228C2.69844 0.133228 1.66289 0.141823 1.46094 0.197681ZM20.5691 4.13792C20.9645 4.53753 21.0117 4.60198 21.0117 4.73518C21.0117 4.82542 20.973 4.93284 20.9215 5.00589L20.827 5.1219L20.2082 4.50315L19.5895 3.8887L19.7012 3.78987C19.7742 3.72971 19.8687 3.69534 19.9676 3.69534C20.1051 3.69534 20.1695 3.7426 20.5691 4.13792ZM19.5723 5.15628L20.1738 5.75784L16.3281 9.60354L12.4824 13.4492L11.8723 12.8391L11.2578 12.2246L15.0906 8.39182C17.2004 6.28206 18.9363 4.55471 18.9492 4.55471C18.9621 4.55471 19.2414 4.82542 19.5723 5.15628ZM11.5801 13.8274C11.55 13.8574 10.6391 14.0938 10.6219 14.0766C10.6133 14.0637 10.6348 13.9477 10.6734 13.8188C10.7121 13.6856 10.7723 13.4707 10.8109 13.3375L10.8797 13.0969L11.2406 13.4535C11.4383 13.6512 11.593 13.8188 11.5801 13.8274Z" fill="#09100D"/>
<path d="M3.9446 3.63516C3.64812 3.79414 3.6696 4.25391 3.97468 4.4043C4.09499 4.46016 4.37859 4.46875 5.91687 4.46875C7.63562 4.46875 7.71726 4.46445 7.85476 4.38281C8.11687 4.21953 8.14265 3.88008 7.90203 3.67812L7.76882 3.56641H5.91687C4.3614 3.5707 4.04343 3.5793 3.9446 3.63516Z" fill="#09100D"/>
<path d="M9.19968 3.67812C9.0364 3.81563 8.98914 4.02187 9.08367 4.20664C9.21687 4.46016 9.26414 4.46875 10.7766 4.46875C12.2247 4.46875 12.3622 4.45156 12.4782 4.27539C12.5555 4.15508 12.5684 3.90156 12.504 3.77695C12.3966 3.5793 12.2977 3.56641 10.768 3.56641H9.33289L9.19968 3.67812Z" fill="#09100D"/>
<path d="M13.4965 3.62656C13.2988 3.73828 13.2257 4.00469 13.3246 4.22812C13.4105 4.41289 13.6039 4.46875 14.1367 4.46875C14.7984 4.46875 14.9531 4.37852 14.9531 4.00039C14.9531 3.88008 14.923 3.79414 14.85 3.7082C14.7468 3.58789 14.7425 3.58789 14.1711 3.575C13.75 3.5707 13.5738 3.5793 13.4965 3.62656Z" fill="#09100D"/>
<path d="M3.84999 7.26602C3.691 7.45508 3.6953 7.7 3.86288 7.86758L3.98749 7.99219H4.98436H5.98124L6.10585 7.86758C6.27772 7.6957 6.28202 7.41211 6.11874 7.24453L6.00272 7.13281H4.98436H3.96171L3.84999 7.26602Z" fill="#09100D"/>
<path d="M7.21445 7.25742C7.11563 7.35625 7.08984 7.4207 7.08984 7.5625C7.08984 7.7043 7.11563 7.76875 7.21445 7.86758L7.33906 7.99219H9.81836H12.2977L12.4223 7.86758C12.5211 7.76875 12.5469 7.7043 12.5469 7.5625C12.5469 7.4207 12.5211 7.35625 12.4223 7.25742L12.2977 7.13281H9.81836H7.33906L7.21445 7.25742Z" fill="#09100D"/>
<path d="M4.4 10.6992C4.2582 10.7551 4.16797 10.9141 4.16797 11.0988C4.16797 11.477 4.32266 11.5586 5.04883 11.5586C5.7793 11.5586 5.92969 11.4813 5.92969 11.0902C5.92969 10.9699 5.89961 10.884 5.82656 10.798L5.72344 10.6777L5.10469 10.6691C4.76953 10.6648 4.44727 10.6777 4.4 10.6992Z" fill="#09100D"/>
<path d="M7.23594 10.6992C7.09414 10.7551 7.00391 10.9141 7.00391 11.0988C7.00391 11.5113 7.12852 11.5586 8.16406 11.5586C9.03203 11.5586 9.18242 11.5285 9.28125 11.348C9.36289 11.1934 9.33281 10.927 9.22109 10.798L9.11797 10.6777L8.21992 10.6691C7.73008 10.6648 7.2832 10.6777 7.23594 10.6992Z" fill="#09100D"/>
<path d="M3.86289 14.3473C3.76406 14.4461 3.73828 14.5105 3.73828 14.6523C3.73828 14.7941 3.76406 14.8586 3.86289 14.9574L3.9875 15.082H6.20898H8.43047L8.55508 14.9574C8.73125 14.7812 8.73125 14.5234 8.55508 14.3473L8.43047 14.2227H6.20898H3.9875L3.86289 14.3473Z" fill="#09100D"/>
</svg>
