<svg xmlns="http://www.w3.org/2000/svg" version="1.1" xmlns:xlink="http://www.w3.org/1999/xlink" xmlns:svgjs="http://svgjs.com/svgjs" width="512" height="512" x="0" y="0" viewBox="0 0 502 502" style="enable-background:new 0 0 512 512" xml:space="preserve" class=""><g><path d="M366.475 40.357h-230.22c-5.523 0-10 4.477-10 10v35.972c0 5.523 4.477 10 10 10h230.22c5.522 0 10-4.477 10-10V50.357c0-5.523-4.478-10-10-10zm-10 35.972h-210.22V60.357h210.22v15.972zM89.492 165.874h143.887c5.523 0 10-4.477 10-10s-4.477-10-10-10H89.492c-5.523 0-10 4.477-10 10s4.477 10 10 10zM274.146 165.874h17.986c5.522 0 10-4.477 10-10s-4.478-10-10-10h-17.986c-5.522 0-10 4.477-10 10s4.478 10 10 10zM117.945 386.881c17.42 0 31.593-14.172 31.593-31.592 0-17.42-14.172-31.593-31.593-31.593s-31.593 14.172-31.593 31.593c0 17.42 14.172 31.592 31.593 31.592zm0-43.185c6.392 0 11.593 5.201 11.593 11.593s-5.201 11.592-11.593 11.592-11.593-5.2-11.593-11.592 5.201-11.593 11.593-11.593zM384.055 386.881c17.42 0 31.593-14.172 31.593-31.592 0-17.42-14.173-31.593-31.593-31.593s-31.592 14.172-31.592 31.593c0 17.42 14.172 31.592 31.592 31.592zm0-43.185c6.393 0 11.593 5.201 11.593 11.593s-5.2 11.592-11.593 11.592c-6.392 0-11.592-5.2-11.592-11.592s5.2-11.593 11.592-11.593z" fill="#ff2f00" data-original="#000000" class=""></path><path d="M492 187.135h-30.393V58.326c0-27.533-22.399-49.933-49.933-49.933H90.326c-27.533 0-49.933 22.4-49.933 49.933v128.809H10c-5.523 0-10 4.477-10 10v90.375c0 5.523 4.477 10 10 10h30.393v123.355c0 5.523 4.477 10 10 10h7.751v29.361c0 18.407 14.975 33.381 33.382 33.381h5.995c18.407 0 33.382-14.975 33.382-33.381v-29.361h240.195v29.361c0 18.407 14.975 33.381 33.382 33.381h5.995c18.407 0 33.382-14.975 33.382-33.381v-29.361h7.751c5.522 0 10-4.477 10-10V297.51H492c5.522 0 10-4.477 10-10v-90.375c0-5.523-4.478-10-10-10zM40.167 277.51H20v-70.375h20.167v70.375zm70.735 182.717c0 7.378-6.003 13.381-13.382 13.381h-5.995c-7.379 0-13.382-6.003-13.382-13.381v-29.361h32.759v29.361zm312.954 0c0 7.378-6.003 13.381-13.382 13.381h-5.995c-7.379 0-13.382-6.003-13.382-13.381v-29.361h32.759v29.361zm17.752-49.361H60.393V297.771h381.215v113.095zm0-133.095H397.588a10.047 10.047 0 0 0-1.681-.721l-127.099-40.769c-5.261-1.688-10.891 1.209-12.577 6.468s1.209 10.89 6.468 12.576l69.977 22.445H230.919l-128.781-41.489a9.997 9.997 0 0 0-12.576 6.468c-1.687 5.259 1.209 10.89 6.468 12.576l69.977 22.445H60.393V128.703h381.215v149.068zm0-169.068H60.393V58.326c0-16.505 13.428-29.933 29.933-29.933h321.349c16.505 0 29.933 13.428 29.933 29.933v50.377zM482 277.51h-20.167v-70.375H482v70.375z" fill="#ff2f00" data-original="#000000" class=""></path></g></svg>