<svg width="22" height="22" viewBox="0 0 22 22" fill="none" xmlns="http://www.w3.org/2000/svg">
<path d="M9.95582 0.0644436C6.4066 0.640224 3.75973 3.44179 3.39879 6.9996C3.37301 7.24452 3.35152 7.80741 3.35152 8.25429V9.06639L3.08512 9.07069C2.05387 9.07929 1.1816 9.81835 0.962462 10.8797C0.910899 11.1332 0.898009 11.5414 0.910899 13.2516C0.92379 15.3141 0.92379 15.3183 1.02692 15.5762C1.16442 15.9242 1.38356 16.2465 1.62418 16.4613C1.8691 16.6762 2.34176 16.9125 2.65973 16.9726C2.78434 16.9941 3.40309 17.0156 4.03473 17.0156C5.10465 17.0156 5.18629 17.0113 5.31949 16.9297C5.59449 16.7621 5.5859 16.8953 5.5859 13.1012C5.5859 10.5918 5.57301 9.6121 5.53434 9.48749C5.50856 9.39725 5.41832 9.26405 5.34098 9.1953C5.20348 9.07499 5.1734 9.06639 4.83395 9.06639H4.46871V8.45194C4.47301 7.24452 4.56754 6.48827 4.82106 5.71483C5.1734 4.63202 5.73199 3.75546 6.57848 2.94335C7.47223 2.08827 8.57652 1.51249 9.83981 1.24179C10.2265 1.15585 10.4113 1.14296 11.1504 1.14296C12.0957 1.14725 12.4695 1.20312 13.2472 1.46093C15.082 2.07538 16.5773 3.48905 17.2992 5.28944C17.6644 6.20468 17.7461 6.67733 17.7761 7.99647L17.8019 9.0578L17.4109 9.07069C17.0972 9.08358 17.007 9.10507 16.9296 9.17382C16.7105 9.36718 16.7148 9.28554 16.7148 13.084C16.7148 16.9254 16.7062 16.8094 16.9425 16.9383C16.9941 16.9683 17.2089 17.0027 17.4238 17.0156L17.8105 17.0371L17.4238 17.4281C17.2089 17.643 16.9168 17.9008 16.7664 17.9996C16.1433 18.4207 15.314 18.7086 14.6609 18.743L14.3515 18.7558L14.2312 18.4078C14.1625 18.2187 14.0379 17.9523 13.9476 17.8191C13.6039 17.2992 12.9593 16.848 12.3535 16.6933C12.057 16.616 11.4039 16.6074 11.0773 16.6762C10.7593 16.7406 10.205 17.0156 9.94293 17.2391C9.50465 17.6129 9.18238 18.1199 9.04488 18.6699C8.96324 19.0008 8.96324 19.6195 9.04918 19.9547C9.28981 20.9043 10.0804 21.6992 11.0214 21.9355C11.3523 22.0172 12.0269 22.0172 12.3535 21.9355C13.3461 21.6777 14.0679 20.9773 14.3086 20.032L14.3558 19.8516H14.6265C15.473 19.8516 16.5558 19.4906 17.4152 18.9191C17.8578 18.6226 18.5324 17.9351 18.8847 17.4109C19.0695 17.1402 19.2156 16.9641 19.2714 16.9555C19.7097 16.8695 19.8859 16.8223 20.1093 16.7062C20.6121 16.457 20.9558 16.0016 21.0546 15.4558C21.0847 15.2969 21.0976 14.4891 21.089 13.1785L21.0761 11.1504L20.9601 10.8066C20.6379 9.85702 19.9289 9.17811 19.1683 9.08788L18.9062 9.0578V8.12538C18.9062 6.82343 18.8246 6.24335 18.5152 5.30663C18.0941 4.04765 17.4754 3.06796 16.4914 2.12694C15.9027 1.55976 15.3656 1.18163 14.6308 0.816397C13.9648 0.485537 13.4492 0.300772 12.7402 0.141787C12.3363 0.0515518 12.13 0.0343647 11.3007 0.0214748C10.5961 0.00858307 10.2308 0.0214748 9.95582 0.0644436ZM4.42574 13.0453V15.907L3.64371 15.8898C2.74567 15.8726 2.59098 15.8297 2.31598 15.5246C2.04098 15.2195 2.04098 15.2238 2.04098 13.0625V11.1074L2.15699 10.8711C2.29449 10.5918 2.33317 10.5402 2.53942 10.3855C2.74996 10.2266 2.95192 10.1922 3.75113 10.1879L4.42574 10.1836V13.0453ZM19.2328 10.2781C19.4218 10.3812 19.6754 10.6734 19.7914 10.9312C19.9675 11.318 19.9847 11.5973 19.9718 13.4922C19.9589 15.4558 19.9632 15.4172 19.6796 15.6535C19.4777 15.8254 19.2886 15.8641 18.5324 15.8855L17.832 15.907V13.041V10.175L18.4679 10.1922C18.9449 10.2051 19.1297 10.2266 19.2328 10.2781ZM12.3621 17.9008C12.8476 18.1328 13.1398 18.5195 13.2386 19.0566C13.3675 19.757 13.0195 20.4058 12.3363 20.741C12.1257 20.8441 12.0441 20.8613 11.7089 20.8613C11.3824 20.8613 11.2836 20.8441 11.0816 20.7496C10.4629 20.4574 10.0504 19.7871 10.1105 19.1598C10.1707 18.4937 10.7207 17.8836 11.3867 17.7504C11.7004 17.6859 12.0226 17.7332 12.3621 17.9008Z" fill="#09100D"/>
</svg>
