<svg width="22" height="22" viewBox="0 0 22 22" fill="none" xmlns="http://www.w3.org/2000/svg">
<path d="M9.68954 0.885149C6.63876 1.29765 4.00048 2.98632 2.34618 5.58593C1.81767 6.41523 1.28056 7.72148 1.05712 8.73124C0.743448 10.1406 0.730557 11.7863 1.02704 13.1484C1.53407 15.4601 2.78017 17.484 4.61064 18.9578C6.10165 20.1566 7.9579 20.9258 9.86142 21.1406C10.4544 21.2051 11.7349 21.1922 12.3407 21.1148C13.0239 21.0289 14.038 20.7668 14.6739 20.5219C17.0845 19.5766 18.9923 17.8406 20.1267 15.5547C20.6466 14.5019 20.9774 13.4277 21.1192 12.2934C21.2224 11.4984 21.1923 9.99882 21.0591 9.25976C20.827 7.94491 20.3587 6.7246 19.6626 5.59452C19.5251 5.37538 19.422 5.18632 19.4263 5.17772C19.4349 5.17343 19.6282 5.0746 19.8517 4.96288C20.0751 4.85116 20.3071 4.71796 20.3587 4.6664C20.7239 4.33554 20.7239 3.65663 20.3587 3.32577C20.1524 3.13241 20.0063 3.09374 19.5337 3.09374C19.1813 3.09374 19.0309 3.07656 18.8634 3.0078C18.4767 2.85741 17.7806 2.82304 17.4067 2.94335C17.3423 2.96484 17.2306 2.90468 16.9642 2.71991C15.5333 1.70156 14.0208 1.11288 12.2677 0.880852C11.6532 0.799212 10.2911 0.803507 9.68954 0.885149ZM12.3966 1.54687C13.763 1.75312 15.1208 2.27304 16.2595 3.03359C16.5559 3.23124 16.6204 3.2914 16.5774 3.33007C16.4356 3.46327 15.4044 4.04335 15.3442 4.02616C15.3056 4.01757 14.661 3.77265 13.9091 3.48476C13.1614 3.20116 12.5169 2.96484 12.4782 2.96484C12.4438 2.96484 12.3708 2.98632 12.3192 3.0164C12.2161 3.06796 11.4985 3.69101 11.3782 3.8328C11.3009 3.91874 11.2751 4.15077 11.3352 4.23671C11.3524 4.26249 11.7005 4.57616 12.1087 4.9328L12.8477 5.58163L12.6888 5.68476C12.5985 5.74062 11.8122 6.21757 10.9399 6.74179L9.35439 7.69999L8.96337 7.51523C8.60243 7.34335 8.54657 7.32616 8.2286 7.32616C7.83759 7.32616 7.58837 7.4164 7.2747 7.67421C7.11571 7.80741 7.08993 7.85038 7.08993 7.99218C7.08993 8.14687 7.11571 8.18124 7.46806 8.49921C8.97626 9.87421 9.07938 9.94296 9.63368 9.94726H9.96884L12.0528 8.90312C13.4536 8.20702 14.1454 7.88046 14.1583 7.91483C14.1712 7.94491 14.3173 8.45194 14.4806 9.04491C14.7899 10.1664 14.8415 10.2695 15.0606 10.2695C15.211 10.2695 16.3411 9.77108 16.4013 9.68085C16.4313 9.63788 16.5087 8.95468 16.5817 8.08241C16.6548 7.24452 16.7192 6.55702 16.7235 6.55273C16.7321 6.54413 17.2048 6.3078 17.7806 6.01991L18.8204 5.49999L19.0395 5.83085C19.336 6.29491 19.7657 7.15858 19.9548 7.66562C20.1138 8.07812 20.3759 9.04921 20.4274 9.39296L20.4532 9.56483L20.0407 9.6164C19.0868 9.73671 18.4681 9.92148 17.4454 10.3855C16.5259 10.8066 16.2079 10.9141 15.8126 10.9441C15.3958 10.9699 15.0349 10.8926 14.3302 10.6219C13.2259 10.1965 12.5684 10.1621 11.9325 10.4973C11.5372 10.7035 11.2923 11.0601 11.1763 11.6016C11.1419 11.7476 11.1075 12.5984 11.086 13.8574C11.0431 15.9801 11.0173 16.2723 10.8282 16.7019C10.7294 16.9297 10.5661 17.123 10.3985 17.209C10.3384 17.2391 10.0977 17.3379 9.86142 17.4238C8.38329 17.9738 7.58837 18.6656 7.38642 19.5723C7.33915 19.7828 7.32196 19.8086 7.24462 19.7828C7.06415 19.7269 6.36806 19.3617 5.96415 19.1082C5.57314 18.8633 5.54306 18.8332 5.41415 18.5754C5.26376 18.266 5.13485 18.1801 4.9286 18.2531C4.81689 18.2961 4.78681 18.2746 4.32704 17.8191C2.80595 16.3152 1.85204 14.4504 1.54696 12.3793C1.43954 11.6445 1.43095 10.4457 1.52978 9.7453C1.60712 9.19101 1.79618 8.33593 1.84345 8.33593C1.86064 8.33593 2.06689 8.47343 2.29892 8.63671C2.84462 9.02343 3.12821 9.15663 3.45907 9.18671C3.86728 9.21679 4.15517 9.11366 4.46884 8.82577C4.81689 8.50351 4.98446 8.14687 5.17353 7.34765C5.25517 7.0039 5.36259 6.63437 5.40556 6.53124C5.64189 5.98554 5.99423 5.70624 7.05126 5.22499C7.76024 4.90702 8.02665 4.55898 8.04384 3.96601C8.04814 3.80702 8.03524 3.48046 8.01806 3.24413C7.98798 2.82734 8.02665 2.37187 8.12118 2.01523L8.16415 1.86054L8.70985 1.72733C9.01493 1.65429 9.41454 1.57265 9.6036 1.54257C10.3856 1.42655 11.6188 1.42655 12.3966 1.54687ZM7.39931 2.37187C7.36923 2.60819 7.36493 2.99491 7.38642 3.6996C7.4036 4.33124 7.36064 4.3871 6.53993 4.74374C5.52157 5.19062 4.99306 5.69765 4.73095 6.47108C4.68368 6.61718 4.60204 6.92655 4.55048 7.15858C4.3872 7.92343 4.16806 8.33163 3.84149 8.48632C3.54501 8.62812 3.2829 8.53358 2.62548 8.06523C2.42353 7.91913 2.20868 7.76874 2.14853 7.73007L2.0454 7.66132L2.14853 7.4078C2.32899 6.94804 2.70712 6.23905 3.04657 5.72773C3.99189 4.30546 5.26376 3.18827 6.81064 2.42343C7.12001 2.27304 7.38212 2.14843 7.39931 2.14843C7.41649 2.14843 7.41649 2.25155 7.39931 2.37187ZM18.67 3.63515C18.8806 3.72538 18.9966 3.74257 19.3145 3.73827C19.5294 3.73398 19.7356 3.73398 19.7743 3.73398C19.9634 3.74257 20.0536 4.04765 19.9075 4.17655C19.8645 4.21093 19.1427 4.58905 18.3048 5.01444L16.7794 5.79218L16.8052 5.46132C16.8181 5.28085 16.8224 5.10468 16.8095 5.0703C16.7665 4.9371 16.6548 4.85546 16.5259 4.85546C16.3325 4.85546 13.9263 6.21327 13.836 6.36796C13.7802 6.47108 13.7845 6.51405 13.8532 6.79765C13.9005 6.96952 13.9434 7.1328 13.952 7.15858C13.9735 7.21444 9.80556 9.32421 9.68095 9.32421C9.43603 9.32421 9.26415 9.21249 8.63251 8.65819C8.26728 8.34023 7.9665 8.06093 7.9579 8.03944C7.94501 7.99648 8.0954 7.94921 8.25439 7.94921C8.31454 7.94921 8.56376 8.04804 8.80439 8.16405C9.04501 8.28007 9.30282 8.3789 9.37157 8.3789C9.46181 8.3789 10.5575 7.73866 13.3419 6.06288C15.4517 4.78671 17.2477 3.70819 17.3251 3.66952C17.7075 3.46327 18.2188 3.45468 18.67 3.63515ZM14.6224 4.46874C14.6739 4.51171 13.5009 5.2121 13.4278 5.18202C13.3934 5.16913 13.0798 4.91132 12.736 4.61054L12.1087 4.06054L12.3278 3.86288L12.5427 3.66093L13.5653 4.04765C14.1282 4.26249 14.6052 4.45155 14.6224 4.46874ZM15.9716 7.64843L15.8341 9.25976L15.6407 9.34999C15.254 9.53046 15.2927 9.56483 15.1165 8.90312C15.0263 8.58085 14.8501 7.94491 14.7255 7.49374L14.4977 6.67304L15.2927 6.22616L16.0919 5.77929L16.1005 5.90819C16.1091 5.97694 16.0489 6.76327 15.9716 7.64843ZM20.5477 10.6219C20.6767 14.3473 18.6485 17.8148 15.3614 19.4949C13.9692 20.2039 12.5684 20.5434 11.0044 20.5434C10.029 20.5434 9.11376 20.4144 8.25868 20.1523L7.94501 20.0578L7.97079 19.8773C8.0954 19.0953 8.7786 18.5281 10.2395 17.9824C10.9142 17.7289 11.1333 17.5527 11.3653 17.0887C11.6575 16.5 11.6876 16.2164 11.7306 13.9434C11.752 12.723 11.7864 11.8336 11.8165 11.7004C11.8809 11.4168 12.0657 11.159 12.2977 11.0344C12.4524 10.9527 12.547 10.9355 12.8907 10.9355C13.3161 10.9398 13.372 10.9527 14.4462 11.3609C15.1767 11.6359 15.9071 11.6703 16.5774 11.4512C16.7751 11.391 17.2692 11.1848 17.6731 11C18.4466 10.6476 19.0395 10.4457 19.6153 10.3383C20.0923 10.248 20.1481 10.2394 20.3544 10.2309L20.5349 10.2266L20.5477 10.6219Z" fill="#09100D"/>
<path d="M18.8935 7.25312C18.7947 7.36055 18.8033 7.5582 18.9107 7.82891C18.9623 7.95352 19.0482 8.18984 19.1041 8.35312C19.2158 8.67109 19.2931 8.76133 19.4693 8.76562C19.6541 8.76562 19.7873 8.62812 19.783 8.43906C19.7787 8.25 19.4607 7.37773 19.3533 7.25312C19.2545 7.15 18.988 7.15 18.8935 7.25312Z" fill="#09100D"/>
<path d="M6.95664 9.91289C6.69023 10.1664 6.66016 10.2137 6.66016 10.3598C6.66016 10.5574 6.78906 10.6992 6.97383 10.6992C7.06836 10.6992 7.16719 10.6305 7.39492 10.4113C7.66133 10.1578 7.69141 10.1105 7.69141 9.96016C7.69141 9.7582 7.57109 9.625 7.38633 9.625C7.27891 9.625 7.19297 9.68516 6.95664 9.91289Z" fill="#09100D"/>
<path d="M6.00706 11.0902C5.94261 11.1246 5.48284 11.8508 5.31097 12.1902C5.21644 12.375 5.22073 12.6027 5.31956 12.6887C5.42698 12.7832 5.6848 12.7832 5.76644 12.6844C5.80081 12.6457 5.98558 12.3363 6.18323 12.0012C6.55277 11.3609 6.56995 11.2965 6.41097 11.116C6.34222 11.0344 6.12308 11.0215 6.00706 11.0902Z" fill="#09100D"/>
<path d="M4.84688 13.3633C4.76524 13.4105 4.56758 14.0035 4.44727 14.5406C4.38711 14.8156 4.38282 14.8801 4.43438 14.9789C4.51602 15.1508 4.73516 15.2109 4.88555 15.0992C4.97579 15.0305 5.02305 14.9145 5.13477 14.502C5.21211 14.2184 5.29805 13.8918 5.33243 13.7801C5.38399 13.5996 5.37969 13.5566 5.32383 13.4578C5.27657 13.3676 5.225 13.3375 5.0918 13.3332C4.99727 13.3246 4.88555 13.3418 4.84688 13.3633Z" fill="#09100D"/>
<path d="M4.33984 15.8555C4.2668 15.9285 4.25391 15.9973 4.25391 16.341C4.25391 16.9426 4.33125 17.4453 4.43867 17.5656C4.56328 17.7031 4.79531 17.6816 4.91133 17.5269C4.98867 17.4195 4.98867 17.3852 4.9457 17.0586C4.91992 16.8609 4.89844 16.543 4.89844 16.3496C4.89844 16.0574 4.88125 15.9758 4.8082 15.8812C4.69648 15.7394 4.46875 15.7266 4.33984 15.8555Z" fill="#09100D"/>
</svg>
