<svg width="70" height="70" viewBox="0 0 70 70" fill="none" xmlns="http://www.w3.org/2000/svg">
<g clip-path="url(#clip0_1417_9722)">
<path d="M43.5998 0.30056C43.2717 0.478294 40.2366 3.00759 36.8733 5.93337C30.0647 11.867 30.0784 11.8533 30.0784 13.4392C30.0784 14.5603 30.3108 15.2166 30.9397 15.9412C31.6233 16.7205 32.3205 17.076 33.3596 17.1853L34.1936 17.2674L34.1526 19.2498L34.1116 21.2322L33.2229 21.533C31.2952 22.1892 29.8323 22.9959 28.4651 24.158L27.7405 24.7732L26.9748 24.1033C26.5373 23.7478 25.5803 22.9138 24.8147 22.2439C24.0627 21.5877 23.2014 20.9314 22.8869 20.781C22.0666 20.3845 20.6448 20.4119 19.7561 20.8357C19.0041 21.2049 14.1233 25.4021 13.8362 25.9353C13.4534 26.6599 13.9866 27.4802 14.8342 27.4802C15.1897 27.4802 15.6819 27.1111 17.678 25.3748C20.8362 22.6131 20.7268 22.6951 21.3147 22.6951C21.9162 22.6951 22.0666 22.8045 24.4319 24.8689L26.2229 26.4138L25.635 27.2615C23.9123 29.7498 23.1057 32.4431 23.1057 35.7381C23.1057 38.951 23.9807 41.7127 25.8127 44.2967C26.592 45.4041 28.26 47.0584 29.2991 47.7693L30.0784 48.3025V56.5877V64.8728L29.7502 65.5564C29.3537 66.4178 28.4241 67.2791 27.5354 67.6209C26.9202 67.867 26.4416 67.8806 21.26 67.8806C15.8186 67.8806 15.6409 67.867 15.0256 67.5935C14.1643 67.1834 13.344 66.4178 12.9612 65.6521L12.6467 65.0095L12.5784 50.5447L12.51 36.0662L12.1819 35.8064C11.9221 35.6013 11.6487 35.5467 10.678 35.5467C9.76195 35.5467 9.40648 35.492 9.07836 35.2869C8.51781 34.9451 8.24437 34.1931 8.47679 33.6463C8.55882 33.4275 9.52953 32.4705 10.6096 31.5135C11.7034 30.5701 12.6467 29.6267 12.7287 29.449C13.0022 28.697 12.4963 28.0271 11.6623 28.0271C11.2932 28.0271 10.883 28.3279 9.06468 29.9138C6.76781 31.9236 6.39867 32.4021 6.22093 33.6599C6.09789 34.4529 6.41234 35.5603 6.94554 36.3123C7.47875 37.0369 8.55882 37.6111 9.58422 37.6931L10.3909 37.7752V51.3377C10.3909 64.2576 10.4045 64.9549 10.6506 65.7478C11.1838 67.4568 12.2912 68.7283 13.9182 69.4939L14.8342 69.9314H21.3284H27.8225L28.7522 69.4939C30.0237 68.8924 31.0627 67.867 31.6916 66.5955L32.1975 65.5701L32.2385 57.531C32.2522 53.115 32.3205 49.492 32.3889 49.492C32.4436 49.492 32.8537 49.615 33.2912 49.7654C34.1526 50.0662 35.9573 50.4217 36.9006 50.4763L37.4885 50.5174L35.9162 51.8709C33.9338 53.5662 33.5647 54.1541 33.5647 55.6443C33.5647 56.4373 33.6467 56.8064 33.8655 57.2303C34.5354 58.5017 35.6291 59.1853 36.9553 59.199H37.7346V62.1385C37.7346 64.7498 37.762 65.1873 38.0217 65.9256C38.6233 67.7166 40.0178 69.1111 41.8225 69.7263C42.6565 69.9998 42.8616 70.0135 48.9182 69.9724L55.1662 69.9314L56.0823 69.4939C58.2561 68.4685 59.8147 66.1033 58.9123 65.201C58.7073 64.9959 58.5022 64.9412 58.0647 64.9685C57.5452 65.0095 57.4495 65.0779 57.053 65.6795C56.4241 66.6502 55.9455 67.0877 55.0979 67.5115L54.3459 67.8806H48.7405C42.3967 67.8806 42.342 67.867 41.1799 66.8006C40.0178 65.7342 40.0041 65.6521 39.9221 61.4412C39.8401 57.0115 39.8811 57.1482 38.4319 57.1482C37.9397 57.1482 37.2971 57.1072 37.0237 57.0662C36.012 56.8885 35.4104 55.7947 35.8889 55.0017C36.176 54.5369 47.4006 44.7478 48.0705 44.3924C48.3713 44.2283 48.6584 44.1599 48.9182 44.2283C49.1643 44.2693 51.3928 46.115 54.9065 49.1638C57.9827 51.8435 60.7307 54.2498 61.0041 54.5232C61.6741 55.1931 61.7834 55.699 61.3596 56.3279C60.9495 56.9295 60.3752 57.1345 59.0354 57.1345C58.0784 57.1482 57.969 57.1756 57.7092 57.5037C57.4495 57.8318 57.4221 58.0506 57.4221 59.9646C57.4221 62.2068 57.5178 62.6306 58.0647 62.8767C58.5705 63.1092 58.9123 63.0545 59.2678 62.6853C59.5959 62.3709 59.6096 62.2752 59.6096 60.7713V59.199H60.2385C61.2092 59.199 61.8928 58.9392 62.6174 58.283C64.0803 56.9705 64.217 54.701 62.8909 53.2791C62.6037 52.9646 60.9768 51.5017 59.2815 50.0388L56.2053 47.3728L56.1916 32.2927V17.2263H56.6428C58.0237 17.2263 59.3909 16.3513 59.9651 15.1072C60.512 13.9451 60.3479 12.3045 59.5823 11.3611C58.9944 10.6365 47.2366 0.505638 46.6897 0.259544C45.883 -0.109596 44.3791 -0.0959244 43.5998 0.30056ZM51.2971 6.99978C54.3323 9.62478 57.094 12.072 57.4631 12.4412C58.2698 13.2615 58.3245 13.822 57.7092 14.5193C57.3127 14.9705 57.2854 14.9705 55.9455 15.0115C53.758 15.0935 54.0178 13.0974 53.9768 30.5291L53.9358 45.3767L52.9787 44.5427C52.4592 44.0916 51.7893 43.5037 51.4885 43.2439L50.969 42.7654L51.4475 41.7263C52.0627 40.4002 52.3225 39.4978 52.5686 37.8709C53.7307 30.3103 49.0139 23.1736 41.5901 21.2322C40.4963 20.9588 39.9084 20.8904 38.3225 20.8631L36.3674 20.8494V18.3064C36.3674 15.0115 36.4084 15.0799 34.4397 15.0115C33.0862 14.9705 33.0588 14.9705 32.6623 14.5193C32.1975 13.9998 32.1291 13.2342 32.5119 12.7693C32.6897 12.5369 37.8303 8.03884 43.9963 2.72048C44.5979 2.20095 44.9397 2.0779 45.4866 2.15993C45.6643 2.20095 48.2756 4.37478 51.2971 6.99978ZM41.0022 23.365C43.2717 23.9666 45.2131 25.0877 46.9084 26.7967C50.5862 30.5154 51.5842 36.1209 49.4104 40.865L48.9182 41.9451L48.2073 42.0271C47.8245 42.0818 47.2502 42.2732 46.9358 42.451C46.6213 42.6287 44.9944 43.9549 43.3264 45.4177C41.0842 47.3728 40.1682 48.0838 39.7991 48.1658C38.9104 48.3709 35.7248 48.1795 34.6037 47.8513C29.7912 46.4568 26.3459 42.6834 25.4162 37.7615C25.1838 36.5037 25.3342 33.5506 25.6897 32.2927C26.3049 30.1736 27.2209 28.6013 28.7795 26.947C30.6662 24.9646 32.8674 23.7478 35.6291 23.1736C36.969 22.8865 39.5256 22.9822 41.0022 23.365Z" fill="#09100D"/>
<path d="M37.1192 27.4121C36.8731 27.6445 36.7774 27.8906 36.7774 28.2871C36.7774 28.793 36.7364 28.834 36.2852 28.9844C35.6427 29.2031 34.7813 29.9824 34.4259 30.6797C34.2755 30.9805 34.1114 31.6094 34.0704 32.0742C33.92 34.084 34.795 35.082 37.7755 36.2441C38.5411 36.5449 39.3067 36.9414 39.4845 37.1055C40.1954 37.8027 39.963 39.1562 39.0196 39.8672C38.5684 40.2227 38.3907 40.2637 37.5294 40.2637C36.7364 40.2637 36.422 40.1953 35.8341 39.8809C35.4376 39.6758 34.9454 39.5117 34.7403 39.5117C33.92 39.5117 33.3868 40.4141 33.8243 41.084C34.1388 41.5625 35.3692 42.2324 36.1349 42.3281L36.7774 42.4238V42.998C36.7774 43.6953 37.2013 44.1602 37.8302 44.1602C38.4727 44.1602 38.8419 43.7773 38.9239 43.0391C38.9923 42.4238 39.0333 42.3828 39.7306 42.041C41.2618 41.2891 42.1915 39.6758 42.0821 37.9395C41.9591 36.0527 41.1524 35.1504 38.8009 34.2617C37.6524 33.8379 36.8321 33.4141 36.504 33.0859C36.0938 32.6758 36.1485 31.9512 36.6134 31.4316C36.9415 31.0625 37.1192 30.9805 37.7755 30.9258C38.4181 30.8711 38.6641 30.9258 39.2384 31.2266C40.086 31.6641 40.5235 31.6777 40.9474 31.2402C41.5489 30.6523 41.3302 29.8594 40.4278 29.3398C40.0997 29.1484 39.6349 28.9434 39.4024 28.9023C39.0059 28.8203 38.9649 28.7656 38.9649 28.3418C38.9649 28 38.8556 27.7539 38.5684 27.4668C38.0763 26.9746 37.5704 26.9609 37.1192 27.4121Z" fill="#09100D"/>
</g>
<defs>
<clipPath id="clip0_1417_9722">
<rect width="70" height="70" fill="white"/>
</clipPath>
</defs>
</svg>
