<svg width="80" height="76" viewBox="0 0 80 76" fill="none" xmlns="http://www.w3.org/2000/svg">
<g clip-path="url(#clip0_1417_10602)">
<path d="M36.2029 0.345764C23.2967 2.31414 13.6717 11.8916 12.3592 24.0544C12.2654 24.8917 12.1873 26.816 12.1873 28.3437V31.12L11.2186 31.1347C7.46857 31.1641 4.29669 33.6906 3.49982 37.3189C3.31232 38.1856 3.26544 39.5811 3.31232 45.4274C3.35919 52.4783 3.35919 52.493 3.73419 53.3744C4.23419 54.5642 5.03107 55.6659 5.90607 56.4004C6.79669 57.1349 8.51544 57.9428 9.67169 58.1484C10.1248 58.2219 12.3748 58.2953 14.6717 58.2953C18.5623 58.2953 18.8592 58.2806 19.3436 58.0015C20.3436 57.4286 20.3123 57.884 20.3123 44.9133C20.3123 36.3347 20.2654 32.9855 20.1248 32.5595C20.0311 32.2511 19.7029 31.7957 19.4217 31.5607C18.9217 31.1494 18.8123 31.12 17.5779 31.12H16.2498V29.0194C16.2654 24.8917 16.6092 22.3064 17.5311 19.6623C18.8123 15.9606 20.8436 12.9639 23.9217 10.1876C27.1717 7.26446 31.1873 5.29608 35.7811 4.37065C37.1873 4.07686 37.8592 4.03279 40.5467 4.03279C43.9842 4.04749 45.3436 4.23844 48.1717 5.1198C54.8436 7.22039 60.2811 12.0532 62.9061 18.208C64.2342 21.3369 64.5311 22.9527 64.6404 27.4623L64.7342 31.0906L63.3123 31.1347C62.1717 31.1787 61.8436 31.2522 61.5623 31.4872C60.7654 32.1482 60.7811 31.8691 60.7811 44.8546C60.7811 57.9868 60.7498 57.5902 61.6092 58.0309C61.7967 58.1337 62.5779 58.2513 63.3592 58.2953L64.7654 58.3688L63.3592 59.7055C62.5779 60.44 61.5154 61.3213 60.9686 61.6592C58.7029 63.0987 55.6873 64.0829 53.3123 64.2004L52.1873 64.2445L51.7498 63.0547C51.4998 62.4083 51.0467 61.4976 50.7186 61.0422C49.4686 59.2648 47.1248 57.7224 44.9217 57.1936C43.8436 56.9292 41.4686 56.8998 40.2811 57.1349C39.1248 57.3552 37.1092 58.2953 36.1561 59.0592C34.5623 60.3371 33.3904 62.0705 32.8904 63.9507C32.5936 65.0818 32.5936 67.1971 32.9061 68.3429C33.7811 71.5892 36.6561 74.3067 40.0779 75.1147C41.2811 75.3937 43.7342 75.3937 44.9217 75.1147C48.5311 74.2333 51.1561 71.8389 52.0311 68.6073L52.2029 67.9903H53.1873C56.2654 67.9903 60.2029 66.7564 63.3279 64.8027C64.9373 63.7891 67.3904 61.4388 68.6717 59.6467C69.3436 58.7213 69.8748 58.1191 70.0779 58.0897C71.6717 57.7959 72.3123 57.6343 73.1248 57.2377C74.9529 56.3857 76.2029 54.8286 76.5623 52.9631C76.6717 52.4196 76.7186 49.658 76.6873 45.1777L76.6404 38.2443L76.2186 37.0692C75.0467 33.8228 72.4686 31.5019 69.7029 31.1934L68.7498 31.0906V27.903C68.7498 23.4521 68.4529 21.4691 67.3279 18.2668C65.7967 13.9628 63.5467 10.6136 59.9686 7.39666C57.8279 5.45766 55.8748 4.165 53.2029 2.9164C50.7811 1.78532 48.9061 1.15368 46.3279 0.610168C44.8592 0.301697 44.1092 0.242935 41.0936 0.198868C38.5311 0.1548 37.2029 0.198868 36.2029 0.345764ZM16.0936 44.7223V54.5055L13.2498 54.4467C9.98419 54.388 9.42169 54.2411 8.42169 53.1981C7.42169 52.1552 7.42169 52.1699 7.42169 44.7811V38.0974L7.84357 37.2895C8.34357 36.3347 8.48419 36.1584 9.23419 35.6296C9.99982 35.0861 10.7342 34.9686 13.6404 34.9539L16.0936 34.9392V44.7223ZM69.9373 35.2624C70.6248 35.6149 71.5467 36.6138 71.9686 37.4952C72.6092 38.8172 72.6717 39.772 72.6248 46.25C72.5779 52.9631 72.5936 52.8309 71.5623 53.6388C70.8279 54.2264 70.1404 54.3586 67.3904 54.432L64.8436 54.5055V44.7077V34.9098L67.1561 34.9686C68.8904 35.0127 69.5623 35.0861 69.9373 35.2624ZM44.9529 61.3213C46.7186 62.1146 47.7811 63.4366 48.1404 65.2728C48.6092 67.6671 47.3436 69.8852 44.8592 71.031C44.0936 71.3836 43.7967 71.4423 42.5779 71.4423C41.3904 71.4423 41.0311 71.3836 40.2967 71.0604C38.0467 70.0615 36.5467 67.77 36.7654 65.6253C36.9842 63.3485 38.9842 61.2626 41.4061 60.8072C42.5467 60.5869 43.7186 60.7484 44.9529 61.3213Z" fill="#303030"/>
</g>
<defs>
<clipPath id="clip0_1417_10602">
<rect width="80" height="75.2096" fill="white" transform="translate(0 0.125488)"/>
</clipPath>
</defs>
</svg>
