<svg width="70" height="70" viewBox="0 0 70 70" fill="none" xmlns="http://www.w3.org/2000/svg">
<path d="M3.38964 29.7295L3.50017 54.5177L13.9265 59.3765L24.3528 64.2354L34.4844 59.5001C40.0844 56.9059 44.837 54.7648 45.0949 54.7648C45.316 54.7648 50.0317 56.7001 55.5581 59.0883C61.1212 61.4765 65.8002 63.3295 65.9844 63.2059C66.1686 63.0412 66.316 52.953 66.316 38.5412C66.316 19.4765 66.2054 14.0001 65.8739 13.7118C65.137 13.0942 45.7949 4.94123 45.0212 4.94123C44.6528 4.94123 39.8633 7.04123 34.3739 9.63535L24.3528 14.2883L14.3686 9.63535C8.84227 7.04123 4.12648 4.94123 3.83174 4.94123C3.38964 4.94123 3.31596 8.52359 3.38964 29.7295ZM22.2896 14.7001L23.7633 15.3177L23.6528 30.0177C23.5791 44.4295 23.5423 44.6765 22.7686 45.3354C21.9581 46.0354 22.1423 47.0648 23.0265 46.6942C23.616 46.4059 23.8738 51.553 23.5791 58.3059L23.3949 62.4648L14.3686 58.2236C9.3949 55.8765 5.04753 53.9412 4.71596 53.9412C4.08964 53.9412 4.0528 52.5412 4.0528 30.1001V6.25888L12.4528 10.1706C17.0581 12.3118 21.4791 14.3706 22.2896 14.7001ZM44.5791 29.8118V53.4059L34.9265 57.9354L25.237 62.4648L25.1265 53.8177L25.0528 45.1295L26.5265 43.4412C27.337 42.5354 28.0002 41.6295 28.0002 41.4648C28.0002 40.8471 27.0791 41.2177 26.0844 42.2883L25.0528 43.4001V29.3589V15.3589L34.7423 10.8295C40.0475 8.3177 44.4317 6.25888 44.5054 6.2177C44.5423 6.17653 44.5791 16.8001 44.5791 29.8118ZM55.6317 10.6236L65.0265 14.6589L65.137 38.2118C65.1739 51.1824 65.1739 61.7648 65.0633 61.7648C64.9896 61.7648 60.8265 59.9942 55.816 57.853C50.8054 55.7118 46.4581 53.9412 46.2002 53.9412C45.7581 53.9412 45.6844 50.153 45.6844 30.2648C45.6844 17.253 45.7949 6.58829 45.9791 6.58829C46.1265 6.58829 50.4739 8.40005 55.6317 10.6236Z" fill="#09100D"/>
<path d="M8.10547 16.5532C8.10547 16.8414 8.87915 17.9532 9.83705 19.0237L11.5686 21.0002L9.83705 22.9767C8.87915 24.0473 8.10547 25.0767 8.10547 25.2414C8.10547 25.9826 9.13705 25.3649 10.7213 23.6355L12.416 21.7826L14.3318 23.7179C16.9107 26.312 17.6107 25.612 15.1423 22.8943L13.3002 20.8767L14.9581 18.7767C15.8423 17.6237 16.5792 16.5532 16.5792 16.3884C16.5792 15.6061 15.5476 16.2237 14.0002 17.912L12.3055 19.7649L10.4265 17.912C8.43705 15.9355 8.10547 15.7708 8.10547 16.5532Z" fill="#09100D"/>
<path d="M51.2109 42.2882C51.2109 42.7412 51.4688 43.9765 51.8004 45.0471C52.132 46.1176 52.353 47.0235 52.2793 47.1059C52.2057 47.1882 51.3951 47.5176 50.5109 47.8471C48.5951 48.5471 47.8583 49.7 49.5899 49.2471C53.1267 48.3824 52.7951 48.2588 53.6425 51.1C54.0478 52.5 54.5636 53.7353 54.8214 53.8588C55.4478 54.0647 55.3372 52.5 54.5636 50.0294L53.9004 47.9706L56.2951 47.1471C57.6214 46.6941 58.7636 46.0765 58.8741 45.7882C59.0583 45.1294 58.0636 45.2118 55.632 46.0765L53.6057 46.7765L52.832 44.3059C52.0951 41.8765 51.2109 40.8059 51.2109 42.2882Z" fill="#09100D"/>
</svg>
