<svg width="70" height="70" viewBox="0 0 70 70" fill="none" xmlns="http://www.w3.org/2000/svg">
<path d="M12.7832 2.44727C12.4824 2.58398 12.0449 2.91211 11.7988 3.1582C10.8965 4.11523 10.9375 3.33594 10.9375 17.2539V29.873L7.99805 32.8125C6.37109 34.4258 4.9082 35.9707 4.74414 36.2305C4.44336 36.6953 4.44336 36.832 4.375 42.3145C4.30664 47.2363 4.26562 47.9883 4.06055 48.4531C3.9375 48.7402 3.25391 49.5605 2.57031 50.2715L1.3125 51.543L2.11914 52.3633L2.93945 53.1836L4.2793 51.8574C5.25 50.873 5.74219 50.2715 6.05664 49.6289L6.49414 48.7539L6.57617 43.1348C6.61719 40.0586 6.6582 37.502 6.67188 37.4746C6.75391 37.2695 12.6055 31.4863 13.043 31.1582C14.5195 30.0645 16.4473 31.3086 16.0645 33.1133C15.9824 33.4551 15.4082 34.1387 13.6582 35.9023C12.2773 37.2969 11.2656 38.4316 11.1426 38.7324C10.9648 39.1562 10.9375 40.3184 10.9375 46.8262C10.9375 55.1934 10.9102 54.9746 11.7988 55.9043C12.6738 56.8203 12.9336 56.875 16.748 56.875H20.1523L19.4141 57.6406C18.3066 58.7754 17.8418 58.9395 15.3945 59.0625C12.373 59.1992 12.5098 59.1172 8.13477 63.4648L4.58008 66.9785L5.44141 67.8398L6.28906 68.7012L9.74805 65.2559C12.1543 62.8496 13.3574 61.7422 13.7402 61.5781C14.123 61.4277 14.916 61.3184 16.3379 61.25C18.2246 61.168 18.457 61.127 19.1953 60.7578C19.6738 60.5254 20.4805 59.9238 21.123 59.3086L22.2441 58.2559L22.9414 59.1035C23.3242 59.582 24.1719 60.4844 24.8418 61.1133C28.2324 64.3672 31.9785 66.3496 36.8457 67.4297C38.0898 67.7031 38.582 67.7305 42.5195 67.7441C46.1426 67.7441 47.0312 67.7031 48.1113 67.498C57.9414 65.584 65.3516 58.2695 67.4297 48.4395C67.7031 47.1406 67.7441 46.5664 67.7441 43.75C67.7441 40.9336 67.7031 40.3594 67.4297 39.0605C65.9668 32.1426 61.9062 26.4414 55.8906 22.8867C52.6641 20.9863 48.1934 19.6875 44.8574 19.6875H43.75V12.168C43.75 3.86914 43.7773 4.08789 42.8887 3.1582C42.6426 2.91211 42.2051 2.58398 41.9043 2.44727C41.3848 2.20117 40.7012 2.1875 27.3438 2.1875C13.9863 2.1875 13.3027 2.20117 12.7832 2.44727ZM17.9922 5.63281C18.3066 6.9043 18.6758 7.62891 19.25 8.08008C20.1113 8.75 20.0977 8.75 27.3438 8.75C34.5898 8.75 34.5762 8.75 35.4375 8.08008C36.0117 7.62891 36.3809 6.9043 36.6953 5.63281L36.9961 4.44336L38.5684 4.40234C39.457 4.375 40.3594 4.42969 40.6465 4.51172C41.5762 4.78516 41.5625 4.68945 41.5625 12.6465V19.6875H29.5312H17.5V24.7598V29.832L16.9395 29.3398C16.2012 28.7109 15.3535 28.4375 14.123 28.4375H13.125V17.0352C13.125 8.90039 13.166 5.52344 13.2754 5.19531C13.5215 4.51172 14 4.375 15.9824 4.41602L17.6914 4.44336L17.9922 5.63281ZM34.5898 4.48438C34.5898 4.55273 34.4941 4.9082 34.3848 5.29102C34.002 6.57617 34.4805 6.49414 27.3438 6.49414C20.207 6.49414 20.6855 6.57617 20.3027 5.29102C20.1934 4.9082 20.0977 4.55273 20.0977 4.48438C20.0977 4.42969 23.3652 4.375 27.3438 4.375C31.3359 4.375 34.5898 4.42969 34.5898 4.48438ZM47.1133 22.1895C56.3555 23.9258 63.082 30.3516 65.1055 39.4023C65.3789 40.6328 65.4199 41.1797 65.4199 43.75C65.4199 46.3203 65.3789 46.8672 65.1055 48.0977C64.1348 52.418 62.125 56.1094 59.1172 59.1172C57.3809 60.8672 55.6445 62.1113 53.3887 63.2188C51.3652 64.2168 50.4355 64.5586 48.3984 65.0234C45.3223 65.7207 40.2227 65.748 37.1055 65.0645C28.6426 63.2324 22.0801 56.6699 20.248 48.207C19.7832 46.0605 19.6875 43.5859 19.6875 32.4297V21.8613L32.8535 21.916C43.832 21.9707 46.1836 22.0117 47.1133 22.1895ZM17.8965 48.5762C18.2793 50.3398 18.7715 51.8574 19.4277 53.375C19.7148 54.0449 19.9609 54.6191 19.9609 54.6465C19.9609 54.7695 14.3418 54.6738 13.9453 54.5371C13.1387 54.25 13.125 54.1816 13.125 46.9355C13.125 42.998 13.1797 40.209 13.2617 39.9219C13.3574 39.5801 13.9727 38.8691 15.4082 37.4199L17.4316 35.4102L17.5137 41.3164C17.582 46.7168 17.623 47.3457 17.8965 48.5762Z" fill="#09100D"/>
<path d="M16.2969 11.2109C15.4492 11.7305 15.3125 12.1543 15.3125 14.2188C15.3125 16.2832 15.4492 16.707 16.2969 17.2266C16.6934 17.459 16.9941 17.5 18.5938 17.5C20.1934 17.5 20.4941 17.459 20.8906 17.2266C21.7383 16.707 21.875 16.2832 21.875 14.2188C21.875 12.1543 21.7383 11.7305 20.8906 11.2109C20.4941 10.9785 20.1934 10.9375 18.5938 10.9375C16.9941 10.9375 16.6934 10.9785 16.2969 11.2109ZM19.6875 14.2188V15.3125H18.5938H17.5V14.2188V13.125H18.5938H19.6875V14.2188Z" fill="#09100D"/>
<path d="M25.0469 11.2109C24.1992 11.7305 24.0625 12.1543 24.0625 14.2188C24.0625 15.8184 24.1035 16.1191 24.3359 16.5156C24.8555 17.3633 25.2793 17.5 27.3438 17.5C28.9434 17.5 29.2441 17.459 29.6406 17.2266C30.4883 16.707 30.625 16.2832 30.625 14.2188C30.625 12.1543 30.4883 11.7305 29.6406 11.2109C29.2441 10.9785 28.9434 10.9375 27.3438 10.9375C25.7441 10.9375 25.4434 10.9785 25.0469 11.2109ZM28.4375 14.2188V15.3125H27.3438H26.25V14.2188V13.125H27.3438H28.4375V14.2188Z" fill="#09100D"/>
<path d="M33.7969 11.2109C32.9492 11.7305 32.8125 12.1543 32.8125 14.2188C32.8125 15.8184 32.8535 16.1191 33.0859 16.5156C33.6055 17.3633 34.0293 17.5 36.0938 17.5C37.6934 17.5 37.9941 17.459 38.3906 17.2266C39.2383 16.707 39.375 16.2832 39.375 14.2188C39.375 12.1543 39.2383 11.7305 38.3906 11.2109C37.9941 10.9785 37.6934 10.9375 36.0938 10.9375C34.4941 10.9375 34.1934 10.9785 33.7969 11.2109ZM37.1875 14.2188V15.3125H36.0938H35V14.2188V13.125H36.0938H37.1875V14.2188Z" fill="#09100D"/>
<path d="M27.0017 28.6973C26.701 28.834 26.2635 29.1621 26.0174 29.4082C25.115 30.3652 25.156 29.6133 25.156 43.3398V55.7812H26.2498H27.3435V54.1406V52.5H29.531H31.7185V53.7715C31.7185 59.1719 36.0799 63.4648 41.5623 63.4648C47.0447 63.4648 51.406 59.1719 51.406 53.7715V52.5H53.5935H55.781V54.1406V55.7812H56.8748H57.9685V43.3398C57.9685 29.6133 58.0096 30.3652 57.1072 29.4082C56.8611 29.1621 56.4236 28.834 56.1228 28.6973C55.6033 28.4512 54.9197 28.4375 41.5623 28.4375C28.2049 28.4375 27.5213 28.4512 27.0017 28.6973ZM54.9607 30.7754C55.7264 31.0488 55.781 31.377 55.781 35.6426V39.4434L54.6873 39.4023L53.5935 39.3477V37.3105C53.5935 35.0273 53.4842 34.5762 52.7322 33.7832C51.8709 32.8809 51.5564 32.8125 48.1248 32.8125C44.6932 32.8125 44.3787 32.8809 43.5174 33.7832C42.7654 34.5762 42.656 35.0273 42.656 37.3242V39.375H41.5623H40.4685V37.2832C40.4685 34.9453 40.3318 34.4668 39.4978 33.6738C38.6502 32.8672 38.3357 32.8125 34.9725 32.8125C31.5682 32.8125 31.24 32.8809 30.3924 33.7832C29.6404 34.5762 29.531 35.0273 29.531 37.3105V39.3477L28.4373 39.4023L27.3435 39.4434V35.6699C27.3435 31.4863 27.3982 31.1172 28.0818 30.8164C28.656 30.5703 54.2498 30.5293 54.9607 30.7754ZM37.4607 35.1504C38.117 35.3828 38.281 35.916 38.281 37.8027V39.375H34.9998H31.7185V37.8164C31.7185 35.9844 31.8689 35.4512 32.4568 35.1914C32.99 34.959 36.8045 34.9316 37.4607 35.1504ZM50.5857 35.1504C51.242 35.3828 51.406 35.916 51.406 37.8027V39.375H48.1248H44.8435V37.8164C44.8435 35.9844 44.9939 35.4512 45.5818 35.1914C46.115 34.959 49.9295 34.9316 50.5857 35.1504ZM54.9607 41.7129C55.7264 41.9863 55.781 42.3145 55.781 46.5527V50.3125H53.3611L50.9275 50.2988L50.408 49.1777C50.1209 48.5625 49.7654 47.9062 49.6287 47.7148L49.3689 47.373L45.4588 51.2695L41.5623 55.166L40.3318 53.9355L39.1014 52.7051L38.2537 53.5664L37.3924 54.4141L39.4842 56.4922L41.5623 58.584L45.1717 54.9746L48.781 51.3652L48.9451 51.9668C49.1912 52.8691 49.0545 55.125 48.699 56.123C48.0564 57.873 46.5662 59.541 44.8982 60.375C42.0818 61.7695 38.4725 61.168 36.2439 58.9395C33.6326 56.3281 33.2908 52.2676 35.41 49.2324C37.5017 46.2793 41.3162 45.2402 44.6932 46.7168C45.1033 46.8945 45.4451 47.0176 45.4588 47.0039C45.7732 46.5254 46.4842 45.2402 46.4842 45.1309C46.4842 44.8984 45.199 44.3105 44.0506 44.0098C42.6424 43.6543 40.4685 43.6543 39.0467 44.0234C36.367 44.707 33.9607 46.6484 32.7986 49.041L32.1971 50.2988H29.7771L27.3435 50.3125V46.5664C27.3435 42.4238 27.3982 42.0547 28.0818 41.7539C28.656 41.5078 54.2498 41.4668 54.9607 41.7129Z" fill="#09100D"/>
<path d="M51.4062 4.92188V6.5625H49.7656H48.125V7.65625V8.75H49.7656H51.4062V10.3906V12.0312H52.5H53.5938V10.3906V8.75H55.2344H56.875V7.65625V6.5625H55.2344H53.5938V4.92188V3.28125H52.5H51.4062V4.92188ZM53.5938 7.65625V8.75H52.5H51.4062V7.65625V6.5625H52.5H53.5938V7.65625Z" fill="#09100D"/>
<path d="M61.25 13.6719V15.3125H59.6094H57.9688V16.4062V17.5H59.6094H61.25V19.1406V20.7812H62.3438H63.4375V19.1406V17.5H65.0781H66.7188V16.4062V15.3125H65.0781H63.4375V13.6719V12.0312H62.3438H61.25V13.6719ZM63.4375 16.4062V17.5H62.3438H61.25V16.4062V15.3125H62.3438H63.4375V16.4062Z" fill="#09100D"/>
</svg>
