<svg width="70" height="70" viewBox="0 0 70 70" fill="none" xmlns="http://www.w3.org/2000/svg">
<g clip-path="url(#clip0_1417_9764)">
<path d="M5.12675 0.328125C4.19707 1.25781 4.7166 2.61133 6.07011 2.80273C6.42558 2.85742 6.9041 3.04883 7.15019 3.22656C7.38261 3.4043 7.73808 3.65039 7.91582 3.78711C8.33964 4.10156 9.15996 4.10156 9.58379 3.78711C9.76152 3.65039 10.117 3.4043 10.3494 3.22656C10.5955 3.04883 11.074 2.85742 11.4295 2.80273C12.783 2.61133 13.3025 1.25781 12.3728 0.328125C11.9217 -0.123047 10.6502 -0.123047 9.54277 0.328125L8.7498 0.65625L7.9705 0.328125C6.84941 -0.123047 5.57793 -0.123047 5.12675 0.328125Z" fill="#09100D"/>
<path d="M54.0721 0.150391C52.6502 0.478516 51.3103 1.16211 50.1756 2.13281C49.4373 2.76172 48.4939 3.89648 48.2342 4.45703C48.1111 4.7168 48.0291 4.73047 47.5916 4.63477C46.7986 4.44336 45.3631 4.49805 44.5564 4.73047C41.8768 5.52344 40.1678 7.42383 39.6346 10.1855C39.4568 11.0879 39.5936 11.7988 40.0174 12.2227L40.3728 12.5781H46.5525H52.7322L53.074 12.2363C53.7303 11.5801 53.6619 10.5137 52.9373 10.0215C52.5955 9.80273 52.1443 9.77539 47.6873 9.73438C44.9939 9.70703 42.7928 9.66602 42.7928 9.625C42.7928 9.40625 43.5857 8.43555 44.0232 8.13477C45.2127 7.31445 46.2244 7.20508 47.7557 7.72461C48.658 8.03906 48.8084 8.05273 49.3006 7.90234C49.7791 7.73828 49.8885 7.61523 50.4217 6.5625C51.1736 5.07227 52.1033 4.11523 53.4432 3.44531C54.4412 2.95312 54.4959 2.93945 56.0408 2.93945C57.5447 2.93945 57.6814 2.9668 58.5564 3.37695C59.7049 3.92383 60.8396 4.99023 61.5369 6.16602C62.1248 7.17773 62.3709 7.32812 63.6561 7.42383C64.1072 7.46484 64.6951 7.60156 64.9549 7.72461C65.5291 8.01172 66.4041 8.83203 66.6639 9.32422L66.8689 9.70703H65.1053C64.1346 9.70703 63.1502 9.74805 62.9041 9.78906C61.7967 10.0078 61.4002 11.375 62.1932 12.1816L62.5896 12.5781H65.8982H69.2068L69.6033 12.1816C69.9588 11.8262 69.9998 11.6895 69.9998 10.9375C69.9998 9.32422 69.2479 7.60156 67.99 6.37109C67.2381 5.63281 65.7342 4.83984 64.7361 4.66211C64.2303 4.56641 63.9842 4.44336 63.7791 4.16992C62.1658 1.96875 60.4295 0.724609 58.242 0.21875C57.2713 -0.0136719 54.9471 -0.0546875 54.0721 0.150391Z" fill="#09100D"/>
<path d="M26.9473 7.75195C26.7012 7.99805 23.9668 13.1387 19.5781 21.6016C15.75 29.0117 12.4961 35.3008 12.3457 35.5879L12.0859 36.1074L11.4844 35.041C10.6641 33.5918 10.418 33.3594 9.65234 33.3594C9.20117 33.3594 8.94141 33.4414 8.69531 33.6602C8.3125 34.0293 3.24023 42.6836 3.08984 43.2441C2.88477 44.0508 3.67773 44.9805 4.58008 44.9805C4.77148 44.9805 4.92188 45.0078 4.92188 45.0488C4.92188 45.0898 4.26563 46.2383 3.47266 47.6055C2.66602 48.9727 1.94141 50.2852 1.83203 50.5312C1.4082 51.543 2.00977 52.3906 3.22656 52.5L3.96484 52.5684L1.98242 55.959C0.259766 58.8984 0 59.4316 0 59.9375C0 60.3887 0.0820313 60.6074 0.355469 60.8945L0.724609 61.25H35H69.2754L69.6445 60.8945C70.4649 60.0742 71.0117 61.1953 59.7461 40.7832C54.0996 30.5703 49.3281 22.0801 49.1367 21.9023C48.6309 21.4512 47.8106 21.4922 47.3184 21.9707C47.127 22.1895 45.1445 25.6348 42.9434 29.627C40.7422 33.6328 38.9238 36.9141 38.9102 36.9141C38.8965 36.9141 38.2402 35.9297 37.4609 34.7266C36.668 33.5371 35.8887 32.4707 35.7246 32.3887C35.3281 32.1699 34.6719 32.1699 34.2754 32.3887C34.084 32.4844 30.625 37.666 25.9902 44.7891C21.6016 51.502 17.9648 56.9844 17.9102 56.9434C17.8145 56.8887 15.4629 52.9375 15.3398 52.6094C15.3125 52.5547 15.6133 52.5 15.9961 52.5C16.5977 52.5 16.7617 52.4453 17.1035 52.1035C17.418 51.7754 17.5 51.584 17.5 51.1055C17.5 50.5996 17.2676 50.1211 15.8594 47.7559L14.2324 44.9805H14.6426C15.1484 44.9805 15.8047 44.6523 15.9961 44.3105C16.3516 43.6406 16.1738 43.0527 14.9844 41.0156L13.8223 39.0332L14.793 37.1602C15.3125 36.1348 15.8184 35.1914 15.9141 35.0684C16.0645 34.8633 16.2148 34.918 17.3496 35.6699C18.0469 36.1211 18.8672 36.5723 19.1816 36.6543C20.3711 36.9688 21.9434 36.4766 22.7363 35.5469C22.9824 35.2598 24.0625 33.4277 25.1563 31.5C26.5098 29.0938 27.248 27.9043 27.4941 27.7676C27.8223 27.5898 27.877 27.6035 28.6563 28.2051C29.8594 29.1211 30.7617 29.3125 32.1426 28.9023C32.7852 28.7109 33.0449 28.5195 34.0703 27.4395C34.7266 26.7559 35.2871 26.2227 35.3145 26.2637C35.3418 26.291 35.7793 27.1113 36.2852 28.0957C36.791 29.0664 37.3789 30.0371 37.6113 30.2422C38.5 31.0762 39.9219 30.4062 39.9219 29.1621C39.9219 28.6562 29.3398 8.24414 28.834 7.75195C28.5332 7.47852 28.3008 7.38281 27.8906 7.38281C27.4805 7.38281 27.248 7.47852 26.9473 7.75195ZM30.8711 17.6504C32.4707 20.7402 33.7559 23.3379 33.7285 23.4199C33.5918 23.7617 31.4043 26.1133 31.1445 26.1953C30.9531 26.25 30.7207 26.1406 30.3789 25.8535C29.4082 25.0332 28.875 24.8145 27.7539 24.8145C25.7578 24.8145 25.2656 25.3203 22.6953 29.9551C20.959 33.0859 20.4258 33.9062 20.125 33.9062C20.0566 33.9062 19.4004 33.5234 18.6758 33.0449L17.3633 32.1836L22.5996 22.1074C25.4707 16.5703 27.8496 12.0312 27.8906 12.0312C27.9316 12.0312 29.2715 14.5605 30.8711 17.6504ZM53.3203 35.1641C56.0684 40.1406 58.5703 44.6797 58.8984 45.2812L59.4863 46.3477L59.0762 46.7578C58.8574 46.9902 58.5293 47.168 58.3516 47.168C58.1465 47.168 56.9981 46.3477 55.0977 44.8301C53.4844 43.5449 51.9121 42.3691 51.6113 42.2051C51.1738 41.9727 50.8184 41.9043 49.9023 41.9043C48.3848 41.9043 47.9609 42.123 45.9648 43.9824C45.1172 44.7754 44.4063 45.4043 44.3926 45.377C44.3652 45.3496 43.5313 44.0645 42.5332 42.5332C40.7695 39.8262 40.7148 39.7305 40.9063 39.3613C41.3848 38.3906 48.207 26.1133 48.2617 26.1133C48.3027 26.1133 50.5723 30.1875 53.3203 35.1641ZM10.9102 39.8125C11.6074 41.002 12.168 42 12.168 42.041C12.168 42.082 11.9492 42.1094 11.6758 42.1094C11.293 42.1094 11.0742 42.2188 10.7051 42.5879C9.99414 43.2988 10.0762 43.6133 11.9492 46.8125C12.8242 48.3027 13.5352 49.5469 13.5352 49.5742C13.5352 49.6016 13.3164 49.6289 13.043 49.6289C12.3867 49.6289 11.6895 49.9707 11.498 50.3945C11.1563 51.1465 11.293 51.4883 13.3301 54.9609C14.4238 56.834 15.3125 58.3926 15.3125 58.4336C15.3125 58.4746 12.7285 58.5156 9.58399 58.5156H3.8418L5.63281 55.4805C6.60352 53.7988 7.51953 52.1992 7.66992 51.9258C8.03906 51.2012 7.99805 50.668 7.54688 50.1621C7.23242 49.8066 7.02734 49.7109 6.45313 49.6562C6.05664 49.6289 5.74219 49.5605 5.74219 49.5332C5.74219 49.4922 6.39844 48.3438 7.20508 46.9766C7.99805 45.623 8.73633 44.3105 8.83203 44.0645C9.22852 43.1211 8.55859 42.1094 7.51953 42.1094H6.98633L8.3125 39.8535C9.03711 38.623 9.63867 37.625 9.63867 37.6387C9.65234 37.6523 10.2266 38.6367 10.9102 39.8125ZM33.6328 42.834V47.2363L29.9824 52.8691L26.3184 58.502L23.4199 58.5156H20.5078L21.5742 56.8887C22.1484 55.9863 25.0879 51.4746 28.0957 46.8398C31.1035 42.2188 33.5781 38.4316 33.6055 38.4316C33.6191 38.418 33.6328 40.4004 33.6328 42.834ZM40.8242 45.2129L41.5625 46.3477H38.9648H36.3672V42.3691V38.377L38.2266 41.2344C39.2656 42.8066 40.4277 44.5977 40.8242 45.2129ZM53.1836 47.0449C54.7969 48.3301 56.3691 49.5059 56.6699 49.6562C57.7773 50.2305 59.6777 50.0801 60.6211 49.3418L60.9629 49.0684L61.1543 49.3828C61.3867 49.7383 65.6113 57.4082 65.9531 58.0645L66.1856 58.5156H59.5684H52.9648L49.5195 53.2383C47.6328 50.3262 46.1152 47.9062 46.1426 47.8379C46.1836 47.7832 46.9492 47.0449 47.8516 46.2246C49.1231 45.0488 49.5606 44.707 49.8613 44.707C50.1484 44.707 50.9688 45.2812 53.1836 47.0449ZM42.793 53.1426C42.793 55.2891 42.7656 57.0254 42.7383 56.998C42.6152 56.875 37.7344 49.3418 37.7344 49.2871C37.7344 49.2461 38.8691 49.2188 40.2637 49.2188H42.793V53.1426ZM37.666 54.5508L40.1953 58.4473L37.5977 58.4883C36.1758 58.502 33.8379 58.502 32.4023 58.4883L29.8047 58.4473L32.3613 54.5098C33.7695 52.3496 34.959 50.5996 35.0273 50.6133C35.082 50.6406 36.2715 52.4043 37.666 54.5508ZM46.3203 53.6211C46.6074 54.0996 47.4551 55.3848 48.166 56.4922L49.4922 58.5156H47.5781H45.6641V55.6445C45.6641 54.0586 45.6914 52.7734 45.7188 52.7734C45.7461 52.7734 46.0195 53.1562 46.3203 53.6211Z" fill="#09100D"/>
<path d="M11.1699 9.16016C10.377 10.1035 10.8828 11.3613 12.127 11.5527C12.9199 11.6621 13.1934 11.7988 13.7676 12.3457C14.1231 12.6875 14.3281 12.7559 14.834 12.7559C15.3398 12.7559 15.5449 12.6875 15.9004 12.3457C16.4746 11.7988 16.7481 11.6621 17.5273 11.5527C18.4434 11.416 18.8672 10.9648 18.8672 10.1172C18.8672 9.59766 18.7988 9.39258 18.4981 9.0918C18.1289 8.73633 18.0606 8.72266 17.0898 8.77734C16.3926 8.81836 15.8731 8.94141 15.4766 9.14648L14.875 9.44727L14.2461 9.14648C13.8223 8.95508 13.2481 8.81836 12.5645 8.77734C11.5391 8.72266 11.5391 8.72266 11.1699 9.16016Z" fill="#09100D"/>
<path d="M57.1758 9.8713C56.6836 10.008 56.1914 10.6506 56.1914 11.1838C56.1914 12.3596 57.6953 13.0432 58.5566 12.2502C59.6914 11.1975 58.6934 9.47482 57.1758 9.8713Z" fill="#09100D"/>
<path d="M0.65625 14.4236C0.177734 14.6971 0 15.0252 0 15.6541C0 16.5017 0.642578 17.0896 1.55859 17.0896C1.83203 17.0896 2.17383 17.281 3.13086 17.9783C3.80078 18.4705 4.34766 18.4295 5.12695 17.8279C5.86523 17.281 6.15234 17.1443 6.89062 17.0213C7.60156 16.8982 8.06641 16.3924 8.06641 15.6951C8.06641 15.0115 7.88867 14.6834 7.35547 14.4099C6.78125 14.1092 5.52344 14.2185 4.67578 14.656L4.0332 14.9705L3.34961 14.6424C2.48828 14.2322 1.17578 14.1228 0.65625 14.4236Z" fill="#09100D"/>
<path d="M49.2185 15.0117C48.9588 15.1348 48.658 15.4219 48.5623 15.627C48.1931 16.3926 48.6717 17.4043 49.4646 17.5684C50.4627 17.7734 50.8455 17.9375 51.365 18.3887C52.158 19.0586 52.8416 19.0586 53.6345 18.3887C54.1541 17.9375 54.5369 17.7734 55.5349 17.5684C56.3279 17.4043 56.8064 16.3926 56.4373 15.627C56.3416 15.4219 56.0134 15.1211 55.7263 14.9844C55.2615 14.752 55.0974 14.7383 54.3728 14.875C53.9217 14.957 53.3064 15.1484 53.0056 15.2988C52.5271 15.5312 52.4314 15.5449 52.1717 15.3809C51.8572 15.1621 50.408 14.7656 49.9705 14.7656C49.8201 14.7656 49.4783 14.875 49.2185 15.0117Z" fill="#09100D"/>
<path d="M60.5391 26.1952C60.0605 26.455 59.8828 26.7831 59.8828 27.4394C59.8828 28.328 60.3203 28.7109 61.5645 28.9159C61.8379 28.9569 62.2754 29.1757 62.5215 29.3808C63.5332 30.2694 64.0801 30.2968 65.0918 29.5312C65.4883 29.2304 66.0352 28.9433 66.3086 28.9023C67.498 28.7109 67.9492 28.287 67.9492 27.3847C67.9355 26.5507 67.3203 25.9765 66.4043 25.9765C65.8711 25.9765 64.5996 26.3319 64.1895 26.6054C63.9434 26.7694 63.8613 26.7694 63.6289 26.6054C63.2461 26.3319 61.9609 25.9765 61.4004 25.9765C61.127 25.9902 60.7441 26.0722 60.5391 26.1952Z" fill="#09100D"/>
<path d="M7.73828 63.2461C7.45117 63.5332 7.38281 63.7383 7.38281 64.2578C7.38281 64.7773 7.45117 64.9824 7.73828 65.2695L8.10742 65.625H13.9453H19.7832L20.1523 65.2695C20.6582 64.75 20.6582 63.7656 20.1523 63.2461L19.7832 62.8906H13.9453H8.10742L7.73828 63.2461Z" fill="#09100D"/>
<path d="M50.1348 63.2461C49.5059 63.875 49.5332 64.7227 50.1895 65.3379C50.5039 65.625 50.5449 65.625 59.8555 65.625H69.207L69.6035 65.2285C69.918 64.9141 70 64.709 70 64.2578C70 63.8066 69.918 63.6016 69.6035 63.2871L69.207 62.8906H59.8418H50.4902L50.1348 63.2461Z" fill="#09100D"/>
<path d="M22.5039 67.6211C22.2168 67.9082 22.1484 68.1133 22.1484 68.6328C22.1484 69.5352 22.6133 70 23.5156 70C24.418 70 24.8828 69.5352 24.8828 68.6328C24.8828 68.1133 24.8145 67.9082 24.5273 67.6211C24.2402 67.334 24.0352 67.2656 23.5156 67.2656C22.9961 67.2656 22.791 67.334 22.5039 67.6211Z" fill="#09100D"/>
<path d="M27.8359 67.6211C27.5488 67.9082 27.4805 68.1133 27.4805 68.6328C27.4805 69.1523 27.5488 69.3574 27.8359 69.6445L28.2051 70H37.666H47.127L47.4961 69.6445C47.7832 69.3574 47.8516 69.1523 47.8516 68.6328C47.8516 68.1133 47.7832 67.9082 47.4961 67.6211L47.127 67.2656H37.666H28.2051L27.8359 67.6211Z" fill="#09100D"/>
</g>
<defs>
<clipPath id="clip0_1417_9764">
<rect width="70" height="70" fill="white"/>
</clipPath>
</defs>
</svg>
