<svg width="70" height="70" viewBox="0 0 70 70" fill="none" xmlns="http://www.w3.org/2000/svg">
<g clip-path="url(#clip0_1417_9758)">
<path d="M29.5146 13.5308C26.731 18.3291 24.4386 22.5122 24.3977 22.8813C24.3567 23.4145 24.7661 23.6195 25.9123 23.7016C26.731 23.7836 27.4269 23.9066 27.4269 23.9886C27.4269 24.3167 24.0702 29.9353 23.7427 30.1403C23.4152 30.3454 22.1053 28.3358 22.1053 27.6797C22.1053 27.5566 22.6784 27.4746 23.3743 27.4746C24.193 27.4746 24.5614 27.3106 24.4795 26.9415C24.193 25.7111 16.1287 12.3414 15.7602 12.4234C15.1462 12.6285 6.95906 26.8184 7.28655 27.1465C7.45029 27.2696 8.06433 27.4746 8.63743 27.5566C9.70175 27.6797 9.66082 27.7207 6.46784 33.1752C4.7076 36.169 3.27485 38.7937 3.27485 38.9988C3.27485 39.1628 3.88889 39.3679 4.66667 39.4499L6.05848 39.573L3.02924 44.6994C1.39181 47.5292 0 50.0719 0 50.3179C0 50.728 1.30994 50.8511 5.11696 50.8511H10.2339V55.3623V59.8736H16.5789H22.924V56.5927V53.3118H25.3801H27.7953L27.9181 59.1354L28.0409 65H36.0234H44.0058L44.1287 59.1354L44.2515 53.3118H46.462H48.7135V56.5927V59.8736H55.0585H61.4035V55.3623V50.8511H65.7018C69.1813 50.8511 70 50.728 70 50.2769C70 49.9488 68.731 47.4471 67.1345 44.7404C65.5789 42.0336 64.269 39.737 64.269 39.614C64.269 39.4909 64.8421 39.3679 65.4971 39.3679C66.193 39.3679 66.7251 39.1628 66.7251 38.8758C66.7251 38.6297 65.3333 36.046 63.655 33.1752C61.9766 30.2634 60.5848 27.8027 60.5848 27.6797C60.5848 27.5566 61.1579 27.4746 61.8129 27.4746C62.5088 27.4746 63.0409 27.2696 63.0409 27.0645C63.0409 26.2853 54.6901 12.3004 54.2807 12.4234C53.7485 12.5875 45.848 26.1212 45.848 26.8594C45.848 27.2696 46.2573 27.4746 47.076 27.4746H48.345L47.4035 29.0741L46.5029 30.6735L44.538 27.3106L42.614 23.9886L44.2105 23.8656C45.3158 23.7836 45.848 23.5375 45.848 23.1274C45.848 22.1841 35.7778 5.12342 35.1228 5.00039C34.7953 4.95937 32.6257 8.19927 29.5146 13.5308ZM39.6667 14.474C42.1637 18.7392 44.2105 22.3072 44.2105 22.3892C44.2105 22.4712 43.4737 22.5532 42.5731 22.5532C41.5088 22.5532 40.9357 22.7583 40.9357 23.0864C40.9357 23.3735 42.7778 26.7364 44.9883 30.5505L49.0409 37.5224L47.5673 37.6454C46.7076 37.7274 45.8889 37.9325 45.7251 38.0965C45.5205 38.3016 47.117 41.4595 49.2865 45.1505L53.2164 51.8764L43.9649 51.9994C38.8889 52.0404 30.7018 52.0404 25.7895 51.9994L16.8655 51.8764L20.7135 45.3966C22.8421 41.7876 24.5614 38.6297 24.5614 38.3016C24.5614 37.8915 24.0702 37.7274 22.924 37.7274C22.0234 37.7274 21.2866 37.6044 21.2866 37.4814C21.2866 37.3173 23.1287 34.0364 25.3801 30.1403C27.6316 26.2853 29.4737 23.0044 29.4737 22.8403C29.4737 22.7173 28.655 22.5532 27.6725 22.4712L25.8713 22.3482L30.4152 14.515C32.9532 10.1678 35.0409 6.68185 35.0819 6.72286C35.0819 6.72286 37.1696 10.2498 39.6667 14.474ZM19.1988 20.0516C21 23.1684 22.5146 25.8342 22.5146 25.9982C22.5146 26.1212 22.0643 26.2443 21.5322 26.2443C19.9357 26.2443 19.9357 26.8184 21.4912 29.4432L22.9649 31.8628L21.0819 35.0207C20.0585 36.7432 19.2398 38.3426 19.2398 38.5477C19.2398 38.7527 20.0585 38.9578 21.0819 39.0398L22.883 39.1628L19.8129 44.4123L16.7427 49.6207H9.16959H1.55556L2.37427 48.2674C5.97661 42.2387 7.77778 38.8758 7.5731 38.5477C7.45029 38.3016 6.83626 38.1376 6.26316 38.1376C4.95322 38.1376 4.95322 38.1786 8.59649 31.9859C10.152 29.3201 11.462 26.9415 11.462 26.6954C11.462 26.4493 10.9298 26.2443 10.2339 26.2443C9.57895 26.2443 9.00585 26.1622 9.00585 26.0392C9.00585 25.7931 15.6374 14.351 15.7602 14.351C15.8421 14.351 17.3567 16.8937 19.1988 20.0516ZM58.4152 21.1999L61.3626 26.2443H60.1754C59.5205 26.2443 58.9064 26.4083 58.7836 26.5724C58.6608 26.7364 60.0526 29.4021 61.8129 32.437L65.0059 37.9325L63.9415 38.0555C63.3275 38.1376 62.7135 38.3426 62.5497 38.5067C62.386 38.6707 63.614 41.1724 65.2924 44.0432C66.9708 46.955 68.3626 49.3747 68.3626 49.4567C68.3626 49.5387 65.0059 49.6207 60.8713 49.6207H53.4211L50.269 44.2893L47.117 38.9578H48.9591C50.1462 38.9578 50.7602 38.7937 50.7602 38.4246C50.7602 38.1786 49.9415 36.5791 48.9591 34.8977L47.1988 31.8218L48.5497 29.5662C50.269 26.7364 50.269 26.2443 48.6725 26.2443C47.9766 26.2443 47.4854 26.0802 47.5673 25.9162C47.6491 25.7111 49.1637 23.0454 50.9649 19.9695C54.117 14.556 54.2807 14.392 54.8538 15.2122C55.1813 15.7043 56.7778 18.4111 58.4152 21.1999ZM15.5556 51.6303C14.7778 53.1477 15.0643 53.3118 18.4211 53.3118H21.6959V55.9775V58.6432H16.3743H11.0526V54.7472V50.8511H13.5088C15.8421 50.8511 15.9649 50.8921 15.5556 51.6303ZM60.5848 54.7472V58.6432H55.2632H49.9415V55.9775V53.3118H52.6023C54.076 53.3118 55.2632 53.1887 55.2632 52.9837C55.2632 52.8196 54.9766 52.2455 54.6082 51.7533L53.9942 50.8511H57.269H60.5848V54.7472ZM42.9825 58.6432V63.9747H36.0234H29.0643V58.6432V53.3118H36.0234H42.9825V58.6432Z" fill="#09100D"/>
</g>
<defs>
<clipPath id="clip0_1417_9758">
<rect width="70" height="70" fill="white"/>
</clipPath>
</defs>
</svg>
