<svg width="80" height="76" viewBox="0 0 80 76" fill="none" xmlns="http://www.w3.org/2000/svg">
<path d="M14.6094 2.75477C14.2656 2.90166 13.7656 3.2542 13.4844 3.51862C12.4531 4.54687 12.5 3.70957 12.5 18.6634V32.2216L9.14062 35.3799C7.28125 37.1132 5.60938 38.7731 5.42188 39.0522C5.07812 39.5516 5.07812 39.6985 5 45.589C4.92188 50.8771 4.875 51.6851 4.64062 52.1845C4.5 52.493 3.71875 53.3743 2.9375 54.1382L1.5 55.5043L2.42188 56.3857L3.35938 57.267L4.89062 55.8421C6 54.7845 6.5625 54.1382 6.92188 53.4478L7.42188 52.5077L7.51562 46.4703C7.5625 43.1652 7.60938 40.4183 7.625 40.3889C7.71875 40.1686 14.4062 33.955 14.9062 33.6024C16.5938 32.4273 18.7969 33.764 18.3594 35.703C18.2656 36.0703 17.6094 36.8047 15.6094 38.6997C14.0312 40.198 12.875 41.4172 12.7344 41.7404C12.5312 42.1957 12.5 43.4443 12.5 50.4365C12.5 59.4264 12.4688 59.1913 13.4844 60.1902C14.4844 61.1744 14.7812 61.2331 19.1406 61.2331H23.0312L22.1875 62.0558C20.9219 63.275 20.3906 63.4512 17.5938 63.5834C14.1406 63.7303 14.2969 63.6422 9.29688 68.3134L5.23438 72.0886L6.21875 73.014L7.1875 73.9395L11.1406 70.2377C13.8906 67.6524 15.2656 66.4626 15.7031 66.2863C16.1406 66.1247 17.0469 66.0072 18.6719 65.9337C20.8281 65.8456 21.0938 65.8015 21.9375 65.4049C22.4844 65.1552 23.4062 64.5089 24.1406 63.8479L25.4219 62.7168L26.2188 63.6275C26.6562 64.1416 27.625 65.1111 28.3906 65.7869C32.2656 69.2829 36.5469 71.4129 42.1094 72.5733C43.5312 72.8671 44.0938 72.8965 48.5938 72.9112C52.7344 72.9112 53.75 72.8671 54.9844 72.6468C66.2188 70.5903 74.6875 62.7315 77.0625 52.1698C77.375 50.7743 77.4219 50.1574 77.4219 47.1314C77.4219 44.1053 77.375 43.4884 77.0625 42.0929C75.3906 34.6601 70.75 28.5346 63.875 24.7154C60.1875 22.6736 55.0781 21.2781 51.2656 21.2781H50V13.1989C50 4.28246 50.0312 4.51749 49.0156 3.51862C48.7344 3.2542 48.2344 2.90166 47.8906 2.75477C47.2969 2.49036 46.5156 2.47567 31.25 2.47567C15.9844 2.47567 15.2031 2.49036 14.6094 2.75477ZM20.5625 6.17739C20.9219 7.5435 21.3438 8.32204 22 8.80679C22.9844 9.52657 22.9688 9.52657 31.25 9.52657C39.5312 9.52657 39.5156 9.52657 40.5 8.80679C41.1562 8.32204 41.5781 7.5435 41.9375 6.17739L42.2812 4.89941L44.0781 4.85535C45.0938 4.82597 46.125 4.88473 46.4531 4.97286C47.5156 5.26665 47.5 5.16383 47.5 13.713V21.2781H33.75H20V26.7278V32.1776L19.3594 31.6488C18.5156 30.973 17.5469 30.6793 16.1406 30.6793H15V18.4283C15 9.68815 15.0469 6.05988 15.1719 5.70733C15.4531 4.97286 16 4.82597 18.2656 4.87003L20.2188 4.89941L20.5625 6.17739ZM39.5312 4.94348C39.5312 5.01693 39.4219 5.39885 39.2969 5.81016C38.8594 7.19096 39.4062 7.10282 31.25 7.10282C23.0938 7.10282 23.6406 7.19096 23.2031 5.81016C23.0781 5.39885 22.9688 5.01693 22.9688 4.94348C22.9688 4.88473 26.7031 4.82597 31.25 4.82597C35.8125 4.82597 39.5312 4.88473 39.5312 4.94348ZM53.8438 23.9662C64.4062 25.8318 72.0938 32.7358 74.4062 42.4601C74.7188 43.7822 74.7656 44.3698 74.7656 47.1314C74.7656 49.893 74.7188 50.4805 74.4062 51.8026C73.2969 56.4444 71 60.4105 67.5625 63.6422C65.5781 65.5224 63.5938 66.8592 61.0156 68.049C58.7031 69.1213 57.6406 69.4886 55.3125 69.988C51.7969 70.7372 45.9688 70.7665 42.4062 70.0321C32.7344 68.0637 25.2344 61.0128 23.1406 51.9201C22.6094 49.6139 22.5 46.9551 22.5 34.9686V23.6137L37.5469 23.6724C50.0938 23.7312 52.7812 23.7753 53.8438 23.9662ZM20.4531 52.3167C20.8906 54.2116 21.4531 55.8421 22.2031 57.4727C22.5312 58.1924 22.8125 58.8094 22.8125 58.8388C22.8125 58.971 16.3906 58.8682 15.9375 58.7213C15.0156 58.4128 15 58.3393 15 50.554C15 46.3234 15.0625 43.3268 15.1562 43.0183C15.2656 42.6511 15.9688 41.8872 17.6094 40.3302L19.9219 38.1708L20.0156 44.5166C20.0938 50.3189 20.1406 50.9947 20.4531 52.3167Z" fill="#303030"/>
<path d="M18.625 12.1706C17.6562 12.7288 17.5 13.1842 17.5 15.4023C17.5 17.6204 17.6562 18.0758 18.625 18.6339C19.0781 18.8837 19.4219 18.9277 21.25 18.9277C23.0781 18.9277 23.4219 18.8837 23.875 18.6339C24.8438 18.0758 25 17.6204 25 15.4023C25 13.1842 24.8438 12.7288 23.875 12.1706C23.4219 11.9209 23.0781 11.8768 21.25 11.8768C19.4219 11.8768 19.0781 11.9209 18.625 12.1706ZM22.5 15.4023V16.5774H21.25H20V15.4023V14.2271H21.25H22.5V15.4023Z" fill="#303030"/>
<path d="M28.625 12.1706C27.6562 12.7288 27.5 13.1842 27.5 15.4023C27.5 17.1209 27.5469 17.4441 27.8125 17.8701C28.4062 18.7808 28.8906 18.9277 31.25 18.9277C33.0781 18.9277 33.4219 18.8837 33.875 18.6339C34.8438 18.0758 35 17.6204 35 15.4023C35 13.1842 34.8438 12.7288 33.875 12.1706C33.4219 11.9209 33.0781 11.8768 31.25 11.8768C29.4219 11.8768 29.0781 11.9209 28.625 12.1706ZM32.5 15.4023V16.5774H31.25H30V15.4023V14.2271H31.25H32.5V15.4023Z" fill="#303030"/>
<path d="M38.625 12.1706C37.6562 12.7288 37.5 13.1842 37.5 15.4023C37.5 17.1209 37.5469 17.4441 37.8125 17.8701C38.4062 18.7808 38.8906 18.9277 41.25 18.9277C43.0781 18.9277 43.4219 18.8837 43.875 18.6339C44.8438 18.0758 45 17.6204 45 15.4023C45 13.1842 44.8438 12.7288 43.875 12.1706C43.4219 11.9209 43.0781 11.8768 41.25 11.8768C39.4219 11.8768 39.0781 11.9209 38.625 12.1706ZM42.5 15.4023V16.5774H41.25H40V15.4023V14.2271H41.25H42.5V15.4023Z" fill="#303030"/>
<path d="M30.8592 30.9584C30.5155 31.1053 30.0155 31.4578 29.7342 31.7223C28.703 32.7505 28.7498 31.9426 28.7498 46.6907V60.0581H29.9998H31.2498V58.2953V56.5326H33.7498H36.2498V57.8987C36.2498 63.701 41.2342 68.3135 47.4998 68.3135C53.7655 68.3135 58.7498 63.701 58.7498 57.8987V56.5326H61.2498H63.7498V58.2953V60.0581H64.9998H66.2498V46.6907C66.2498 31.9426 66.2967 32.7505 65.2655 31.7223C64.9842 31.4578 64.4842 31.1053 64.1405 30.9584C63.5467 30.694 62.7655 30.6793 47.4998 30.6793C32.2342 30.6793 31.453 30.694 30.8592 30.9584ZM62.8123 33.1912C63.6873 33.485 63.7498 33.8375 63.7498 38.4206V42.5043L62.4998 42.4602L61.2498 42.4014V40.2127C61.2498 37.7596 61.1248 37.2748 60.2655 36.4229C59.2811 35.4534 58.9217 35.3799 54.9998 35.3799C51.078 35.3799 50.7186 35.4534 49.7342 36.4229C48.8748 37.2748 48.7498 37.7596 48.7498 40.2274V42.4308H47.4998H46.2498V40.1833C46.2498 37.6715 46.0936 37.1573 45.1405 36.3053C44.1717 35.4387 43.8123 35.3799 39.9686 35.3799C36.078 35.3799 35.703 35.4534 34.7342 36.4229C33.8748 37.2748 33.7498 37.7596 33.7498 40.2127V42.4014L32.4998 42.4602L31.2498 42.5043V38.45C31.2498 33.955 31.3123 33.5584 32.0936 33.2353C32.7498 32.9709 61.9998 32.9268 62.8123 33.1912ZM42.8123 37.8918C43.5623 38.1415 43.7498 38.7144 43.7498 40.7415V42.4308H39.9998H36.2498V40.7562C36.2498 38.7878 36.4217 38.215 37.0936 37.9359C37.703 37.6861 42.0623 37.6568 42.8123 37.8918ZM57.8123 37.8918C58.5623 38.1415 58.7498 38.7144 58.7498 40.7415V42.4308H54.9998H51.2498V40.7562C51.2498 38.7878 51.4217 38.215 52.0936 37.9359C52.703 37.6861 57.0623 37.6568 57.8123 37.8918ZM62.8123 44.9427C63.6873 45.2365 63.7498 45.589 63.7498 50.1427V54.1823H60.9842L58.203 54.1676L57.6092 52.9631C57.2811 52.3021 56.8748 51.597 56.7186 51.3913L56.4217 51.0241L51.953 55.2106L47.4998 59.397L46.0936 58.075L44.6873 56.7529L43.7186 57.6784L42.7342 58.5891L45.1248 60.8219L47.4998 63.0694L51.6248 59.1914L55.7498 55.3134L55.9373 55.9597C56.2186 56.9292 56.0623 59.353 55.6561 60.4253C54.9217 62.3055 53.2186 64.0976 51.3123 64.9937C48.0936 66.492 43.9686 65.8457 41.4217 63.4513C38.4373 60.6456 38.0467 56.2829 40.4686 53.0218C42.8592 49.8489 47.2186 48.7325 51.078 50.319C51.5467 50.51 51.9373 50.6422 51.953 50.6275C52.3123 50.1133 53.1248 48.7325 53.1248 48.615C53.1248 48.3653 51.6561 47.7337 50.3436 47.4105C48.7342 47.0286 46.2498 47.0286 44.6248 47.4252C41.5623 48.1597 38.8123 50.2456 37.4842 52.8162L36.7967 54.1676H34.0311L31.2498 54.1823V50.1574C31.2498 45.7065 31.3123 45.3099 32.0936 44.9868C32.7498 44.7223 61.9998 44.6783 62.8123 44.9427Z" fill="#303030"/>
<path d="M58.75 5.41353V7.17625H56.875H55V8.3514V9.52655H56.875H58.75V11.2893V13.052H60H61.25V11.2893V9.52655H63.125H65V8.3514V7.17625H63.125H61.25V5.41353V3.65081H60H58.75V5.41353ZM61.25 8.3514V9.52655H60H58.75V8.3514V7.17625H60H61.25V8.3514Z" fill="#303030"/>
<path d="M70 14.8147V16.5774H68.125H66.25V17.7525V18.9277H68.125H70V20.6904V22.4531H71.25H72.5V20.6904V18.9277H74.375H76.25V17.7525V16.5774H74.375H72.5V14.8147V13.0519H71.25H70V14.8147ZM72.5 17.7525V18.9277H71.25H70V17.7525V16.5774H71.25H72.5V17.7525Z" fill="#303030"/>
</svg>
