<svg width="70" height="70" viewBox="0 0 70 70" fill="none" xmlns="http://www.w3.org/2000/svg">
<path d="M31.6779 0.205086C20.3849 2.03712 11.963 10.9512 10.8146 22.2715C10.7326 23.0508 10.6642 24.8418 10.6642 26.2637V28.8477L9.81655 28.8613C6.5353 28.8887 3.75991 31.2402 3.06265 34.6172C2.89858 35.4238 2.85757 36.7227 2.89858 42.1641C2.9396 48.7266 2.9396 48.7402 3.26772 49.5605C3.70522 50.668 4.40249 51.6934 5.16811 52.377C5.94741 53.0605 7.45132 53.8125 8.46304 54.0039C8.85952 54.0723 10.8283 54.1406 12.838 54.1406C16.2423 54.1406 16.5021 54.127 16.9259 53.8672C17.8009 53.334 17.7736 53.7578 17.7736 41.6855C17.7736 33.7012 17.7326 30.584 17.6095 30.1875C17.5275 29.9004 17.2404 29.4766 16.9943 29.2578C16.5568 28.875 16.4611 28.8477 15.381 28.8477H14.2189V26.8926C14.2326 23.0508 14.5333 20.6445 15.34 18.1836C16.4611 14.7383 18.2384 11.9492 20.9318 9.36524C23.7755 6.64454 27.2892 4.81251 31.3087 3.95118C32.5392 3.67774 33.1271 3.63673 35.4787 3.63673C38.4865 3.6504 39.6759 3.82813 42.1505 4.64845C47.9884 6.60352 52.7462 11.1016 55.0431 16.8301C56.2052 19.7422 56.465 21.2461 56.5607 25.4434L56.6427 28.8203L55.3986 28.8613C54.4005 28.9023 54.1134 28.9707 53.8673 29.1895C53.1701 29.8047 53.1837 29.5449 53.1837 41.6309C53.1837 53.8535 53.1564 53.4844 53.9083 53.8945C54.0724 53.9902 54.756 54.0996 55.4396 54.1406L56.6701 54.209L55.4396 55.4531C54.756 56.1367 53.8263 56.957 53.3478 57.2715C51.3654 58.6113 48.7267 59.5273 46.6486 59.6367L45.6642 59.6777L45.2814 58.5703C45.0626 57.9688 44.6662 57.1211 44.3791 56.6973C43.2853 55.043 41.2345 53.6074 39.3068 53.1152C38.3634 52.8691 36.2853 52.8418 35.2462 53.0605C34.2345 53.2656 32.4708 54.1406 31.6369 54.8516C30.2423 56.041 29.2169 57.6543 28.7794 59.4043C28.5197 60.457 28.5197 62.4258 28.7931 63.4922C29.5587 66.5137 32.0744 69.043 35.0685 69.7949C36.1212 70.0547 38.2677 70.0547 39.3068 69.7949C42.465 68.9746 44.7619 66.7461 45.5275 63.7383L45.6779 63.1641H46.5392C49.2326 63.1641 52.6779 62.0156 55.4123 60.1973C56.8205 59.2539 58.9669 57.0664 60.088 55.3984C60.6759 54.5371 61.1408 53.9766 61.3185 53.9492C62.713 53.6758 63.2736 53.5254 63.9845 53.1563C65.5841 52.3633 66.6779 50.9141 66.9923 49.1777C67.088 48.6719 67.1291 46.1016 67.1017 41.9316L67.0607 35.4785L66.6916 34.3848C65.6662 31.3633 63.4103 29.2031 60.9904 28.916L60.1564 28.8203V25.8535C60.1564 21.7109 59.8966 19.8652 58.9123 16.8848C57.5724 12.8789 55.6037 9.76172 52.4728 6.76758C50.5998 4.9629 48.8908 3.75977 46.5529 2.59766C44.4337 1.54493 42.7931 0.957039 40.5373 0.45118C39.2521 0.16407 38.5958 0.109383 35.9572 0.068367C33.715 0.0273514 32.5529 0.068367 31.6779 0.205086ZM14.0822 41.5078V50.6133L11.5939 50.5586C8.73647 50.5039 8.24429 50.3672 7.36929 49.3965C6.49429 48.4258 6.49429 48.4395 6.49429 41.5625V35.3418L6.86343 34.5898C7.30093 33.7012 7.42397 33.5371 8.08022 33.0449C8.75014 32.5391 9.39272 32.4297 11.9357 32.416L14.0822 32.4023V41.5078ZM61.1955 32.7031C61.797 33.0313 62.6037 33.9609 62.9728 34.7813C63.5333 36.0117 63.588 36.9004 63.547 42.9297C63.506 49.1777 63.5197 49.0547 62.6173 49.8066C61.9748 50.3535 61.3732 50.4766 58.9669 50.5449L56.7384 50.6133V41.4941V32.375L58.7619 32.4297C60.2794 32.4707 60.8673 32.5391 61.1955 32.7031ZM39.3341 56.957C40.8791 57.6953 41.8087 58.9258 42.1232 60.6348C42.5333 62.8633 41.4259 64.9277 39.2521 65.9941C38.5822 66.3223 38.3224 66.377 37.256 66.377C36.2169 66.377 35.9025 66.3223 35.2599 66.0215C33.2912 65.0918 31.9787 62.959 32.1701 60.9629C32.3615 58.8438 34.1115 56.9023 36.2306 56.4785C37.2287 56.2734 38.2541 56.4238 39.3341 56.957Z" fill="#09100D"/>
</svg>
