<svg width="80" height="76" viewBox="0 0 80 76" fill="none" xmlns="http://www.w3.org/2000/svg">
<g clip-path="url(#clip0_2_3)">
<path d="M5.85938 0.478044C4.79688 1.47692 5.39063 2.93117 6.9375 3.13682C7.34375 3.19558 7.89063 3.40123 8.17188 3.59219C8.4375 3.78315 8.84375 4.04756 9.04688 4.19445C9.53125 4.53231 10.4688 4.53231 10.9531 4.19445C11.1563 4.04756 11.5625 3.78315 11.8281 3.59219C12.1094 3.40123 12.6563 3.19558 13.0625 3.13682C14.6094 2.93117 15.2031 1.47692 14.1406 0.478044C13.625 -0.00670545 12.1719 -0.00670545 10.9063 0.478044L10 0.830589L9.10938 0.478044C7.82813 -0.00670545 6.375 -0.00670545 5.85938 0.478044Z" fill="#303030"/>
<path d="M61.7969 0.287073C60.1719 0.639618 58.6406 1.37409 57.3438 2.41703C56.5 3.09274 55.4219 4.31196 55.125 4.91422C54.9844 5.19332 54.8906 5.20801 54.3906 5.10519C53.4844 4.89953 51.8438 4.95829 50.9219 5.20801C47.8594 6.06 45.9062 8.10182 45.2969 11.0691C45.0937 12.0386 45.25 12.8024 45.7344 13.2578L46.1406 13.6397H53.2031H60.2656L60.6563 13.2725C61.4063 12.5674 61.3281 11.4216 60.5 10.8928C60.1094 10.6578 59.5938 10.6284 54.5 10.5843C51.4219 10.5549 48.9063 10.5109 48.9063 10.4668C48.9063 10.2318 49.8125 9.18883 50.3125 8.86566C51.6719 7.9843 52.8281 7.86679 54.5781 8.42498C55.6094 8.76284 55.7813 8.77753 56.3438 8.61595C56.8906 8.43967 57.0156 8.30747 57.625 7.17639C58.4844 5.57525 59.5469 4.54699 61.0781 3.82721C62.2188 3.29839 62.2813 3.2837 64.0469 3.2837C65.7656 3.2837 65.9219 3.31308 66.9219 3.75376C68.2344 4.34134 69.5313 5.48711 70.3281 6.7504C71 7.83741 71.2813 7.99899 72.75 8.10182C73.2656 8.14589 73.9375 8.29278 74.2344 8.42498C74.8906 8.73346 75.8906 9.61482 76.1875 10.1436L76.4219 10.5549H74.4063C73.2969 10.5549 72.1719 10.599 71.8906 10.6431C70.625 10.8781 70.1719 12.347 71.0781 13.2137L71.5313 13.6397H75.3125H79.0938L79.5469 13.2137C79.9531 12.8318 80 12.6849 80 11.877C80 10.1436 79.1406 8.29278 77.7031 6.97074C76.8438 6.17751 75.125 5.32553 73.9844 5.13456C73.4063 5.03174 73.125 4.89953 72.8906 4.60575C71.0469 2.24076 69.0625 0.904026 66.5625 0.36052C65.4531 0.110801 62.7969 0.0667324 61.7969 0.287073Z" fill="#303030"/>
<path d="M30.7969 8.45436C30.5156 8.71877 27.3906 14.242 22.375 23.3347C18 31.2963 14.2812 38.0534 14.1094 38.3619L13.8125 38.9201L13.125 37.7743C12.1875 36.2173 11.9062 35.9675 11.0312 35.9675C10.5156 35.9675 10.2188 36.0557 9.9375 36.2907C9.5 36.6873 3.70312 45.9857 3.53125 46.588C3.29688 47.4546 4.20312 48.4535 5.23438 48.4535C5.45312 48.4535 5.625 48.4829 5.625 48.527C5.625 48.571 4.875 49.8049 3.96875 51.2739C3.04688 52.7428 2.21875 54.153 2.09375 54.4174C1.60938 55.5044 2.29688 56.4152 3.6875 56.5327L4.53125 56.6061L2.26562 60.2491C0.296875 63.4073 0 63.9802 0 64.5237C0 65.0084 0.09375 65.2435 0.40625 65.5519L0.828125 65.9339H40H79.1719L79.5938 65.5519C80.5312 64.6706 81.1562 65.8751 68.2812 43.9439C61.8281 32.9709 56.375 23.8488 56.1562 23.6579C55.5781 23.1731 54.6406 23.2172 54.0781 23.7313C53.8594 23.9663 51.5938 27.6681 49.0781 31.9574C46.5625 36.2613 44.4844 39.7868 44.4688 39.7868C44.4531 39.7868 43.7031 38.7292 42.8125 37.4365C41.9062 36.1585 41.0156 35.0127 40.8281 34.9246C40.375 34.6896 39.625 34.6896 39.1719 34.9246C38.9531 35.0274 35 40.5947 29.7031 48.2479C24.6875 55.4603 20.5312 61.3508 20.4688 61.3067C20.3594 61.248 17.6719 57.0027 17.5312 56.6502C17.5 56.5914 17.8438 56.5327 18.2812 56.5327C18.9688 56.5327 19.1562 56.4739 19.5469 56.1067C19.9062 55.7541 20 55.5485 20 55.0344C20 54.4908 19.7344 53.9767 18.125 51.4355L16.2656 48.4535H16.7344C17.3125 48.4535 18.0625 48.101 18.2812 47.7337C18.6875 47.014 18.4844 46.3823 17.125 44.1936L15.7969 42.0636L16.9062 40.0512C17.5 38.9495 18.0781 37.9359 18.1875 37.8037C18.3594 37.5834 18.5312 37.6421 19.8281 38.4501C20.625 38.9348 21.5625 39.4196 21.9219 39.5077C23.2812 39.8455 25.0781 39.3167 25.9844 38.3178C26.2656 38.0094 27.5 36.041 28.75 33.9698C30.2969 31.3845 31.1406 30.1065 31.4219 29.9596C31.7969 29.7686 31.8594 29.7833 32.75 30.4297C34.125 31.4138 35.1562 31.6195 36.7344 31.1788C37.4688 30.9732 37.7656 30.7675 38.9375 29.6071C39.6875 28.8726 40.3281 28.2997 40.3594 28.3438C40.3906 28.3731 40.8906 29.2545 41.4688 30.3121C42.0469 31.3551 42.7188 32.398 42.9844 32.6184C44 33.5144 45.625 32.7946 45.625 31.4579C45.625 30.9144 33.5312 8.98318 32.9531 8.45436C32.6094 8.16057 32.3438 8.05775 31.875 8.05775C31.4062 8.05775 31.1406 8.16057 30.7969 8.45436ZM35.2812 19.0895C37.1094 22.4093 38.5781 25.2002 38.5469 25.2884C38.3906 25.6556 35.8906 28.1822 35.5938 28.2703C35.375 28.3291 35.1094 28.2116 34.7188 27.9031C33.6094 27.0217 33 26.7867 31.7188 26.7867C29.4375 26.7867 28.875 27.3302 25.9375 32.3099C23.9531 35.6738 23.3438 36.5551 23 36.5551C22.9219 36.5551 22.1719 36.1438 21.3438 35.6297L19.8438 34.7043L25.8281 23.8782C29.1094 17.929 31.8281 13.0521 31.875 13.0521C31.9219 13.0521 33.4531 15.7697 35.2812 19.0895ZM60.9375 37.9065C64.0781 43.2535 66.9375 48.1303 67.3125 48.7767L67.9844 49.9225L67.5156 50.3631C67.2656 50.6129 66.8906 50.8038 66.6875 50.8038C66.4531 50.8038 65.1406 49.9225 62.9688 48.2919C61.125 46.9111 59.3281 45.6478 58.9844 45.4716C58.4844 45.2219 58.0781 45.1484 57.0312 45.1484C55.2969 45.1484 54.8125 45.3834 52.5312 47.3812C51.5625 48.2332 50.75 48.9089 50.7344 48.8795C50.7031 48.8501 49.75 47.4693 48.6094 45.8241C46.5938 42.9156 46.5312 42.8128 46.75 42.4162C47.2969 41.3732 55.0938 28.1822 55.1562 28.1822C55.2031 28.1822 57.7969 32.5596 60.9375 37.9065ZM12.4688 42.9009C13.2656 44.1789 13.9062 45.2512 13.9062 45.2953C13.9062 45.3394 13.6562 45.3687 13.3438 45.3687C12.9062 45.3687 12.6562 45.4863 12.2344 45.8829C11.4219 46.6467 11.5156 46.9846 13.6562 50.4219C14.6562 52.023 15.4688 53.3598 15.4688 53.3891C15.4688 53.4185 15.2188 53.4479 14.9062 53.4479C14.1562 53.4479 13.3594 53.8151 13.1406 54.2705C12.75 55.0784 12.9062 55.4457 15.2344 59.1768C16.4844 61.1892 17.5 62.8638 17.5 62.9079C17.5 62.9519 14.5469 62.996 10.9531 62.996H4.39062L6.4375 59.735C7.54688 57.9282 8.59375 56.2095 8.76562 55.9157C9.1875 55.1372 9.14062 54.5643 8.625 54.0208C8.26562 53.6389 8.03125 53.536 7.375 53.4773C6.92188 53.4479 6.5625 53.3745 6.5625 53.3451C6.5625 53.301 7.3125 52.0671 8.23438 50.5982C9.14062 49.1439 9.98438 47.7337 10.0938 47.4693C10.5469 46.4558 9.78125 45.3687 8.59375 45.3687H7.98438L9.5 42.945C10.3281 41.623 11.0156 40.5506 11.0156 40.5653C11.0312 40.58 11.6875 41.6376 12.4688 42.9009ZM38.4375 46.1473V50.8773L34.2656 56.9293L30.0781 62.9813L26.7656 62.996H23.4375L24.6562 61.248C25.3125 60.2785 28.6719 55.431 32.1094 50.4513C35.5469 45.4863 38.375 41.4173 38.4062 41.4173C38.4219 41.4026 38.4375 43.5326 38.4375 46.1473ZM46.6562 48.7032L47.5 49.9225H44.5312H41.5625V45.6478V41.3585L43.6875 44.4286C44.875 46.1179 46.2031 48.0422 46.6562 48.7032ZM60.7812 50.6716C62.625 52.0524 64.4219 53.3157 64.7656 53.4773C66.0312 54.0942 68.2031 53.9326 69.2812 53.1394L69.6719 52.8456L69.8906 53.1835C70.1562 53.5654 74.9844 61.8062 75.375 62.5112L75.6406 62.996H68.0781H60.5312L56.5938 57.3259C54.4375 54.1971 52.7031 51.597 52.7344 51.5236C52.7812 51.4648 53.6562 50.6716 54.6875 49.7902C56.1406 48.527 56.6406 48.1597 56.9844 48.1597C57.3125 48.1597 58.25 48.7767 60.7812 50.6716ZM48.9062 57.2231C48.9062 59.5293 48.875 61.3948 48.8438 61.3655C48.7031 61.2333 43.125 53.1394 43.125 53.0807C43.125 53.0366 44.4219 53.0072 46.0156 53.0072H48.9062V57.2231ZM43.0469 58.7361L45.9375 62.9225L42.9688 62.9666C41.3438 62.9813 38.6719 62.9813 37.0312 62.9666L34.0625 62.9225L36.9844 58.692C38.5938 56.3711 39.9531 54.4908 40.0312 54.5055C40.0938 54.5349 41.4531 56.4298 43.0469 58.7361ZM52.9375 57.7372C53.2656 58.2513 54.2344 59.6321 55.0469 60.822L56.5625 62.996H54.375H52.1875V59.9112C52.1875 58.2073 52.2188 56.8265 52.25 56.8265C52.2812 56.8265 52.5938 57.2378 52.9375 57.7372Z" fill="#303030"/>
<path d="M12.7656 9.96737C11.8594 10.9809 12.4375 12.3324 13.8594 12.538C14.7656 12.6555 15.0781 12.8024 15.7344 13.39C16.1406 13.7572 16.375 13.8307 16.9531 13.8307C17.5312 13.8307 17.7656 13.7572 18.1719 13.39C18.8281 12.8024 19.1406 12.6555 20.0312 12.538C21.0781 12.3911 21.5625 11.9064 21.5625 10.9956C21.5625 10.4374 21.4844 10.2171 21.1406 9.89392C20.7188 9.512 20.6406 9.49731 19.5312 9.55607C18.7344 9.60014 18.1406 9.73234 17.6875 9.95268L17 10.2758L16.2812 9.95268C15.7969 9.74703 15.1406 9.60014 14.3594 9.55607C13.1875 9.49731 13.1875 9.49731 12.7656 9.96737Z" fill="#303030"/>
<path d="M65.3438 10.7312C64.7812 10.8781 64.2188 11.5685 64.2188 12.1414C64.2188 13.4047 65.9375 14.1392 66.9219 13.2872C68.2188 12.1561 67.0781 10.3052 65.3438 10.7312Z" fill="#303030"/>
<path d="M0.75 15.6228C0.203125 15.9166 0 16.2691 0 16.9448C0 17.8556 0.734375 18.4872 1.78125 18.4872C2.09375 18.4872 2.48438 18.6928 3.57812 19.442C4.34375 19.9708 4.96875 19.9268 5.85938 19.2804C6.70312 18.6928 7.03125 18.546 7.875 18.4137C8.6875 18.2815 9.21875 17.738 9.21875 16.9889C9.21875 16.2544 9.01562 15.9019 8.40625 15.6081C7.75 15.2849 6.3125 15.4024 5.34375 15.8725L4.60938 16.2103L3.82812 15.8578C2.84375 15.4171 1.34375 15.2996 0.75 15.6228Z" fill="#303030"/>
<path d="M56.25 16.2544C55.9531 16.3866 55.6094 16.6951 55.5 16.9154C55.0781 17.738 55.625 18.8251 56.5312 19.0013C57.6719 19.2217 58.1094 19.3979 58.7031 19.8827C59.6094 20.6025 60.3906 20.6025 61.2969 19.8827C61.8906 19.3979 62.3281 19.2217 63.4688 19.0013C64.375 18.8251 64.9219 17.738 64.5 16.9154C64.3906 16.6951 64.0156 16.3719 63.6875 16.225C63.1562 15.9753 62.9688 15.9606 62.1406 16.1075C61.625 16.1957 60.9219 16.4013 60.5781 16.5629C60.0312 16.8126 59.9219 16.8273 59.625 16.651C59.2656 16.416 57.6094 15.99 57.1094 15.99C56.9375 15.99 56.5469 16.1075 56.25 16.2544Z" fill="#303030"/>
<path d="M69.1875 28.2703C68.6406 28.5494 68.4375 28.902 68.4375 29.6071C68.4375 30.5619 68.9375 30.9732 70.3594 31.1935C70.6719 31.2376 71.1719 31.4726 71.4531 31.6929C72.6094 32.6478 73.2344 32.6771 74.3906 31.8545C74.8438 31.5314 75.4688 31.2229 75.7812 31.1788C77.1406 30.9732 77.6562 30.5178 77.6562 29.5483C77.6406 28.6522 76.9375 28.0353 75.8906 28.0353C75.2812 28.0353 73.8281 28.4172 73.3594 28.711C73.0781 28.8873 72.9844 28.8873 72.7188 28.711C72.2812 28.4172 70.8125 28.0353 70.1719 28.0353C69.8594 28.05 69.4219 28.1381 69.1875 28.2703Z" fill="#303030"/>
<path d="M8.84375 68.0785C8.51562 68.387 8.4375 68.6073 8.4375 69.1655C8.4375 69.7237 8.51562 69.9441 8.84375 70.2525L9.26562 70.6345H15.9375H22.6094L23.0312 70.2525C23.6094 69.6943 23.6094 68.6367 23.0312 68.0785L22.6094 67.6966H15.9375H9.26562L8.84375 68.0785Z" fill="#303030"/>
<path d="M57.2969 68.0785C56.5781 68.7542 56.6094 69.665 57.3594 70.326C57.7188 70.6345 57.7656 70.6345 68.4062 70.6345H79.0938L79.5469 70.2085C79.9062 69.8706 80 69.6503 80 69.1655C80 68.6808 79.9062 68.4604 79.5469 68.1226L79.0938 67.6966H68.3906H57.7031L57.2969 68.0785Z" fill="#303030"/>
<path d="M25.7188 72.7791C25.3906 73.0876 25.3125 73.3079 25.3125 73.8661C25.3125 74.8356 25.8438 75.3351 26.875 75.3351C27.9062 75.3351 28.4375 74.8356 28.4375 73.8661C28.4375 73.3079 28.3594 73.0876 28.0312 72.7791C27.7031 72.4706 27.4688 72.3972 26.875 72.3972C26.2812 72.3972 26.0469 72.4706 25.7188 72.7791Z" fill="#303030"/>
<path d="M31.8125 72.7791C31.4844 73.0876 31.4062 73.3079 31.4062 73.8661C31.4062 74.4243 31.4844 74.6447 31.8125 74.9531L32.2344 75.3351H43.0469H53.8594L54.2812 74.9531C54.6094 74.6447 54.6875 74.4243 54.6875 73.8661C54.6875 73.3079 54.6094 73.0876 54.2812 72.7791L53.8594 72.3972H43.0469H32.2344L31.8125 72.7791Z" fill="#303030"/>
</g>
<defs>
<clipPath id="clip0_2_3">
<rect width="80" height="75.2096" fill="white" transform="translate(0 0.125488)"/>
</clipPath>
</defs>
</svg>
