<svg width="80" height="76" viewBox="0 0 80 76" fill="none" xmlns="http://www.w3.org/2000/svg">
<g clip-path="url(#clip0_1417_10562)">
<path d="M49.8283 0.448608C49.4533 0.639565 45.9845 3.3571 42.1408 6.50063C34.3595 12.8758 34.3751 12.8611 34.3751 14.5651C34.3751 15.7696 34.6407 16.4747 35.3595 17.2532C36.1407 18.0905 36.9376 18.4725 38.1251 18.59L39.0782 18.6781L39.0314 20.8081L38.9845 22.938L37.9689 23.2612C35.7657 23.9663 34.0939 24.833 32.5314 26.0816L31.7032 26.7426L30.8282 26.0228C30.3282 25.6409 29.2345 24.7448 28.3595 24.025C27.5001 23.32 26.5157 22.6149 26.1564 22.4533C25.2189 22.0273 23.5939 22.0567 22.5782 22.512C21.7189 22.9086 16.1407 27.4183 15.8126 27.9912C15.3751 28.7697 15.9845 29.6511 16.9532 29.6511C17.3595 29.6511 17.922 29.2545 20.2032 27.3889C23.8126 24.4217 23.6876 24.5098 24.3595 24.5098C25.047 24.5098 25.2189 24.6273 27.922 26.8454L29.9689 28.5053L29.297 29.416C27.3282 32.0895 26.4064 34.9833 26.4064 38.5234C26.4064 41.9754 27.4064 44.9427 29.5001 47.719C30.3907 48.9088 32.297 50.6862 33.4845 51.4501L34.3751 52.023V60.9247V69.8265L34.0001 70.561C33.547 71.4864 32.4845 72.4118 31.4689 72.7791C30.7657 73.0435 30.2189 73.0581 24.297 73.0581C18.0782 73.0581 17.8751 73.0435 17.172 72.7497C16.1876 72.309 15.2501 71.4864 14.8126 70.6638L14.4532 69.9734L14.3751 54.432L14.297 38.876L13.922 38.5969C13.6251 38.3766 13.3126 38.3178 12.2032 38.3178C11.1564 38.3178 10.7501 38.259 10.3751 38.0387C9.7345 37.6715 9.422 36.8635 9.68762 36.276C9.78137 36.0409 10.8907 35.0127 12.1251 33.9844C13.3751 32.9709 14.4532 31.9573 14.547 31.7663C14.8595 30.9584 14.2814 30.2386 13.3282 30.2386C12.9064 30.2386 12.4376 30.5618 10.3595 32.2658C7.7345 34.4251 7.31262 34.9392 7.1095 36.2907C6.96887 37.1426 7.32825 38.3325 7.93762 39.1404C8.547 39.9189 9.78137 40.5359 10.9532 40.624L11.8751 40.7122V55.284C11.8751 69.1655 11.8907 69.9146 12.172 70.7666C12.7814 72.6028 14.047 73.9689 15.9064 74.7915L16.9532 75.2616H24.3751H31.797L32.8595 74.7915C34.3126 74.1452 35.5001 73.0435 36.2189 71.6773L36.797 70.5756L36.8439 61.9383C36.8595 57.1936 36.9376 53.3009 37.0157 53.3009C37.0782 53.3009 37.547 53.4332 38.047 53.5947C39.0314 53.9179 41.0939 54.2998 42.172 54.3586L42.8439 54.4027L41.047 55.8569C38.7814 57.6784 38.3595 58.31 38.3595 59.9112C38.3595 60.7631 38.4532 61.1598 38.7032 61.6151C39.4689 62.9812 40.7189 63.7157 42.2345 63.7304H43.1251V66.8886C43.1251 69.6943 43.1564 70.1643 43.4533 70.9576C44.1408 72.8819 45.7345 74.3802 47.797 75.0412C48.7501 75.335 48.9845 75.3497 55.9064 75.3056L63.047 75.2616L64.0939 74.7915C66.5783 73.6898 68.3595 71.1485 67.3283 70.179C67.0939 69.9587 66.8595 69.8999 66.3595 69.9293C65.7658 69.9734 65.6564 70.0468 65.2033 70.6932C64.4845 71.7361 63.9376 72.2062 62.9689 72.6615L62.1095 73.0581H55.7033C48.4533 73.0581 48.3908 73.0435 47.0626 71.8977C45.7345 70.7519 45.7189 70.6638 45.6251 66.1395C45.5314 61.3801 45.5783 61.527 43.922 61.527C43.3595 61.527 42.6251 61.4829 42.3126 61.4389C41.1564 61.2479 40.4689 60.0727 41.0158 59.2208C41.3439 58.7213 54.172 48.2037 54.9376 47.8218C55.2814 47.6455 55.6095 47.5721 55.9064 47.6455C56.1876 47.6896 58.7345 49.6727 62.7501 52.9484C66.2658 55.8275 69.4064 58.4128 69.7189 58.7066C70.4845 59.4264 70.6095 59.9699 70.1251 60.6456C69.6564 61.292 69.0001 61.5123 67.4689 61.5123C66.3751 61.527 66.2501 61.5564 65.9533 61.9089C65.6564 62.2615 65.6251 62.4965 65.6251 64.553C65.6251 66.9621 65.7345 67.4174 66.3595 67.6818C66.9376 67.9316 67.3283 67.8728 67.7345 67.4762C68.1095 67.1383 68.1251 67.0355 68.1251 65.4197V63.7304H68.8439C69.9533 63.7304 70.7345 63.4513 71.5626 62.7462C73.2345 61.336 73.3907 58.8976 71.8751 57.3699C71.547 57.032 69.6876 55.4603 67.7501 53.8885L64.2345 51.0241L64.2189 34.8217V18.634H64.7345C66.3126 18.634 67.8751 17.6939 68.5314 16.3572C69.1564 15.1086 68.9689 13.3459 68.0939 12.3323C67.422 11.5538 53.9845 0.668945 53.3595 0.404533C52.4376 0.00792694 50.7189 0.0226135 49.8283 0.448608ZM58.6251 7.64639C62.0939 10.4668 65.2501 13.0961 65.672 13.4928C66.5939 14.3741 66.6564 14.9764 65.9533 15.7255C65.5001 16.2103 65.4689 16.2103 63.9376 16.2544C61.4376 16.3425 61.7345 14.1979 61.6876 32.9268L61.6408 48.8794L60.547 47.9834C59.9533 47.4986 59.1876 46.867 58.8439 46.5879L58.2501 46.0738L58.797 44.9574C59.5001 43.5325 59.797 42.563 60.0783 40.815C61.4064 32.6918 56.0158 25.0239 47.5314 22.938C46.2814 22.6442 45.6095 22.5708 43.797 22.5414L41.5626 22.5267V19.7945C41.5626 16.2544 41.6095 16.3278 39.3595 16.2544C37.8126 16.2103 37.7814 16.2103 37.3282 15.7255C36.797 15.1674 36.7189 14.3447 37.1564 13.8453C37.3595 13.5956 43.2345 8.76279 50.2814 3.04862C50.9689 2.49043 51.3595 2.35822 51.9845 2.44636C52.1876 2.49043 55.172 4.82603 58.6251 7.64639ZM46.8595 25.2296C49.4533 25.8759 51.672 27.0804 53.6095 28.9166C57.8126 32.9121 58.9533 38.9347 56.4689 44.032L55.9064 45.1924L55.0939 45.2806C54.6564 45.3393 54.0001 45.545 53.6408 45.7359C53.2814 45.9269 51.422 47.3518 49.5158 48.9235C46.9533 51.0241 45.9064 51.7879 45.4845 51.8761C44.4689 52.0964 40.8283 51.8908 39.547 51.5382C34.047 50.0399 30.1095 45.9856 29.047 40.6975C28.7814 39.3461 28.9532 36.1731 29.3595 34.8217C30.0626 32.5449 31.1095 30.8556 32.8907 29.0782C35.047 26.9482 37.5626 25.6409 40.7189 25.0239C42.2501 24.7154 45.172 24.8183 46.8595 25.2296Z" fill="#303030"/>
<path d="M42.4219 29.5775C42.1407 29.8273 42.0313 30.0917 42.0313 30.5177C42.0313 31.0612 41.9844 31.1052 41.4688 31.2668C40.7344 31.5019 39.75 32.3391 39.3438 33.0883C39.1719 33.4115 38.9844 34.0872 38.9375 34.5866C38.7657 36.746 39.7657 37.8183 43.1719 39.0669C44.0469 39.39 44.9219 39.816 45.125 39.9923C45.9375 40.7415 45.6719 42.1957 44.5938 42.9596C44.0782 43.3415 43.875 43.3856 42.8907 43.3856C41.9844 43.3856 41.625 43.3121 40.9532 42.9742C40.5 42.7539 39.9375 42.5776 39.7032 42.5776C38.7657 42.5776 38.1563 43.5471 38.6563 44.2669C39.0157 44.781 40.4219 45.5008 41.2969 45.6036L42.0313 45.7065V46.3234C42.0313 47.0726 42.5157 47.572 43.2344 47.572C43.9688 47.572 44.3907 47.1607 44.4844 46.3675C44.5625 45.7065 44.6094 45.6624 45.4063 45.2952C47.1563 44.4873 48.2188 42.7539 48.0938 40.8884C47.9532 38.8612 47.0313 37.8917 44.3438 36.9369C43.0313 36.4815 42.0938 36.0262 41.7188 35.6736C41.25 35.233 41.3125 34.4544 41.8438 33.8962C42.2188 33.4996 42.4219 33.4115 43.1719 33.3527C43.9063 33.294 44.1875 33.3527 44.8438 33.6759C45.8125 34.1459 46.3125 34.1606 46.7969 33.6906C47.4844 33.0589 47.2344 32.2069 46.2032 31.6487C45.8282 31.4431 45.2969 31.2228 45.0313 31.1787C44.5782 31.0905 44.5313 31.0318 44.5313 30.5764C44.5313 30.2092 44.4063 29.9448 44.0782 29.6363C43.5157 29.1075 42.9375 29.0928 42.4219 29.5775Z" fill="#303030"/>
</g>
<defs>
<clipPath id="clip0_1417_10562">
<rect width="80" height="75.2096" fill="white" transform="translate(0 0.125488)"/>
</clipPath>
</defs>
</svg>
