<svg width="103" height="102" viewBox="0 0 103 102" fill="none" xmlns="http://www.w3.org/2000/svg">
<path d="M62.8357 79.4609C62.1476 79.8331 61.8895 80.6961 62.2603 81.3868C62.6338 82.0761 63.4948 82.3367 64.1856 81.9659L70.2692 78.6654C70.9586 78.2918 71.2154 77.4288 70.846 76.7354C70.4725 76.0474 69.6128 75.7883 68.9234 76.1632L62.8357 79.4609Z" fill="#09100D"/>
<path d="M64.6677 70.1125C63.9796 70.4848 63.7215 71.3478 64.0909 72.0371C64.4644 72.7305 65.3241 72.987 66.0148 72.6161L72.0998 69.3184C72.7892 68.9448 73.0433 68.0846 72.6711 67.3911C72.3003 66.7004 71.4434 66.4399 70.7527 66.8121L64.6677 70.1125Z" fill="#09100D"/>
<path d="M65.9132 60.5891C65.2225 60.9613 64.9684 61.823 65.3378 62.515C65.7072 63.2044 66.5697 63.4649 67.2604 63.0913L73.3427 59.795C74.0348 59.4228 74.2889 58.5584 73.9167 57.8663C73.5473 57.1756 72.6876 56.9178 71.9969 57.2915L65.9132 60.5891Z" fill="#09100D"/>
<path d="M38.6001 34.3787C37.9149 34.751 37.0511 34.4932 36.6789 33.7997C36.3095 33.1104 36.5649 32.2446 37.2529 31.8724L43.3393 28.5775C44.0259 28.2011 44.8897 28.4631 45.2605 29.1538C45.6327 29.8417 45.3745 30.7075 44.6851 31.0797L38.6001 34.3787Z" fill="#09100D"/>
<path d="M47.3878 37.9728C46.7011 38.3464 45.8414 38.0872 45.472 37.3952C45.0971 36.7059 45.358 35.8442 46.0406 35.4679L52.1283 32.1702C52.8163 31.7994 53.676 32.0558 54.0468 32.7492C54.4189 33.4413 54.1608 34.3043 53.4727 34.6752L47.3878 37.9728Z" fill="#09100D"/>
<path d="M56.0049 42.1542C55.3142 42.5292 54.4545 42.2714 54.081 41.5779C53.7102 40.8886 53.9684 40.0228 54.6591 39.6506L60.7427 36.3529C61.4335 35.9807 62.2904 36.2385 62.6626 36.932C63.0347 37.624 62.7807 38.4857 62.0872 38.8593L56.0049 42.1542Z" fill="#09100D"/>
<path d="M29.917 31.1582L55.1386 50.754L69.3987 43.0295L35.4499 28.157L29.917 31.1582Z" fill="#09100D"/>
<path d="M60.7498 88.5116L58.2793 56.5883L72.5367 48.8652L66.2841 85.5145L60.7498 88.5116Z" fill="#09100D"/>
<path d="M27.5934 65.7587C25.1819 67.0629 23.4667 68.556 24.7672 70.9768C26.0636 73.3949 28.2526 72.7732 30.6613 71.4676L82.2444 45.9811C84.6531 44.6755 86.6897 41.0415 85.3919 38.6247L84.9813 37.861C83.6822 35.4456 79.539 35.1575 77.1303 36.4644L27.5934 65.7587Z" fill="#09100D"/>
<path d="M28.6001 80.1131L28.7882 71.3561L35.9197 67.4932L31.3686 78.609L28.6001 80.1131Z" fill="#09100D"/>
<path d="M19.2686 62.7494L26.6595 67.3967L33.791 63.5324L22.0357 61.2522L19.2686 62.7494Z" fill="#09100D"/>
<path opacity="0.5" d="M77.5343 38.1958L81.0244 44.6938L83.5846 43.3081L80.0944 36.81L77.5343 38.1958Z" fill="#09100D"/>
<path d="M13.9427 70.0214L2.39618 69.1019L1.95947 67.6171L11.0739 60.2773L11.5353 61.8476L8.75171 63.9941L10.0357 68.3464L13.5129 68.5573L13.9427 70.0214ZM8.79977 68.2816L7.7602 64.7523L5.20865 66.6907C4.43412 67.2807 3.79005 67.7398 3.27645 68.0679C3.98094 68.0031 4.69642 67.9935 5.42288 68.0404L8.79977 68.2816Z" fill="#09100D"/>
<path d="M2.05714 60.8923L0.545164 61.1074L0.358398 59.7866L1.87175 59.5716L2.05714 60.8923ZM11.2512 59.5854L3.49771 60.6869L3.30957 59.3675L11.0659 58.2646L11.2512 59.5854Z" fill="#09100D"/>
<path d="M10.8777 56.4628L0.0892631 57.2017L0 55.8714L10.7871 55.1338L10.8777 56.4628Z" fill="#09100D"/>
<path d="M13.6547 53.5538L12.4022 53.6407C12.4942 53.3539 12.5464 53.1016 12.5574 52.8852C12.5711 52.5888 12.5327 52.3503 12.4448 52.1669C12.3542 51.9849 12.2251 51.8319 12.0534 51.7106C11.9243 51.621 11.603 51.468 11.0852 51.2543C11.0125 51.2253 10.9081 51.1812 10.768 51.1205L2.78516 53.7137L2.85519 52.2786L7.46529 50.8683C8.05031 50.6849 8.66416 50.5236 9.30548 50.3885C8.70399 50.2051 8.11897 49.9928 7.54906 49.753L3.07217 47.8491L3.13672 46.5173L10.9479 49.8977C11.7911 50.2603 12.3706 50.5388 12.6865 50.7318C13.1136 50.991 13.4198 51.2777 13.6093 51.5934C13.7975 51.9091 13.8812 52.28 13.862 52.7032C13.8455 52.961 13.7782 53.2436 13.6547 53.5538Z" fill="#09100D"/>
<path d="M12.67 39.7706L3.60777 36.7859L2.49678 40.1842L1.28418 39.7844L3.95521 31.6091L5.16781 32.0089L4.05134 35.421L13.115 38.4057L12.67 39.7706Z" fill="#09100D"/>
<path d="M14.5666 34.6971L7.55322 31.1981L8.08468 30.1242L9.14897 30.655C8.78643 30.1325 8.58318 29.7161 8.54061 29.4045C8.49666 29.093 8.54336 28.7993 8.68206 28.5195C8.88256 28.1169 9.21214 27.7723 9.67356 27.4841L10.5717 28.445C10.2558 28.6504 10.0265 28.9 9.8823 29.1922C9.75184 29.4528 9.71476 29.7271 9.76695 30.0125C9.82051 30.2993 9.96607 30.5543 10.1982 30.7818C10.5552 31.1264 10.9837 31.4229 11.4863 31.6724L15.1598 33.5046L14.5666 34.6971Z" fill="#09100D"/>
<path d="M18.7671 25.7222C18.8303 26.3674 18.8015 26.9258 18.6834 27.4C18.5653 27.8729 18.3593 28.3251 18.0613 28.7552C17.571 29.4652 17.0203 29.8898 16.412 30.0304C15.8036 30.171 15.2296 30.0538 14.6926 29.6802C14.3768 29.461 14.1392 29.1881 13.9771 28.8627C13.8165 28.5374 13.7368 28.2024 13.7423 27.8591C13.745 27.5158 13.8068 27.1712 13.9291 26.8224C14.0211 26.5673 14.19 26.2061 14.4386 25.7346C14.9439 24.7779 15.268 24.0403 15.4136 23.5206C15.2666 23.4117 15.1719 23.3441 15.1321 23.3165C14.6885 23.0063 14.3026 22.8919 13.9785 22.9719C13.5391 23.0808 13.1284 23.4103 12.748 23.9617C12.391 24.4773 12.218 24.9199 12.2276 25.2893C12.2386 25.6602 12.4308 26.0641 12.8071 26.4984L11.92 27.4676C11.5299 27.0512 11.2718 26.6349 11.1468 26.2158C11.0218 25.7967 11.0273 25.3252 11.1688 24.7972C11.3088 24.2705 11.5711 23.7287 11.9543 23.1732C12.3347 22.6217 12.711 22.2191 13.0776 21.9641C13.4443 21.7091 13.7835 21.5698 14.0911 21.5436C14.3987 21.5174 14.7242 21.5767 15.0675 21.7201C15.279 21.8125 15.6278 22.0289 16.1126 22.3667L17.5669 23.3799C18.5804 24.0872 19.2395 24.5104 19.5403 24.651C19.841 24.7917 20.1624 24.8785 20.5029 24.913L19.7119 26.0558C19.4084 26.0131 19.0912 25.9014 18.7671 25.7222ZM16.2678 24.1161C16.1551 24.6262 15.8819 25.3183 15.4438 26.191C15.1966 26.6859 15.0497 27.0553 15.0016 27.298C14.9535 27.5406 14.9728 27.7667 15.0579 27.9763C15.143 28.1858 15.2804 28.3568 15.4713 28.4905C15.761 28.6932 16.0796 28.7511 16.4257 28.6656C16.7731 28.5787 17.0931 28.3237 17.3884 27.8977C17.6795 27.4758 17.847 27.036 17.8896 26.5797C17.9322 26.1234 17.8498 25.7071 17.6355 25.3307C17.4707 25.0412 17.1494 24.7282 16.6674 24.3932L16.2678 24.1161Z" fill="#09100D"/>
<path d="M22.8638 22.4606L15.1968 19.0609L16.1828 18.06L20.7009 20.1693C21.1884 20.3968 21.6814 20.6491 22.1758 20.9248C21.9657 20.5498 21.7281 20.0811 21.463 19.52L19.2864 14.9044L20.2463 13.9297L23.7331 21.5741L22.8638 22.4606Z" fill="#09100D"/>
<path d="M29.3496 13.7862L30.5663 13.1272C30.8547 13.9089 30.8877 14.6506 30.668 15.3537C30.4482 16.0554 29.9662 16.6716 29.2246 17.201C28.2908 17.8683 27.3474 18.1081 26.3902 17.9206C25.4358 17.7345 24.5871 17.1197 23.8496 16.0774C23.0847 14.9994 22.7689 13.9654 22.9007 12.9755C23.0325 11.9857 23.5393 11.1764 24.4209 10.5464C25.2737 9.93706 26.1773 9.73026 27.1331 9.92741C28.0862 10.1245 28.9376 10.7518 29.6874 11.8106C29.7328 11.8754 29.7987 11.9733 29.8879 12.1042L25.1268 15.5025C25.6651 16.1781 26.2446 16.5751 26.8681 16.6951C27.4888 16.8136 28.067 16.684 28.5998 16.3035C28.9967 16.0209 29.2603 15.6735 29.3922 15.2654C29.5254 14.856 29.5103 14.3624 29.3496 13.7862ZM24.5527 14.5665L28.1178 12.0215C27.6879 11.517 27.2663 11.2095 26.8502 11.1006C26.2089 10.9283 25.6157 11.0386 25.065 11.4301C24.5692 11.7844 24.2685 12.2504 24.1669 12.8253C24.0652 13.4002 24.1929 13.9819 24.5527 14.5665Z" fill="#09100D"/>
<path d="M33.1358 14.5154L28.0396 4.94091L29.211 4.31226L34.3086 13.8868L33.1358 14.5154Z" fill="#09100D"/>
<path d="M37.7158 11.9885L38.8282 0.413586L40.3127 0L47.4661 9.27398L45.8964 9.711L43.8049 6.8807L39.4489 8.09388L39.1797 11.5804L37.7158 11.9885ZM39.5354 6.85588L43.0675 5.87292L41.1806 3.27974C40.6052 2.49117 40.1603 1.8377 39.8417 1.31658C39.8938 2.02381 39.8911 2.74208 39.832 3.47137L39.5354 6.85588Z" fill="#09100D"/>
<path d="M47.8148 10.0391L49.1153 10.1411C49.1963 10.5368 49.3652 10.8166 49.6234 10.9821C49.9681 11.2054 50.4267 11.2978 50.9953 11.2578C51.6078 11.2151 52.0733 11.0593 52.3905 10.7905C52.7078 10.5216 52.9082 10.1604 52.9961 9.70961C53.0456 9.43389 53.0387 8.86314 52.9742 7.99599C52.4413 8.71976 51.7437 9.11267 50.8813 9.17333C49.8074 9.24777 48.9491 8.91553 48.3078 8.17796C47.6637 7.4404 47.3066 6.52776 47.2325 5.44002C47.1803 4.69143 47.2668 3.99109 47.4934 3.34038C47.7214 2.6883 48.0784 2.17269 48.5673 1.79219C49.0562 1.41307 49.6467 1.19801 50.3388 1.14976C51.2617 1.08634 52.0472 1.40756 52.6968 2.11479L52.6322 1.16906L53.8531 1.08496L54.32 7.8664C54.4037 9.08785 54.3392 9.9619 54.1263 10.4885C53.9135 11.0152 53.5482 11.4453 53.0318 11.7775C52.5141 12.1112 51.8632 12.3042 51.079 12.3579C50.1452 12.4227 49.3789 12.2642 48.7761 11.8823C48.1746 11.5018 47.8532 10.887 47.8148 10.0391ZM48.5879 5.24977C48.658 6.2796 48.912 7.01579 49.3528 7.46108C49.7923 7.905 50.3196 8.10628 50.9321 8.06492C51.5405 8.02218 52.0348 7.75197 52.4139 7.25291C52.7929 6.75385 52.9494 6.0025 52.8808 4.99749C52.8149 4.03797 52.5526 3.32798 52.0953 2.87027C51.638 2.41257 51.1093 2.2044 50.5119 2.24576C49.9214 2.28436 49.438 2.55871 49.0589 3.0688C48.6799 3.57889 48.522 4.30404 48.5879 5.24977Z" fill="#09100D"/>
<path d="M61.5669 7.04327L62.9113 7.36587C62.6064 8.14203 62.1395 8.71692 61.5092 9.09328C60.8789 9.46964 60.1098 9.60751 59.2062 9.50549C58.0691 9.37728 57.2053 8.92509 56.6148 8.14479C56.0271 7.36587 55.8032 6.34155 55.946 5.07047C56.0916 3.75526 56.5434 2.77368 57.2987 2.12297C58.054 1.47227 58.97 1.20757 60.0439 1.32889C61.0848 1.44607 61.8965 1.89688 62.476 2.6827C63.0569 3.46851 63.2752 4.50523 63.131 5.79562C63.1228 5.8742 63.1063 5.99138 63.0857 6.14855L57.2795 5.49508C57.2328 6.35948 57.4017 7.04465 57.7849 7.54923C58.168 8.05518 58.6857 8.34331 59.3353 8.41638C59.8201 8.47014 60.2471 8.38881 60.6179 8.17236C60.9887 7.95592 61.3046 7.57956 61.5669 7.04327ZM57.4745 4.41562L61.8223 4.90365C61.836 4.24054 61.7262 3.72769 61.4872 3.36925C61.1247 2.81229 60.6069 2.4952 59.9395 2.42076C59.3339 2.3532 58.7997 2.49934 58.3424 2.85916C57.8824 3.21898 57.594 3.73734 57.4745 4.41562Z" fill="#09100D"/>
<path d="M63.8687 9.99506L66.1483 2.47192L67.2909 2.82071L66.9681 3.89052C67.7688 3.23154 68.6889 3.06197 69.7298 3.37906C70.1802 3.51692 70.5716 3.72509 70.9012 4.00357C71.2308 4.28205 71.4491 4.58259 71.5576 4.90381C71.6661 5.22503 71.7018 5.58071 71.6675 5.96673C71.6428 6.21764 71.5412 6.63811 71.3613 7.22816L69.9591 11.8534L68.6889 11.4647L70.0759 6.88902C70.2338 6.36928 70.3011 5.96673 70.2805 5.6786C70.2599 5.39046 70.1459 5.13266 69.9413 4.90105C69.7367 4.67082 69.4634 4.50401 69.1256 4.40061C68.5831 4.23518 68.0654 4.26413 67.5669 4.48885C67.0711 4.71356 66.677 5.30775 66.3845 6.2714L65.1389 10.3797L63.8687 9.99506Z" fill="#09100D"/>
<path d="M77.2897 12.2408L78.3787 12.9852C77.8431 13.7269 77.1991 14.1915 76.4451 14.379C75.6912 14.5679 74.9318 14.4673 74.1696 14.0799C73.2138 13.5918 72.6041 12.8874 72.339 11.9637C72.0753 11.0414 72.2401 9.99501 72.832 8.82318C73.2138 8.06632 73.6738 7.46662 74.2108 7.02684C74.7478 6.58568 75.3424 6.35407 75.9974 6.33064C76.6525 6.3072 77.2801 6.44782 77.8802 6.75387C78.6396 7.13989 79.1628 7.6486 79.4512 8.28C79.7396 8.91141 79.7712 9.61589 79.5487 10.3934L78.3073 9.98536C78.4364 9.45873 78.4213 9.00654 78.2633 8.62604C78.1054 8.24554 77.8294 7.95603 77.4339 7.75475C76.8379 7.45145 76.246 7.41837 75.6555 7.65825C75.065 7.89813 74.5376 8.48266 74.068 9.41047C73.5901 10.3535 73.4239 11.1296 73.5695 11.739C73.7123 12.3497 74.0735 12.8019 74.653 13.0969C75.1172 13.334 75.5786 13.3878 76.0345 13.261C76.4877 13.1327 76.9065 12.7922 77.2897 12.2408Z" fill="#09100D"/>
<path d="M75.9243 18.2625L76.5437 17.1665C76.7304 17.4022 76.9117 17.5856 77.0861 17.7138C77.3237 17.8889 77.542 17.9895 77.7439 18.0157C77.9458 18.0419 78.1435 18.0157 78.3399 17.9399C78.4855 17.882 78.7903 17.6959 79.2518 17.3815C79.3163 17.336 79.4111 17.2726 79.5388 17.1885L81.7937 9.07397L82.9459 9.92458L81.5726 14.5636C81.4037 15.1551 81.1977 15.7561 80.956 16.3696C81.4408 15.9671 81.9393 15.5935 82.4529 15.2502L86.5068 12.5522L87.5752 13.3422L80.4561 18.0143C79.6885 18.5203 79.1378 18.8512 78.8041 19.0097C78.3536 19.2234 77.9458 19.3226 77.5791 19.3061C77.2125 19.2896 76.8595 19.1558 76.5189 18.9035C76.3102 18.7505 76.1125 18.5368 75.9243 18.2625Z" fill="#09100D"/>
<path d="M101.097 43.7313C100.7 43.7313 100.344 43.4542 100.259 43.0488C100.086 42.2286 99.8869 41.3986 99.67 40.5839C99.5464 40.1248 99.8183 39.6519 100.276 39.5292C100.733 39.4065 101.203 39.6781 101.326 40.1372C101.553 40.9823 101.757 41.8412 101.937 42.6918C102.035 43.1564 101.739 43.6141 101.277 43.712C101.216 43.7257 101.156 43.7313 101.097 43.7313Z" fill="#09100D"/>
<path d="M56.5161 102C56.0629 102 55.6838 101.643 55.6605 101.183C55.6372 100.708 56.0011 100.303 56.4735 100.28C58.1695 100.194 59.8765 100.015 61.5491 99.7474C62.0202 99.6702 62.4569 99.9928 62.531 100.462C62.6052 100.93 62.2866 101.371 61.8197 101.447C60.0866 101.724 58.3178 101.91 56.5614 101.999C56.5449 102 56.5312 102 56.5161 102ZM51.3223 101.985C51.3058 101.985 51.2894 101.985 51.2743 101.984C49.5151 101.884 47.7463 101.688 46.0173 101.402C45.5504 101.325 45.2346 100.881 45.3115 100.412C45.3884 99.9431 45.8306 99.6274 46.2975 99.7033C47.966 99.9804 49.673 100.169 51.3718 100.264C51.8442 100.291 52.2067 100.697 52.1806 101.173C52.1518 101.632 51.7728 101.985 51.3223 101.985ZM66.7621 100.359C66.3858 100.359 66.0397 100.107 65.9354 99.7253C65.8104 99.2662 66.0796 98.7934 66.5369 98.6679C68.1724 98.2185 69.8012 97.6753 71.3777 97.0508C71.8185 96.8771 72.3156 97.0935 72.49 97.5361C72.6631 97.9786 72.4475 98.4777 72.0066 98.6528C70.3724 99.2993 68.6847 99.8632 66.9887 100.329C66.9131 100.348 66.8363 100.359 66.7621 100.359ZM41.0818 100.285C41.0049 100.285 40.928 100.274 40.8511 100.253C39.1592 99.7791 37.4742 99.2042 35.8414 98.548C35.4019 98.3701 35.1877 97.8697 35.3648 97.4285C35.5406 96.9874 36.0405 96.7737 36.4799 96.9502C38.0551 97.5843 39.681 98.1385 41.3125 98.5962C41.7684 98.7244 42.0348 99.1987 41.9071 99.6564C41.8014 100.036 41.4567 100.285 41.0818 100.285ZM76.4162 96.538C76.1086 96.538 75.8106 96.3711 75.6568 96.0789C75.4357 95.6584 75.5978 95.1373 76.0166 94.9167C77.5162 94.124 78.9898 93.2417 80.396 92.2904C80.7888 92.0243 81.3216 92.1305 81.5866 92.5234C81.8517 92.9177 81.7473 93.4526 81.3545 93.7187C79.8975 94.7044 78.369 95.6198 76.8159 96.4401C76.6868 96.5062 76.5508 96.538 76.4162 96.538ZM31.4496 96.4056C31.3137 96.4056 31.175 96.3739 31.0472 96.3036C29.4982 95.475 27.9766 94.55 26.5223 93.5546C26.1309 93.2872 26.0293 92.7509 26.2971 92.3594C26.5635 91.9664 27.0977 91.8644 27.4891 92.1333C28.8926 93.0928 30.3606 93.9861 31.8547 94.7857C32.2722 95.0091 32.4301 95.5316 32.2077 95.9507C32.0525 96.2402 31.7558 96.4056 31.4496 96.4056ZM85.0212 90.7229C84.7768 90.7229 84.5351 90.6182 84.3648 90.4169C84.0599 90.0529 84.1066 89.5098 84.4678 89.2037C85.7641 88.1077 87.0166 86.9276 88.188 85.6965C88.5162 85.3532 89.0586 85.3408 89.4006 85.6689C89.7425 85.997 89.7549 86.543 89.4281 86.8862C88.2127 88.1615 86.9163 89.3829 85.5733 90.5189C85.4126 90.6568 85.2162 90.7229 85.0212 90.7229ZM22.8749 90.5382C22.6785 90.5382 22.4807 90.4706 22.3187 90.3328C20.9811 89.1885 19.6916 87.9574 18.4845 86.6767C18.159 86.3307 18.1741 85.7861 18.5188 85.4594C18.8635 85.1326 19.406 85.1478 19.7314 85.4938C20.896 86.7304 22.1415 87.9174 23.4324 89.0231C23.7922 89.3319 23.8362 89.8751 23.5285 90.2363C23.3583 90.4362 23.1166 90.5382 22.8749 90.5382ZM92.1938 83.1957C92.0112 83.1957 91.8272 83.1378 91.672 83.0164C91.2971 82.7269 91.2257 82.1865 91.5154 81.8088C92.5509 80.4577 93.5232 79.0364 94.4048 77.5847C94.652 77.1794 95.178 77.0498 95.5831 77.2979C95.9868 77.5461 96.1159 78.0755 95.8687 78.4808C94.9541 79.9849 93.9475 81.4572 92.875 82.8579C92.7047 83.0799 92.4506 83.1957 92.1938 83.1957ZM97.5977 74.3008C97.4755 74.3008 97.3519 74.2746 97.2338 74.2195C96.8053 74.0168 96.6213 73.504 96.8232 73.0752C97.5455 71.5339 98.1896 69.9361 98.7402 68.3259C98.8941 67.8764 99.3816 67.6366 99.8293 67.791C100.277 67.9454 100.516 68.4348 100.362 68.8842C99.7922 70.5523 99.1234 72.2081 98.375 73.8059C98.228 74.1174 97.9204 74.3008 97.5977 74.3008ZM100.968 64.4464C100.905 64.4464 100.841 64.4395 100.778 64.4257C100.315 64.321 100.026 63.8605 100.13 63.3973C100.502 61.7402 100.788 60.0417 100.98 58.3474C101.034 57.8745 101.461 57.5368 101.929 57.5892C102.4 57.6429 102.738 58.0689 102.684 58.5418C102.485 60.2982 102.189 62.0587 101.804 63.7764C101.713 64.1748 101.36 64.4464 100.968 64.4464ZM102.142 54.0985C102.14 54.0985 102.138 54.0985 102.136 54.0985C101.663 54.0957 101.281 53.7083 101.284 53.2327L101.285 52.928C101.285 51.3233 101.204 49.7021 101.045 48.1125C100.997 47.6397 101.34 47.2178 101.811 47.1696C102.286 47.1227 102.704 47.4673 102.75 47.9402C102.915 49.5876 103 51.2654 103 52.928L102.999 53.2424C102.997 53.7166 102.613 54.0985 102.142 54.0985Z" fill="#09100D"/>
<path d="M15.7243 82.9379C15.4647 82.9379 15.2093 82.8207 15.0404 82.5974C14.513 81.9012 14.0008 81.1829 13.5147 80.4633C13.2496 80.0704 13.3512 79.5341 13.744 79.268C14.1368 79.0006 14.6696 79.104 14.9346 79.4983C15.4029 80.1931 15.8987 80.8852 16.4068 81.5579C16.6924 81.937 16.6196 82.4761 16.242 82.7642C16.0868 82.8814 15.9055 82.9379 15.7243 82.9379Z" fill="#09100D"/>
</svg>
