<svg width="30" height="30" viewBox="0 0 30 30" fill="none" xmlns="http://www.w3.org/2000/svg">
<g clip-path="url(#clip0_946_459)">
<path d="M5.55499 0.853784C5.06599 1.01455 4.71767 1.249 4.32915 1.66432C4.03441 1.97915 3.67938 2.59542 3.67938 2.78968C3.67938 2.85667 3.31766 2.87676 2.10521 2.87676C1.09372 2.87676 0.477444 2.90356 0.370266 2.95045C-0.0316502 3.13801 -0.105335 3.76768 0.236294 4.08921C0.40376 4.24998 0.417157 4.24998 2.03152 4.27008L3.65259 4.29017L3.77316 4.60501C4.33584 6.15239 6.25165 6.86244 7.77223 6.0921C8.32152 5.80406 8.8976 5.1409 9.11195 4.53802L9.19904 4.28347L19.3943 4.27008L29.5896 4.24998L29.7638 4.08921C30.1054 3.76768 30.0317 3.13801 29.6298 2.95045C29.5092 2.89686 26.6489 2.87676 19.3206 2.87676C10.8804 2.87676 9.17224 2.86337 9.17224 2.78968C9.17224 2.73609 9.07846 2.51504 8.97128 2.28729C8.69664 1.7447 8.04018 1.13513 7.51768 0.927468C6.9818 0.719811 6.06409 0.686318 5.55499 0.853784ZM6.99519 2.26719C8.05357 2.74279 8.11386 4.24998 7.09567 4.81266C6.37892 5.21458 5.44112 4.89305 5.11958 4.1361C4.63058 2.95715 5.84973 1.7447 6.99519 2.26719Z" fill="black"/>
<path d="M21.9734 12.1946C21.0959 12.3688 20.2653 13.0185 19.9169 13.8224L19.7294 14.2645H10.1905C-0.245896 14.2645 0.316788 14.2444 0.102432 14.6597C-0.0315399 14.9142 -0.0315399 15.0884 0.102432 15.3429C0.316788 15.7583 -0.245896 15.7382 10.1905 15.7382H19.7294L19.9169 16.1803C20.4059 17.3056 21.7322 18.0291 22.9179 17.8214C23.8959 17.654 24.7198 17.031 25.0883 16.1803L25.2758 15.7382H27.3122C29.5495 15.7382 29.7103 15.7114 29.8979 15.3429C30.0318 15.0884 30.0318 14.9142 29.8979 14.6597C29.7103 14.2913 29.5495 14.2645 27.3122 14.2645H25.2758L25.0883 13.8224C24.7265 12.9984 23.916 12.3688 22.9782 12.1879C22.5696 12.1142 22.3887 12.1142 21.9734 12.1946ZM23.2662 13.7956C23.4002 13.8893 23.5945 14.0836 23.6949 14.2243C23.8557 14.4587 23.8758 14.5525 23.8758 15.0013C23.8758 15.4501 23.8557 15.5439 23.6949 15.7784C23.5945 15.919 23.4002 16.1133 23.2595 16.2071C23.0519 16.3477 22.938 16.3745 22.5026 16.3745C22.0672 16.3745 21.9533 16.3477 21.7456 16.2071C21.605 16.1133 21.4107 15.919 21.3102 15.7784C21.1495 15.5439 21.1294 15.4501 21.1294 14.9946C21.1294 14.5257 21.1495 14.452 21.3303 14.1908C21.6318 13.7621 22.027 13.5812 22.5763 13.608C22.9112 13.6281 23.0787 13.675 23.2662 13.7956Z" fill="black"/>
<path d="M10.311 23.676C9.51387 23.9037 8.85741 24.4664 8.48898 25.2368L8.26793 25.7124L4.33584 25.7325L0.410458 25.7526L0.236294 25.9133C-0.105335 26.2349 -0.0316502 26.8645 0.370266 27.0521C0.490841 27.1057 1.69659 27.1258 4.40283 27.1258H8.27463L8.46219 27.5679C8.73683 28.1909 9.19904 28.6732 9.82871 28.9813C10.3244 29.2291 10.3579 29.2358 11.0813 29.2358C11.7914 29.2358 11.8383 29.2224 12.2871 29.0081C13.0038 28.6531 13.5665 28.0033 13.8211 27.2397C13.8546 27.1325 14.29 27.1258 21.6585 27.1258C27.2652 27.1258 29.5092 27.1057 29.6298 27.0521C30.0317 26.8645 30.1054 26.2349 29.7638 25.9133L29.5896 25.7526L21.7321 25.7191L13.868 25.6856L13.6335 25.21C13.3321 24.6205 12.8163 24.1114 12.2201 23.8301C11.6775 23.5755 10.8938 23.5152 10.311 23.676ZM11.4364 25.0626C11.8785 25.1698 12.3407 25.6454 12.4479 26.0942C12.6086 26.7507 12.3139 27.387 11.711 27.6885C11.1215 27.9765 10.5321 27.8894 10.0766 27.4272C9.61435 26.9717 9.52727 26.3822 9.81531 25.7928C10.0029 25.4176 10.3445 25.1363 10.7263 25.0492C11.0412 24.9755 11.088 24.9755 11.4364 25.0626Z" fill="black"/>
</g>
<defs>
<clipPath id="clip0_946_459">
<rect width="30" height="30" fill="white"/>
</clipPath>
</defs>
</svg>
