<svg width="85" height="75" viewBox="0 0 85 75" fill="none" xmlns="http://www.w3.org/2000/svg">
<path d="M5.8032 63.95H16.9032L16.5732 60.08H6.1632L5.8032 63.95ZM11.2932 54.71L14.2632 61.52L14.0832 62.81L16.6032 68H22.3632L11.2932 45.68L0.253203 68H5.9832L8.5932 62.6L8.3532 61.49L11.2932 54.71ZM24.8638 62.99L22.9738 65.99C23.5938 66.47 24.2638 66.91 24.9838 67.31C25.7038 67.69 26.4838 67.99 27.3238 68.21C28.1838 68.45 29.1138 68.57 30.1138 68.57C31.7538 68.57 33.0238 68.2 33.9238 67.46C34.8438 66.7 35.3038 65.58 35.3038 64.1C35.3038 63.24 35.1138 62.55 34.7338 62.03C34.3738 61.51 33.8838 61.08 33.2638 60.74C32.6638 60.4 32.0038 60.1 31.2838 59.84C30.6038 59.58 30.0238 59.37 29.5438 59.21C29.0838 59.03 28.7238 58.84 28.4638 58.64C28.2238 58.44 28.1038 58.19 28.1038 57.89C28.1038 57.63 28.2038 57.42 28.4038 57.26C28.6238 57.1 28.9438 57.02 29.3638 57.02C29.9838 57.02 30.6638 57.2 31.4038 57.56C32.1438 57.9 32.8038 58.34 33.3838 58.88L35.0038 55.94C34.4638 55.54 33.8838 55.19 33.2638 54.89C32.6638 54.59 32.0138 54.35 31.3138 54.17C30.6338 53.99 29.8938 53.9 29.0938 53.9C28.0938 53.9 27.2038 54.05 26.4238 54.35C25.6638 54.65 25.0538 55.09 24.5938 55.67C24.1538 56.25 23.9338 56.96 23.9338 57.8C23.9338 58.68 24.1238 59.4 24.5038 59.96C24.8838 60.52 25.3638 60.97 25.9438 61.31C26.5438 61.63 27.1738 61.91 27.8338 62.15C28.5738 62.37 29.1538 62.58 29.5738 62.78C30.0138 62.98 30.3238 63.19 30.5038 63.41C30.6838 63.61 30.7738 63.86 30.7738 64.16C30.7738 64.48 30.6638 64.74 30.4438 64.94C30.2238 65.14 29.8838 65.24 29.4238 65.24C29.1038 65.24 28.7238 65.18 28.2838 65.06C27.8438 64.92 27.3338 64.69 26.7537 64.37C26.1938 64.03 25.5638 63.57 24.8638 62.99ZM36.1754 54.2V57.95H45.4154V54.2H36.1754ZM38.6054 49.4V68H42.9554V49.4H38.6054ZM51.8162 54.2H47.3462V68H51.8162V54.2ZM55.8062 58.88L57.7562 55.01C57.5162 54.65 57.1662 54.37 56.7062 54.17C56.2462 53.97 55.7662 53.87 55.2662 53.87C54.5062 53.87 53.7762 54.12 53.0762 54.62C52.3762 55.12 51.8062 55.8 51.3662 56.66C50.9462 57.52 50.7362 58.5 50.7362 59.6L51.8162 61.19C51.8162 60.53 51.9062 59.97 52.0862 59.51C52.2662 59.05 52.5262 58.7 52.8662 58.46C53.2062 58.22 53.5962 58.1 54.0362 58.1C54.4362 58.1 54.7662 58.17 55.0262 58.31C55.3062 58.45 55.5662 58.64 55.8062 58.88ZM59.4102 49.01C59.4102 49.73 59.6702 50.32 60.1902 50.78C60.7102 51.24 61.3302 51.47 62.0502 51.47C62.7902 51.47 63.4102 51.24 63.9102 50.78C64.4302 50.32 64.6902 49.73 64.6902 49.01C64.6902 48.29 64.4302 47.71 63.9102 47.27C63.4102 46.81 62.7902 46.58 62.0502 46.58C61.3302 46.58 60.7102 46.81 60.1902 47.27C59.6702 47.71 59.4102 48.29 59.4102 49.01ZM59.8602 54.2V68H64.2402V54.2H59.8602ZM72.4712 74.6V54.2H67.9412V74.6H72.4712ZM83.7512 61.1C83.7512 59.48 83.4312 58.13 82.7912 57.05C82.1712 55.95 81.3612 55.12 80.3612 54.56C79.3812 54 78.3212 53.72 77.1812 53.72C75.9812 53.72 74.9412 54.03 74.0612 54.65C73.2012 55.25 72.5412 56.1 72.0812 57.2C71.6212 58.3 71.3912 59.6 71.3912 61.1C71.3912 62.58 71.6212 63.88 72.0812 65C72.5412 66.1 73.2012 66.96 74.0612 67.58C74.9412 68.18 75.9812 68.48 77.1812 68.48C78.3212 68.48 79.3812 68.2 80.3612 67.64C81.3612 67.08 82.1712 66.25 82.7912 65.15C83.4312 64.05 83.7512 62.7 83.7512 61.1ZM78.9812 61.1C78.9812 61.82 78.8312 62.43 78.5312 62.93C78.2312 63.43 77.8312 63.81 77.3312 64.07C76.8312 64.33 76.2812 64.46 75.6812 64.46C75.1612 64.46 74.6512 64.34 74.1512 64.1C73.6712 63.84 73.2712 63.46 72.9512 62.96C72.6312 62.46 72.4712 61.84 72.4712 61.1C72.4712 60.36 72.6312 59.74 72.9512 59.24C73.2712 58.74 73.6712 58.37 74.1512 58.13C74.6512 57.87 75.1612 57.74 75.6812 57.74C76.2812 57.74 76.8312 57.87 77.3312 58.13C77.8312 58.39 78.2312 58.77 78.5312 59.27C78.8312 59.77 78.9812 60.38 78.9812 61.1Z" fill="#D55437"/>
<g clip-path="url(#clip0_1417_11843)">
<path d="M53.1416 9.85351H51.8003V4.15851C51.8003 2.77081 50.6479 1.64225 49.2319 1.64225H48.4141V0.328451H49.2319C51.3879 0.328451 53.1416 2.0469 53.1416 4.15851V9.85351Z" fill="#D55437"/>
<path d="M37.5862 0.329435V1.64324H36.7681C35.3531 1.64324 34.1996 2.76982 34.1996 4.15917V9.8545H32.8584V4.15917C32.8584 2.04723 34.6121 0.329435 36.7681 0.329435H37.5862Z" fill="#D55437"/>
<path d="M46.4208 1.9707H39.5792C39.0236 1.9707 38.5732 1.52959 38.5732 0.985351C38.5732 0.441109 39.0236 0 39.5792 0H46.4208C46.9764 0 47.4267 0.441109 47.4267 0.985351C47.4267 1.52959 46.9764 1.9707 46.4208 1.9707Z" fill="#D55437"/>
<path d="M43.8933 37.9928H32.1877C31.9731 37.9928 31.7653 37.9764 31.5607 37.9436C31.1449 37.8812 30.7493 37.7564 30.3838 37.5856L39.0448 29.1017L43.8665 37.9436L43.8933 37.9928Z" fill="#D55437"/>
<path d="M35.0951 25.2358L28 32.1858V21.5211L35.0951 25.2358Z" fill="#D55437"/>
<path d="M58 12.6956V33.8905C58 35.9367 56.471 37.6348 54.4726 37.9436C54.258 37.9764 54.04 37.9928 53.8154 37.9928H47.297L47.2903 37.9436L46.8074 34.3996L48.0246 33.2073C48.4538 32.7836 48.4538 32.1004 48.0246 31.68C47.5954 31.2596 46.8946 31.2596 46.4654 31.68L46.4386 31.7063L45.2549 23.0188L48.551 19.7901C49.1881 19.1694 49.7414 18.4763 50.1974 17.7373C50.6568 16.9983 51.0189 16.21 51.2704 15.3955C51.4917 14.6926 51.3039 14.0521 50.8848 13.6382C50.4623 13.2277 49.8084 13.0438 49.0875 13.2572C48.2593 13.5069 47.4546 13.8616 46.7001 14.3083C45.9457 14.7583 45.2382 15.3002 44.6011 15.9243L41.305 19.1529L32.4395 17.9902L32.4663 17.9672C32.8955 17.5435 32.8955 16.8603 32.4663 16.4399C32.0338 16.0162 31.3363 16.0162 30.9071 16.4399L29.69 17.6322L28 17.4089V12.6956C28 10.4293 29.8744 8.59653 32.188 8.59653H53.8154C56.1256 8.59653 58 10.4293 58 12.6956Z" fill="#D55437"/>
</g>
<defs>
<clipPath id="clip0_1417_11843">
<rect width="30" height="38" fill="white" transform="translate(28)"/>
</clipPath>
</defs>
</svg>
