<svg width="22" height="22" viewBox="0 0 22 22" fill="none" xmlns="http://www.w3.org/2000/svg">
<path d="M10.798 1.20314C10.6477 1.2633 0.300781 8.84298 0.1375 9.00626C0.0214844 9.13087 0 9.18244 0 9.3672C0 9.48751 0.0300781 9.6422 0.0644531 9.71095C0.197656 9.96447 0.635938 10.0676 0.889453 9.90431C0.953906 9.86134 3.21406 8.21134 5.9082 6.23478C8.60234 4.26251 10.8539 2.62111 10.9141 2.58673C11.0215 2.52658 11.1246 2.59962 16.0059 6.17462C18.7473 8.18126 21.0461 9.86134 21.1148 9.90431C21.2652 10.0031 21.5488 10.0074 21.7293 9.90861C21.9098 9.81837 22 9.6379 22 9.3672C22 9.18244 21.9785 9.13087 21.8625 9.00626C21.682 8.8215 11.348 1.2633 11.1934 1.20314C11.0559 1.15158 10.927 1.15158 10.798 1.20314Z" fill="#09100D"/>
<path d="M2.71133 10.0461C2.62969 10.0891 2.52656 10.1922 2.48359 10.2738C2.41055 10.4113 2.40625 10.6563 2.40625 15.4043C2.40625 20.2684 2.41055 20.393 2.49219 20.5262C2.68125 20.8356 2.46211 20.8184 5.86523 20.8184C9.26406 20.8184 9.05781 20.8356 9.22539 20.5262C9.29844 20.4016 9.30273 20.1524 9.32422 17.3164L9.3457 14.2442L9.47031 13.9863C9.63359 13.6555 9.96016 13.3289 10.291 13.1656C10.5273 13.0539 10.5875 13.041 11 13.041C11.4125 13.041 11.4727 13.0539 11.709 13.1656C12.0398 13.3289 12.3664 13.6555 12.5297 13.9863L12.6543 14.2442L12.6758 17.3164C12.6973 20.1524 12.7016 20.4016 12.7746 20.5262C12.9422 20.8356 12.7359 20.8184 16.1348 20.8184C19.5379 20.8184 19.3188 20.8356 19.5078 20.5262C19.5895 20.393 19.5938 20.2684 19.5938 15.4043C19.5938 10.6563 19.5895 10.4113 19.5164 10.2738C19.4262 10.102 19.2027 9.96876 19.0137 9.96876C18.8418 9.96876 18.6098 10.0891 18.5023 10.2395C18.4121 10.3598 18.4121 10.3856 18.3992 15.0004L18.3906 19.6367H16.1348H13.8789V17.0371C13.8789 14.0981 13.8746 14.0422 13.5695 13.4063C13.4277 13.1098 13.3246 12.9723 13.0238 12.6715C12.723 12.3707 12.5855 12.2676 12.2891 12.1258C11.8852 11.9324 11.3996 11.8164 11 11.8164C10.6004 11.8164 10.1148 11.9324 9.71094 12.1258C9.41445 12.2676 9.27695 12.3707 8.97617 12.6715C8.67539 12.9723 8.57227 13.1098 8.43047 13.4063C8.12109 14.0594 8.12109 14.0637 8.12109 17.0113V19.6367H5.86523H3.60938L3.60078 15.0004C3.58789 10.3856 3.58789 10.3598 3.49766 10.2395C3.31289 9.98595 2.97773 9.90431 2.71133 10.0461Z" fill="#09100D"/>
</svg>
