<svg width="20" height="16" viewBox="0 0 20 16" fill="none" xmlns="http://www.w3.org/2000/svg">
<path d="M12.1406 0.358092C11.5234 0.557311 11.0469 1.03387 10.8594 1.64325C10.7852 1.88153 10.7812 2.01044 10.7812 4.4284V6.96356H5.65625H0.535156L0.367187 7.06122C0.121094 7.20575 0 7.43231 0 7.74481C0 8.05731 0.121094 8.28387 0.367187 8.4284L0.535156 8.52606L5.88281 8.51825L11.2305 8.50653L11.4648 8.39325C11.9375 8.15887 12.2656 7.70575 12.3437 7.1784C12.3633 7.02215 12.3828 5.88934 12.3828 4.49872V2.09247L12.4805 1.9909C12.5937 1.87762 12.7227 1.84637 12.8555 1.89325C12.9883 1.94012 18.2305 7.18622 18.3242 7.362C18.4219 7.5534 18.4219 7.85809 18.3242 8.0495C18.2812 8.12762 17.0586 9.38153 15.5781 10.862C12.9141 13.5222 12.9102 13.5261 12.75 13.5261C12.6289 13.5261 12.5625 13.5026 12.4883 13.4245L12.3906 13.3268L12.375 12.3034C12.3633 11.3464 12.3555 11.2682 12.2773 11.1237C12.1836 10.9479 12.1055 10.8659 11.9336 10.78C11.5469 10.5847 11.0781 10.7214 10.8711 11.0847C10.7852 11.237 10.7812 11.2722 10.7812 12.3776C10.7812 13.405 10.7891 13.5417 10.8594 13.7682C11.0469 14.3815 11.5352 14.8659 12.1602 15.0573C12.3828 15.1237 12.5 15.1354 12.8555 15.1198C13.2578 15.1042 13.2969 15.0925 13.6016 14.9401C13.9219 14.7839 13.9648 14.7448 16.7812 11.9167C19.4414 9.24481 19.6406 9.03387 19.7578 8.78778C19.9609 8.35809 20.0117 8.10419 19.9922 7.58856C19.9727 7.10028 19.8867 6.8034 19.6641 6.44794C19.5195 6.22137 14.1055 0.772155 13.8516 0.596374C13.5273 0.377624 13.2031 0.283874 12.7539 0.28778C12.4883 0.28778 12.293 0.311217 12.1406 0.358092Z" fill="#5E5E5E"/>
</svg>
