<svg width="60" height="60" viewBox="0 0 60 60" fill="none" xmlns="http://www.w3.org/2000/svg">
<path d="M45.791 39.7977C50.2504 35.5938 53.0389 29.636 53.0389 23.0383C53.0389 17.787 51.3179 12.841 48.0621 8.73498C44.9039 4.752 40.4623 1.88934 35.5556 0.674339C34.9281 0.519183 34.2921 0.901918 34.1365 1.53016C33.981 2.1584 34.3641 2.79379 34.9925 2.94942C44.2379 5.23879 50.6951 13.4997 50.6951 23.0383C50.6951 34.4494 41.4115 43.733 30.0004 43.733C18.5894 43.733 9.30564 34.4494 9.30564 23.0383C9.30564 13.4997 15.7629 5.23879 25.0085 2.94942C25.6367 2.79379 26.0198 2.1584 25.8643 1.53016C25.7087 0.901918 25.0731 0.518597 24.445 0.674339C19.5383 1.88934 15.0968 4.752 11.9387 8.73498C8.68284 12.841 6.96191 17.787 6.96191 23.0383C6.96191 29.6358 9.75039 35.5938 14.2096 39.7977L8.07437 51.5314C7.77519 52.1036 7.99524 52.81 8.56644 53.1111L8.60867 53.1333C8.87064 53.2715 9.17514 53.3052 9.46127 53.2278L17.9642 50.9258L20.9269 59.2221C21.0835 59.6604 21.4848 59.9646 21.9493 59.997C21.9766 59.9989 22.0037 59.9998 22.0308 59.9998C22.4646 59.9998 22.8659 59.7592 23.069 59.371L30.0004 46.1146L36.9319 59.371C37.1348 59.7594 37.5362 60 37.97 59.9998C37.9971 59.9998 38.0243 59.9989 38.0515 59.997C38.516 59.9648 38.9173 59.6604 39.074 59.2221L42.0366 50.9258L50.5395 53.2279C50.8253 53.3055 51.13 53.2717 51.3921 53.1335L51.4343 53.1112C52.0055 52.8102 52.2256 52.1037 51.9263 51.5315L45.791 39.7977ZM22.2332 55.9111L19.8071 49.1175C19.6014 48.5416 18.9872 48.2205 18.3972 48.3804L11.3723 50.2824L16.0412 41.3531C19.2802 43.8277 23.1916 45.4636 27.4496 45.9348L22.2332 55.9111ZM41.6036 48.3804C41.0135 48.2207 40.3994 48.5416 40.1937 49.1175L37.7675 55.9111L32.5511 45.9348C36.8091 45.4636 40.7204 43.8277 43.9594 41.3531L48.6284 50.2824L41.6036 48.3804Z" fill="white"/>
<path d="M30 2.34375C30.6472 2.34375 31.1719 1.81908 31.1719 1.17188C31.1719 0.524666 30.6472 0 30 0C29.3528 0 28.8281 0.524666 28.8281 1.17188C28.8281 1.81908 29.3528 2.34375 30 2.34375Z" fill="white"/>
<path d="M12.8213 23.0385C12.8213 32.511 20.5278 40.2176 30.0004 40.2176C39.4731 40.2176 47.1795 32.5111 47.1795 23.0385C47.1795 13.5659 39.4731 5.85938 30.0004 5.85938C20.5278 5.85938 12.8213 13.5659 12.8213 23.0385ZM44.8358 23.0385C44.8358 31.2188 38.1807 37.8738 30.0004 37.8738C21.8202 37.8738 15.165 31.2188 15.165 23.0385C15.165 14.8582 21.8202 8.20312 30.0004 8.20312C38.1807 8.20312 44.8358 14.8582 44.8358 23.0385Z" fill="white"/>
<path d="M28.9451 16.7324L26.5308 21.7284L21.1196 20.5009C20.6965 20.4052 20.2554 20.5505 19.9724 20.879C19.6895 21.2076 19.611 21.6655 19.7685 22.0695L21.9495 27.6628H21.7971C21.1499 27.6628 20.6252 28.1874 20.6252 28.8346C20.6252 29.4818 21.1499 30.0065 21.7971 30.0065H38.2034C38.8505 30.0065 39.3752 29.4818 39.3752 28.8346C39.3752 28.1874 38.8505 27.6628 38.2034 27.6628H38.051L40.232 22.0695C40.3896 21.6655 40.3112 21.2076 40.0283 20.879C39.7454 20.5504 39.3041 20.4052 38.8811 20.5008L33.4698 21.7282L31.0554 16.7323C30.8598 16.3276 30.4498 16.0703 30.0002 16.0703C29.5508 16.0705 29.1407 16.3276 28.9451 16.7324ZM31.765 23.5872C32.0024 24.0784 32.5475 24.3408 33.0794 24.2201L37.2464 23.275L35.5356 27.6628H24.4652L22.7543 23.275L26.9214 24.2201C27.4533 24.3406 27.9983 24.0784 28.2358 23.5872L30.0002 19.9355L31.765 23.5872Z" fill="white"/>
</svg>
