<svg width="40" height="40" viewBox="0 0 40 40" fill="none" xmlns="http://www.w3.org/2000/svg">
<g clip-path="url(#clip0_1417_12018)">
<path d="M13.6172 10.0234L7.1875 16.4453V16.8359V17.2266L16.7812 26.8125L26.3672 36.4062H26.7578H27.1484L33.5703 29.9766L40 23.5547V23.1641V22.7734L36.1953 18.9688C33.6406 16.4219 32.3125 15.1484 32.1719 15.1094C31.875 15.0391 31.5859 15.125 31.3594 15.3516C31.2109 15.5 31.1719 15.625 31.1719 15.9141V16.2812L34.1172 19.2344L37.0703 22.1875H30.1094C22.2266 22.1875 22.6875 22.2266 22.0312 21.5625C21.3672 20.9062 21.4062 21.3672 21.4062 13.4844V6.52344L24.2422 9.35156C27.25 12.3672 27.2969 12.3984 27.8047 12.1875C28.125 12.0625 28.2812 11.7891 28.2812 11.3906V11.0547L24.5469 7.32812L20.8203 3.59375H20.4297H20.0391L13.6172 10.0234ZM19.7656 11.1328V16.0156H14.8672H9.96094L14.8438 11.1328C17.5312 8.44531 19.7344 6.25 19.7422 6.25C19.7578 6.25 19.7656 8.44531 19.7656 11.1328ZM19.7656 19.125C19.7656 21.1797 19.9688 21.8594 20.8516 22.7422C21.7344 23.625 22.4141 23.8281 24.4688 23.8281H25.9375V28.7109C25.9375 31.3984 25.9297 33.5938 25.9141 33.5938C25.9062 33.5938 22.3125 30.0078 17.9297 25.625L9.96094 17.6562H14.8672H19.7656V19.125ZM37.3438 23.8516C37.3438 23.8594 35.1484 26.0625 32.4609 28.75L27.5781 33.6328V28.7266V23.8281H32.4609C35.1484 23.8281 37.3438 23.8359 37.3438 23.8516Z" fill="white"/>
<path d="M0.203125 11.8438C-0.0859375 12.1406 -0.0859375 12.7031 0.203125 13L0.414062 13.2031H2.03125H3.64844L3.85938 13C4.14844 12.7031 4.14844 12.1406 3.85938 11.8438L3.64844 11.6406H2.03125H0.414062L0.203125 11.8438Z" fill="white"/>
<path d="M5.27344 11.8281C4.92188 12.1797 4.92188 12.6641 5.27344 13.0156L5.46094 13.2031H7.29688C9.125 13.2031 9.13281 13.2031 9.35156 13.0156C9.53906 12.8516 9.57031 12.7656 9.57031 12.4219C9.57031 12.0781 9.53906 11.9922 9.35156 11.8281C9.13281 11.6406 9.125 11.6406 7.29688 11.6406H5.46094L5.27344 11.8281Z" fill="white"/>
<path d="M29.3982 13.0624C29.3044 13.1093 29.1716 13.2655 29.1013 13.414C28.7575 14.1405 29.4529 14.8358 30.1716 14.4999C30.9294 14.1405 30.6872 12.9608 29.8669 12.9765C29.7029 12.9765 29.4919 13.0155 29.3982 13.0624Z" fill="white"/>
<path d="M0.203125 20.0469C-0.0859375 20.3438 -0.0859375 20.9062 0.203125 21.2031L0.414062 21.4062H3.0625H5.71875L5.94531 21.1797C6.125 21 6.17188 20.8828 6.17188 20.625C6.17188 20.3672 6.125 20.25 5.94531 20.0703L5.71875 19.8438H3.0625H0.414062L0.203125 20.0469Z" fill="white"/>
<path d="M7.10174 20.0703C6.58612 20.5859 6.94549 21.4062 7.68768 21.4062C8.21893 21.4062 8.47674 21.1562 8.47674 20.625C8.47674 20.2812 8.44549 20.1953 8.25799 20.0312C7.92987 19.75 7.40643 19.7656 7.10174 20.0703Z" fill="white"/>
<path d="M5.53906 24.3672C5.35938 24.5469 5.3125 24.6641 5.3125 24.9219C5.3125 25.1797 5.35938 25.2969 5.53906 25.4766L5.76562 25.7031H8.32031H10.8672L11.0547 25.5156C11.4062 25.1641 11.4062 24.6797 11.0547 24.3281L10.8672 24.1406H8.32031H5.76562L5.53906 24.3672Z" fill="white"/>
<path d="M2.3125 29.3438C2.14844 29.5078 2.10938 29.625 2.10938 29.9219C2.10938 30.2188 2.14844 30.3359 2.3125 30.5L2.52344 30.7031H8.39844H14.2734L14.4844 30.5C14.7734 30.2031 14.7734 29.6406 14.4844 29.3438L14.2734 29.1406H8.39844H2.52344L2.3125 29.3438Z" fill="white"/>
</g>
<defs>
<clipPath id="clip0_1417_12018">
<rect width="40" height="40" fill="white"/>
</clipPath>
</defs>
</svg>
