<svg width="20" height="20" viewBox="0 0 20 20" fill="none" xmlns="http://www.w3.org/2000/svg">
<path d="M7.94201 0.00728666L3.97271 0.0281777L3.68024 0.145167C3.04933 0.39586 2.52288 0.926492 2.29308 1.55322L2.17609 1.86659V10.0141V18.1616L2.29308 18.475C2.52706 19.1142 3.06187 19.649 3.70113 19.883L4.0145 20H9.84309H15.6717L15.9433 19.8997C16.524 19.6908 17.0087 19.2605 17.2845 18.7173C17.5435 18.2075 17.531 18.546 17.531 11.6854V5.41806L14.8486 2.73565C12.9015 0.788611 12.1286 0.0407123 12.0367 0.0156431C11.9698 -0.00106975 10.1272 -0.00524796 7.94201 0.00728666ZM11.4308 2.42229C11.4308 3.30389 11.4475 4.02254 11.4768 4.16878C11.5979 4.83729 12.116 5.53087 12.7302 5.83171C13.2442 6.0824 13.4364 6.10747 15.0993 6.10747H16.57L16.5616 12.0907L16.5491 18.078L16.4363 18.2869C16.3026 18.5376 16.031 18.805 15.7761 18.9387L15.5881 19.039H9.84309H4.09806L3.88915 18.9262C3.60503 18.7758 3.35434 18.5042 3.21228 18.2034L3.09529 17.9527L3.08276 10.2021C3.07858 5.55594 3.08694 2.35126 3.112 2.19667C3.20393 1.58247 3.5925 1.15211 4.20252 0.984987C4.34458 0.943205 5.24707 0.93067 7.91276 0.93067L11.4308 0.926492V2.42229ZM15.6842 5.13812C15.5631 5.14648 15.0115 5.14648 14.46 5.13812C13.4656 5.12559 13.4531 5.12559 13.2274 5.01278C12.9266 4.86654 12.6592 4.59913 12.5213 4.31084C12.4127 4.08104 12.4127 4.08104 12.4002 2.84847L12.3876 1.6159L14.1466 3.37074L15.9015 5.12559L15.6842 5.13812Z" fill="#09100D"/>
<path d="M4.96292 8.32187C4.68298 8.49318 4.64955 8.84833 4.89607 9.07813L5.0047 9.17841H7.77903H10.5534L10.6871 9.04052C10.7999 8.92771 10.8249 8.8734 10.8249 8.7188C10.8249 8.56421 10.7999 8.50989 10.6871 8.39708L10.5534 8.2592L7.82499 8.24667C5.15094 8.23831 5.09662 8.23831 4.96292 8.32187Z" fill="#09100D"/>
<path d="M4.90027 11.957C4.71643 12.099 4.683 12.3288 4.79999 12.5754C4.90863 12.801 4.69554 12.7926 9.84309 12.7926C14.9906 12.7926 14.7776 12.801 14.8862 12.5754C15.0032 12.3288 14.9697 12.099 14.7859 11.957C14.6773 11.8734 14.6522 11.8734 9.84309 11.8734C5.03397 11.8734 5.0089 11.8734 4.90027 11.957Z" fill="#09100D"/>
<path d="M5.03815 15.4959C4.92116 15.5377 4.79163 15.6881 4.74567 15.826C4.683 16.0099 4.7791 16.2313 4.96294 16.3441C5.10082 16.4277 5.15931 16.4277 9.84726 16.4277H14.5937L14.7358 16.3316C14.9948 16.1561 15.0199 15.8218 14.7943 15.592L14.6898 15.4876L9.89322 15.4792C7.25677 15.475 5.07157 15.4834 5.03815 15.4959Z" fill="#09100D"/>
</svg>
