<svg width="120" height="110" viewBox="0 0 120 110" fill="none" xmlns="http://www.w3.org/2000/svg">
<g clip-path="url(#clip0_1417_12360)">
<path d="M30.1704 82.158C31.49 79.8229 32.5541 76.6721 31.3642 74.0247C30.223 71.4862 27.9198 69.7866 25.6961 68.6311C23.3157 67.3946 20.793 66.3729 18.2485 65.6631C15.6136 64.9279 12.9099 64.5068 10.2117 64.2061C9.51697 64.1288 8.79498 64.1263 8.10977 63.9814C8.0638 63.9718 7.95971 63.9282 7.86739 63.895C7.9222 63.7999 7.96376 63.6748 8.01341 63.5884C8.71958 62.3665 9.87484 61.3942 10.8981 60.5378C13.6735 58.2148 16.6284 56.1601 19.6094 54.1938C21.0501 53.2435 22.5087 52.3327 23.9774 51.4385C25.0131 50.808 26.3949 49.8859 27.2868 49.4776C27.7131 49.2824 28.0669 48.8986 28.0555 48.3375C27.9661 43.8747 23.2307 45.6677 21.0324 46.7854C17.5446 48.5589 14.2906 51.0784 11.2898 53.7361C9.37206 55.4345 7.28664 56.9455 5.24572 58.5387C4.41155 59.19 3.55421 59.8429 2.85466 60.679C1.77333 61.9715 0.467643 63.5972 0.0921197 65.3773C-0.0649306 66.1212 -0.0608848 67.0827 0.422771 67.6833C0.880313 68.2515 1.68212 68.5887 2.29597 68.8695C3.40121 69.3746 4.46856 69.5798 5.6503 69.6479C7.9553 69.7804 10.2842 69.7347 12.5852 69.5378C14.081 69.4099 15.6931 69.2043 17.176 69.5162C18.9635 69.8925 20.8316 70.6239 22.5121 71.4027C23.902 72.0469 25.5777 72.9237 26.2401 74.5605C26.8907 76.1683 26.2088 78.0062 25.4736 79.4097C23.3584 83.4455 19.8525 86.4858 16.0656 88.2984C14.0608 89.2578 11.9562 89.9224 9.83218 90.4461C8.94688 90.6642 7.83172 91.1393 6.94091 90.876C5.96881 90.589 5.03608 90.0935 4.16071 89.5415C3.73186 89.2707 3.24894 89.3712 2.89181 89.7263C1.56957 91.0405 2.09221 92.5943 3.41261 93.5857C4.57412 94.4579 6.06959 94.8712 7.42567 95.1519C13.2983 96.3236 19.4457 93.1085 23.9362 89.0327C25.1186 87.9595 26.2515 86.7965 27.3854 85.6585C28.4292 84.6097 29.4149 83.495 30.1704 82.158ZM7.75522 64.0528C7.67209 64.1633 7.71145 64.1101 7.75669 64.0491C7.75595 64.0503 7.75595 64.0511 7.75522 64.0528Z" fill="#5E5E5E"/>
<path d="M34.3436 78.8034C34.9008 76.9398 35.7497 74.5931 36.8615 71.8398C36.8755 71.8082 36.9174 71.7177 36.9877 71.5669C37.0616 71.4082 37.1061 71.3119 37.1212 71.2782L37.1466 71.2205L37.1546 71.157C37.169 71.0411 37.1837 70.9165 37.1988 70.7827C37.2157 70.6278 37.2198 70.4721 37.2117 70.3176C37.2014 70.1385 37.1653 69.9724 37.1043 69.8229C37.027 69.6339 36.8928 69.4848 36.703 69.3776C36.3804 69.1986 36.1906 69.5305 35.8765 70.0804C35.6474 70.4808 35.3738 71.0091 35.0402 71.6957C34.7103 72.3743 34.3505 73.1622 33.9706 74.0369C33.5852 74.9237 33.2166 75.8678 32.8757 76.8438C32.5329 77.8236 32.2335 78.8333 31.986 79.8455C31.7351 80.8693 31.5781 81.8632 31.5192 82.7986C31.4585 83.7543 31.5284 84.6398 31.7267 85.4306C31.9334 86.258 32.3302 86.9429 32.9058 87.4666L32.9084 87.4691C33.1519 87.6867 33.4469 87.7951 33.79 87.7951C34.0787 87.7951 34.4013 87.7183 34.7566 87.5642C35.4385 87.2685 36.2197 86.7622 37.0796 86.059C37.9281 85.365 38.8303 84.5011 39.7612 83.4905C40.6881 82.4846 41.6028 81.4018 42.4804 80.2721C43.3576 79.1423 44.1811 77.9798 44.9281 76.8168C45.6795 75.6468 46.2941 74.5424 46.7546 73.5356C47.225 72.5077 47.5174 71.5897 47.6241 70.8081C47.7767 69.6842 47.3798 69.1193 47.0201 68.8435L46.9315 68.7754H46.8241C46.6093 68.7754 46.4784 68.9664 46.4298 69.0366C46.3905 69.0935 46.3607 69.1351 46.3386 69.1604L46.2812 69.2256L46.2551 69.3124C45.93 70.3969 45.475 71.554 44.9023 72.7519C44.3264 73.9564 43.6625 75.1708 42.9287 76.3612C42.1928 77.5553 41.4079 78.7149 40.5961 79.809C39.7851 80.9017 38.9738 81.8873 38.1841 82.7388C37.4003 83.5844 36.6497 84.2826 35.9534 84.8142C35.2844 85.3259 34.7125 85.6258 34.2531 85.7056C33.8768 85.7712 33.6297 85.6607 33.4524 85.345C33.3104 85.0929 33.1721 84.5247 33.32 83.2455C33.445 82.1494 33.7897 80.6554 34.3436 78.8034Z" fill="#5E5E5E"/>
<path d="M61.2672 76.9801C60.9009 77.9482 60.5309 78.8981 60.1671 79.8032C59.8 80.7165 59.4149 81.6581 59.0232 82.6017C58.6304 83.5475 58.17 84.6382 57.658 85.8356C57.6396 85.8763 57.6021 85.9644 57.5458 86.1002C57.4943 86.2239 57.4358 86.3531 57.3718 86.4873C57.3027 86.6318 57.2379 86.7755 57.1795 86.9155C57.1397 87.0106 57.1133 87.0729 57.1052 87.0895C57.057 87.1672 57.0265 87.2619 57.0099 87.3877C56.997 87.4862 56.9904 87.6095 57.0408 87.7271C57.061 87.7819 57.0919 87.8438 57.1386 87.9239C57.1854 88.0053 57.2519 88.12 57.3674 88.1765C57.4969 88.25 57.6293 88.2869 57.7606 88.2869C57.8867 88.2869 58.0125 88.2529 58.1343 88.1848C58.3314 88.0739 58.5153 87.9023 58.6808 87.6747C58.8324 87.4671 58.9684 87.227 59.0854 86.9612C59.1406 86.8353 59.252 86.506 59.4127 86.0175L59.4756 86.037L59.583 85.6616C59.6014 85.5968 59.6158 85.5465 59.6268 85.5071C59.6349 85.4788 59.6434 85.4485 59.6522 85.4169C59.7099 85.2857 59.8067 85.056 59.9472 84.7167C60.1002 84.3474 60.2833 83.9134 60.4963 83.4154C60.7059 82.9249 60.9296 82.3878 61.1616 81.8184C61.3864 81.266 61.6081 80.7331 61.8211 80.2351C62.0355 79.7334 62.2198 79.2969 62.3739 78.9243C62.5589 78.4774 62.6413 78.2863 62.677 78.2066C63.0624 77.358 63.3901 76.5469 63.6513 75.7955C63.9187 75.0255 64.0867 74.3393 64.1507 73.7554C64.2202 73.1199 64.1533 72.5912 63.9514 72.1829C63.7947 71.8668 63.4541 71.483 62.7244 71.449C62.2128 71.4245 61.5559 71.586 60.7144 71.9416C59.9107 72.2809 58.903 72.8441 57.719 73.6146L57.6845 73.637L57.6554 73.6673C57.5977 73.728 57.4895 73.843 57.331 74.0121C57.1765 74.1769 56.9886 74.3701 56.7723 74.5869C56.5505 74.8091 56.3177 75.0463 56.0742 75.2992L55.389 76.0086C55.2301 76.1731 55.0849 76.3226 54.9539 76.4572C55.0231 76.262 55.0988 76.0481 55.1816 75.8159C55.339 75.3735 55.5063 74.8859 55.6792 74.3668C55.855 73.8389 56.0102 73.3097 56.1408 72.7947C56.2728 72.2722 56.3703 71.7759 56.4306 71.3198C56.4976 70.8118 56.4825 70.3994 56.3839 70.058C56.2673 69.6572 56.0169 69.3818 55.6597 69.2618C55.3287 69.1505 54.8976 69.2252 54.3474 69.4886C54.1102 69.5966 53.8895 69.7187 53.6916 69.8516C53.5272 69.9616 53.3602 70.0547 53.1947 70.1274C53.052 70.1905 52.902 70.2229 52.7482 70.2237C52.6129 70.2283 52.4514 70.1664 52.2675 70.0497L52.0038 69.8823L51.8195 70.1531C51.6669 70.3778 51.4264 70.7304 51.0986 71.2106C50.7695 71.6915 50.3903 72.2514 49.961 72.8902C49.5311 73.529 49.0695 74.2343 48.5899 74.9856C48.1059 75.7436 47.6277 76.5087 47.1687 77.2592C46.7049 78.0172 46.265 78.7665 45.8619 79.4863C45.7394 79.7047 45.4824 80.1512 45.1767 80.6816C44.4378 81.9638 43.5183 83.5599 43.3219 83.9728C43.0339 84.5775 42.8445 85.0763 42.7422 85.4967C42.5539 86.2709 42.8327 86.5575 43.0251 86.6605C43.4554 86.9097 43.8828 86.3552 44.066 86.1172C44.3617 85.7338 44.7203 85.2063 45.1315 84.5493C45.5412 83.8947 47.5247 80.5944 48.0102 79.7708C48.5141 78.9156 49.0349 78.05 49.5572 77.1981C50.0824 76.3409 50.6264 75.4969 51.174 74.6895C51.7136 73.8933 52.2425 73.1955 52.746 72.6144C53.2352 72.05 53.6975 71.6334 54.1201 71.375C54.3735 71.2201 54.5935 71.1562 54.7851 71.1852C54.7645 71.368 54.7274 71.5424 54.6744 71.7065C54.5813 71.9956 54.4839 72.2909 54.3868 72.5812C54.3268 72.7444 54.2444 72.9845 54.1422 73.2943C54.0399 73.6038 53.9226 73.956 53.7909 74.3506C53.6589 74.7447 53.5188 75.1584 53.3694 75.5912C53.2194 76.0265 53.0778 76.4422 52.9454 76.8389C52.8133 77.2326 52.6931 77.5869 52.5846 77.9009C52.4761 78.2132 52.3944 78.44 52.3418 78.575L52.323 78.6232L52.1333 80.064C52.0998 80.3161 52.2322 80.5321 52.5268 80.7053C52.7361 80.8286 52.9251 80.8822 53.1072 80.8664C53.3411 80.8453 53.6177 80.6953 53.977 80.3946C54.2849 80.1371 54.6394 79.7998 55.0308 79.392C55.4173 78.9899 55.8399 78.5447 56.2997 78.0571C56.7525 77.5765 57.2269 77.0823 57.7095 76.588C58.1847 76.1012 58.6749 75.6365 59.1671 75.207C59.6533 74.7829 60.1288 74.4232 60.5812 74.1379C61.0175 73.8629 61.4353 73.6789 61.8229 73.5921C62.0752 73.5357 62.3003 73.5394 62.5048 73.6042L62.4927 73.6976C62.0392 74.925 61.6269 76.0285 61.2672 76.9801Z" fill="#5E5E5E"/>
<path d="M80.0078 80.7839C79.5668 81.8916 79.1199 82.9823 78.6796 84.0256C78.2376 85.0727 77.7738 86.1534 77.3015 87.2374C76.8293 88.3211 76.275 89.5721 75.6582 90.9485C75.6361 90.995 75.5916 91.0955 75.5236 91.2505C75.4636 91.3879 75.3926 91.5391 75.3132 91.6978C75.229 91.8652 75.1521 92.0292 75.084 92.185C75.0046 92.3669 74.9877 92.3985 74.9903 92.3931C74.9377 92.4741 74.9038 92.575 74.8836 92.7104C74.8681 92.8142 74.8586 92.9438 74.9086 93.0668C74.9296 93.1282 74.963 93.1984 75.0153 93.2919C75.0671 93.3853 75.1344 93.507 75.2529 93.5668C75.3989 93.6541 75.5489 93.6977 75.6986 93.6977C75.831 93.6977 75.9631 93.6636 76.0922 93.5947C76.3154 93.4755 76.5254 93.2865 76.7167 93.0335C76.8932 92.7997 77.0532 92.5293 77.1915 92.2294C77.3203 91.9499 77.438 91.6804 77.5409 91.4291C77.6454 91.1741 77.7289 90.9444 77.7896 90.7458C77.8355 90.5951 77.8595 90.5141 77.8727 90.4667C77.9411 90.3193 78.0588 90.0522 78.232 89.6547C78.4163 89.2307 78.6366 88.7327 78.893 88.1607C79.1442 87.6004 79.4134 86.9845 79.6933 86.3299C79.9625 85.6994 80.2299 85.0876 80.4874 84.5128C80.7452 83.938 80.9666 83.4371 81.1524 83.0101C81.3749 82.4971 81.4746 82.277 81.518 82.1848C81.9795 81.2133 82.3738 80.2846 82.6898 79.4236C83.012 78.5439 83.2187 77.7589 83.3036 77.0894C83.3945 76.3688 83.3294 75.7678 83.1091 75.303C82.8634 74.7855 82.4055 74.5006 81.7478 74.4557C81.1641 74.4154 80.4068 74.5853 79.4336 74.9732C78.4983 75.3462 77.3239 75.9713 75.9429 76.8319L75.9083 76.8531L75.8789 76.8825C75.8108 76.9511 75.6836 77.0815 75.4967 77.2734C75.315 77.4603 75.0932 77.68 74.838 77.9263C74.5772 78.1776 74.3036 78.4463 74.0163 78.7329L73.2101 79.5374C72.9585 79.7879 72.7364 80.0076 72.5444 80.1966C72.5356 80.2053 72.5267 80.214 72.5179 80.2227C72.6249 79.9349 72.7478 79.6068 72.8861 79.2388C73.0766 78.7308 73.2796 78.1709 73.4893 77.5749C73.7019 76.971 73.8913 76.3642 74.0524 75.7715C74.2146 75.1734 74.3363 74.604 74.4143 74.0794C74.5 73.5029 74.4908 73.0344 74.386 72.6465C74.2642 72.1996 73.992 71.8889 73.5989 71.7477C73.2311 71.6152 72.743 71.6912 72.1119 71.9769C71.8378 72.0953 71.583 72.2295 71.3531 72.3769C71.1582 72.5024 70.9603 72.6074 70.7646 72.6884C70.5921 72.7603 70.4104 72.7985 70.2262 72.7927C70.0603 72.7906 69.865 72.7158 69.6458 72.5709L69.385 72.3981L69.1963 72.6647C69.015 72.9214 68.7299 73.3235 68.3412 73.8713C67.9513 74.4204 67.5015 75.0588 66.9925 75.7869C66.4805 76.5187 65.9332 77.3228 65.3664 78.1776C64.7941 79.039 64.2262 79.9125 63.6786 80.7731C63.1273 81.6386 62.6043 82.4942 62.1243 83.3162C61.6421 84.1415 61.2305 84.8957 60.9013 85.5586C60.5582 86.2481 60.3309 86.8163 60.2058 87.2952C59.9943 88.1047 60.2371 88.4386 60.4835 88.5765C60.9392 88.8523 61.4244 88.2467 61.6322 87.9867C61.9801 87.5523 62.4042 86.9521 62.8919 86.2032C63.3744 85.4619 63.9202 84.5959 64.5135 83.6285C65.1137 82.6508 65.7331 81.6615 66.3543 80.6879C66.9796 79.7073 67.6262 78.7433 68.2753 77.8216C68.9164 76.912 69.5435 76.115 70.1393 75.4534C70.7201 74.8079 71.2678 74.3328 71.7672 74.0416C72.0983 73.8481 72.3822 73.7824 72.6275 73.8422C72.6007 74.0794 72.551 74.3053 72.4789 74.5159C72.3653 74.8482 72.2468 75.188 72.1284 75.5236C72.0571 75.7084 71.9574 75.9833 71.8323 76.3409C71.7076 76.6969 71.5653 77.1014 71.405 77.555C71.2446 78.0081 71.0743 78.4837 70.893 78.9813C70.7109 79.4813 70.5392 79.959 70.3784 80.4146C70.2181 80.8673 70.072 81.2744 69.94 81.6357C69.8091 81.9937 69.7098 82.255 69.6454 82.4124L69.6259 82.4602L69.3795 84.1153C69.3206 84.5107 69.6774 84.73 69.7944 84.8023C70.0253 84.9443 70.2335 85.0075 70.4329 84.9958C70.6933 84.9784 71.007 84.8152 71.4204 84.4829C71.7797 84.1942 72.195 83.8138 72.6551 83.3523C73.1101 82.8967 73.6077 82.3921 74.1487 81.8392C74.6887 81.2872 75.2473 80.7265 75.8093 80.1725C76.3688 79.6205 76.9466 79.0938 77.5262 78.607C78.0989 78.1261 78.6587 77.7199 79.1909 77.3988C79.7062 77.0881 80.1987 76.8838 80.6547 76.7916C80.9758 76.7264 81.2598 76.7422 81.5157 76.8402L81.4907 77.0088C80.9457 78.4127 80.4466 79.6828 80.0078 80.7839Z" fill="#5E5E5E"/>
<path d="M86.7376 82.6317C87.0719 82.2587 87.4077 81.9622 87.7351 81.7512C88.0422 81.5526 88.3747 81.4401 88.7237 81.416C89.2798 81.3774 89.8312 81.3998 90.3623 81.4824C90.9073 81.5676 91.4565 81.6772 91.9938 81.8089C92.5212 81.9381 93.0704 82.0793 93.6265 82.2292C94.18 82.3792 94.7615 82.5 95.3596 82.5885C95.443 82.5993 95.5313 82.6288 95.6207 82.6757C95.7428 82.7405 95.852 82.8028 95.9539 82.8668C96.0786 82.9444 96.2044 83.0113 96.328 83.0657C96.4784 83.1313 96.6259 83.1642 96.7888 83.1629L96.9128 83.1621L97.0084 83.0732C97.2493 82.8497 97.381 82.608 97.3997 82.3559C97.4108 82.2085 97.3876 81.985 97.2136 81.7586C96.9922 81.47 96.6178 81.2216 96.0687 80.9994C95.5674 80.7975 94.9421 80.6148 94.2094 80.4565C93.4878 80.3012 92.7129 80.1654 91.9063 80.0528C91.1015 79.9407 90.2802 79.8543 89.4648 79.7961C88.6465 79.738 87.8943 79.7118 87.2282 79.7189C86.5544 79.726 85.9799 79.7683 85.5198 79.8447C84.9409 79.9419 84.6342 80.0902 84.49 80.3494C84.2965 80.7182 84.2752 81.0293 84.4264 81.2739C84.5249 81.4343 84.6632 81.5676 84.8368 81.6693C84.899 81.7059 84.9571 81.7424 85.0101 81.7786C84.8556 82.1175 84.6993 82.4116 84.5452 82.6537C84.376 82.9191 84.1928 83.172 84.0008 83.4046C83.804 83.643 83.5922 83.8823 83.3722 84.1153C83.1438 84.357 82.8959 84.6399 82.6355 84.9559C82.6216 84.9684 82.5771 85.0066 82.4586 85.093C82.3744 85.1541 82.3259 85.1869 82.2997 85.2031C82.2821 85.2039 82.2608 85.2043 82.2354 85.2047C82.1581 85.2064 82.0728 85.2052 81.979 85.2022C81.8683 85.1993 81.7631 85.2014 81.666 85.2106C81.531 85.2238 81.4431 85.2417 81.3615 85.2994C80.9952 85.5657 80.969 85.8996 80.986 86.0745C81.0055 86.2792 81.0661 86.484 81.1662 86.6825C81.2342 86.8183 81.2927 86.9529 81.3394 87.0813L81.3313 87.095C81.0569 87.5493 80.7962 87.9821 80.5487 88.3937C80.3 88.8074 80.0587 89.2215 79.8318 89.6236C79.6027 90.0298 79.3794 90.4463 79.1679 90.8621C78.9715 91.2475 78.7736 91.6533 78.5783 92.0699C78.4526 92.163 78.4 92.278 78.3783 92.3673C78.3621 92.4342 78.3481 92.5513 78.3978 92.6838C78.4099 92.7851 78.4401 92.8786 78.4879 92.9621C78.532 93.0393 78.5861 93.1091 78.649 93.1697C78.8689 93.4243 79.1661 93.5718 79.5317 93.6075C79.8406 93.6383 80.1705 93.6349 80.5115 93.6C80.8414 93.5664 81.1754 93.5161 81.5035 93.4513C81.8028 93.392 82.0522 93.36 82.2391 93.3562C82.2409 93.3562 82.2431 93.3562 82.2449 93.3562C83.5492 93.3562 84.8692 93.4189 86.1683 93.5419C87.4581 93.6644 88.7487 93.9248 90.0048 94.3148L90.2633 94.395L90.3987 94.1338C90.4299 94.0735 90.4616 93.9925 90.4991 93.8787C90.5399 93.7545 90.5657 93.6208 90.576 93.4808C90.5863 93.3342 90.5767 93.1934 90.5473 93.0618C90.5028 92.8649 90.3921 92.7079 90.2273 92.6074L90.1552 92.5746C89.1419 92.2552 88.1378 92.028 87.1712 91.8984C86.2183 91.7705 85.202 91.6683 84.1336 91.5939C84.0718 91.5931 83.878 91.5873 83.5517 91.5773C83.2159 91.5669 82.8216 91.5645 82.3814 91.5686C81.9371 91.5728 81.467 91.5827 80.9841 91.5981C80.7642 91.6052 80.5545 91.616 80.3559 91.6301C80.7156 90.9551 81.1 90.2894 81.5027 89.6431C82.0158 88.8195 82.5749 88.0216 83.1652 87.2702C83.7426 87.0601 84.3451 86.9222 84.9567 86.8611C85.6129 86.7955 86.2852 86.7756 86.9553 86.8021C87.6317 86.8291 88.3191 86.8815 88.9985 86.9575C89.6903 87.0351 90.3718 87.0983 91.0239 87.1448L91.1391 87.1531L91.2358 87.0825C91.3785 86.9782 91.4131 86.7984 91.4245 86.7386C91.4462 86.6252 91.4473 86.5264 91.4248 86.4238C91.3237 86.0134 91.0489 85.7085 90.608 85.5167C90.2464 85.3592 89.8098 85.2521 89.3104 85.1968C88.8267 85.1437 88.2971 85.1237 87.7369 85.1366C87.183 85.1495 86.6504 85.1694 86.1546 85.1956C85.6478 85.2222 85.2204 85.2371 84.8475 85.2421C84.8173 85.2425 84.7883 85.2425 84.7614 85.2425C85.0829 84.801 85.3815 84.3865 85.653 84.0052C86.0266 83.4798 86.3919 83.0171 86.7376 82.6317Z" fill="#5E5E5E"/>
<path d="M106.608 88.119C105.999 87.6799 105.174 87.3232 104.155 87.059C103.151 86.7986 101.949 86.652 100.582 86.6225C99.2148 86.5942 97.6851 86.745 96.0319 87.0731L96.0105 87.0781C95.9473 87.0956 95.8708 87.118 95.7832 87.1466C95.6733 87.1819 95.5648 87.2339 95.4614 87.3007C95.3404 87.3788 95.24 87.4781 95.162 87.5977C95.0862 87.714 95.0079 87.913 95.0609 88.1858C95.1399 88.6764 95.3842 88.8674 95.575 88.9413C95.7689 89.0169 95.9851 89.046 96.2161 89.0273L96.6211 88.9949C96.5493 89.0755 96.4559 89.1739 96.3342 89.2931C95.9267 89.6923 95.4088 90.1762 94.7949 90.7315C94.1781 91.2893 93.4999 91.8907 92.7794 92.5195C92.0479 93.1579 91.359 93.7938 90.7315 94.4101C90.0974 95.0327 89.5571 95.6163 89.1257 96.1446C88.6424 96.7365 88.3934 97.2328 88.3647 97.6619C88.3456 97.9131 88.3478 98.2678 88.5813 98.4597C88.6641 98.5278 88.841 98.6242 89.0952 98.5033C89.3298 98.392 89.62 98.1553 89.9827 97.7798C90.3152 97.4355 90.6958 97.0164 91.1147 96.5338C91.5219 96.0636 91.9279 95.618 92.3215 95.2084C92.6981 94.8163 93.049 94.5111 93.3653 94.3009C93.4253 94.261 93.6084 94.1468 93.7063 94.1717C94.1153 95.041 94.5658 95.8746 95.0465 96.6505C95.5287 97.4289 96.0164 98.2263 96.4964 99.0209C96.517 99.0711 96.5582 99.1629 96.6512 99.3602L96.9808 100.06C97.108 100.332 97.2423 100.621 97.3824 100.928C97.524 101.238 97.6579 101.526 97.7837 101.792C97.9146 102.068 98.0209 102.285 98.1081 102.454C98.2022 102.637 98.3369 102.898 98.5568 102.898C98.5866 102.898 98.6182 102.894 98.6513 102.883C99.2902 102.74 99.3741 102.218 99.3803 101.998C99.3902 101.651 99.2979 101.25 99.0989 100.773C98.9183 100.342 98.6642 99.8528 98.3435 99.3191C98.0257 98.7912 97.6888 98.2462 97.3412 97.6997C96.9889 97.1456 96.6413 96.5978 96.2978 96.0549C95.9638 95.5278 95.6828 95.0332 95.4621 94.5838C95.2499 94.1526 95.1076 93.7801 95.0384 93.4756C95.0134 93.3668 95.0123 93.2979 95.0204 93.2534C97.2949 93.4266 99.2655 93.4553 100.879 93.3382C102.541 93.2177 103.903 92.9918 104.927 92.6661C105.998 92.326 106.744 91.9185 107.207 91.4201C107.72 90.8685 107.912 90.2804 107.778 89.6732C107.652 89.1054 107.269 88.5966 106.608 88.119ZM105.291 90.6081C104.955 90.8025 104.512 90.9852 103.974 91.1514C103.422 91.3221 102.822 91.4716 102.19 91.5958C101.559 91.72 100.897 91.8184 100.223 91.8886C99.551 91.9584 98.9143 91.9908 98.3306 91.9808C97.7543 91.9729 97.2412 91.9193 96.8057 91.8205C96.5365 91.7598 96.343 91.6855 96.2044 91.6124C96.9021 90.7261 97.5766 90.027 98.2118 89.5332C98.8639 89.0261 99.5565 88.7054 100.269 88.5804C100.988 88.4541 101.789 88.5135 102.65 88.7561C103.529 89.0041 104.564 89.4314 105.726 90.0254C105.793 90.0798 105.822 90.1184 105.833 90.1379C105.791 90.2227 105.666 90.3909 105.291 90.6081Z" fill="#5E5E5E"/>
<path d="M50.8668 5.17491L50.1529 6.24982C50.7895 7.12162 51.5299 8.07732 52.3795 9.09408C53.2865 9.26977 54.1861 9.50361 55.0714 9.8039L55.1487 9.75572L55.1612 9.83547C55.6022 9.98748 56.0395 10.1574 56.4724 10.3438C57.0734 10.1175 57.966 9.81927 57.966 9.81927C57.966 9.81927 58.094 10.5544 58.7196 11.5035C61.6893 13.3131 64.3433 16.1271 66.3504 20.3291L66.613 21.6183C68.1592 21.2574 69.0964 -1.82983 52.1908 0.116464L46.9512 1.16645C46.9512 1.16645 47.5945 2.51257 49.0417 4.66612C49.8252 4.85385 50.8668 5.17491 50.8668 5.17491Z" fill="#5E5E5E"/>
<path d="M68.9223 20.5143C68.9267 20.5127 68.9311 20.5114 68.9355 20.5097C69.752 20.2389 70.5016 19.8136 71.1419 19.2737C71.2747 19.1615 71.4078 19.0506 71.541 18.941L72.2692 17.4051L72.8206 17.9234C74.5198 16.6176 76.2543 15.4679 77.9988 14.4561L78.9989 12.7819L80.455 13.1225C84.5596 11.0399 86.7635 10.1366 90.5099 9.24193C90.5183 9.22075 90.5172 9.22283 90.5257 9.20206L89.6981 8.31738C89.6981 8.31738 92.3044 7.93153 93.1124 8.24719C96.5844 6.91934 99.4496 5.08768 99.4496 5.08768L94.0389 3.24772C91.8921 2.54579 89.5341 2.36927 87.2184 2.78253C72.6503 5.38216 66.8979 21.1847 68.9223 20.5143Z" fill="#5E5E5E"/>
<path d="M70.9124 45.7395C70.9929 43.8788 71.0308 41.9615 71.0106 40.0215C69.9977 40.3006 68.7369 40.4858 67.4834 40.2454C67.5787 40.9294 67.6529 41.6442 67.7 42.3856C67.7247 42.4139 67.739 42.4309 67.739 42.4309C67.739 42.4309 68.489 44.5932 70.9124 45.7395Z" fill="#5E5E5E"/>
<path d="M64.6465 57.1675C65.6031 57.3353 67.8897 57.6502 69.8891 57.2593C69.9935 56.4673 70.0962 55.6353 70.1947 54.7685C69.1377 54.2473 67.515 53.3368 66.5738 52.2715C66.103 53.8589 65.4718 55.4958 64.6465 57.1675Z" fill="#5E5E5E"/>
<path d="M66.9014 51.0723C67.2567 51.7871 68.2265 53.333 70.2631 54.1554C70.4205 52.7138 70.565 51.1828 70.6842 49.5871C69.6429 49.8055 68.423 49.8824 67.2423 49.5352C67.1445 50.0415 67.0312 50.554 66.9014 51.0723Z" fill="#5E5E5E"/>
<path d="M70.7315 48.9296C70.7904 48.0852 70.8415 47.2238 70.8842 46.3491C69.9099 45.8482 68.6171 45.086 67.7564 44.2021C67.7553 45.6592 67.6409 47.203 67.3721 48.8158C68.1915 48.9852 69.5402 49.1746 70.7315 48.9296Z" fill="#5E5E5E"/>
<path d="M64.3057 57.8379C64.1092 58.2142 63.9025 58.5922 63.6855 58.9714C64.092 59.6571 65.7989 62.2874 68.8708 63.7806C69.1293 62.3639 69.4692 60.3482 69.8017 57.911C68.2293 58.2051 66.3462 58.3488 64.6374 57.9226C64.5204 57.8931 64.4101 57.8653 64.3057 57.8379Z" fill="#5E5E5E"/>
<path d="M18.3986 84.6213L18.5133 84.7958L18.5155 84.7925C18.6233 84.9515 18.7311 85.1106 18.8399 85.2668L21.0328 83.3147C20.7381 82.8927 20.4468 82.4578 20.1666 82.0226C17.966 78.6026 16.255 74.8421 15.081 70.8457L12.4307 71.8388C13.6952 76.143 15.5382 80.193 17.9076 83.8758L17.9079 83.8754L17.9076 83.8758C18.0687 84.1263 18.2327 84.3746 18.3986 84.6213Z" fill="#5E5E5E"/>
<path d="M87.2616 70.223C88.2845 66.6345 88.803 62.9035 88.803 59.133C88.803 55.4838 88.3168 51.8674 87.3576 48.3848L84.6911 49.3214C85.5668 52.5004 86.0107 55.8015 86.0107 59.133C86.0107 62.5749 85.5374 65.9811 84.6035 69.2569L87.2616 70.223Z" fill="#5E5E5E"/>
<path d="M30.1826 68.3846C64.4516 60.2809 97.6955 79.2998 97.6955 79.2998C86.4415 71.9267 76.8427 67.311 68.7206 64.5847C68.7302 64.5352 68.7394 64.4858 68.7493 64.4343C67.099 63.462 64.3865 61.6881 63.1418 59.8896C62.6085 60.7602 62.0204 61.6374 61.372 62.5196C38.7549 57.4753 30.1826 68.3846 30.1826 68.3846Z" fill="#5E5E5E"/>
<path d="M31.1301 92.2975C42.2991 92.359 53.1334 94.2272 62.6851 96.7284C58.746 98.2266 54.6204 98.9875 50.3738 98.9875C41.6194 98.9875 33.0975 95.6215 26.3774 89.5098L24.626 91.9657C31.8404 98.5273 40.9846 102.141 50.3738 102.141C56.2758 102.141 61.9642 100.775 67.2811 98.0816L67.2473 97.9964C84.8608 103.171 97.0986 110 97.0986 110C50.0152 80.8486 31.1301 92.2975 31.1301 92.2975Z" fill="#5E5E5E"/>
<path d="M44.9482 52.6284C48.9771 48.4953 51.4572 51.5659 51.4572 51.5659L51.4686 51.5447C51.7525 46.9236 55.6424 46.5249 55.6424 46.5249C51.7819 45.2029 51.0596 50.1608 51.0596 50.1608C46.998 47.307 44.9482 52.6284 44.9482 52.6284Z" fill="#5E5E5E"/>
<path d="M38.1968 57.3216C36.1872 53.1329 32.5596 56.2006 32.5596 56.2006C37.245 55.0194 37.9585 58.5951 37.9585 58.5951L37.9754 58.5843C39.9795 55.183 43.1147 56.7945 43.1147 56.7945C40.6673 53.8784 38.1968 57.3216 38.1968 57.3216Z" fill="#5E5E5E"/>
<path d="M104.631 24.3509L101.238 23.6522L99.0319 26.1082L96.2212 25.4017L94.0994 27.7147L90.9264 26.7632L89.0381 29.0953L89.1344 29.195L90.9694 26.9289L94.1373 27.8792L96.2617 25.5632L99.0728 26.2697L101.281 23.8117L104.683 24.5116L106.496 22.0399L109.316 22.7792L109.345 22.6355L106.446 21.875L104.631 24.3509Z" fill="#5E5E5E"/>
<path d="M48.5809 6.15366L49.2746 8.33711L49.3978 8.28727L48.6769 6.01784L46.6599 5.74496L45.7323 3.21387L45.6113 3.27035L46.568 5.88161L48.5809 6.15366Z" fill="#5E5E5E"/>
<path d="M79.7407 43.945L80.9037 46.9205L83.9995 47.4775L84.0201 47.3317L80.9946 46.7872L79.8319 43.8125L76.9245 43.2539L75.7222 39.8041L72.9394 39.4697L72.9258 39.6168L75.6295 39.9416L76.83 43.3856L79.7407 43.945Z" fill="#5E5E5E"/>
<path d="M55.3256 41.753L55.3612 41.7638L57.4816 39.4429L60.2942 40.1423L62.5219 37.652L62.43 37.5469L60.253 39.9808L57.4411 39.2818L55.3234 41.5994L52.1868 40.6669L52.1485 40.6553L50.2646 42.9928L50.3614 43.0921L52.1919 40.8214L55.3256 41.753Z" fill="#5E5E5E"/>
<path d="M38.2994 26.6326L41.1763 25.8825L43.2646 28.1221L46.3115 27.2893L46.2806 27.1456L43.3029 27.9597L41.2153 25.7206L38.342 26.4698L36.055 23.8096L33.373 24.7117L33.4106 24.8533L36.0164 23.9765L38.2994 26.6326Z" fill="#5E5E5E"/>
<path d="M66.7084 23.3488L66.6131 24.1043L66.1813 21.984C55.9385 0.541942 28.8651 15.2197 28.8651 15.2197C29.5033 16.288 30.3018 17.2698 31.2253 18.172L33.5369 17.5195L33.5178 17.5564C21.8541 23.4962 13.3881 35.5881 11.0791 49.939L13.8266 50.5026C15.9466 37.3267 23.6553 26.2005 34.2983 20.6192C37.2068 22.5451 40.7027 23.9955 44.1921 25.0816L46.9542 24.4179L47.6519 26.0497C49.4766 26.5075 51.2406 26.8717 52.8559 27.1612C42.7573 30.6945 34.0566 40.5672 34.0566 40.5672C34.8845 40.9742 35.8261 41.2529 36.8523 41.4249L39.599 39.3403L38.3201 41.5952C41.7127 41.8336 45.7905 41.1358 49.716 40.1016L51.8533 36.9546L52.9141 39.1808C59.3965 37.1651 64.752 34.6444 64.752 34.6444L64.3607 32.755L65.7039 34.2494L65.9371 34.1419C66.4586 35.5287 67.0052 37.3284 67.3619 39.4499C68.3355 39.6277 69.8174 39.7747 71.002 39.3581C70.9734 37.7051 70.8998 36.0383 70.774 34.3774L71.8075 35.3812L73.3416 34.8567L72.5155 36.0142C72.5155 36.0142 76.4002 39.8532 81.438 43.5448L82.5506 42.3465L83.9471 45.2984C87.0583 47.3622 90.4119 49.1585 93.4672 49.8974L92.8603 47.1703L94.8112 50.1554C95.7674 50.287 96.6844 50.2957 97.5432 50.1545C97.5432 50.1545 90.3144 31.3175 78.2606 29.017L79.1392 27.55L79.8289 28.6652C79.8289 28.6652 79.2143 29.4647 89.5163 25.8716L90.313 23.8057L94.5405 23.9959C100.632 21.5587 110.707 19.148 115.08 15.4535L113.367 13.4873L116.919 13.761C118.163 12.5038 119.209 11.1801 120.001 9.78911C120 9.79036 90.3038 3.00658 66.7084 23.3488ZM46.6541 16.9716C55.8712 14.0073 63.6005 22.3906 63.6005 22.3906C54.667 15.1337 46.6541 16.9716 46.6541 16.9716ZM52.2998 34.0135C55.7899 27.7975 63.0734 28.1015 63.0734 28.1015C55.6302 28.985 52.2998 34.0135 52.2998 34.0135ZM52.6853 29.1374C57.8959 24.7161 64.6137 27.908 64.6137 27.908C57.3747 25.7628 52.6853 29.1374 52.6853 29.1374ZM51.3031 12.0465C60.853 12.9532 65.4589 23.8808 65.4589 23.8808C59.3741 13.5255 51.3031 12.0465 51.3031 12.0465ZM68.2064 29.0676L68.1781 29.0315C69.3403 28.416 73.6888 26.4476 77.5566 29.0805C77.5566 29.0805 73.6951 26.8941 68.2064 29.0676ZM69.1288 29.2126C69.1288 29.2126 74.9625 28.2913 78.2216 32.9648C78.2216 32.9652 75.1777 29.2313 69.1288 29.2126ZM71.3158 23.7454C71.3158 23.7454 80.9036 17.7097 89.7712 22.9297C89.7712 22.9297 81.9157 19.0994 71.3158 23.7454ZM68.6978 24.1429C68.6978 24.1429 78.3385 13.8279 90.3512 17.2279C90.3512 17.2279 79.9374 15.167 68.6978 24.1429Z" fill="#5E5E5E"/>
<path d="M7.83008 45.9264L7.99669 45.2913L9.87762 45.9197L10.0851 45.1289L10.5124 45.2718L10.1388 46.6977L7.83008 45.9264Z" fill="#5E5E5E"/>
<path d="M10.6115 44.9461L8.32715 44.0884L8.51215 43.46L10.7966 44.3176L10.6115 44.9461Z" fill="#5E5E5E"/>
<path d="M10.9538 43.7878L8.69629 42.8433L9.24063 41.1836L9.65882 41.3585L9.31824 42.3972L9.80373 42.6003L10.0586 41.8232L10.4768 41.9981L10.2219 42.7752L11.158 43.1664L10.9538 43.7878Z" fill="#5E5E5E"/>
<path d="M9.97508 39.1582L10.3867 39.3522L10.0509 40.2597L10.5286 40.4852L10.8247 39.6849L11.2359 39.8788L10.9398 40.6792L11.4558 40.9226L11.7916 40.0151L12.2028 40.209L11.6408 41.7279L9.41309 40.6767L9.97508 39.1582Z" fill="#5E5E5E"/>
<path d="M12.8282 38.6679L10.6582 37.4904L10.9124 36.8936L13.0824 38.071L12.8282 38.6679Z" fill="#5E5E5E"/>
<path d="M11.9197 35.7149C11.8859 35.788 11.8752 35.8586 11.8881 35.9255C11.9009 35.9928 11.9395 36.0455 12.0043 36.0837C12.069 36.1219 12.1315 36.1311 12.1908 36.1107C12.2503 36.0908 12.307 36.0517 12.3607 35.9948C12.4144 35.9375 12.4707 35.8719 12.5295 35.7976C12.5883 35.7232 12.6512 35.6518 12.7178 35.5832C12.7844 35.5147 12.8539 35.4578 12.9267 35.4117C12.9995 35.366 13.083 35.3432 13.1772 35.3432C13.2714 35.3436 13.3699 35.3739 13.4733 35.435C13.6535 35.5413 13.7697 35.7157 13.8216 35.9575C13.8734 36.1992 13.8367 36.4559 13.7109 36.7271C13.5854 36.9983 13.4266 37.1827 13.2342 37.2803C13.0418 37.3779 12.8396 37.3638 12.6266 37.2384L12.9157 36.6137C13.0933 36.698 13.2239 36.6503 13.3078 36.4692C13.3467 36.3844 13.3581 36.3063 13.3405 36.2353C13.3232 36.1639 13.2842 36.1103 13.2235 36.0746C13.1628 36.0389 13.1029 36.031 13.0444 36.0517C12.9859 36.0725 12.9293 36.1111 12.8745 36.1676C12.8201 36.2245 12.7631 36.2897 12.7042 36.3641C12.6454 36.4384 12.5821 36.5099 12.5144 36.5776C12.4467 36.6457 12.3772 36.7026 12.3055 36.7491C12.2338 36.7956 12.1507 36.8189 12.0565 36.8185C11.9624 36.8185 11.8649 36.7881 11.7634 36.7283C11.5648 36.6112 11.4445 36.4334 11.4022 36.1959C11.3599 35.9583 11.3993 35.7095 11.5192 35.4499C11.6394 35.1903 11.7888 35.0113 11.9671 34.9125C12.1455 34.814 12.3489 34.8277 12.5769 34.9536L12.2812 35.592C12.2 35.5558 12.1279 35.5488 12.0646 35.5712C12.0021 35.594 11.9535 35.6418 11.9197 35.7149Z" fill="#5E5E5E"/>
<path d="M15.6261 32.9131L15.2112 32.8022L14.7581 33.6333L15.0324 34.0017L14.7051 34.6019L13.0879 32.3678L13.4619 31.6816L15.9549 32.3096L15.6261 32.9131ZM14.4561 33.2275L14.7548 32.6801L13.8753 32.4463L14.4561 33.2275Z" fill="#5E5E5E"/>
<path d="M16.5473 29.8306L15.2158 28.7508L15.5579 28.2129L16.8893 29.2928C17.0916 29.4568 17.206 29.6537 17.2317 29.883C17.2575 30.1122 17.2027 30.3336 17.0666 30.5475C16.9305 30.7614 16.7632 30.891 16.5638 30.9363C16.3648 30.9816 16.1633 30.9213 15.9588 30.7556L16.299 30.2211C16.3748 30.2792 16.4413 30.305 16.4994 30.2979C16.5576 30.2908 16.6043 30.2593 16.6403 30.2024C16.6764 30.1459 16.6885 30.0848 16.6764 30.0196C16.6646 29.9536 16.6215 29.8909 16.5473 29.8306Z" fill="#5E5E5E"/>
<path d="M17.7296 28.8584C17.3983 28.9041 17.0933 28.8011 16.8153 28.549C16.5372 28.2969 16.382 27.9837 16.3508 27.6095C16.3191 27.2353 16.4118 26.8955 16.6285 26.5902C16.8451 26.285 17.1184 26.1105 17.4472 26.0657C17.7764 26.0212 18.0798 26.125 18.3582 26.3772C18.6366 26.6293 18.7922 26.9424 18.8253 27.3167C18.8584 27.6909 18.7668 28.0302 18.5509 28.3343C18.335 28.6383 18.061 28.8127 17.7296 28.8584ZM18.2696 27.4109C18.2438 27.2203 18.1489 27.0508 17.9845 26.9022C17.8205 26.7535 17.6531 26.6858 17.4828 26.6982C17.3126 26.7111 17.1669 26.8025 17.0459 26.9728C16.9249 27.1431 16.8775 27.3233 16.9032 27.514C16.9289 27.7046 17.0238 27.8741 17.1879 28.0227C17.3519 28.1714 17.5193 28.2391 17.6896 28.2263C17.8598 28.2134 18.0055 28.122 18.1265 27.9517C18.2475 27.7814 18.2953 27.6016 18.2696 27.4109Z" fill="#5E5E5E"/>
<path d="M18.8056 26.2121L17.7412 25.1218L18.1351 24.6313L19.1995 25.7216C19.3062 25.8308 19.4121 25.8857 19.5173 25.8852C19.6225 25.8848 19.7211 25.8275 19.8134 25.7129C19.9053 25.5982 19.9473 25.4807 19.9392 25.3607C19.9307 25.2406 19.8733 25.1256 19.7667 25.0163L18.7023 23.9261L19.0962 23.4355L20.1606 24.5258C20.318 24.687 20.4206 24.8681 20.4681 25.0683C20.5155 25.2685 20.5144 25.4591 20.4648 25.6402C20.4151 25.8213 20.3305 25.9862 20.2106 26.1353C20.023 26.3687 19.8005 26.4995 19.5427 26.5286C19.2849 26.5568 19.0392 26.4513 18.8056 26.2121Z" fill="#5E5E5E"/>
<path d="M20.9671 23.6676L21.6232 24.4219L21.2047 24.8858L19.5176 22.9462L20.1954 22.1944C20.3944 21.9738 20.5996 21.8596 20.8115 21.853C21.0233 21.8459 21.2006 21.9244 21.3433 22.0885C21.4412 22.201 21.5063 22.3439 21.5386 22.5175C21.5714 22.6911 21.5383 22.8764 21.4397 23.0724L22.5479 23.3956L22.0587 23.9384L21.016 23.6128L20.9671 23.6676ZM20.2484 22.8415L20.6544 23.3083L20.9137 23.0205C20.9774 22.9499 21.009 22.8731 21.009 22.79C21.009 22.7069 20.9788 22.6309 20.9185 22.562C20.8586 22.493 20.7905 22.4569 20.7144 22.4544C20.6383 22.4519 20.5695 22.4847 20.5073 22.5537L20.2484 22.8415Z" fill="#5E5E5E"/>
<path d="M22.4205 19.8876L22.863 19.4531L24.4467 21.5111L24.0043 21.9456L22.2675 21.377L23.2639 22.672L22.821 23.1065L21.2373 21.0485L21.6798 20.614L23.4173 21.1826L22.4205 19.8876Z" fill="#5E5E5E"/>
<path d="M24.5044 18.0117L24.7769 18.4104L24.0873 19.0114L24.4036 19.4746L25.0116 18.9446L25.2841 19.3433L24.6761 19.8733L25.0175 20.3729L25.7071 19.7719L25.9796 20.1707L24.8258 21.1762L23.3506 19.0177L24.5044 18.0117Z" fill="#5E5E5E"/>
<path d="M27.3584 19.0736L26.8751 19.4491L26.4359 18.728L24.8242 17.7424L25.3722 17.3167L26.3697 18.0319L26.1321 16.7265L26.6801 16.3008L26.9185 18.353L27.3584 19.0736Z" fill="#5E5E5E"/>
</g>
<defs>
<clipPath id="clip0_1417_12360">
<rect width="120" height="110" fill="white"/>
</clipPath>
</defs>
</svg>
