<svg width="120" height="110" viewBox="0 0 120 110" fill="none" xmlns="http://www.w3.org/2000/svg">
<g clip-path="url(#clip0_1417_12404)">
<path d="M12.384 63.9927C13.701 62.7415 14.3598 61.239 14.3598 59.4845C14.3598 58.4793 14.1868 57.6173 13.842 56.8981C13.4969 56.1788 13.047 55.6222 12.4934 55.2279C11.9389 54.8339 11.3259 54.5035 10.6539 54.2375C9.98156 53.9715 9.3049 53.7449 8.62397 53.5576C7.94262 53.3704 7.32491 53.1735 6.77128 52.9663C6.2168 52.7592 5.7674 52.464 5.42224 52.0798C5.07707 51.6956 4.90449 51.1881 4.90449 50.5574C4.90449 49.9271 5.09031 49.4442 5.46324 49.1092C5.83532 48.7741 6.31206 48.6068 6.89388 48.6068C7.47485 48.6068 7.95159 48.8093 8.32452 49.213C8.69659 49.6171 8.91916 50.1936 8.99178 50.942H14.0599C14.0056 48.7547 13.3422 47.154 12.0709 46.1386C10.7992 45.1237 9.13232 44.6162 7.07073 44.6162C5.00872 44.6162 3.31494 45.1978 1.98896 46.3601C0.662988 47.5229 0 49.0693 0 51.0004C0 51.9862 0.172582 52.8384 0.517746 53.5576C0.86291 54.2774 1.31231 54.8288 1.86679 55.213C2.42042 55.5972 3.03385 55.9276 3.70624 56.2034C4.3782 56.4791 5.05486 56.7108 5.73621 56.8981C6.41757 57.0857 7.03485 57.2873 7.58933 57.5042C8.14296 57.7211 8.59279 58.0168 8.93795 58.3908C9.28312 58.7657 9.4557 59.2481 9.4557 59.839C9.4557 60.4303 9.26517 60.9179 8.8837 61.3025C8.50222 61.6867 7.97508 61.879 7.30312 61.879C5.86779 61.879 5.08647 61.0513 4.9596 59.396H0C0 61.4652 0.658289 63.0617 1.97529 64.1846C3.2923 65.3079 5.02709 65.8696 7.17967 65.8696C9.33267 65.8696 11.067 65.2445 12.384 63.9927Z" fill="#5E5E5E"/>
<path d="M17.9561 44.9111V57.2973C17.9561 60.0167 18.719 62.1257 20.2449 63.6231C21.7708 65.1209 23.6419 65.8698 25.8581 65.8698C27.2751 65.8698 28.5874 65.5649 29.7954 64.9536C31.0035 64.3433 32.0027 63.3719 32.793 62.0419C33.5833 60.7113 33.9784 59.1301 33.9784 57.2973V44.9111H29.3187V57.2973C29.3187 58.5388 29.0278 59.4948 28.4468 60.1645C27.865 60.8346 27.0298 61.1697 25.9401 61.1697C24.8504 61.1697 24.0233 60.8346 23.4603 60.1645C22.8973 59.4948 22.6158 58.5388 22.6158 57.2973V44.9111H17.9561Z" fill="#5E5E5E"/>
<path d="M59.6185 65.6626V44.9111H54.2779L48.801 59.2186L43.2967 44.9111H37.9561V65.6626H42.6158V53.9568L47.0572 65.6626H50.5174L54.9592 53.9568V65.6626H59.6185Z" fill="#5E5E5E"/>
<path d="M85.3681 65.6626V44.9111H80.0274L74.5505 59.2186L69.0467 44.9111H63.7061V65.6626H68.3653V53.9568L72.8068 65.6626H76.2674L80.7088 53.9568V65.6626H85.3681Z" fill="#5E5E5E"/>
<path d="M101.036 48.6953V44.8525H89.4551V65.6629H101.036V61.8201H94.1144V57.0018H100.218V53.1591H94.1144V48.6953H101.036Z" fill="#5E5E5E"/>
<path d="M115.314 57.2078C116.84 56.7346 117.939 55.9273 118.611 54.7841C119.283 53.6412 119.619 52.4688 119.619 51.2666C119.619 49.5125 119.001 48.0152 117.766 46.7737C116.531 45.5321 114.805 44.9111 112.589 44.9111H105.041V65.6626H109.7V57.5929H110.245L114.551 65.6626H120L115.314 57.2078ZM114.265 53.0698C113.856 53.5235 113.298 53.7497 112.589 53.7497H109.701V48.7539H112.589C113.279 48.7539 113.833 48.9903 114.251 49.4634C114.669 49.9366 114.878 50.5423 114.878 51.281C114.878 52.0202 114.674 52.6161 114.265 53.0698Z" fill="#5E5E5E"/>
<path d="M6.80879 27.7192L18.3333 25.0341L8.89515 29.4928C13.8133 33.2998 20.3317 36.0267 26.8313 37.9703L32.6884 34.1312L32.1745 39.4069C34.9909 40.0854 37.7151 40.6262 40.209 41.0563C46.9584 38.7873 54.1121 38.2822 60.7565 41.4877L60.8214 40.7323L62.7574 43.0829L64.5528 42.6936L67.4235 40.655C68.7649 40.1855 70.0669 39.8611 71.3309 39.6637L71.3835 39.5548L71.4318 39.6479C73.4233 39.3472 75.3183 39.3652 77.1163 39.6433C78.3949 39.1785 79.9972 38.5677 82.0084 37.7678L81.5812 33.2067L87.1286 35.5758C93.3334 32.715 103.632 30.0053 108.041 25.5244L101.906 23.0302L109.893 23.4668C111.143 21.9347 112.187 20.3136 112.97 18.6017C112.97 18.6017 90.802 11.8504 69.5419 24.9979C70.2412 24.3097 70.9478 23.6489 71.6599 23.0168L72.5433 20.3803L74.4293 20.7117C79.0894 17.0788 81.638 15.4503 86.1085 13.6443C86.1145 13.6119 86.1136 13.6151 86.1196 13.5822L84.8983 12.3565C84.8983 12.3565 88.0594 11.4556 89.1338 11.8291C93.1694 9.40672 96.3404 6.30405 96.3404 6.30405L89.2081 4.21259C86.384 3.42476 83.4104 3.45117 80.6166 4.35764C70.7577 7.55671 65.2504 16.6478 62.7339 23.7926C62.8736 14.2797 59.3408 2.88625 44.7281 0.611266L36.5301 0C36.5301 0 37.0491 2.19805 38.5058 5.88418C39.6182 6.47228 41.0727 7.35558 41.0727 7.35558L39.6476 8.61379C40.3136 10.1264 41.1069 11.8022 42.0441 13.6096C43.3453 14.2297 44.6162 14.9304 45.8435 15.7214L45.9751 15.683L45.967 15.803C46.5778 16.2006 47.1767 16.6219 47.7637 17.0658C48.7389 16.9834 50.1751 16.9157 50.1751 16.9157C50.1751 16.9157 50.1239 18.0261 50.7476 19.6453C52.3452 21.2247 53.8015 23.0348 55.0779 25.0976C36.7176 5.86565 3.16406 23.3398 3.16406 23.3398C4.14957 24.9242 5.38285 26.3808 6.80879 27.7192Z" fill="#5E5E5E"/>
<path d="M59.3836 73.8227L59.3887 73.9117C52.6632 72.2294 19.7713 64.676 5.58887 74.0289L6.0592 80.5443C6.0592 80.5443 10.3575 81.9861 12.6639 96.1147C12.6929 96.2922 12.7215 96.472 12.7497 96.6536C15.0339 111.285 32.7932 114.14 49.244 103.963C49.244 103.963 53.547 99.1928 55.1647 91.2222C55.1647 91.2222 56.0712 85.6342 58.5344 84.4775C58.5467 84.4631 58.5506 84.4469 58.5655 84.4325C58.8859 84.1253 59.6032 83.8602 60.2046 83.8945C63.5743 83.4992 64.7242 90.858 64.7242 90.858C66.2929 98.8397 70.5673 103.641 70.5673 103.641C86.9557 113.935 104.732 111.207 107.105 96.5929C107.134 96.4117 107.164 96.2319 107.194 96.0549C109.587 81.943 113.893 80.5323 113.893 80.5323L114.403 74.0201C98.6276 63.4609 59.3836 73.8227 59.3836 73.8227ZM14.2039 89.5483C13.7643 87.2664 13.4606 84.6721 13.3341 81.714C13.2162 78.9538 14.7673 76.4277 17.1689 75.5082C21.5305 73.838 29.0621 71.7493 37.1812 73.0687C32.2613 76.5964 18.2472 86.6468 14.2039 89.5483ZM16.8451 97.5703L37.7604 73.1679C41.0305 73.7634 44.3852 74.9229 47.6579 76.8939C47.994 77.0964 48.302 77.3351 48.587 77.5988L16.9566 97.7835C16.919 97.7135 16.8823 97.6417 16.8451 97.5703ZM32.5766 105.629C32.131 105.634 31.6825 105.588 31.1981 105.646C30.4599 105.734 29.1173 105.845 27.4867 105.623L44.4659 99.3791C41.7559 102.958 37.9407 105.574 32.5766 105.629ZM44.9286 98.7428L23.5545 104.453C23.2452 104.305 22.9346 104.142 22.6241 103.96L50.4444 83.8393C49.731 88.0505 48.1893 94.089 44.9286 98.7428ZM70.2306 89.0761C69.8496 86.9184 69.589 84.4872 69.4805 81.7479C69.3711 78.9872 70.9295 76.4666 73.3341 75.5555C77.5812 73.946 84.8275 71.9523 92.6872 73.0849C87.0382 77.1071 73.719 86.5902 70.2306 89.0761ZM88.6503 105.732C88.2048 105.736 87.7567 105.688 87.2718 105.744C86.3645 105.849 84.5455 105.985 82.4024 105.495L101.18 98.664C98.429 102.668 94.4365 105.693 88.6503 105.732ZM106.655 83.5844C105.999 87.5755 104.574 93.4166 101.556 98.0986L78.8115 104.089C78.6316 103.985 78.4518 103.876 78.2719 103.76L106.684 83.3578C106.674 83.4334 106.668 83.5089 106.655 83.5844ZM103.819 77.0505C104.004 77.1631 104.178 77.2887 104.348 77.4203L72.8241 97.3859C72.81 97.3576 72.7963 97.3279 72.7822 97.2997L93.5553 73.2226C96.9424 73.8084 100.426 74.9915 103.819 77.0505Z" fill="#5E5E5E"/>
</g>
<defs>
<clipPath id="clip0_1417_12404">
<rect width="120" height="110" fill="white"/>
</clipPath>
</defs>
</svg>
