<svg width="120" height="110" viewBox="0 0 120 110" fill="none" xmlns="http://www.w3.org/2000/svg">
<g clip-path="url(#clip0_1417_12842)">
<path d="M25.2581 72.9068C23.5585 73.1223 21.7801 73.374 19.9971 73.4969C21.5525 75.1595 23.2372 76.7142 25.0317 78.1543C26.4739 77.7753 27.8992 77.3649 29.3109 76.9273C30.9807 75.9654 32.782 75.1922 34.5469 74.404C36.6097 73.4827 38.595 72.42 40.5998 71.3923C39.5094 71.3675 38.4199 71.3549 37.3351 71.4187C33.2712 71.6566 29.3367 72.3904 25.2581 72.9068Z" fill="#5E5E5E"/>
<path d="M59.5189 3.38235L61.0145 10.2321L53.7619 8.74008C52.4248 8.46514 51.0746 8.86101 50.1496 9.79926C49.225 10.7375 48.9185 12.022 49.331 13.2352L63.8189 55.889C64.0647 56.6126 64.5366 57.2196 65.1602 57.6509L63.9003 62.9385C63.991 62.9346 64.0393 62.935 63.9952 62.9456C64.2182 62.909 64.4399 62.8664 64.6595 62.8168C65.2428 62.6848 65.8135 62.5056 66.3722 62.302C66.3875 62.2921 66.8216 62.1212 66.8873 62.0932C67.0416 62.027 67.1946 61.9593 67.3473 61.8908L68.2083 58.278C68.9696 58.1314 69.6729 57.7667 70.2245 57.207L102.737 24.222C103.661 23.2838 103.968 21.9993 103.556 20.7861C103.144 19.5729 102.1 18.6843 100.762 18.409L100.738 18.4038C101.066 14.1466 97.9895 10.1841 93.3733 9.23442C88.7571 8.28474 84.1685 10.6705 82.5312 14.6583L64.3492 10.9179L61.9654 0L61.7708 0.036632L61.77 0.0319053L42.9482 3.36108L43.532 6.21011L59.5189 3.38235ZM92.6988 12.0665C95.5667 12.6566 97.5465 14.9856 97.6372 17.596L85.7095 15.1424C86.9783 12.8117 89.8309 11.4765 92.6988 12.0665ZM63.3504 20.9307C63.2983 20.9811 63.244 21.0295 63.1876 21.076C63.3021 21.3167 63.4216 21.5562 63.5395 21.7964L63.5967 22.0596L58.1136 20.9314L68.3032 50.9307L82.7343 36.2897C81.3739 36.0053 80.5163 34.752 80.8177 33.486C81.12 32.2173 82.4719 31.4169 83.8369 31.6977C84.7488 31.8852 85.4356 32.5083 85.7014 33.2792L91.1693 27.7316L66.9309 22.7453L65.0275 14.0285L100.086 21.241C100.413 21.3084 100.534 21.5317 100.578 21.659C100.621 21.7862 100.659 22.034 100.433 22.2632L67.9213 55.2481C67.6953 55.4774 67.4261 55.4632 67.2858 55.4345C67.1455 55.4057 66.8953 55.3127 66.7944 55.0165L52.3078 12.3627C52.2069 12.0661 52.3549 11.8566 52.452 11.7585C52.549 11.66 52.7606 11.5052 53.0874 11.5722L61.6937 13.3427L63.3504 20.9307ZM65.5892 34.7839C65.9898 33.1023 67.7818 32.0412 69.5915 32.4134C71.4013 32.7856 72.5434 34.4506 72.1428 36.1322C71.7422 37.8137 69.9502 38.8748 68.1404 38.5026C66.3307 38.1304 65.1886 36.4654 65.5892 34.7839ZM73.3641 28.0964C73.5044 27.5083 74.131 27.1372 74.7635 27.2676C75.3965 27.3976 75.7958 27.9802 75.6559 28.5678C75.5156 29.1559 74.889 29.527 74.2561 29.397C73.6231 29.2666 73.2238 28.6844 73.3641 28.0964Z" fill="#5E5E5E"/>
<path d="M92.4693 13.1482C92.2111 13.095 91.964 13.2718 91.9534 13.5172L91.8555 15.7246L92.7695 13.685C92.8712 13.4585 92.7271 13.2013 92.4693 13.1482Z" fill="#5E5E5E"/>
<path d="M88.5841 13.6029C88.3611 13.7349 88.3208 14.022 88.5002 14.2028L90.1111 15.828L89.2056 13.7853C89.1043 13.5584 88.8071 13.471 88.5841 13.6029Z" fill="#5E5E5E"/>
<path d="M95.9231 14.9471C95.7811 14.74 95.4721 14.7025 95.2775 14.8692L93.5283 16.3659L95.7268 15.5246C95.971 15.4305 96.0651 15.1543 95.9231 14.9471Z" fill="#5E5E5E"/>
<path d="M5.01025 69.9846L38.436 69.5572C40.8537 69.5261 43.1879 68.7238 45.0426 67.318L47.8321 69.675C48.7864 69.4178 49.7606 68.8837 50.661 68.3303L46.8956 65.5041C48.4158 63.5736 49.1475 61.1713 48.919 58.7705L46.0143 28.2304L38.6446 35.7353C38.5615 35.6396 38.47 35.5482 38.3691 35.4627C37.9803 35.1334 37.5131 34.9341 37.0299 34.8616L36.8764 33.7757C37.2003 33.6437 37.5004 33.4487 37.7539 33.1907C38.7239 32.2028 38.6484 30.6714 37.5852 29.7702C37.1905 29.4354 36.7153 29.2353 36.224 29.1655L35.6962 25.4326L34.3621 25.5953L34.886 29.3014C34.5223 29.4322 34.1844 29.6406 33.9038 29.9265C32.9338 30.9144 33.0093 32.4455 34.0725 33.3471C34.4973 33.7071 35.0149 33.9115 35.5457 33.9651L35.6902 34.9865C35.3189 35.1169 34.9734 35.3276 34.6876 35.6187C33.7177 36.6066 33.7931 38.138 34.8559 39.0392C34.9568 39.1247 35.0628 39.2011 35.173 39.2693L17.5722 57.193L9.75956 54.7918C9.75447 54.7847 9.75151 54.7812 9.75151 54.7812L3.30222 52.7002C3.30222 52.7002 5.85048 55.9668 2.24875 57.4356C-1.35298 58.9044 0.45255 62.2419 0.45255 62.2419L6.90183 64.3228C6.90183 64.3228 5.09631 60.9854 8.69804 59.5165C10.6558 58.7181 10.7961 57.3887 10.5167 56.3414L16.5789 58.2045L5.01025 69.9846ZM34.6173 32.7354C33.9241 32.1481 33.875 31.15 34.5075 30.506C35.14 29.8623 36.2138 29.8166 36.9069 30.4039C37.6 30.9916 37.6492 31.9897 37.0167 32.6334C36.3846 33.2774 35.31 33.3231 34.6173 32.7354ZM35.3392 36.1575C35.9713 35.5139 37.046 35.4678 37.7387 36.0555C37.8506 36.1504 37.9434 36.2564 38.0214 36.3694L35.8111 38.6201C35.683 38.5583 35.5605 38.4819 35.449 38.387C34.7559 37.7997 34.7067 36.8015 35.3392 36.1575ZM38.4331 42.0825C39.1262 42.6701 39.1754 43.6683 38.5429 44.3119C37.9108 44.9559 36.8365 45.0016 36.1434 44.4139C35.4507 43.8262 35.4015 42.8281 36.0336 42.1845C36.6661 41.5408 37.7404 41.4952 38.4331 42.0825ZM34.7898 43.3697C34.7949 44.0208 35.0802 44.6676 35.6385 45.141C36.0904 45.5243 36.6483 45.7311 37.2147 45.7673L37.6132 48.5852C37.5233 48.6368 37.4351 48.6888 37.3491 48.7416C35.8751 49.7039 35.1883 51.2113 34.7843 52.8349C34.1013 55.8198 31.2847 57.6105 28.9675 59.7013C28.6589 59.9498 28.3409 60.183 28.0111 60.4012L20.3702 58.0528L34.7898 43.3697ZM33.78 61.6305C33.1687 62.2529 32.1301 62.2974 31.4602 61.7294C30.7904 61.1614 30.7425 60.1964 31.3538 59.574C31.9651 58.9517 33.0038 58.9072 33.6736 59.4752C34.3438 60.0428 34.3913 61.0078 33.78 61.6305ZM19.3773 59.0643L26.4858 61.2489C25.8771 61.5281 25.225 61.7625 24.5141 61.9472C23.1965 62.2281 22.1888 63.431 22.0044 64.6726L38.2156 64.4654C41.3705 64.4252 43.823 61.9015 43.5453 58.9812L43.4287 57.7539C42.318 58.6007 40.6774 58.5842 39.5849 57.6581C38.3856 56.6411 38.3004 54.9135 39.3946 53.7988C40.3336 52.8424 41.8356 52.6494 43.0009 53.2556L42.3032 45.9186C41.4091 46.758 40.0966 47.3468 38.8791 47.9341L38.5391 45.5286C38.8261 45.3986 39.0927 45.2174 39.3208 44.9847C40.2907 43.9968 40.2153 42.4657 39.1521 41.5641C38.7854 41.2533 38.3491 41.0579 37.8951 40.976L37.8001 40.3052L43.8738 34.1203L46.2394 58.9907C46.325 59.8899 46.2381 60.7742 45.9905 61.6132C45.9808 61.5912 45.9714 61.5703 45.9634 61.5522C45.9524 61.5293 45.9409 61.5057 45.9295 61.4824C45.8985 61.6991 45.8587 61.9138 45.8146 62.1276C45.4687 63.0312 44.9315 63.8734 44.2134 64.6123C44.2036 64.6222 44.1939 64.6324 44.1841 64.6423C42.6826 66.1713 40.6299 67.0288 38.4 67.0572L11.1869 67.4054L19.3773 59.0643Z" fill="#5E5E5E"/>
<path d="M43.8809 22.633C46.2363 22.633 48.1525 20.8526 48.1525 18.6642C48.1525 16.4757 46.2363 14.6953 43.8809 14.6953C41.5256 14.6953 39.6094 16.4757 39.6094 18.6642C39.6094 20.8526 41.526 22.633 43.8809 22.633ZM43.8809 15.4295C45.8005 15.4295 47.3618 16.8806 47.3618 18.6642C47.3618 20.4477 45.8001 21.8984 43.8809 21.8984C41.9614 21.8984 40.4 20.4473 40.4 18.6642C40.4 16.8806 41.9618 15.4295 43.8809 15.4295Z" fill="#5E5E5E"/>
<path d="M44.3098 16.0244H43.4717L43.8909 18.2054L44.3098 16.0244Z" fill="#5E5E5E"/>
<path d="M42.1819 16.5283L41.5889 17.079L43.5449 18.3457L42.1819 16.5283Z" fill="#5E5E5E"/>
<path d="M46.7121 19.0447V18.2656L44.3652 18.6552L46.7121 19.0447Z" fill="#5E5E5E"/>
<path d="M41.0469 18.2344V19.0135L43.3942 18.6239L41.0469 18.2344Z" fill="#5E5E5E"/>
<path d="M43.4648 21.3222H44.3034L43.8841 19.1416L43.4648 21.3222Z" fill="#5E5E5E"/>
<path d="M45.5997 20.7832L46.1924 20.2326L44.2363 18.9658L45.5997 20.7832Z" fill="#5E5E5E"/>
<path d="M46.1924 17.0341L45.5997 16.4834L44.2363 18.3008L46.1924 17.0341Z" fill="#5E5E5E"/>
<path d="M41.6338 20.2355L42.2269 20.7862L43.5898 18.9688L41.6338 20.2355Z" fill="#5E5E5E"/>
<path d="M19.1934 77.8726C19.1934 74.9704 16.6524 72.6094 13.5288 72.6094C10.4053 72.6094 7.86426 74.9704 7.86426 77.8726C7.86426 80.7748 10.4053 83.1358 13.5288 83.1358C16.6524 83.1358 19.1934 80.7748 19.1934 77.8726ZM13.5288 82.1617C10.9836 82.1617 8.91264 80.2375 8.91264 77.8726C8.91264 75.5076 10.9836 73.5835 13.5288 73.5835C16.0741 73.5835 18.145 75.5076 18.145 77.8726C18.145 80.2375 16.0741 82.1617 13.5288 82.1617Z" fill="#5E5E5E"/>
<path d="M14.0989 74.3721H12.9873L13.5431 77.264L14.0989 74.3721Z" fill="#5E5E5E"/>
<path d="M11.2762 75.04L10.4902 75.7703L13.0843 77.4503L11.2762 75.04Z" fill="#5E5E5E"/>
<path d="M14.1719 77.8601L17.2844 78.3765V77.3438L14.1719 77.8601Z" fill="#5E5E5E"/>
<path d="M9.77148 77.3037V78.3365L12.884 77.8201L9.77148 77.3037Z" fill="#5E5E5E"/>
<path d="M12.9785 81.3968H14.0905L13.5343 78.5049L12.9785 81.3968Z" fill="#5E5E5E"/>
<path d="M15.809 80.6827L16.595 79.952L14.001 78.2725L15.809 80.6827Z" fill="#5E5E5E"/>
<path d="M16.594 75.7121L15.8081 74.9814L14 77.3917L16.594 75.7121Z" fill="#5E5E5E"/>
<path d="M10.5498 79.9563L11.3358 80.6866L13.1438 78.2764L10.5498 79.9563Z" fill="#5E5E5E"/>
<path d="M21.8943 33.0592C22.4967 34.7459 23.2382 36.3746 24.0131 37.9912C23.9894 37.6934 24.0029 37.3968 24.0669 37.1049C24.0903 36.702 24.1373 36.3006 24.2081 35.9C24.3425 35.139 24.4604 34.4075 24.5184 33.6371C24.585 32.7528 24.7592 31.9721 25.0365 31.1284C25.2518 30.4722 25.4553 29.8065 25.7644 29.181C26.0136 28.6756 26.3265 28.1899 26.6203 27.7062C27.1383 26.8535 27.7217 26.0413 28.2049 25.1704C28.4707 24.6914 28.7946 24.2447 29.0753 23.7736C29.414 23.2056 29.6887 22.6081 29.9477 22.0058C30.356 21.0569 30.6765 20.0651 31.0063 19.0902C31.2984 18.2268 31.6511 17.3579 31.8474 16.4709C32.181 14.9646 32.2955 13.4115 31.6481 11.9624C31.0521 10.6286 29.8108 9.09482 28.0684 9.13658C25.8924 9.18896 24.0377 10.5495 22.7617 12.0699C20.65 14.5861 19.5987 17.7289 19.5813 20.9084C19.572 22.5904 19.8179 24.301 20.0981 25.9589C20.5046 28.3648 21.0689 30.7483 21.8943 33.0592Z" fill="#5E5E5E"/>
<path d="M6.88989 35.1662C8.33635 35.5408 9.89769 35.6361 11.384 35.7941C12.6236 35.9256 13.8966 35.9563 15.1269 36.1415C16.3449 36.325 17.6069 36.5381 18.7897 36.867C19.3196 37.0143 19.8241 37.142 20.3998 37.5709C20.5804 37.7056 20.8351 37.8372 20.992 37.9979C21.2019 38.2133 21.3905 38.3626 21.6169 38.5631C21.9174 38.8298 22.0993 39.1926 22.4177 39.4372C22.6089 39.5841 22.753 39.8228 22.9777 39.924C23.2041 39.7373 23.0455 39.2339 22.9925 38.9992C22.9196 38.6754 22.881 38.3351 22.7683 38.0211C22.5775 37.4909 22.4516 36.8481 22.168 36.4125L22.1557 36.401C21.6377 35.4041 20.7911 34.6427 20.0488 33.8884C19.4345 33.2641 18.7685 32.7008 18.0266 32.2088C17.0109 31.5353 15.7658 31.0748 14.583 30.7215C12.7007 30.1598 10.6782 29.892 8.70771 30.1141C7.4143 30.2599 6.16581 30.6506 5.25309 31.5514C4.64729 32.149 4.32637 32.9943 4.72529 33.7832C5.1204 34.5663 6.04669 34.9476 6.88989 35.1662Z" fill="#5E5E5E"/>
<path d="M29.704 102.663C27.28 100.777 24.3515 100.114 21.1016 100.342C19.0862 100.489 18.023 99.8706 17.4727 98.1812C17.1832 97.343 16.8962 96.4418 16.8631 95.5516C16.78 93.5306 17.385 91.608 18.9391 90.0131C20.1647 88.8133 20.4869 88.8889 21.2788 90.2211C21.3572 90.3731 21.4039 90.6016 21.5298 90.639C22.033 90.7899 22.5909 90.9785 23.0886 90.9127C23.2883 90.8871 23.5719 90.199 23.5303 89.8429C23.401 88.9027 22.8385 88.1551 21.8041 87.866C19.4148 87.1503 16.2637 88.0519 15.0546 90.5228C13.8931 92.8787 13.7638 95.244 14.3369 97.7342C15.0661 100.872 17.8081 102.273 20.9108 102.173C22.2288 102.117 23.6304 102.43 24.914 102.858C25.7229 103.121 26.4296 103.805 27.0104 104.452C27.6984 105.237 27.6183 106.459 27.1011 106.969C25.8785 108.105 23.9992 108.379 22.4328 107.609C21.5743 107.18 20.8947 107.513 20.8566 108.403C20.846 108.657 21.144 108.962 21.3772 109.139C23.4688 110.517 25.6135 110.001 27.9524 109.242C28.8625 108.463 30.0351 107.849 30.6125 106.906C31.527 105.377 31.4837 104.055 29.704 102.663Z" fill="#5E5E5E"/>
<path d="M48.4634 93.11C47.7444 92.0571 47.0597 90.8648 46.3403 89.8123C44.3266 86.9333 42.1035 81.9951 40.0034 79.1551C39.6714 78.6478 37.9494 78.8833 37.3237 78.6312C36.8781 78.4548 36.5691 78.7482 36.6492 79.1799C36.7819 79.7137 36.9282 80.2722 37.2181 80.7673C38.2038 82.5434 40.4184 86.0191 41.4163 87.8204C41.8738 88.7086 42.0107 89.8016 42.6415 90.6131C44.1795 92.7058 44.5064 94.9928 44.0757 97.4613C43.7509 99.1022 42.1646 99.8073 40.7088 98.7702C39.6384 97.9985 38.6464 97.0359 37.8981 95.996C37.0977 94.8549 36.631 93.5342 36.0036 92.3159C35.073 90.5772 33.2616 87.2654 32.2 85.6165C31.5493 84.6271 30.6383 83.7534 29.7565 82.8664C29.5132 82.6005 29.068 82.4244 28.6462 82.3622C27.664 82.1751 27.1913 82.6344 27.5961 83.4214C28.3906 85.0328 29.5424 87.5462 30.3657 89.145C30.7574 89.9068 31.1207 90.6804 31.4264 91.4808C31.8465 92.5723 32.8923 94.2597 33.2548 95.3776L33.2128 95.365C33.4981 95.6439 34.0662 95.9212 34.0815 96.226C34.0904 97.3447 34.8704 97.9651 35.6186 98.6615C36.2863 99.2696 36.5687 99.6119 37.2202 100.258L37.5861 100.625C37.5785 100.473 38.8172 101.295 39.4302 101.521C41.8945 102.453 45.3716 101.22 46.5307 98.9273C46.8723 98.2132 46.7816 97.3494 46.8584 96.5356C46.888 96.1799 46.7129 95.6336 47.4565 96.1142C48.0903 96.5183 48.7639 96.3127 49.137 95.866C49.4045 95.5604 49.4159 94.9624 49.2905 94.5815C49.1302 94.0612 48.7826 93.5921 48.4634 93.11Z" fill="#5E5E5E"/>
<path d="M70.2338 88.2373C68.2172 83.7693 66.2739 79.2368 64.1419 74.8205C63.2851 73.0184 62.0663 71.4082 60.9209 69.7342C60.3481 68.8971 59.0093 68.7746 57.9813 69.3253C56.9821 69.863 56.8316 70.3979 57.3043 71.591C57.3798 71.8068 57.3844 72.0231 57.4183 72.2259C57.6053 75.1368 57.7927 78.0477 57.9508 80.9711C57.9716 81.1492 57.8639 81.3532 57.7846 81.5442C57.6328 81.4556 57.4361 81.4178 57.3136 81.317C56.0414 80.2917 54.7535 79.305 53.5678 78.2407C52.2196 76.9999 51.0034 75.6693 49.6845 74.4156C48.8418 73.6045 47.9116 73.5195 46.7162 74.0197C46.1256 74.2505 45.9158 74.531 46.2163 75.1147C46.8641 76.5111 47.4966 77.9452 48.0863 79.3668C50.0529 84.0132 51.9907 88.6721 54.0438 93.2795C54.3681 93.9778 55.1821 94.458 55.7942 95.0276C55.9596 95.1418 56.3521 95.2166 56.5544 95.1268C58.0097 94.5112 59.092 92.6894 58.5829 91.3565C57.9745 89.6931 57.1644 88.1195 56.4407 86.5073C56.4119 86.5199 56.4119 86.5199 56.3831 86.5325C55.7039 85.2126 55.0371 83.9182 54.358 82.5987C54.2795 82.4462 54.2749 82.23 54.2541 82.0524C54.4347 82.128 54.6861 82.2032 54.851 82.3171C55.8901 83.1651 56.9291 84.0132 57.9974 84.8486C58.56 85.2531 59.1912 85.3784 59.8733 84.9817C60.4978 84.6107 60.622 84.0254 60.5363 83.377C60.2409 81.3567 60.0026 79.3109 59.7355 77.2772C59.7016 77.074 59.7258 76.8455 59.7627 76.6418C59.9119 76.7943 60.1031 76.9589 60.2078 77.1618C61.8226 80.4354 63.0045 83.9025 65.0071 87.0351C65.8147 88.329 66.5524 89.6234 67.3888 90.9043C67.5482 91.1454 67.9619 91.3979 68.274 91.3845C69.9773 91.2509 70.8676 89.9507 70.3508 88.4653C70.3118 88.3897 70.2724 88.3133 70.2338 88.2373Z" fill="#5E5E5E"/>
<path d="M90.5986 79.1865C88.582 74.7186 86.6387 70.1864 84.5067 65.7697C83.6499 63.9677 82.4311 62.3574 81.2857 60.6834C80.7129 59.8464 79.3742 59.7239 78.3461 60.2745C77.3469 60.8122 77.1964 61.3471 77.6691 62.5402C77.7446 62.756 77.7492 62.9723 77.7836 63.1751C77.9705 66.086 78.1579 68.9969 78.3156 71.9207C78.3368 72.0984 78.2291 72.3024 78.1498 72.4935C77.9981 72.4048 77.8014 72.3674 77.6784 72.2662C76.4066 71.2413 75.1187 70.2542 73.933 69.1899C72.5849 67.9495 71.3686 66.6189 70.0498 65.3648C69.207 64.5542 68.2769 64.4687 67.0814 64.9689C66.4909 65.1997 66.281 65.4802 66.5816 66.0639C67.2293 67.4603 67.8618 68.8945 68.4515 70.316C70.4182 74.9624 72.356 79.6213 74.4091 84.2287C74.7334 84.9267 75.5469 85.4072 76.1595 85.9768C76.3248 86.091 76.7174 86.1655 76.9196 86.076C78.3749 85.4604 79.4568 83.6386 78.9481 82.3057C78.3398 80.6423 77.5296 79.0687 76.806 77.4565C76.7771 77.4691 76.7771 77.4691 76.7483 77.4825C76.0692 76.1626 75.4023 74.8682 74.7232 73.5487C74.6448 73.3963 74.6401 73.18 74.6193 73.002C74.7999 73.078 75.0513 73.1532 75.2162 73.2671C76.2553 74.1147 77.2943 74.9632 78.3626 75.7986C78.9252 76.2027 79.5564 76.328 80.2386 75.9313C80.863 75.5603 80.9872 74.9754 80.9012 74.3266C80.6057 72.3064 80.3674 70.2605 80.1004 68.2272C80.0664 68.0236 80.0906 67.7951 80.1271 67.5915C80.2767 67.7439 80.4675 67.9085 80.5722 68.1114C82.1869 71.3854 83.3689 74.8521 85.3715 77.9847C86.1791 79.2786 86.9168 80.573 87.7532 81.8539C87.9126 82.095 88.3263 82.3475 88.6384 82.3341C90.3421 82.2009 91.232 80.9003 90.7152 79.4149C90.6766 79.3385 90.6376 79.2625 90.5986 79.1865Z" fill="#5E5E5E"/>
<path d="M103.399 71.9687C102.4 72.506 101.427 73.0945 100.399 73.6447C99.3552 74.234 99.2297 74.1962 98.7621 73.2185C98.1402 71.8738 97.5891 70.5278 96.9515 69.2209C96.6378 68.6116 96.7119 68.2047 97.336 67.8336C98.0626 67.3862 98.7761 66.9131 99.4896 66.4396C99.6367 66.3124 99.8045 66.0194 99.7393 65.8921C99.6608 65.7397 99.3831 65.6136 99.158 65.5888C98.9037 65.5774 98.6018 65.6798 98.3716 65.7826C97.7086 66.0773 97.0447 66.3723 96.4623 66.7559C95.8802 67.1396 95.597 67.1408 95.2545 66.544C94.8729 65.8716 94.4049 65.2383 93.9653 64.5911C92.5739 62.7138 91.1987 60.7995 89.7361 58.9234C89.0926 58.0868 89.0061 58.1254 90.0342 57.5739C90.8443 57.1521 91.626 56.7424 92.3815 56.2819C92.5858 56.1283 92.5731 55.7596 92.6842 55.4922C92.4273 55.5442 92.1309 55.5194 91.8872 55.597C90.3767 56.1752 88.8637 56.8161 87.3536 57.3935C86.8793 57.5735 86.3655 57.6771 85.8779 57.8311C86.1476 58.1482 86.4299 58.4905 86.6995 58.8076C86.794 58.9218 86.8301 59.0612 86.8827 59.1625C88.0213 61.6503 89.1185 64.1259 90.2444 66.5881C90.3021 66.5629 90.3729 66.5625 90.4017 66.5495C91.055 67.8187 91.6506 69.113 92.3904 70.3435C93.287 71.8785 94.2124 73.4013 95.2689 74.8339C96.3414 76.2283 98.1101 76.5654 99.877 75.936C101.773 75.2806 102.977 73.9031 104.046 72.3988C104.152 72.2586 104.091 72.0038 104.099 71.8135C103.871 71.8525 103.588 71.8533 103.399 71.9687Z" fill="#5E5E5E"/>
<path d="M119.016 64.7785C118.838 64.6395 118.586 64.5642 118.364 64.4756C116.237 63.5811 114.127 62.6475 111.984 61.7912C111.4 61.5517 111.251 61.3997 111.39 60.7762C111.815 58.7787 112.269 56.7683 112.397 54.7461C112.529 52.6604 112.181 50.5385 109.777 49.5175C107.247 48.4588 104.59 48.3926 102.028 49.7495C101.304 50.1336 100.666 50.4794 99.7985 50.5838C98.9154 50.7268 98.8048 50.9942 99.1969 51.7556C99.461 52.1999 99.8689 52.5797 100.091 53.0114C101.301 55.1553 102.47 57.2871 103.58 59.4444C104.863 61.868 106.102 64.3429 107.356 66.7791C107.384 66.7665 107.414 66.7539 107.414 66.7539C107.636 67.1856 107.8 67.6421 108.096 68.0096C108.969 69.0873 109.901 70.1394 110.819 71.1655C111.212 71.5842 111.665 71.5692 112.229 71.2884C114.046 70.4805 114.354 69.9074 113.486 68.359C112.686 66.8744 111.8 65.4284 110.942 63.9691C110.838 63.7658 110.849 63.5117 110.802 63.2833C111.011 63.3455 111.25 63.3955 111.444 63.4968C113.248 64.3165 115.052 65.1366 116.857 65.9562C117.273 66.1453 117.726 66.4746 118.138 66.4474C118.749 66.3946 119.577 66.2131 119.863 65.8054C120.357 65.1807 119.385 65.0826 119.016 64.7785ZM109.233 59.9577C109.24 60.1105 109.051 60.2255 108.975 60.3531C108.852 60.2519 108.701 60.1633 108.635 60.0364C108.332 59.5165 108.044 58.958 107.77 58.425C107.828 58.3994 107.857 58.3864 107.914 58.3608C106.303 55.9892 104.737 53.5664 103.098 51.2077C102.831 50.8268 102.837 50.7 103.327 50.4818C105.949 49.3789 109.393 50.9044 109.837 53.4202C110.224 55.6189 109.679 57.7948 109.233 59.9577Z" fill="#5E5E5E"/>
</g>
<defs>
<clipPath id="clip0_1417_12842">
<rect width="120" height="110" fill="white"/>
</clipPath>
</defs>
</svg>
