<svg width="120" height="110" viewBox="0 0 120 110" fill="none" xmlns="http://www.w3.org/2000/svg">
<path d="M63.3125 43.5976L70.0691 14.6484L82.8996 17.4267L82.6153 18.56L71.1585 16.1254L64.4992 43.5976H63.3125Z" fill="#5E5E5E"/>
<path d="M48.9687 22.2691C44.0645 19.3539 37.5154 20.6458 34.345 25.1508C31.1732 29.6556 32.5774 35.6705 37.4832 38.5842C42.3864 41.497 48.9353 40.2077 52.1071 35.7025C55.2792 31.1971 53.8734 25.1819 48.9687 22.2691ZM48.1556 23.4229C50.478 24.8013 51.879 26.9955 52.2164 29.3328L44.0769 29.9568L48.5063 23.668L48.1373 23.4492L47.7701 23.2315L47.6051 23.4666L43.2033 29.7195L38.4318 23.7722L38.2564 23.5508L37.5488 24.0291L42.4233 30.1022L34.3379 32.0854C33.8815 30.0215 34.2625 27.8009 35.602 25.897C38.3212 22.0357 43.9526 20.9261 48.1556 23.4229ZM42.5978 30.8916L41.6336 38.6373C40.4771 38.449 39.3417 38.0512 38.2957 37.4298C36.4284 36.3209 35.1552 34.682 34.5524 32.8649L42.5978 30.8916ZM42.5014 38.7381L43.4899 30.8098L52.2916 30.1347C52.3553 31.7847 51.8983 33.4671 50.8498 34.9559C48.9776 37.616 45.7215 38.97 42.5014 38.7381Z" fill="#5E5E5E"/>
<path d="M64.8312 48.1556C65.6327 47.1224 76.33 33.5309 78.0959 31.3902C79.8678 29.2475 77.5335 29.5431 77.5335 29.5431H61.017H60.9703H44.4518C44.4518 29.5431 42.1205 29.2475 43.8894 31.3902C45.6583 33.5309 56.3531 47.1226 57.1571 48.1556C57.9601 49.1911 59.4067 50.7423 59.8118 53.919C60.2112 57.0946 60.2112 71.3506 59.2466 73.8614C58.2819 76.373 57.7199 76.8902 55.709 77.629C53.6995 78.3658 50.0002 78.588 50.0002 79.2525C50.0002 79.9169 52.0912 80.4337 54.9045 80.4337C57.5261 80.4337 60.565 80.4337 60.9705 80.4337C60.9705 80.4337 60.9885 80.4337 61.0172 80.4337C61.421 80.4337 64.4594 80.4337 67.081 80.4337C69.8943 80.4337 71.9853 79.9171 71.9853 79.2525C71.9853 78.588 68.2891 78.3658 66.2766 77.629C64.2686 76.8902 63.7036 76.373 62.739 73.8614C61.7743 71.3506 61.7743 57.0946 62.177 53.919C62.5786 50.7423 64.0235 49.1911 64.8312 48.1556Z" fill="#5E5E5E"/>
<g opacity="0.5">
<path d="M30.5541 27.2295C30.137 26.8392 29.7159 26.446 29.2967 26.0559C28.5144 25.3289 27.7351 24.5993 26.9513 23.8711C26.8743 23.9408 26.797 24.0142 26.7207 24.0815C27.9233 25.2006 29.1231 26.3226 30.3257 27.4427C30.4032 27.3714 30.4795 27.2992 30.5541 27.2295Z" fill="#5E5E5E"/>
<path d="M21.36 18.6655C20.9102 18.2488 20.4634 17.8334 20.0175 17.415C19.9394 17.4875 19.864 17.5552 19.7891 17.6288C20.2317 18.0434 20.6811 18.462 21.1281 18.8753C21.2044 18.8088 21.2824 18.7351 21.36 18.6655Z" fill="#5E5E5E"/>
<path d="M23.0286 20.646C23.1066 20.5744 23.1831 20.5065 23.2594 20.4358C22.851 20.0532 22.4405 19.6735 22.0309 19.291C21.9529 19.3591 21.8771 19.4298 21.8008 19.4996C22.2087 19.8813 22.6205 20.263 23.0286 20.646Z" fill="#5E5E5E"/>
<path d="M36.7177 32.9678C35.0006 31.3713 33.2842 29.7679 31.5657 28.168C31.4858 28.2394 31.4117 28.3119 31.3369 28.3808C33.0532 29.9793 34.7696 31.5831 36.4915 33.184C36.568 33.1109 36.6406 33.0397 36.7177 32.9678Z" fill="#5E5E5E"/>
<path d="M19.3451 16.795C18.5411 16.044 17.7351 15.2905 16.9297 14.5403C16.8404 14.4587 16.3799 14.4555 16.509 14.572C17.3767 15.3823 18.2453 16.1923 19.1165 17.0004C19.1902 16.9317 19.268 16.8623 19.3451 16.795Z" fill="#5E5E5E"/>
<path d="M26.2789 23.2446C25.4951 22.5182 24.7136 21.7898 23.932 21.0596C23.855 21.1316 23.7757 21.1983 23.7012 21.2698C24.4828 22 25.2669 22.7266 26.0492 23.4584C26.1235 23.3867 26.2011 23.3171 26.2789 23.2446Z" fill="#5E5E5E"/>
<path d="M43.7361 28.0622L40.0346 22.2383C39.8964 22.3097 39.7571 22.383 39.623 22.4559L43.3225 28.279C43.4586 28.2075 43.5981 28.1324 43.7361 28.0622Z" fill="#5E5E5E"/>
<path d="M39.3105 21.0914L37.7258 18.6016L37.3125 18.8235L38.9002 21.3152C39.0362 21.2413 39.1703 21.1631 39.3105 21.0914Z" fill="#5E5E5E"/>
<path d="M31.4411 39.2304L25.0661 35.8857C24.9859 36.0139 24.9077 36.1405 24.8281 36.2674L31.2036 39.6124C31.2796 39.4825 31.3614 39.3557 31.4411 39.2304Z" fill="#5E5E5E"/>
<path d="M23.8138 35.2321L20.8946 33.6992L20.6582 34.0791L23.5752 35.609C23.6514 35.484 23.7349 35.3553 23.8138 35.2321Z" fill="#5E5E5E"/>
<path d="M21.8 19.4996C21.8762 19.4298 21.9521 19.3591 22.0301 19.291C21.8054 19.083 21.584 18.8696 21.3606 18.665C21.283 18.7347 21.205 18.8084 21.1289 18.8748C21.3534 19.0848 21.5766 19.2928 21.8 19.4996Z" fill="#5E5E5E"/>
<path d="M49.1875 17.318C49.3312 17.2797 49.4724 17.2466 49.6163 17.2114C49.4796 16.7266 49.3418 16.2433 49.2023 15.7576C48.9087 14.7184 48.6147 13.6802 48.3207 12.6436C48.1749 12.6779 48.0338 12.7132 47.8906 12.75C48.3229 14.2697 48.7557 15.7947 49.1875 17.318Z" fill="#5E5E5E"/>
<path d="M51.4051 25.1277C51.5489 25.0925 51.6865 25.0526 51.8319 25.0145C51.213 22.84 50.5978 20.6626 49.9776 18.4863C49.8378 18.5211 49.6944 18.563 49.5527 18.5995C50.1684 20.7764 50.7873 22.9496 51.4051 25.1277Z" fill="#5E5E5E"/>
<path d="M47.6499 11.8983C47.7936 11.8634 47.9363 11.8282 48.0778 11.7951C47.8003 10.8014 47.5156 9.80967 47.2364 8.81836C47.0925 8.8515 46.9493 8.89162 46.8057 8.92655C47.088 9.91666 47.3705 10.907 47.6499 11.8983Z" fill="#5E5E5E"/>
<path d="M45.5885 3.01441C45.3145 2.04446 45.0366 1.07431 44.7628 0.104159C44.7304 -0.014814 44.2619 -0.0461542 44.3023 0.0859938C44.587 1.09786 44.8734 2.10894 45.1587 3.12101C45.3034 3.08587 45.4455 3.04755 45.5885 3.01441Z" fill="#5E5E5E"/>
<path d="M45.8843 5.66808C46.0275 5.63335 46.1673 5.59662 46.3124 5.56149C46.151 4.99517 45.9902 4.43024 45.8307 3.86133C45.6848 3.89686 45.5436 3.93199 45.4004 3.96832C45.5619 4.53504 45.7231 5.10136 45.8843 5.66808Z" fill="#5E5E5E"/>
<path d="M75.6118 4.08193C75.461 4.04181 75.3125 4.00708 75.1556 3.96875C74.9857 4.53168 74.8173 5.0968 74.6523 5.66032C74.8008 5.70065 74.9548 5.73658 75.1076 5.7757C75.2762 5.21018 75.4468 4.64746 75.6118 4.08193Z" fill="#5E5E5E"/>
<path d="M71.2453 18.661C71.0951 18.6213 70.9449 18.5813 70.7904 18.541C70.1411 20.7073 69.4911 22.8777 68.8418 25.047C68.9957 25.0823 69.1445 25.1255 69.299 25.1642C69.944 22.9943 70.5961 20.8295 71.2453 18.661Z" fill="#5E5E5E"/>
<path d="M74.8515 6.62217C74.7016 6.58385 74.5468 6.54672 74.3982 6.50879C74.2417 7.0256 74.0861 7.54042 73.9316 8.06083C74.0825 8.09916 74.237 8.13589 74.3891 8.17421C74.5429 7.6576 74.6996 7.14058 74.8515 6.62217Z" fill="#5E5E5E"/>
<path d="M72.0483 15.9754C72.3656 14.9288 72.6798 13.8808 72.9923 12.8308C72.8391 12.7939 72.6891 12.7555 72.5366 12.7158C72.0809 14.2337 71.6278 15.7506 71.1738 17.2685C71.3246 17.3051 71.4787 17.3454 71.6291 17.3835C71.7675 16.9148 71.9105 16.4439 72.0483 15.9754Z" fill="#5E5E5E"/>
<path d="M76.7243 0.377355C76.7572 0.269361 76.2901 0.184124 76.2534 0.312679C75.9733 1.2473 75.6928 2.18591 75.4131 3.12292C75.5632 3.16105 75.716 3.19758 75.8683 3.2361C76.1552 2.28372 76.4392 1.33054 76.7243 0.377355Z" fill="#5E5E5E"/>
<path d="M74.1364 9.02041C73.9845 8.98228 73.8319 8.94575 73.6759 8.90723C73.3782 9.89355 73.0846 10.8839 72.7891 11.8688C72.9414 11.9087 73.0935 11.9472 73.2461 11.9838C73.5418 10.9974 73.8389 10.0089 74.1364 9.02041Z" fill="#5E5E5E"/>
<path d="M60.2814 15.9565C60.3663 15.9565 60.4491 15.9603 60.5334 15.9603L60.5208 13.2568L60.043 13.2622L60.056 15.9603C60.1303 15.9603 60.2068 15.9565 60.2814 15.9565Z" fill="#5E5E5E"/>
<path d="M60.0635 17.28L60.0976 24.0261C60.1589 24.0247 60.2208 24.0211 60.2814 24.0211C60.3788 24.0211 60.4772 24.0281 60.5752 24.0281L60.5405 17.28C60.4536 17.28 60.3688 17.2764 60.2814 17.2764C60.2067 17.2766 60.1358 17.28 60.0635 17.28Z" fill="#5E5E5E"/>
<path d="M47.2362 8.81889C47.1562 8.53602 47.0745 8.25237 46.9949 7.9707C46.8513 8.00424 46.7098 8.04097 46.5664 8.0757C46.6462 8.36076 46.7242 8.64422 46.8054 8.92708C46.9489 8.89195 47.0923 8.85202 47.2362 8.81889Z" fill="#5E5E5E"/>
<path d="M101.174 45.1204C101.194 45.1965 101.212 45.2731 101.233 45.3516C101.785 45.2182 102.338 45.0883 102.883 44.9565C103.993 44.6896 105.102 44.4245 106.207 44.1598C106.187 44.0818 106.167 44.0083 106.147 43.9307C104.491 44.3271 102.831 44.7236 101.174 45.1204Z" fill="#5E5E5E"/>
<path d="M111.234 42.7137C111.257 42.7885 111.275 42.865 111.296 42.942C111.86 42.8073 112.426 42.6716 112.989 42.5352C112.972 42.4606 112.952 42.3825 112.93 42.3057C112.364 42.4418 111.8 42.5751 111.234 42.7137Z" fill="#5E5E5E"/>
<path d="M119.612 40.7077C118.62 40.9443 117.624 41.1826 116.628 41.4191C116.651 41.4974 116.67 41.5745 116.691 41.6493C117.769 41.3946 118.85 41.1325 119.928 40.876C120.171 40.8175 119.73 40.676 119.612 40.7077Z" fill="#5E5E5E"/>
<path d="M99.8406 45.6861C99.8217 45.609 99.8039 45.531 99.7835 45.4541C97.4143 46.0226 95.0433 46.5891 92.6748 47.1587C92.6972 47.2307 92.7133 47.309 92.7333 47.3854C95.1026 46.8221 97.4719 46.2506 99.8406 45.6861Z" fill="#5E5E5E"/>
<path d="M113.855 42.0891C113.876 42.1612 113.893 42.2372 113.916 42.3157C114.532 42.1672 115.149 42.0193 115.765 41.8725C115.743 41.7943 115.728 41.719 115.705 41.6426C115.09 41.7891 114.471 41.9372 113.855 42.0891Z" fill="#5E5E5E"/>
<path d="M107.073 43.7089C107.093 43.7874 107.111 43.8618 107.133 43.9369C108.211 43.6808 109.29 43.4197 110.368 43.162C110.35 43.0867 110.33 43.0104 110.308 42.9336C109.229 43.1923 108.149 43.4522 107.073 43.7089Z" fill="#5E5E5E"/>
<path d="M89.5113 28.6524C89.4166 28.5695 89.3259 28.4775 89.2338 28.3877C87.4936 29.9681 85.7501 31.5445 84.0088 33.1261C84.1053 33.2123 84.1935 33.3039 84.2859 33.389C86.0263 31.8106 87.7694 30.2326 89.5113 28.6524Z" fill="#5E5E5E"/>
<path d="M101.221 18.0445C101.125 17.9565 101.036 17.8727 100.941 17.7812C100.488 18.1931 100.034 18.6043 99.583 19.0125C99.6715 19.1013 99.766 19.1916 99.8603 19.2782C100.313 18.8654 100.767 18.4548 101.221 18.0445Z" fill="#5E5E5E"/>
<path d="M97.2513 21.6396C97.1605 21.5526 97.0701 21.4632 96.9723 21.3779C96.1811 22.0978 95.3857 22.8168 94.5947 23.5348C94.6875 23.6199 94.7799 23.7069 94.8714 23.7945C95.6641 23.0763 96.4588 22.3567 97.2513 21.6396Z" fill="#5E5E5E"/>
<path d="M91.7137 26.6576C92.5386 25.9082 93.3685 25.161 94.1939 24.4111C94.0976 24.3228 94.0068 24.2382 93.915 24.1514C92.6918 25.2547 91.4744 26.3576 90.2568 27.4625C90.3496 27.5495 90.4439 27.6395 90.5369 27.7283C90.9281 27.3698 91.3221 27.0133 91.7137 26.6576Z" fill="#5E5E5E"/>
<path d="M104.252 15.2971C104.341 15.2151 103.905 15.0971 103.802 15.1883C103.078 15.8481 102.349 16.5054 101.619 17.1649C101.712 17.2518 101.808 17.3396 101.899 17.4284C102.681 16.7166 103.466 16.0064 104.252 15.2971Z" fill="#5E5E5E"/>
<path d="M101.039 55.0771L93.6945 55.1121C93.6912 55.257 93.6873 55.4025 93.6836 55.5504L101.027 55.5169C101.03 55.3702 101.039 55.2255 101.039 55.0771Z" fill="#5E5E5E"/>
<path d="M102.48 55.0694C102.48 55.2157 102.477 55.3623 102.473 55.5098L105.423 55.4976L105.421 55.0566L102.48 55.0694Z" fill="#5E5E5E"/>
<path d="M89.3262 39.5608C89.4064 39.691 89.49 39.8139 89.5659 39.9429L95.9068 36.5448C95.829 36.4146 95.7473 36.2894 95.6656 36.1631L89.3262 39.5608Z" fill="#5E5E5E"/>
<path d="M97.1481 35.8723L99.6042 34.5572L99.3629 34.1797L96.9141 35.491C96.994 35.6191 97.0701 35.7461 97.1481 35.8723Z" fill="#5E5E5E"/>
<path d="M83.1708 19.0947L82.7516 18.8799L81.3486 21.1394C81.4849 21.2164 81.6209 21.2915 81.7572 21.3661L83.1708 19.0947Z" fill="#5E5E5E"/>
<path d="M81.046 22.5127C80.9095 22.4392 80.7679 22.3662 80.6318 22.2949L76.9932 28.1514C77.1288 28.2248 77.2705 28.2927 77.4082 28.3691L81.046 22.5127Z" fill="#5E5E5E"/>
<path d="M97.9314 21.0234C97.8417 20.9369 97.7489 20.8467 97.6541 20.7637C97.4277 20.9671 97.2026 21.1717 96.9727 21.3783C97.0704 21.4635 97.1608 21.553 97.2517 21.64C97.4799 21.4336 97.7054 21.2302 97.9314 21.0234Z" fill="#5E5E5E"/>
<path d="M74.0067 103.945C73.8617 103.977 73.7198 104.008 73.5762 104.042C73.7357 104.608 73.8961 105.175 74.0573 105.742C74.2005 105.709 74.3461 105.676 74.4908 105.645C74.327 105.078 74.1664 104.51 74.0067 103.945Z" fill="#5E5E5E"/>
<path d="M74.2979 106.591C74.6121 107.693 74.9239 108.792 75.2382 109.895C75.2708 110.014 75.7391 110.047 75.6989 109.914C75.3755 108.773 75.055 107.632 74.7279 106.494C74.5884 106.527 74.4417 106.558 74.2979 106.591Z" fill="#5E5E5E"/>
<path d="M70.7009 92.293C70.5577 92.3281 70.4138 92.3594 70.2695 92.3934C70.4449 93.0076 70.6172 93.626 70.7969 94.2401C71.051 95.1495 71.3094 96.0526 71.5645 96.9593C71.7114 96.9257 71.8526 96.8946 71.9963 96.8613C71.5645 95.3418 71.1307 93.8175 70.7009 92.293Z" fill="#5E5E5E"/>
<path d="M68.4872 84.4883C68.3421 84.522 68.1952 84.5482 68.0537 84.5795C68.6704 86.756 69.2876 88.933 69.9061 91.1095C70.051 91.0763 70.1966 91.0524 70.3359 91.0196C69.7211 88.8416 69.1046 86.6649 68.4872 84.4883Z" fill="#5E5E5E"/>
<path d="M72.2396 97.7109C72.096 97.7463 71.9491 97.7778 71.8057 97.8109C72.0864 98.8017 72.3678 99.7928 72.651 100.784C72.7946 100.751 72.9418 100.718 73.0811 100.689C72.8018 99.6959 72.5204 98.7026 72.2396 97.7109Z" fill="#5E5E5E"/>
<path d="M73.325 101.537C73.1812 101.569 73.0373 101.603 72.8906 101.634C73.0397 102.152 73.1864 102.671 73.3337 103.189C73.4769 103.156 73.6219 103.126 73.7638 103.096C73.6171 102.574 73.4713 102.054 73.325 101.537Z" fill="#5E5E5E"/>
<path d="M89.416 82.7454C89.8448 83.1448 90.2727 83.5435 90.7008 83.9451C91.474 84.6649 92.2502 85.3866 93.0212 86.1048C93.1012 86.0371 93.1753 85.9651 93.2552 85.8954C92.0505 84.7771 90.8477 83.6549 89.6472 82.5332C89.5681 82.6069 89.4932 82.6773 89.416 82.7454Z" fill="#5E5E5E"/>
<path d="M93.6914 86.7283C94.4783 87.4569 95.2613 88.1851 96.0429 88.9151C96.119 88.8451 96.1929 88.7766 96.2733 88.7051C95.491 87.9763 94.7095 87.2507 93.9272 86.5205C93.8472 86.5902 93.7731 86.6588 93.6914 86.7283Z" fill="#5E5E5E"/>
<path d="M96.7139 89.5404C97.1222 89.9217 97.5325 90.3018 97.9421 90.6852C98.0188 90.6168 98.096 90.5469 98.1729 90.4772C97.767 90.0981 97.3541 89.7151 96.9466 89.333C96.8649 89.4017 96.7906 89.4721 96.7139 89.5404Z" fill="#5E5E5E"/>
<path d="M83.2471 77.0013C84.9647 78.6031 86.6858 80.2022 88.4012 81.7996C88.479 81.7331 88.559 81.6642 88.6351 81.5961C86.9172 79.9962 85.199 78.3958 83.4807 76.7959C83.4064 76.8646 83.3249 76.9326 83.2471 77.0013Z" fill="#5E5E5E"/>
<path d="M100.626 93.1812C101.441 93.9443 102.257 94.6991 103.07 95.4596C103.158 95.5447 103.618 95.5447 103.494 95.4275C102.615 94.6108 101.737 93.791 100.858 92.9766C100.781 93.0448 100.704 93.1163 100.626 93.1812Z" fill="#5E5E5E"/>
<path d="M98.6133 91.3108C99.059 91.727 99.5088 92.1452 99.9528 92.56C100.033 92.4917 100.111 92.4187 100.189 92.352C99.7403 91.9338 99.2943 91.5186 98.8484 91.1016C98.7693 91.1718 98.6937 91.2407 98.6133 91.3108Z" fill="#5E5E5E"/>
<path d="M100.818 65.5166C101.36 65.6531 101.899 65.7935 102.444 65.9316C103.551 66.2119 104.664 66.4893 105.773 66.7734C105.791 66.7135 105.812 66.6564 105.829 66.5951C104.181 66.1779 102.528 65.7599 100.874 65.3447C100.856 65.4014 100.838 65.4599 100.818 65.5166Z" fill="#5E5E5E"/>
<path d="M113.454 68.7122C114.067 68.8693 114.684 69.0244 115.298 69.1793C115.316 69.1222 115.334 69.0609 115.35 69.0038C114.738 68.8473 114.124 68.694 113.51 68.5371C113.489 68.596 113.473 68.6543 113.454 68.7122Z" fill="#5E5E5E"/>
<path d="M106.695 67.0041C107.771 67.274 108.846 67.5489 109.923 67.8172C109.941 67.7605 109.961 67.7042 109.977 67.6441C108.903 67.3728 107.829 67.1011 106.752 66.8311C106.733 66.8873 106.714 66.9458 106.695 67.0041Z" fill="#5E5E5E"/>
<path d="M110.843 68.0526C111.406 68.1941 111.97 68.3373 112.533 68.4808C112.548 68.4189 112.569 68.3624 112.587 68.3039C112.022 68.161 111.458 68.0229 110.899 67.8779C110.88 67.9344 110.86 67.9939 110.843 68.0526Z" fill="#5E5E5E"/>
<path d="M116.272 69.2373C116.256 69.2936 116.239 69.3537 116.22 69.4102C117.286 69.6841 118.356 69.9545 119.422 70.222C119.619 70.2719 119.888 70.1508 119.573 70.0723C118.475 69.7926 117.371 69.5158 116.272 69.2373Z" fill="#5E5E5E"/>
<path d="M99.4809 64.991C97.1189 64.3943 94.7583 63.7977 92.3981 63.1992C92.3816 63.2561 92.3657 63.319 92.3477 63.3743C94.7076 63.9705 97.0681 64.569 99.425 65.1655C99.4428 65.1094 99.4628 65.0491 99.4809 64.991Z" fill="#5E5E5E"/>
<path d="M76.1094 81.7591L79.8102 87.5866C79.9519 87.5168 80.0877 87.4441 80.2237 87.369L76.5231 81.5439C76.3867 81.617 76.2476 81.6889 76.1094 81.7591Z" fill="#5E5E5E"/>
<path d="M80.5342 88.7247L82.2344 91.398L82.6477 91.1814L80.9553 88.5117C80.8136 88.5832 80.6774 88.6566 80.5342 88.7247Z" fill="#5E5E5E"/>
<path d="M99.3035 75.9207L96.5728 74.4893C96.4909 74.6158 96.4114 74.7406 96.3262 74.8657L99.0654 76.3024L99.3035 75.9207Z" fill="#5E5E5E"/>
<path d="M95.3231 73.8309L88.9509 70.4893C88.8652 70.6146 88.782 70.7434 88.6992 70.8645L95.0799 74.211C95.1633 74.088 95.2431 73.9592 95.3231 73.8309Z" fill="#5E5E5E"/>
<path d="M20.8818 45.1017C23.2416 45.6984 25.6003 46.2948 27.9609 46.8915C27.979 46.8334 27.9988 46.7767 28.0172 46.7148C25.6564 46.119 23.2966 45.5199 20.9359 44.9229C20.9196 44.9833 20.8977 45.043 20.8818 45.1017Z" fill="#5E5E5E"/>
<path d="M0.579702 39.7774C0.378689 39.7273 0.109659 39.8488 0.424976 39.9289C1.65017 40.2401 2.8732 40.5491 4.09557 40.8565C4.11404 40.7968 4.13208 40.7405 4.1499 40.6798C2.96034 40.382 1.76926 40.0772 0.579702 39.7774Z" fill="#5E5E5E"/>
<path d="M19.547 44.5762C18.8844 44.4072 18.2203 44.2409 17.5582 44.0732C16.5713 43.8227 15.5821 43.5709 14.5936 43.3242C14.5756 43.3827 14.5573 43.4412 14.541 43.4989C16.1939 43.9161 17.845 44.3361 19.4977 44.7529C19.5137 44.6904 19.5307 44.6339 19.547 44.5762Z" fill="#5E5E5E"/>
<path d="M7.78418 41.7866C8.34658 41.9315 8.90941 42.0752 9.47181 42.2167C9.48963 42.1546 9.50615 42.1 9.52571 42.0403C8.96026 41.8965 8.39743 41.755 7.8372 41.6133C7.81656 41.6718 7.79917 41.7301 7.78418 41.7866Z" fill="#5E5E5E"/>
<path d="M10.3936 42.4491C11.4692 42.7226 12.5432 42.9923 13.6197 43.2672C13.6352 43.2051 13.6521 43.1472 13.6721 43.0885C12.5943 42.8174 11.5205 42.5465 10.4483 42.2725C10.4281 42.3307 10.4131 42.389 10.3936 42.4491Z" fill="#5E5E5E"/>
<path d="M4.90527 67.9679C4.92722 68.0446 4.9483 68.1176 4.97047 68.1947C5.58915 68.0481 6.20392 67.903 6.81891 67.7533C6.7974 67.6763 6.77567 67.6 6.75372 67.5273C6.13916 67.6731 5.51765 67.8216 4.90527 67.9679Z" fill="#5E5E5E"/>
<path d="M27.9307 62.4561C25.5625 63.021 23.1933 63.5893 20.8223 64.1556C20.8444 64.2323 20.8712 64.3071 20.8929 64.3842C23.2629 63.8159 25.634 63.2475 27.9996 62.681C27.9798 62.6062 27.9511 62.5303 27.9307 62.4561Z" fill="#5E5E5E"/>
<path d="M0.0718308 69.1243C-0.170471 69.1822 0.26828 69.3209 0.385627 69.294C1.60474 69.0041 2.82581 68.7095 4.04753 68.4174C4.02493 68.3426 4.00168 68.2677 3.97973 68.1895C2.67673 68.5011 1.37656 68.8127 0.0718308 69.1243Z" fill="#5E5E5E"/>
<path d="M7.67676 67.3043C7.70066 67.3807 7.72239 67.4578 7.74543 67.5312C8.31 67.3943 8.8761 67.2604 9.44241 67.1238C9.42046 67.0492 9.3946 66.9743 9.3733 66.8975C8.80721 67.034 8.24503 67.1695 7.67676 67.3043Z" fill="#5E5E5E"/>
<path d="M10.2969 66.6765C10.3201 66.7533 10.3458 66.8302 10.3636 66.9068C11.443 66.6445 12.5232 66.3878 13.6026 66.1301C13.5822 66.0533 13.5574 65.9786 13.537 65.9014C12.4576 66.1599 11.378 66.4178 10.2969 66.6765Z" fill="#5E5E5E"/>
<path d="M19.4334 64.4902C18.6592 64.6735 17.8838 64.8619 17.1152 65.0428C16.2292 65.2568 15.3441 65.4684 14.459 65.6784C14.4827 65.755 14.5081 65.8309 14.5281 65.9083C16.186 65.5085 17.8445 65.113 19.503 64.7184C19.4791 64.6411 19.4571 64.5669 19.4334 64.4902Z" fill="#5E5E5E"/>
<path d="M31.0752 80.8133C31.1676 80.9037 31.2538 80.9971 31.3484 81.0808C33.0901 79.5024 34.8321 77.9238 36.5758 76.3472C36.4812 76.2592 36.3919 76.1676 36.2996 76.0781C34.5567 77.6593 32.815 79.2385 31.0752 80.8133Z" fill="#5E5E5E"/>
<path d="M19.3633 91.4248C19.4598 91.5146 19.5493 91.5995 19.6443 91.6867C20.0965 91.2785 20.5511 90.8649 21.0031 90.4569C20.9105 90.3666 20.818 90.28 20.7234 90.1934C20.2716 90.6034 19.8164 91.0136 19.3633 91.4248Z" fill="#5E5E5E"/>
<path d="M15.7458 94.7028C15.6587 94.7864 16.0957 94.9048 16.1937 94.8112C17.117 93.9762 18.0408 93.1366 18.9642 92.303C18.8716 92.2175 18.7755 92.1279 18.6864 92.0381C17.7029 92.93 16.7252 93.8177 15.7458 94.7028Z" fill="#5E5E5E"/>
<path d="M23.333 87.8296C23.4271 87.918 23.5162 88.0066 23.6103 88.0935C24.4028 87.3742 25.1962 86.6564 25.9883 85.9346C25.8979 85.8499 25.8056 85.7615 25.7097 85.6719C24.9185 86.3949 24.124 87.1097 23.333 87.8296Z" fill="#5E5E5E"/>
<path d="M28.286 83.3438C27.6532 83.9164 27.0236 84.4861 26.3926 85.0574C26.4871 85.1462 26.5771 85.234 26.6718 85.3191C27.8907 84.2162 29.1105 83.1143 30.3261 82.0076C30.2355 81.9198 30.1442 81.8309 30.0482 81.7461C29.4588 82.2759 28.8721 82.8097 28.286 83.3438Z" fill="#5E5E5E"/>
<path d="M45.3398 102.733C45.4909 102.771 45.6434 102.808 45.7953 102.846C45.9518 102.331 46.1059 101.814 46.2621 101.295C46.1113 101.257 45.9553 101.219 45.8008 101.18C45.6491 101.696 45.4946 102.215 45.3398 102.733Z" fill="#5E5E5E"/>
<path d="M44.5781 105.271C44.7311 105.312 44.8813 105.347 45.0345 105.386C45.2025 104.821 45.3711 104.258 45.5439 103.694C45.3915 103.654 45.2377 103.615 45.0866 103.577C44.9165 104.143 44.7448 104.706 44.5781 105.271Z" fill="#5E5E5E"/>
<path d="M48.9473 90.6933C49.0994 90.7318 49.2491 90.7719 49.4038 90.81C50.0532 88.6414 50.7031 86.4751 51.3525 84.3084C51.1986 84.2671 51.0465 84.227 50.8955 84.1885C50.2459 86.3549 49.5951 88.5232 48.9473 90.6933Z" fill="#5E5E5E"/>
<path d="M43.2755 109.623C43.2388 109.733 43.7064 109.818 43.7449 109.685C44.0915 108.535 44.4364 107.385 44.781 106.232C44.6285 106.195 44.4746 106.16 44.3236 106.118C43.972 107.286 43.6256 108.455 43.2755 109.623Z" fill="#5E5E5E"/>
<path d="M46.0566 100.333C46.2085 100.372 46.3613 100.41 46.5154 100.448C46.8114 99.4614 47.1073 98.4717 47.4011 97.4865C47.249 97.4482 47.096 97.4083 46.9476 97.3682C46.6499 98.3567 46.3524 99.3448 46.0566 100.333Z" fill="#5E5E5E"/>
<path d="M47.9477 94.0246C47.6987 94.8561 47.4481 95.6897 47.1982 96.5215C47.3525 96.5594 47.5023 96.6017 47.657 96.6379C48.1105 95.1247 48.5658 93.605 49.0215 92.0877C48.8689 92.0476 48.7142 92.0093 48.5621 91.9678C48.3591 92.6553 48.1542 93.34 47.9477 94.0246Z" fill="#5E5E5E"/>
<path d="M18.0806 54.9254C18.0806 54.8591 18.0793 54.7901 18.0793 54.7238C18.0793 54.6451 18.0806 54.5689 18.083 54.4902L14.5371 54.5056L14.5388 54.9442L18.0806 54.9254Z" fill="#5E5E5E"/>
<path d="M19.5176 54.4831C19.5176 54.5626 19.5117 54.6444 19.5117 54.7231C19.5117 54.7893 19.5176 54.8566 19.5176 54.9213L26.862 54.8897C26.862 54.8328 26.8546 54.7781 26.8546 54.7231C26.8546 54.6306 26.862 54.54 26.8653 54.4512L19.5176 54.4831Z" fill="#5E5E5E"/>
<path d="M31.3409 70.061C31.2633 69.934 31.1814 69.8071 31.1038 69.6787L24.7646 73.0774C24.8446 73.2074 24.9209 73.3321 25.0017 73.4605L31.3409 70.061Z" fill="#5E5E5E"/>
<path d="M20.5915 75.8207L23.7553 74.1287C23.6753 73.9992 23.5977 73.8728 23.5182 73.748L20.3535 75.4426L20.5915 75.8207Z" fill="#5E5E5E"/>
<path d="M36.79 90.905L37.206 91.122L39.0203 88.2021C38.8821 88.1291 38.7458 88.052 38.6096 87.9766L36.79 90.905Z" fill="#5E5E5E"/>
<path d="M42.9594 80.9775L39.3223 86.8318C39.4583 86.9072 39.598 86.9757 39.736 87.0524L43.3753 81.1943C43.2367 81.1197 43.0998 81.0526 42.9594 80.9775Z" fill="#5E5E5E"/>
<path d="M59.4248 93.4824L59.4376 96.7428H59.9166L59.9001 93.4862C59.7403 93.4862 59.5791 93.4824 59.4248 93.4824Z" fill="#5E5E5E"/>
<path d="M59.8598 85.4172C59.6981 85.4132 59.5419 85.4104 59.3789 85.4072L59.4152 92.1565C59.5773 92.1565 59.7327 92.1615 59.8928 92.1669L59.8598 85.4172Z" fill="#5E5E5E"/>
<path d="M22.6504 88.4451C22.7451 88.5351 22.8375 88.6236 22.9303 88.7084C23.1587 88.5034 23.3825 88.3 23.6105 88.094C23.5164 88.0069 23.4273 87.9185 23.3332 87.8301C23.1059 88.0353 22.8792 88.2421 22.6504 88.4451Z" fill="#5E5E5E"/>
<path d="M5.06991 40.912C4.76306 40.8368 4.45492 40.7597 4.15003 40.6797C4.13221 40.7404 4.11417 40.7967 4.0957 40.8563C4.4045 40.9334 4.71113 41.0166 5.01906 41.0889C5.03709 41.0304 5.05426 40.9715 5.06991 40.912Z" fill="#5E5E5E"/>
<path d="M31.8411 34.9488C31.4397 34.6676 31.0407 34.3857 30.6381 34.1038C29.892 33.5775 29.1449 33.056 28.3956 32.5312C28.3411 32.5961 28.2863 32.666 28.2305 32.7307C29.3787 33.5393 30.5294 34.346 31.6774 35.1509C31.7305 35.0838 31.7828 35.0175 31.8411 34.9488Z" fill="#5E5E5E"/>
<path d="M23.059 28.7776C22.6309 28.4795 22.2046 28.1795 21.7765 27.8799C21.7206 27.9464 21.6641 28.0112 21.6133 28.0795C22.0362 28.3781 22.4625 28.6812 22.8926 28.9798C22.945 28.9161 23.001 28.8454 23.059 28.7776Z" fill="#5E5E5E"/>
<path d="M24.7054 30.2562C24.7614 30.1879 24.8156 30.1206 24.8716 30.0558C24.4826 29.7793 24.0921 29.5038 23.6997 29.2275C23.6423 29.296 23.5871 29.3625 23.5312 29.4296C23.9233 29.7042 24.3153 29.9789 24.7054 30.2562Z" fill="#5E5E5E"/>
<path d="M37.7257 39.0862C36.0843 37.9324 34.4441 36.7794 32.8004 35.626C32.748 35.6944 32.6932 35.7607 32.6387 35.827C34.2805 36.9824 35.9211 38.1344 37.5608 39.2888C37.6175 39.2223 37.6685 39.1505 37.7257 39.0862Z" fill="#5E5E5E"/>
<path d="M21.1354 27.4278C20.3668 26.8877 19.5955 26.3455 18.8278 25.8059C18.743 25.746 18.3584 25.7943 18.4779 25.8796C19.3074 26.4611 20.1379 27.0456 20.9705 27.629C21.0254 27.561 21.0813 27.4957 21.1354 27.4278Z" fill="#5E5E5E"/>
<path d="M27.754 32.0805C27.0087 31.5555 26.2611 31.0303 25.5136 30.5059C25.4571 30.5703 25.4027 30.639 25.3467 30.7053C26.0942 31.2287 26.8418 31.7539 27.5911 32.2807C27.6434 32.2142 27.6995 32.1451 27.754 32.0805Z" fill="#5E5E5E"/>
<path d="M42.9674 34.2268L39.1284 29.7539C39.023 29.8308 38.9163 29.9072 38.8115 29.9843L42.6462 34.4553C42.7514 34.3789 42.8609 34.3018 42.9674 34.2268Z" fill="#5E5E5E"/>
<path d="M38.3755 28.8759L36.7333 26.9619L36.418 27.1945L38.0602 29.1076C38.1673 29.031 38.2703 28.9527 38.3755 28.8759Z" fill="#5E5E5E"/>
<path d="M34.1076 44.8901L28.3512 42.7793C28.3034 42.8925 28.2532 43.0087 28.2021 43.1242L33.9589 45.2318C34.0076 45.1186 34.0587 45.0033 34.1076 44.8901Z" fill="#5E5E5E"/>
<path d="M27.2246 42.3632L24.5847 41.3984L24.4365 41.7434L27.0701 42.7085C27.119 42.5952 27.1722 42.4782 27.2246 42.3632Z" fill="#5E5E5E"/>
<path d="M23.531 29.4295C23.5869 29.3626 23.6421 29.296 23.6995 29.2275C23.4828 29.0808 23.272 28.9273 23.059 28.7773C23.001 28.8452 22.9449 28.9159 22.8926 28.9794C23.1064 29.1307 23.3187 29.281 23.531 29.4295Z" fill="#5E5E5E"/>
<path d="M46.1533 24.6565C46.2713 24.6134 46.3839 24.5665 46.498 24.5216C46.3204 24.1319 46.1446 23.7431 45.9682 23.3532C45.5892 22.5132 45.2117 21.677 44.8325 20.8418C44.7182 20.8869 44.6004 20.9322 44.4863 20.9789C45.0411 22.2046 45.6003 23.4307 46.1533 24.6565Z" fill="#5E5E5E"/>
<path d="M49.0038 30.9477C49.1185 30.9026 49.2287 30.8541 49.3469 30.8078C48.5531 29.0559 47.7573 27.3023 46.9628 25.5498C46.8505 25.5947 46.7377 25.645 46.6221 25.6899C47.4148 27.443 48.2089 29.1974 49.0038 30.9477Z" fill="#5E5E5E"/>
<path d="M44.1774 20.2943C44.2923 20.2464 44.4064 20.2014 44.5242 20.1575C44.1615 19.3573 43.7999 18.561 43.4355 17.7627C43.3236 17.806 43.2058 17.8529 43.0928 17.896C43.4552 18.6941 43.8169 19.493 44.1774 20.2943Z" fill="#5E5E5E"/>
<path d="M41.3206 13.0858C40.9632 12.3047 40.6113 11.5222 40.261 10.7404C40.2158 10.6476 39.8197 10.6692 39.8707 10.7736C40.2387 11.5922 40.6057 12.4071 40.9758 13.2209C41.0881 13.1776 41.2042 13.1289 41.3206 13.0858Z" fill="#5E5E5E"/>
<path d="M41.9038 15.272C42.0186 15.2301 42.1325 15.1818 42.2489 15.1371C42.0397 14.6822 41.8387 14.2252 41.63 13.7705C41.5142 13.8136 41.3992 13.8605 41.2832 13.9074C41.4901 14.3606 41.6978 14.8187 41.9038 15.272Z" fill="#5E5E5E"/>
<path d="M66.5616 10.7487C66.4264 10.7307 66.2999 10.7169 66.1656 10.7021C66.095 11.1904 66.0235 11.6821 65.959 12.1723C66.0878 12.1867 66.2221 12.2019 66.3538 12.2171C66.4234 11.7266 66.4925 11.2371 66.5616 10.7487Z" fill="#5E5E5E"/>
<path d="M64.7657 23.4068C64.6369 23.3892 64.505 23.3714 64.3724 23.3555C64.1038 25.2369 63.8385 27.1197 63.5703 29.0029C63.7046 29.0179 63.8354 29.036 63.9671 29.0548C64.2342 27.1696 64.5015 25.2882 64.7657 23.4068Z" fill="#5E5E5E"/>
<path d="M66.249 12.9516C66.1181 12.9366 65.9856 12.921 65.853 12.9062C65.788 13.3564 65.7222 13.8051 65.6592 14.2547C65.7917 14.2697 65.9245 14.2844 66.0579 14.2992C66.1201 13.8497 66.1851 13.4015 66.249 12.9516Z" fill="#5E5E5E"/>
<path d="M65.0944 21.0754C65.2252 20.1637 65.3558 19.255 65.4847 18.3454C65.3504 18.3264 65.2213 18.3136 65.0896 18.2969C64.9006 19.6134 64.715 20.9322 64.5303 22.2515C64.6611 22.2635 64.7917 22.2821 64.9253 22.2968C64.9818 21.89 65.0412 21.4832 65.0944 21.0754Z" fill="#5E5E5E"/>
<path d="M67.0161 7.53051C67.0304 7.43349 66.6284 7.41513 66.6136 7.52692C66.5013 8.33996 66.3872 9.15162 66.2666 9.96486C66.3996 9.98203 66.5315 9.9968 66.6625 10.0132C66.7823 9.18515 66.9016 8.35653 67.0161 7.53051Z" fill="#5E5E5E"/>
<path d="M65.9525 15.0347C65.8237 15.0186 65.6896 15.005 65.5549 14.9902C65.4356 15.8448 65.3123 16.7036 65.1924 17.5611C65.3247 17.5767 65.4573 17.5937 65.5898 17.608C65.7083 16.7493 65.8345 15.8931 65.9525 15.0347Z" fill="#5E5E5E"/>
<path d="M55.2555 22.3264C55.3242 22.3171 55.3944 22.3103 55.4661 22.3003L55.1099 20.042L54.7129 20.0949L55.066 22.3524C55.1282 22.3436 55.1914 22.335 55.2555 22.3264Z" fill="#5E5E5E"/>
<path d="M55.2383 23.454L56.1314 29.0923C56.1805 29.0823 56.2316 29.0755 56.2803 29.0691C56.3657 29.0554 56.4476 29.0524 56.5322 29.0424L55.6401 23.4023C55.5671 23.4125 55.4964 23.4195 55.4221 23.4259C55.3608 23.4345 55.3026 23.4425 55.2383 23.454Z" fill="#5E5E5E"/>
<path d="M43.4349 17.7629C43.3334 17.5309 43.2285 17.3043 43.1261 17.0762C43.0144 17.1215 42.8984 17.168 42.7812 17.2133C42.8869 17.4397 42.989 17.6696 43.0922 17.8962C43.2052 17.8531 43.323 17.8062 43.4349 17.7629Z" fill="#5E5E5E"/>
<path d="M93.165 42.3104C93.1926 42.3701 93.2176 42.4352 93.2433 42.4954C93.6877 42.3254 94.1319 42.1549 94.5767 41.9868C95.4692 41.6437 96.3586 41.3037 97.2509 40.9654C97.2251 40.9003 97.2018 40.8404 97.1714 40.7783C95.8364 41.2871 94.5011 41.7986 93.165 42.3104Z" fill="#5E5E5E"/>
<path d="M101.272 39.212C101.3 39.2739 101.323 39.3374 101.349 39.3979C101.807 39.224 102.261 39.0509 102.716 38.8739C102.689 38.8154 102.664 38.7489 102.637 38.6904C102.179 38.8663 101.724 39.0394 101.272 39.212Z" fill="#5E5E5E"/>
<path d="M108.019 36.6325C107.219 36.9391 106.418 37.2459 105.619 37.5525C105.642 37.6124 105.668 37.6745 105.696 37.7382C106.562 37.408 107.436 37.0728 108.306 36.7393C108.502 36.6666 108.114 36.5973 108.019 36.6325Z" fill="#5E5E5E"/>
<path d="M92.1245 42.9222C92.0995 42.8601 92.0758 42.7986 92.048 42.7373C90.1378 43.4647 88.2309 44.1935 86.3203 44.9231C86.3464 44.985 86.3714 45.0483 86.397 45.1114C88.3074 44.384 90.2139 43.6524 92.1245 42.9222Z" fill="#5E5E5E"/>
<path d="M103.382 38.4067C103.407 38.469 103.432 38.527 103.461 38.5917C103.959 38.3989 104.454 38.21 104.954 38.0216C104.924 37.9583 104.903 37.8982 104.871 37.835C104.376 38.0264 103.879 38.217 103.382 38.4067Z" fill="#5E5E5E"/>
<path d="M97.917 40.4934C97.9444 40.5557 97.9698 40.6154 98.0009 40.6799C98.8677 40.3457 99.735 40.0135 100.606 39.682C100.58 39.6191 100.552 39.5584 100.524 39.4951C99.655 39.8287 98.7865 40.1642 97.917 40.4934Z" fill="#5E5E5E"/>
<path d="M81.3143 29.7977C81.223 29.7322 81.1376 29.666 81.0498 29.6045C79.7938 31.1126 78.5382 32.6169 77.2832 34.1275C77.3736 34.186 77.4586 34.2554 77.5477 34.3159C78.8029 32.8124 80.0567 31.3041 81.3143 29.7977Z" fill="#5E5E5E"/>
<path d="M89.7512 19.6671C89.6603 19.6 89.5758 19.5401 89.4867 19.4736C89.1601 19.8681 88.8315 20.2615 88.5029 20.6536C88.5942 20.7129 88.6846 20.7805 88.7696 20.8418C89.0979 20.45 89.4228 20.0565 89.7512 19.6671Z" fill="#5E5E5E"/>
<path d="M86.8879 23.0966C86.8062 23.037 86.7151 22.9705 86.6245 22.9082C86.0534 23.5967 85.4821 24.2806 84.9102 24.9663C85.0008 25.0288 85.0879 25.0952 85.179 25.1571C85.7464 24.4696 86.322 23.7851 86.8879 23.0966Z" fill="#5E5E5E"/>
<path d="M82.9031 27.8892C83.4944 27.173 84.0918 26.4579 84.6883 25.7463C84.5979 25.6828 84.5088 25.6181 84.4202 25.5557C83.544 26.6115 82.6636 27.6624 81.7842 28.7208C81.8768 28.7839 81.9628 28.8446 82.0499 28.9075C82.337 28.5693 82.6167 28.2274 82.9031 27.8892Z" fill="#5E5E5E"/>
<path d="M91.9378 17.0431C91.9997 16.9631 91.6197 16.9094 91.5475 16.9978C91.0231 17.6282 90.499 18.256 89.9746 18.8864C90.0639 18.9479 90.1524 19.0124 90.2417 19.0778C90.8071 18.3963 91.3695 17.7194 91.9378 17.0431Z" fill="#5E5E5E"/>
<path d="M94.3247 50.6484L88.1865 51.4667C88.203 51.5884 88.2176 51.7104 88.2341 51.8334L94.3723 51.0167C94.3518 50.8938 94.3423 50.7716 94.3247 50.6484Z" fill="#5E5E5E"/>
<path d="M95.5273 50.4865C95.5443 50.6105 95.5621 50.7336 95.5754 50.8538L98.0403 50.5266L97.9847 50.1621L95.5273 50.4865Z" fill="#5E5E5E"/>
<path d="M82.5498 38.9371C82.6359 39.0323 82.7204 39.1293 82.7988 39.2257L87.6664 35.7042C87.5871 35.6048 87.5019 35.509 87.4199 35.4092L82.5498 38.9371Z" fill="#5E5E5E"/>
<path d="M88.6205 35.0074L90.5078 33.6454L90.2572 33.3525L88.376 34.7149C88.459 34.814 88.5398 34.9126 88.6205 35.0074Z" fill="#5E5E5E"/>
<path d="M74.7943 22.4875L74.4168 22.3516L73.5312 24.3933C73.6545 24.439 73.7801 24.4897 73.9037 24.536L74.7943 22.4875Z" fill="#5E5E5E"/>
<path d="M73.4543 25.573C73.3289 25.5244 73.2024 25.4795 73.079 25.4326L70.7822 30.7211C70.9052 30.7688 71.0321 30.8126 71.1545 30.8589L73.4543 25.573Z" fill="#5E5E5E"/>
<path d="M87.3838 22.5077C87.2926 22.4463 87.2054 22.3808 87.1168 22.3213C86.9534 22.5155 86.7882 22.7107 86.625 22.9074C86.7158 22.9697 86.8067 23.0361 86.8884 23.0958C87.0553 22.8992 87.2185 22.7044 87.3838 22.5077Z" fill="#5E5E5E"/>
<path d="M77.95 94.417C77.8361 94.4601 77.7223 94.5 77.6045 94.5422C77.8131 95.0003 78.0213 95.4566 78.2247 95.9115C78.3403 95.87 78.4605 95.8281 78.5754 95.7832C78.3659 95.3287 78.1578 94.8701 77.95 94.417Z" fill="#5E5E5E"/>
<path d="M78.5371 96.5961C78.9376 97.4848 79.3418 98.3701 79.7399 99.2624C79.7849 99.3545 80.1791 99.3313 80.1311 99.2247C79.7143 98.3065 79.2983 97.3862 78.8815 96.4678C78.769 96.5131 78.6532 96.555 78.5371 96.5961Z" fill="#5E5E5E"/>
<path d="M73.7045 85.0303C73.5895 85.073 73.4715 85.1151 73.3535 85.16C73.5806 85.6533 73.8075 86.1513 74.0307 86.6484C74.3629 87.3798 74.6928 88.1082 75.0209 88.8398C75.1409 88.7943 75.2548 88.753 75.3697 88.7117C74.8145 87.4864 74.2608 86.2571 73.7045 85.0303Z" fill="#5E5E5E"/>
<path d="M70.8574 78.7422C70.7391 78.7853 70.6224 78.8236 70.5049 78.8653C71.3018 80.6204 72.0943 82.3731 72.8886 84.1253C73.0048 84.0836 73.123 84.0483 73.2373 84.0036C72.4431 82.2503 71.6464 80.4956 70.8574 78.7422Z" fill="#5E5E5E"/>
<path d="M75.6804 89.3945C75.5646 89.438 75.4466 89.481 75.3301 89.5229C75.6954 90.3214 76.0544 91.1194 76.4171 91.9177C76.5335 91.8764 76.6479 91.8327 76.7659 91.7914C76.4027 90.9945 76.0396 90.1928 75.6804 89.3945Z" fill="#5E5E5E"/>
<path d="M77.0769 92.4766C76.9587 92.5197 76.8443 92.5598 76.7266 92.6049C76.9167 93.0215 77.106 93.4397 77.2968 93.8569C77.4128 93.8152 77.5284 93.7749 77.6425 93.73C77.4543 93.3126 77.2653 92.892 77.0769 92.4766Z" fill="#5E5E5E"/>
<path d="M88.1328 75.032C88.5461 75.3203 88.9545 75.6071 89.3628 75.8956C90.1032 76.4156 90.8396 76.9352 91.5822 77.4538C91.6359 77.3873 91.6928 77.32 91.7465 77.2524C90.5965 76.4469 89.448 75.6371 88.3014 74.834C88.2432 74.8975 88.1911 74.9689 88.1328 75.032Z" fill="#5E5E5E"/>
<path d="M92.2188 77.9025C92.9659 78.4271 93.7121 78.9529 94.4633 79.4773C94.519 79.4093 94.5737 79.346 94.6296 79.2775C93.8803 78.7525 93.1367 78.2309 92.385 77.7041C92.3307 77.7708 92.2746 77.8375 92.2188 77.9025Z" fill="#5E5E5E"/>
<path d="M95.1016 79.9299C95.4955 80.2034 95.8847 80.4748 96.275 80.7517C96.3315 80.689 96.3874 80.62 96.4461 80.5533C96.0538 80.2784 95.6622 80.0029 95.2702 79.7305C95.2115 79.7951 95.1572 79.8602 95.1016 79.9299Z" fill="#5E5E5E"/>
<path d="M82.2432 70.8931C83.8839 72.0479 85.5267 73.1993 87.1635 74.3531C87.2237 74.2892 87.2782 74.2194 87.3356 74.1547C85.6936 73.0011 84.054 71.8497 82.414 70.6963C82.3577 70.761 82.3018 70.8266 82.2432 70.8931Z" fill="#5E5E5E"/>
<path d="M98.8369 82.5519C99.6153 83.102 100.395 83.647 101.174 84.195C101.257 84.2536 101.64 84.2055 101.521 84.1205C100.683 83.5336 99.8457 82.9439 99.0038 82.3555C98.9514 82.4199 98.8949 82.4884 98.8369 82.5519Z" fill="#5E5E5E"/>
<path d="M96.916 81.204C97.3424 81.5036 97.7718 81.8036 98.1966 82.1038C98.2564 82.0376 98.309 81.9701 98.3655 81.9054C97.9389 81.6058 97.5101 81.304 97.0862 81.002C97.0297 81.0702 96.9753 81.1375 96.916 81.204Z" fill="#5E5E5E"/>
<path d="M95.4688 59.4007C95.939 59.457 96.4106 59.5133 96.8789 59.5704C97.8414 59.6866 98.8073 59.802 99.7724 59.9165C99.7793 59.8648 99.7906 59.8157 99.7982 59.7616C98.3607 59.5916 96.9271 59.4199 95.4946 59.25C95.487 59.2999 95.4766 59.3514 95.4688 59.4007Z" fill="#5E5E5E"/>
<path d="M106.441 60.7111C106.974 60.778 107.51 60.8398 108.043 60.9045C108.05 60.8516 108.061 60.8031 108.069 60.751C107.535 60.6885 107 60.6232 106.464 60.5596C106.46 60.6095 106.452 60.6612 106.441 60.7111Z" fill="#5E5E5E"/>
<path d="M100.573 60.0137C101.506 60.1213 102.442 60.2337 103.375 60.3453C103.382 60.2952 103.393 60.2455 103.4 60.1938C102.468 60.0832 101.529 59.9722 100.597 59.8584C100.59 59.9083 100.583 59.962 100.573 60.0137Z" fill="#5E5E5E"/>
<path d="M104.177 60.443C104.664 60.5001 105.155 60.5576 105.641 60.6163C105.648 60.5682 105.657 60.5145 105.666 60.465C105.176 60.4063 104.687 60.3466 104.199 60.2881C104.193 60.3398 104.184 60.3895 104.177 60.443Z" fill="#5E5E5E"/>
<path d="M108.868 60.8457C108.861 60.8976 108.851 60.9479 108.844 60.9998C109.769 61.1098 110.697 61.2198 111.626 61.333C111.795 61.3527 112.005 61.2212 111.732 61.1895C110.778 61.0749 109.824 60.9611 108.868 60.8457Z" fill="#5E5E5E"/>
<path d="M94.2869 59.105C92.2354 58.8616 90.1832 58.6151 88.1365 58.3682C88.1294 58.4201 88.12 58.4714 88.1133 58.5199C90.1625 58.7664 92.2118 59.0111 94.2597 59.2549C94.2686 59.2066 94.276 59.1553 94.2869 59.105Z" fill="#5E5E5E"/>
<path d="M76.8818 75.6386L80.7172 80.1113C80.828 80.0422 80.9349 79.965 81.0405 79.8863L77.2017 75.415C77.0939 75.4903 76.9911 75.5673 76.8818 75.6386Z" fill="#5E5E5E"/>
<path d="M81.4717 80.9906L83.2336 83.0439L83.5476 82.8123L81.7911 80.7656C81.6857 80.8413 81.5816 80.9143 81.4717 80.9906Z" fill="#5E5E5E"/>
<path d="M95.527 68.2605L93.0634 67.3594C93.0108 67.4726 92.9597 67.5859 92.9082 67.7009L95.3803 68.6072L95.527 68.2605Z" fill="#5E5E5E"/>
<path d="M91.9373 66.9459L86.1788 64.8359C86.128 64.9493 86.0734 65.0645 86.0195 65.1743L91.7813 67.2893C91.8352 67.1777 91.883 67.0611 91.9373 66.9459Z" fill="#5E5E5E"/>
<path d="M26.0322 50.9318C28.0793 51.1779 30.1294 51.423 32.1795 51.6684C32.1849 51.6187 32.1939 51.5686 32.1991 51.5171C30.1529 51.2719 28.1006 51.0268 26.0544 50.7803C26.045 50.8322 26.0359 50.8833 26.0322 50.9318Z" fill="#5E5E5E"/>
<path d="M8.37605 48.666C8.20351 48.6467 7.99163 48.7764 8.26501 48.8115C9.32852 48.9365 10.392 49.0649 11.4551 49.1928C11.4603 49.1419 11.4682 49.0914 11.4734 49.0395C10.4442 48.9161 9.40849 48.7896 8.37605 48.666Z" fill="#5E5E5E"/>
<path d="M24.8482 50.6371C24.2713 50.5664 23.6961 50.5002 23.1187 50.4337C22.2629 50.3285 21.4045 50.2249 20.5446 50.1221C20.5375 50.1754 20.5299 50.2249 20.5205 50.2766C21.9598 50.4465 23.3929 50.6185 24.8263 50.7912C24.8339 50.7387 24.8406 50.6886 24.8482 50.6371Z" fill="#5E5E5E"/>
<path d="M14.6572 49.5736C15.1449 49.6343 15.6327 49.6936 16.1234 49.7505C16.1299 49.7005 16.1354 49.6486 16.1425 49.5973C15.6549 49.5395 15.1666 49.479 14.679 49.4219C14.6694 49.4722 14.6646 49.5241 14.6572 49.5736Z" fill="#5E5E5E"/>
<path d="M16.9199 49.8459C17.8572 49.9589 18.7905 50.0684 19.7221 50.1798C19.7297 50.1303 19.7371 50.0782 19.748 50.0289C18.8118 49.9149 17.8761 49.8049 16.9414 49.6934C16.936 49.7439 16.9282 49.7952 16.9199 49.8459Z" fill="#5E5E5E"/>
<path d="M15.5898 71.7732C15.6157 71.8343 15.6422 71.8964 15.6718 71.9578C16.1685 71.768 16.6662 71.578 17.1651 71.3863C17.136 71.3266 17.1086 71.2644 17.0778 71.2051C16.5793 71.3951 16.0838 71.5864 15.5898 71.7732Z" fill="#5E5E5E"/>
<path d="M34.137 64.6846C32.2304 65.4128 30.3202 66.1428 28.4111 66.8728C28.4405 66.9343 28.4711 66.9928 28.4983 67.0562C30.4093 66.326 32.3175 65.596 34.2281 64.8664C34.1955 64.8057 34.1649 64.7445 34.137 64.6846Z" fill="#5E5E5E"/>
<path d="M11.6924 73.2603C11.4984 73.3342 11.8848 73.402 11.9812 73.3673C12.9639 72.9924 13.9446 72.6158 14.9293 72.2427C14.8984 72.1772 14.8706 72.1207 14.8419 72.0576C13.7912 72.4573 12.7427 72.8589 11.6924 73.2603Z" fill="#5E5E5E"/>
<path d="M17.8213 70.9193C17.8504 70.98 17.8795 71.0413 17.9084 71.1007C18.3624 70.9281 18.8172 70.754 19.2725 70.5795C19.2458 70.5196 19.2171 70.4592 19.1895 70.3965C18.7318 70.5714 18.277 70.7444 17.8213 70.9193Z" fill="#5E5E5E"/>
<path d="M19.9316 70.1119C19.9629 70.174 19.9914 70.2339 20.0188 70.2954C20.8858 69.9656 21.7607 69.6305 22.63 69.2969C22.5993 69.2372 22.5681 69.1765 22.5409 69.1152C21.6719 69.4474 20.8009 69.779 19.9316 70.1119Z" fill="#5E5E5E"/>
<path d="M27.293 67.2979C26.6691 67.5396 26.0446 67.7781 25.4246 68.0149C24.7111 68.2848 23.9984 68.5592 23.2852 68.8317C23.313 68.8914 23.3436 68.9529 23.3708 69.0144C24.7044 68.5044 26.0448 67.9927 27.3804 67.4831C27.3495 67.4198 27.3219 67.3615 27.293 67.2979Z" fill="#5E5E5E"/>
<path d="M39.1055 79.697C39.1954 79.7604 39.2826 79.8305 39.3697 79.8902C40.6271 78.3823 41.8807 76.8737 43.1385 75.3692C43.046 75.3075 42.9601 75.2403 42.8715 75.1758C41.6137 76.6819 40.362 78.1888 39.1055 79.697Z" fill="#5E5E5E"/>
<path d="M30.6699 89.8281C30.7592 89.8932 30.8475 89.9553 30.9366 90.018C31.2632 89.6251 31.5874 89.2335 31.9164 88.84C31.8278 88.7765 31.7406 88.7166 31.6515 88.6514C31.3253 89.0434 30.9952 89.4371 30.6699 89.8281Z" fill="#5E5E5E"/>
<path d="M28.0615 92.9598C27.9996 93.0362 28.3788 93.0903 28.4531 93.0009C29.1187 92.2046 29.7813 91.4025 30.4471 90.6064C30.3585 90.5464 30.2713 90.4813 30.179 90.416C29.4747 91.2662 28.7669 92.1132 28.0615 92.9598Z" fill="#5E5E5E"/>
<path d="M33.5293 86.3966C33.6188 86.4601 33.7038 86.5219 33.7975 86.5884C34.3675 85.9017 34.9392 85.2122 35.5127 84.5254C35.4199 84.4633 35.331 84.4002 35.2437 84.3369C34.6728 85.025 34.1023 85.7103 33.5293 86.3966Z" fill="#5E5E5E"/>
<path d="M37.0957 82.1129C36.6431 82.6574 36.1887 83.204 35.7334 83.7474C35.8208 83.8122 35.9094 83.8767 36.0003 83.9374C36.8804 82.882 37.7568 81.8276 38.6347 80.7746C38.5474 80.7109 38.458 80.6495 38.3676 80.584C37.9411 81.094 37.5212 81.6008 37.0957 82.1129Z" fill="#5E5E5E"/>
<path d="M53.8301 96.4903C53.962 96.5019 54.095 96.5184 54.2258 96.5354C54.2925 96.0867 54.3564 95.6385 54.4194 95.1852C54.2851 95.1702 54.1524 95.1588 54.0226 95.1387C53.9589 95.588 53.8951 96.0388 53.8301 96.4903Z" fill="#5E5E5E"/>
<path d="M53.5195 98.6929C53.6497 98.7095 53.7823 98.7227 53.915 98.7398C53.9844 98.2496 54.0532 97.7595 54.1256 97.266C53.9891 97.2531 53.8555 97.2393 53.7275 97.2197C53.6573 97.7096 53.5843 98.2029 53.5195 98.6929Z" fill="#5E5E5E"/>
<path d="M55.3125 86.0302C55.4418 86.048 55.577 86.0654 55.7056 86.0809C55.9742 84.1965 56.2411 82.3163 56.5077 80.4367C56.3749 80.4163 56.2426 80.3984 56.1098 80.3828C55.8453 82.2664 55.577 84.147 55.3125 86.0302Z" fill="#5E5E5E"/>
<path d="M52.9849 102.471C52.9684 102.565 53.373 102.587 53.3875 102.473C53.5273 101.473 53.6687 100.477 53.8126 99.4733C53.6779 99.4595 53.5453 99.4468 53.4128 99.4248C53.2693 100.443 53.1283 101.456 52.9849 102.471Z" fill="#5E5E5E"/>
<path d="M54.125 94.4032C54.2569 94.4219 54.3895 94.4351 54.5216 94.4503C54.6439 93.5951 54.7632 92.7352 54.8849 91.88C54.7509 91.865 54.62 91.8468 54.4892 91.8301C54.3658 92.687 54.2443 93.545 54.125 94.4032Z" fill="#5E5E5E"/>
<path d="M54.8991 88.9246C54.7989 89.648 54.697 90.371 54.5918 91.0959C54.7246 91.1126 54.8563 91.1292 54.9912 91.1446C55.1777 89.8261 55.3628 88.5096 55.5497 87.1913C55.4178 87.1749 55.2848 87.1596 55.1531 87.1416C55.0688 87.7365 54.9845 88.3295 54.8991 88.9246Z" fill="#5E5E5E"/>
<path d="M24.9423 59.4525C24.9334 59.3946 24.9212 59.3395 24.9118 59.2814C24.9023 59.2178 24.8958 59.1495 24.886 59.083L21.9238 59.4791L21.9832 59.8442L24.9423 59.4525Z" fill="#5E5E5E"/>
<path d="M26.0879 58.9239C26.0946 58.9928 26.1003 59.0598 26.1116 59.1261C26.1198 59.183 26.1348 59.2379 26.1437 59.2926L32.2782 58.4728C32.2704 58.4282 32.2595 58.3829 32.2547 58.3382C32.2419 58.2598 32.2358 58.1829 32.2237 58.1064L26.0879 58.9239Z" fill="#5E5E5E"/>
<path d="M37.9621 70.6754C37.8784 70.579 37.7917 70.4842 37.71 70.3838L32.8438 73.9087C32.9276 74.0055 33.0076 74.1039 33.0904 74.1987L37.9621 70.6754Z" fill="#5E5E5E"/>
<path d="M29.7111 76.6511L32.1367 74.8954C32.0508 74.794 31.9728 74.6994 31.8876 74.6006L29.459 76.3604L29.7111 76.6511Z" fill="#5E5E5E"/>
<path d="M45.1719 87.5204L45.5491 87.6531L46.6944 85.0187C46.5711 84.9704 46.4438 84.9237 46.3204 84.874L45.1719 87.5204Z" fill="#5E5E5E"/>
<path d="M49.0675 78.5518L46.7725 83.8381C46.8959 83.8884 47.0213 83.9333 47.1445 83.9802L49.4395 78.6939C49.3159 78.6438 49.1926 78.6037 49.0675 78.5518Z" fill="#5E5E5E"/>
<path d="M64.4248 87.2391L64.8553 89.9637L65.2545 89.91L64.8247 87.1904C64.6919 87.2076 64.5576 87.2224 64.4248 87.2391Z" fill="#5E5E5E"/>
<path d="M63.7606 80.4473C63.6268 80.4626 63.4962 80.4754 63.3623 80.4888L64.2524 86.1272C64.3852 86.1155 64.5173 86.1001 64.6538 86.0871L63.7606 80.4473Z" fill="#5E5E5E"/>
<path d="M33.0391 86.9846C33.1277 87.048 33.2133 87.1095 33.3057 87.1752C33.4676 86.9768 33.6295 86.7814 33.7973 86.5883C33.7036 86.5218 33.6186 86.46 33.5291 86.3965C33.3661 86.5917 33.201 86.7865 33.0391 86.9846Z" fill="#5E5E5E"/>
<path d="M12.2763 49.1339C12.0081 49.1055 11.7413 49.0724 11.4733 49.04C11.4679 49.0919 11.4601 49.1424 11.4551 49.1933C11.7215 49.2253 11.9899 49.2572 12.255 49.2874C12.2624 49.2351 12.2711 49.185 12.2763 49.1339Z" fill="#5E5E5E"/>
</g>
<path d="M15.5136 71.7181C14.9432 71.7917 14.4742 71.6975 14.1068 71.4358C13.999 71.3426 13.8723 71.1623 13.7284 70.8945C13.5846 70.6268 13.5487 70.2293 13.6228 69.7003C13.6952 69.1715 13.9681 68.4928 14.4397 67.6622C14.9095 66.832 15.7242 65.8243 16.8822 64.6362C17.6776 63.8173 18.6346 62.933 19.7557 61.9842C20.8766 61.0339 22.0514 60.1228 23.2818 59.2463C24.2184 59.8777 24.8491 60.4863 25.1716 61.0692C25.4958 61.6537 25.5938 62.2587 25.4671 62.8825C25.3387 63.5081 25.0207 64.1669 24.5146 64.8588C24.0068 65.5506 23.41 66.316 22.7227 67.1554C22.29 67.6772 21.6833 68.2559 20.9057 68.8945C20.1282 69.5314 19.3144 70.0922 18.4658 70.5777C17.6174 71.0633 16.7951 71.4111 16.0013 71.6207C15.8315 71.6656 15.6688 71.6979 15.5136 71.7181ZM25.3986 56.3971L25.3447 56.3506C25.4167 56.3131 25.4627 56.2929 25.483 56.2903C25.5132 56.2863 25.4853 56.3216 25.3986 56.3971ZM28.7752 43.5314C28.7048 43.5406 28.6344 43.5508 28.5642 43.5618C27.9862 43.6554 27.4987 43.7995 27.1015 43.9922C25.476 44.8473 24.0748 45.8514 22.8996 47.0038C21.7241 48.158 20.7558 49.4288 19.9961 50.814C19.8144 51.1256 19.5888 51.5739 19.3163 52.163C19.0436 52.7539 18.8804 53.3926 18.8252 54.0795C18.7698 54.7664 18.9128 55.4641 19.2542 56.1705C19.5956 56.8788 20.2888 57.5054 21.3354 58.0484L22.3087 58.6215C20.6076 59.8797 19.1451 61.0692 17.916 62.194C16.6851 63.3193 15.4206 64.7352 14.1172 66.4425C13.7193 66.9943 13.3927 67.5644 13.1391 68.1527C12.8857 68.7394 12.721 69.3057 12.6484 69.8516C12.5743 70.3978 12.5384 70.9495 12.5371 71.5035C12.536 72.0592 12.6708 72.5423 12.9396 72.9545C13.2103 73.3663 13.65 73.66 14.2639 73.8308C14.6544 73.9394 15.1542 73.9546 15.7635 73.8758C16.1123 73.8307 16.4974 73.755 16.9181 73.6486C18.9762 73.0965 20.8908 72.1694 22.6614 70.8677C24.4323 69.5658 26.0052 67.986 27.382 66.1259C28.6124 64.428 29.129 62.8051 28.9354 61.2546C28.7383 59.7064 27.939 58.3069 26.5337 57.0562C26.5702 57.0515 26.5878 57.0405 26.5878 57.0217C26.5878 57.0043 26.6243 56.991 26.6975 56.9816C26.8405 56.8906 27.1208 56.7389 27.5374 56.5247C27.9518 56.3089 28.403 56.1695 28.8904 56.1067C29.3778 56.0438 29.8563 56.1164 30.3257 56.325C30.7934 56.532 31.1369 57.0175 31.3512 57.7767C31.361 57.8266 31.3814 57.8497 31.4123 57.8457C31.4894 57.8358 31.6324 57.6571 31.8393 57.3098C32.1292 56.8257 32.2922 56.2765 32.33 55.6627C32.3658 55.0507 32.1792 54.5209 31.7641 54.0723C31.4236 53.704 30.7697 53.5823 29.802 53.7072C29.5951 53.734 29.3739 53.7719 29.1386 53.8212C28.7415 53.9087 28.1546 54.1811 27.3775 54.6387C26.6004 55.0978 25.7972 55.612 24.9658 56.1853L24.2078 55.7463C23.3787 55.2806 22.8663 54.6927 22.6694 53.9849C22.4726 53.2771 22.6621 52.4744 23.2416 51.5765C24.0026 50.4051 24.7984 49.4068 25.6301 48.5834C26.4619 47.7616 27.2482 47.1046 27.9905 46.6154C28.7294 46.1265 29.3809 45.8181 29.9415 45.6923C30.0539 45.6672 30.1584 45.6482 30.2553 45.6356C30.641 45.5859 30.9057 45.637 31.05 45.7907C31.1593 45.9197 31.1485 46.2077 31.0222 46.6535C30.8942 47.0996 30.7036 47.5885 30.45 48.1233C30.1966 48.6563 29.8981 49.2056 29.5541 49.7675C29.2083 50.3317 28.8923 50.7744 28.6027 51.0982C28.0446 51.7222 27.5665 52.0606 27.1684 52.1121C27.1024 52.1207 27.0387 52.1213 26.977 52.1139C26.5437 52.063 26.292 51.7727 26.2216 51.2451C25.9302 51.6036 25.8493 52.0264 25.9754 52.5105C26.0997 52.9966 26.4139 53.2787 26.9205 53.3547C27.2475 53.398 27.5707 53.3992 27.8899 53.3579C28.2395 53.3128 28.5844 53.2168 28.9243 53.0702C29.574 52.7898 30.1525 52.3838 30.66 51.8522C31.1291 51.3619 31.5548 50.8066 31.9356 50.1846C32.3146 49.5645 32.6134 48.9254 32.8322 48.271C33.0493 47.6166 33.1775 46.9908 33.2153 46.396C33.2514 45.8013 33.1636 45.3019 32.9469 44.9018C32.732 44.5 32.3811 44.1776 31.8943 43.9369C31.4075 43.6961 30.8736 43.5494 30.2975 43.4995C29.7903 43.455 29.2829 43.466 28.7752 43.5314Z" fill="#5E5E5E"/>
<path d="M33.8597 54.5752C33.7914 54.584 33.7243 54.5944 33.658 54.6061C33.3151 54.6694 33.0626 54.7469 32.8987 54.8387C32.7366 54.9321 32.7453 55.0018 32.9261 55.0491C33.1782 55.1254 33.1775 55.5102 32.9237 56.2037C32.6699 56.899 32.3255 57.7493 31.89 58.7528C31.4547 59.7581 30.9912 60.8375 30.5016 61.9913C30.012 63.1467 29.6584 64.2034 29.4407 65.1616C29.4024 65.9551 29.5193 66.6284 29.7882 67.1838C30.0585 67.7391 30.409 68.1511 30.8421 68.416C31.275 68.6827 31.7516 68.8092 32.2753 68.7951C32.3674 68.7925 32.4582 68.7855 32.5478 68.7741C32.9663 68.72 33.3544 68.5669 33.7119 68.3146C34.3254 67.9128 34.9041 67.3738 35.4467 66.6947C35.4815 66.7264 35.5093 66.7402 35.5284 66.7376C35.5458 66.7354 35.5719 66.751 35.6084 66.7809C35.6079 66.9965 35.644 67.2059 35.7168 67.4105C35.824 67.7193 36.0132 67.9277 36.2829 68.0363C36.5543 68.1445 36.8692 68.1936 37.2313 68.1814C37.3206 68.1792 37.4097 68.1725 37.4994 68.1609C38.0968 68.0838 38.7035 67.7954 39.3161 67.2961C39.8349 66.8741 40.3282 66.407 40.7978 65.8944C40.8084 65.8321 40.8208 65.7686 40.8349 65.7042C40.9457 65.2095 41.1166 64.721 41.3484 64.239C41.0866 64.5747 40.8167 64.9235 40.5381 65.2854C40.0895 65.8713 39.7771 66.1755 39.601 66.1982C39.5497 66.2048 39.5102 66.1876 39.4819 66.1465C39.3552 65.9679 39.4011 65.6117 39.6197 65.0832C39.8366 64.5893 40.1895 63.8553 40.6789 62.8796C41.1681 61.9036 41.6487 60.8838 42.1207 59.8222C42.5912 58.759 42.7457 57.9971 42.5849 57.5348C42.4239 57.0724 42.127 56.788 41.6939 56.6836C41.4343 56.6199 41.152 56.6081 40.8467 56.6474C40.6428 56.6738 40.4285 56.7229 40.2038 56.7948C39.6432 56.974 39.1834 57.194 38.8226 57.4563C39.0747 57.5308 39.191 57.7573 39.1727 58.1356C39.1527 58.5145 39.0545 58.9652 38.8724 59.4892C38.6905 60.0148 38.4647 60.5805 38.192 61.1868C37.921 61.7946 37.6761 62.3458 37.4577 62.8396C37.0229 63.612 36.588 64.3288 36.1551 64.9939C35.7205 65.6591 35.3209 66.1385 34.9601 66.4354C34.7072 66.7562 34.3986 67.0272 34.0379 67.2532C33.7093 67.459 33.417 67.5772 33.1639 67.6099C33.1391 67.6131 33.1145 67.6155 33.0906 67.6171C32.8192 67.6349 32.6208 67.5259 32.4961 67.2901C32.3694 67.058 32.3965 66.625 32.5786 65.9924C32.5786 65.92 32.6419 65.6443 32.7701 65.1618C32.8979 64.6813 32.9961 64.346 33.0695 64.1569C33.5767 62.9476 34.1115 61.7673 34.6744 60.6215C35.2353 59.4759 35.7701 58.2973 36.279 57.086C36.5328 56.4458 36.5965 55.946 36.4718 55.5859C36.3455 55.226 36.1284 54.9676 35.8224 54.8103C35.5165 54.6532 35.1651 54.5656 34.7685 54.5445C34.4469 54.5285 34.1446 54.5385 33.8597 54.5752Z" fill="#5E5E5E"/>
<path d="M60.3576 51.0612C60.0369 51.1025 59.667 51.2996 59.245 51.6511C58.7395 52.0751 58.1969 52.6456 57.6178 53.3638C57.0386 54.0841 56.4504 54.8845 55.8534 55.7657C55.2565 56.6484 54.6943 57.5269 54.1704 58.3984C53.6449 59.272 53.1925 60.0828 52.8115 60.829C52.4306 61.5752 52.1492 62.1585 51.9692 62.5751C51.8223 62.9166 51.6146 63.3007 51.344 63.7289C51.0715 64.1593 50.8362 64.4657 50.6373 64.6517C50.5478 64.7361 50.4769 64.7817 50.4244 64.7884C50.36 64.7968 50.3231 64.7471 50.3137 64.6401C50.2951 64.4459 50.4509 63.8977 50.7764 62.9965C50.9216 62.5843 51.1384 62.1008 51.4286 61.544C51.7184 60.9889 52.0364 60.4286 52.3804 59.8646C52.7244 59.3027 53.0684 58.7476 53.4122 58.201C53.7562 57.6562 54.0371 57.2075 54.2538 56.8586C54.5802 56.3507 54.8058 55.8212 54.934 55.268C55.0605 54.7151 55.0616 54.2042 54.9373 53.7371C54.811 53.2704 54.5596 52.8836 54.1825 52.5731C53.8038 52.2649 53.2889 52.0985 52.6398 52.0753C52.6225 52.0741 52.604 52.0747 52.5846 52.0773C52.4023 52.1008 52.1313 52.2895 51.7721 52.6428C51.3744 53.0341 50.9035 53.5609 50.3611 54.221C49.8185 54.8811 49.2496 55.6515 48.6509 56.5348C48.0539 57.4175 47.502 58.3395 46.9937 59.2989C47.2473 58.6933 47.4657 58.1649 47.6476 57.7115C47.8279 57.2586 47.9555 56.9386 48.0289 56.7496C48.2458 56.2575 48.2815 55.8231 48.1396 55.4465C47.9959 55.0716 47.7423 54.7731 47.3827 54.5522C47.0228 54.3294 46.5793 54.1986 46.0573 54.1589C45.8324 54.142 45.6029 54.1487 45.368 54.1791C45.0561 54.2192 44.7352 54.3015 44.4053 54.4258C44.5494 54.5867 44.5852 54.9304 44.5109 55.4594C44.4385 55.988 44.2929 56.6057 44.0739 57.3137C43.8568 58.0216 43.6117 58.752 43.3403 59.5013C43.0673 60.2527 42.8222 60.9192 42.6053 61.5027C42.3865 62.085 42.2152 62.5194 42.0877 62.8032C42.0564 62.8739 42.0325 62.9288 42.0153 62.9679C41.9008 63.1765 41.7163 63.5245 41.462 64.0125C41.4229 64.0874 41.3851 64.1626 41.349 64.2379C41.1172 64.72 40.9464 65.2084 40.8355 65.7031C40.8214 65.7676 40.809 65.8311 40.7984 65.8933C40.7147 66.384 40.7438 66.809 40.8883 67.1715C41.0263 67.5216 41.4092 67.6566 42.0379 67.5753C42.1435 67.5618 42.2561 67.542 42.3756 67.5162C42.8822 67.4162 43.4246 66.8908 44.0024 65.9379C44.5822 64.9865 45.1798 63.774 45.7972 62.2984C46.5934 60.9067 47.409 59.5936 48.2415 58.3595C49.0742 57.1237 49.7896 56.1202 50.3865 55.3443C50.9833 54.5703 51.409 54.0769 51.6617 53.8649C51.7191 53.8166 51.7608 53.7908 51.7865 53.7876C51.8738 53.7762 51.7778 54.0242 51.4985 54.5296C51.0985 55.2973 50.7282 55.9904 50.3842 56.6059C50.0382 57.2233 49.6507 57.8826 49.2159 58.5821C48.5281 59.7095 48.0281 60.7128 47.7201 61.5929C47.4122 62.4747 47.2488 63.2378 47.2282 63.884C47.2095 64.5317 47.2988 65.0482 47.4965 65.4334C47.6941 65.8203 47.9372 66.0666 48.226 66.1708C48.7113 66.3686 49.1611 66.4409 49.5755 66.3874C50.2996 66.294 50.9153 65.8163 51.4218 64.9541C51.8199 64.2575 52.1292 63.681 52.346 63.2232C52.5644 62.7655 52.7446 62.385 52.8895 62.0798C53.6151 60.4126 54.4396 58.8827 55.363 57.4936C56.2865 56.1044 57.1188 54.9859 57.8601 54.138C58.6015 53.2918 59.1437 52.7833 59.4869 52.6131C59.5379 52.5879 59.581 52.5729 59.6157 52.5684C59.8137 52.5428 59.7439 52.8574 59.4052 53.5088C59.0051 54.2765 58.6346 54.9696 58.2906 55.5852C57.9466 56.2024 57.5569 56.862 57.1223 57.5614C56.4343 58.6889 55.9345 59.7007 55.6263 60.5998C55.3182 61.4989 55.1548 62.2792 55.1343 62.9444C55.1157 63.6093 55.205 64.1517 55.4025 64.5731C55.6 64.9962 55.8432 65.2597 56.1318 65.3657C56.6301 65.5757 57.2034 65.6396 57.8518 65.556C58.0476 65.5306 58.2506 65.4919 58.4603 65.4396C59.343 65.2208 60.036 64.8034 60.5413 64.1872C60.5017 63.9111 60.5143 63.6059 60.5788 63.2707C60.4719 63.4308 60.3533 63.6039 60.2231 63.7901C59.8776 64.2834 59.4903 64.5922 59.057 64.719C58.5507 64.6427 58.2901 64.3986 58.2736 63.9884C58.2554 63.5802 58.3923 62.9791 58.6828 62.1912C58.828 61.779 59.0449 61.2851 59.3365 60.7108C59.6249 60.1371 59.9428 59.5508 60.2868 58.9508C60.6308 58.3525 60.9748 57.7714 61.3188 57.2077C61.6628 56.644 61.9438 56.1867 62.1602 55.8377C62.4868 55.3299 62.7122 54.8089 62.8404 54.2729C62.9684 53.7387 62.9695 53.2367 62.8434 52.7698C62.7172 52.3029 62.4658 51.9162 62.0887 51.6058C61.71 51.2976 61.1951 51.1137 60.5463 51.0544C60.4854 51.0508 60.4224 51.0528 60.3576 51.0612Z" fill="#5E5E5E"/>
<path d="M80.1232 48.5093C79.8025 48.5507 79.4324 48.7475 79.0104 49.0992C78.5049 49.5232 77.9625 50.0937 77.3832 50.812C76.804 51.532 76.2158 52.3327 75.619 53.2138C75.0221 54.0967 74.4599 54.975 73.936 55.8465C73.4103 56.7203 72.9581 57.5309 72.5771 58.2773C72.1962 59.0235 71.915 59.6068 71.7348 60.0234C71.5879 60.3649 71.38 60.749 71.1094 61.1774C70.8371 61.6078 70.6016 61.9142 70.4027 62.1002C70.3134 62.1847 70.2423 62.2302 70.1898 62.237C70.1254 62.2453 70.0885 62.1956 70.0791 62.0884C70.0605 61.8942 70.2165 61.3461 70.5418 60.4448C70.687 60.0328 70.9038 59.5491 71.194 58.9923C71.4841 58.4372 71.8018 57.8769 72.1458 57.3132C72.4898 56.7512 72.8338 56.1961 73.1778 55.6495C73.5216 55.1048 73.8028 54.656 74.0192 54.3071C74.3458 53.7993 74.5712 53.2697 74.6994 52.7165C74.8276 52.1634 74.8287 51.6525 74.7024 51.1856C74.5762 50.7189 74.3247 50.3321 73.9477 50.0217C73.5689 49.7134 73.0541 49.547 72.405 49.5236C72.3874 49.5224 72.3689 49.5232 72.3496 49.5256C72.1673 49.5492 71.8963 49.7376 71.5371 50.0911C71.1394 50.4824 70.6685 51.0092 70.1259 51.6691C69.5832 52.3295 69.0145 53.0998 68.4156 53.9829C67.8187 54.8658 67.2669 55.7877 66.7586 56.747C67.0122 56.1416 67.2309 55.613 67.4127 55.1599C67.5929 54.7069 67.7207 54.3867 67.7939 54.1979C68.0108 53.7058 68.0464 53.2715 67.9045 52.8948C67.7609 52.5199 67.5073 52.2213 67.1476 52.0005C66.7878 51.7777 66.3444 51.647 65.8222 51.6072C65.5973 51.5905 65.3676 51.5971 65.1332 51.6274C64.8211 51.6677 64.5001 51.7498 64.1703 51.8741C64.3143 52.035 64.3502 52.379 64.2761 52.9078C64.2037 53.4365 64.0581 54.054 63.8408 54.762C63.6218 55.4701 63.3766 56.2005 63.1054 56.9498C62.8325 57.7012 62.5874 58.3677 62.3705 58.9512C62.1519 59.5333 61.9802 59.9679 61.8526 60.2518C61.8213 60.3224 61.7974 60.3773 61.7805 60.4164C61.666 60.625 61.4815 60.973 61.2272 61.461C60.9391 62.016 60.7289 62.5797 60.6024 63.1516C60.5933 63.1919 60.5853 63.2319 60.5777 63.2714C60.5131 63.6066 60.5005 63.9116 60.5401 64.1878C60.5618 64.3408 60.5996 64.4849 60.6535 64.6202C60.7915 64.9703 61.1746 65.1053 61.8031 65.024C61.9087 65.0105 62.0213 64.9907 62.1408 64.9648C62.6473 64.865 63.1897 64.3394 63.7676 63.3864C64.3471 62.435 64.945 61.2225 65.5623 59.7469C66.3586 58.3552 67.1741 57.0423 68.0067 55.808C68.8394 54.572 69.555 53.5687 70.1515 52.7928C70.7483 52.0187 71.174 51.5254 71.4267 51.3134C71.4843 51.2651 71.5258 51.2393 71.5514 51.2361C71.6388 51.2248 71.5429 51.4727 71.2635 51.9779C70.8634 52.7457 70.4931 53.4387 70.1489 54.0544C69.8049 54.6716 69.4155 55.3311 68.9806 56.0306C68.2926 57.158 67.793 58.1613 67.4849 59.0413C67.177 59.9232 67.0135 60.6861 66.9929 61.3325C66.9742 61.9803 67.0637 62.4967 67.2613 62.8817C67.4588 63.2686 67.702 63.5149 67.9908 63.6193C68.4763 63.8172 68.9261 63.8894 69.3403 63.8359C70.0644 63.7425 70.6802 63.2648 71.1866 62.4026C71.5847 61.7058 71.8939 61.1293 72.1108 60.6717C72.3292 60.214 72.5091 59.8335 72.6543 59.5283C73.3799 57.8611 74.2044 56.3312 75.1279 54.9421C76.0513 53.5529 76.8836 52.4343 77.625 51.5865C78.3663 50.7401 78.9087 50.2319 79.2518 50.0616C79.3029 50.0362 79.3459 50.0213 79.3805 50.0169C79.5787 49.9913 79.5087 50.3059 79.1699 50.9575C78.7698 51.7252 78.3995 52.4183 78.0553 53.0339C77.7111 53.6511 77.3219 54.3105 76.8871 55.0101C76.1991 56.1376 75.701 57.1493 75.393 58.0483C75.0832 58.9474 74.9197 59.728 74.9011 60.3929C74.8804 61.0582 74.9699 61.6004 75.1675 62.022C75.365 62.445 75.6082 62.7087 75.8968 62.8147C76.3948 63.0247 76.9681 63.0885 77.6168 63.0047C77.8128 62.9795 78.0155 62.9406 78.2253 62.8883C79.1271 62.6649 79.8312 62.2342 80.3388 61.5956C80.6285 61.2373 80.9549 60.7207 81.3165 60.0477C81.456 59.788 81.5929 59.5263 81.7272 59.262C81.7133 59.1437 81.7037 59.0221 81.6983 58.8977C81.6866 58.636 81.6914 58.3663 81.7122 58.0887C81.4039 58.77 81.0911 59.4197 80.7754 60.0366C80.5937 60.3482 80.3319 60.7478 79.9881 61.2391C79.6443 61.7319 79.2555 62.0411 78.822 62.1677C78.3157 62.0916 78.0553 61.8473 78.0386 61.4371C78.0203 61.0287 78.1572 60.4278 78.4478 59.6399C78.5929 59.2277 78.8098 58.7338 79.1017 58.1595C79.39 57.5858 79.708 56.9996 80.052 56.3995C80.396 55.8012 80.74 55.2201 81.084 54.6564C81.428 54.0927 81.7092 53.6354 81.9254 53.2864C82.252 52.7784 82.4776 52.2576 82.6056 51.7216C82.7338 51.1874 82.7349 50.6852 82.6086 50.2185C82.4826 49.7516 82.2309 49.3649 81.8539 49.0545C81.4751 48.7463 80.9603 48.5624 80.3112 48.503C80.2508 48.499 80.188 48.501 80.1232 48.5093Z" fill="#5E5E5E"/>
<path d="M93.9533 53.6939C93.9214 53.7523 93.8897 53.8108 93.8577 53.8697C93.8897 53.8112 93.9216 53.7525 93.9533 53.6939ZM87.0492 55.805C86.6321 55.8589 86.2047 55.7304 85.7664 55.4204C85.9465 55.0038 86.2103 54.5227 86.5544 53.9763C86.8984 53.4316 87.2684 52.892 87.6678 52.3574C88.0657 51.8228 88.455 51.3154 88.8352 50.8385C89.214 50.36 89.5315 49.9789 89.7842 49.6945C90.226 49.2018 90.5355 48.9441 90.7137 48.921C90.7691 48.9138 90.8119 48.9295 90.8419 48.9677C90.9668 49.131 91.0114 49.448 90.9758 49.9167C90.9751 50.2049 90.8278 50.7503 90.539 51.5571C90.2467 52.3642 89.8675 53.1293 89.3963 53.851C88.9265 54.5742 88.3739 55.1373 87.743 55.5413C87.5149 55.6869 87.2836 55.7749 87.0492 55.805ZM90.4677 47.2172C90.4316 47.222 90.3951 47.2268 90.3584 47.2324C89.3296 47.3841 88.1642 47.9538 86.8623 48.9451C86.1389 49.5043 85.4519 50.1917 84.8011 51.009C84.1502 51.828 83.5881 52.6874 83.1182 53.5883C82.6467 54.4911 82.2846 55.4058 82.0284 56.3326C81.8604 56.9504 81.755 57.5357 81.7135 58.0887C81.6927 58.3666 81.6879 58.6362 81.6996 58.8977C81.7051 59.0221 81.7148 59.1437 81.7285 59.262C81.8013 59.8892 81.9887 60.431 82.2907 60.8883C82.6517 61.4319 83.2269 61.7786 84.0203 61.9264C84.4395 62.0108 84.8654 62.025 85.2976 61.9691C85.7586 61.9096 86.2264 61.7707 86.701 61.5527C87.6224 61.1301 88.5254 60.5216 89.4126 59.7274C90.2984 58.9333 91.1303 58.0028 91.9087 56.9361C92.5308 56.0835 93.1004 55.2036 93.6191 54.2961C93.4898 54.4967 93.3755 54.6031 93.2771 54.6159C93.2643 54.6175 93.2519 54.6177 93.2397 54.6163C93.0954 54.6003 93.1691 54.2871 93.4572 53.6771C93.5461 53.4561 93.6476 53.2226 93.7621 52.9768C93.7341 53.016 93.7054 53.0605 93.6758 53.1104C92.9511 54.3859 92.101 55.6136 91.1242 56.7957C90.1471 57.9779 89.216 58.9021 88.3306 59.5721C87.6255 60.1046 87.0079 60.4045 86.4766 60.4731C86.3392 60.4909 86.2077 60.4933 86.0819 60.4801C85.4678 60.4162 85.1436 59.7783 85.1112 58.5642C85.0393 58.0731 85.0662 57.5968 85.1942 57.1317C85.3222 56.6684 85.4937 56.1889 85.7123 55.6966C86.2021 56.4267 86.8395 56.7408 87.6216 56.6398C87.7565 56.6225 87.8958 56.5927 88.0392 56.5506C89.0143 56.2626 89.9711 55.5938 90.9112 54.5422C91.4901 53.8947 91.9702 53.2238 92.3509 52.5309C92.7316 51.838 93.0028 51.1681 93.1678 50.5205C93.3307 49.8731 93.3773 49.2943 93.3051 48.7842C93.233 48.276 93.018 47.8827 92.6584 47.6065C92.1707 47.222 91.4417 47.0915 90.4677 47.2172Z" fill="#5E5E5E"/>
<path d="M97.9335 40.37C97.7471 40.3942 97.545 40.4407 97.3277 40.5096C96.7129 40.696 96.2076 41.0475 95.8098 41.563C95.4119 42.0802 95.1393 42.6261 94.9937 43.1988C94.8482 43.7733 94.8575 44.3173 95.0183 44.8331C95.1791 45.3489 95.5316 45.6969 96.0725 45.8771C96.7926 46.0724 97.0267 46.4528 96.7733 47.0221C96.5566 47.4797 96.3015 48.0045 96.0134 48.5955C95.7213 49.1888 95.4138 49.7927 95.0889 50.4057C94.7623 51.0207 94.4548 51.6074 94.1647 52.1625C94.0161 52.4478 93.882 52.7193 93.7618 52.9772C93.6473 53.2229 93.5456 53.4563 93.4569 53.6774C93.1686 54.2875 93.0949 54.6007 93.2394 54.6167C93.2516 54.6183 93.2642 54.6181 93.2768 54.6163C93.3752 54.6037 93.4895 54.4971 93.6188 54.2965C93.6708 54.216 93.7251 54.1206 93.7816 54.0098C93.807 53.9631 93.8322 53.9164 93.8574 53.8699C93.8894 53.8112 93.9213 53.7525 93.953 53.694C94.5783 52.5468 95.1726 51.4856 95.7376 50.5099C96.3524 49.4471 97.0232 48.17 97.7484 46.6804C98.1087 46.7063 98.3714 46.7259 98.5331 46.7413C98.6967 46.7564 98.768 46.8265 98.7502 46.9549C98.7308 47.0834 98.6398 47.309 98.4775 47.6336C98.3149 47.9582 98.0878 48.4448 97.7977 49.0896C97.3992 49.8935 96.9554 50.765 96.4662 51.7046C95.9771 52.6444 95.4968 53.5034 95.0272 54.2785C94.3005 55.5543 93.7955 56.6651 93.5045 57.6153C93.2138 58.5657 93.0677 59.3626 93.0664 60.0064C93.0651 60.6517 93.172 61.1556 93.3872 61.5231C93.604 61.8884 93.8559 62.1233 94.1445 62.2293C94.5072 62.3523 94.9181 62.3842 95.3773 62.325C95.6926 62.2842 96.0305 62.2004 96.3915 62.0738C97.2762 61.7628 97.9907 61.2324 98.5335 60.4825C98.8232 60.0878 99.1585 59.5339 99.5375 58.8224C99.9182 58.1124 100.29 57.3846 100.652 56.639C101.014 55.8952 101.332 55.2191 101.603 54.6115C101.876 54.0032 102.066 53.6026 102.175 53.4092C102.283 53.0742 102.329 52.844 102.312 52.7203C102.293 52.5985 102.258 52.5322 102.204 52.5203C102.193 52.5183 102.182 52.5179 102.171 52.5195C102.124 52.5254 102.072 52.5606 102.014 52.6259C101.941 52.7077 101.887 52.7684 101.852 52.8073C101.452 53.6459 101.008 54.5987 100.518 55.6643C100.029 56.7282 99.5308 57.7778 99.024 58.8095C98.8423 59.1538 98.57 59.6013 98.2086 60.1485C97.8472 60.6957 97.4498 61.0522 97.0163 61.2153C96.7622 61.2119 96.6005 61.1085 96.5297 60.9019C96.4571 60.6973 96.4226 60.4517 96.4232 60.1651C96.4239 59.8784 96.4593 59.5962 96.533 59.3175C96.6049 59.0408 96.6766 58.8262 96.7501 58.6735C96.9685 58.2521 97.2481 57.6878 97.5923 56.9807C97.9366 56.2737 98.2895 55.5483 98.653 54.8045C99.0149 54.0589 99.3678 53.3353 99.7137 52.628C100.056 51.9212 100.338 51.3571 100.556 50.9355C100.846 50.3614 101.037 49.7811 101.129 49.1966C101.219 48.6139 101.193 48.1063 101.05 47.6781C100.906 47.2497 100.636 46.9086 100.239 46.656C99.843 46.4035 99.3195 46.283 98.6702 46.2943C98.2734 46.3093 98.0385 46.2498 97.9674 46.1157C97.8946 45.9837 97.9316 45.7803 98.0765 45.5116C98.2197 45.2429 98.4101 44.9405 98.6457 44.6063C98.8812 44.2724 99.0892 43.9314 99.2706 43.5853C99.489 43.1637 99.6238 42.7269 99.6805 42.2712C99.7355 41.8171 99.6822 41.4308 99.5192 41.1118C99.358 40.7926 99.0957 40.5679 98.7358 40.4347C98.5109 40.3517 98.2434 40.3301 97.9335 40.37Z" fill="#5E5E5E"/>
<path d="M33.8769 101.644C33.2287 101.727 32.6956 101.621 32.2773 101.323C32.1539 101.217 32.01 101.013 31.847 100.708C31.684 100.404 31.6432 99.9523 31.7279 99.3512C31.8109 98.7522 32.1189 97.9808 32.655 97.0368C33.1896 96.0931 34.114 94.9488 35.4289 93.5988C36.3323 92.6696 37.4204 91.6647 38.6947 90.5858C39.9673 89.507 41.3024 88.472 42.6984 87.4773C43.7622 88.1941 44.4793 88.8848 44.847 89.5481C45.2147 90.2117 45.3264 90.8994 45.1805 91.6084C45.0365 92.319 44.6764 93.066 44.1005 93.8511C43.5249 94.638 42.846 95.5072 42.0663 96.4621C41.5725 97.0538 40.8839 97.7122 40.0018 98.4352C39.118 99.16 38.1944 99.797 37.2309 100.349C36.2658 100.9 35.3303 101.295 34.4302 101.534C34.2368 101.584 34.0527 101.621 33.8769 101.644ZM45.103 84.2403L45.0421 84.1878C45.1249 84.1444 45.1775 84.1213 45.1999 84.1183C45.2336 84.1139 45.2012 84.1544 45.103 84.2403ZM48.9511 69.6237C48.8674 69.6345 48.7838 69.6467 48.7001 69.6601C48.0438 69.7655 47.4901 69.9284 47.039 70.1489C45.1923 71.1189 43.5992 72.2597 42.2653 73.569C40.9297 74.8803 39.8304 76.3232 38.9657 77.898C38.7597 78.2507 38.5028 78.7617 38.1951 79.4312C37.8856 80.1009 37.6998 80.8272 37.6373 81.6065C37.5729 82.3878 37.735 83.1795 38.1232 83.9818C38.5113 84.7858 39.2982 85.4987 40.4873 86.1163L41.5927 86.7654C39.6617 88.1949 37.9986 89.5467 36.6022 90.8243C35.2056 92.1037 33.7685 93.7128 32.2886 95.6499C31.8348 96.2795 31.4646 96.9263 31.1779 97.5928C30.8878 98.2601 30.702 98.9035 30.619 99.5251C30.5358 100.145 30.4945 100.771 30.4932 101.401C30.4919 102.031 30.644 102.579 30.951 103.049C31.2581 103.516 31.7586 103.848 32.4561 104.043C32.8988 104.167 33.4662 104.184 34.1585 104.095C34.5545 104.043 34.9915 103.958 35.4689 103.837C37.8074 103.209 39.9831 102.157 41.9943 100.677C44.0058 99.1993 45.7929 97.4035 47.3567 95.29C48.7547 93.3617 49.3414 91.5192 49.1204 89.7583C48.8979 87.9979 47.9891 86.4085 46.3927 84.9876C46.4344 84.9822 46.4553 84.9711 46.4553 84.9485C46.4553 84.9295 46.4953 84.914 46.5789 84.9032C46.741 84.8012 47.0598 84.6271 47.5318 84.3834C48.0038 84.1394 48.5178 83.9818 49.0713 83.9103C49.6248 83.8388 50.1676 83.9207 50.6998 84.1572C51.2318 84.394 51.6205 84.9441 51.8659 85.8063C51.8772 85.863 51.9002 85.8889 51.9352 85.8845C52.0228 85.8731 52.1845 85.6701 52.4202 85.2759C52.7486 84.7263 52.9344 84.1035 52.9774 83.406C53.0189 82.7106 52.8042 82.1085 52.3353 81.5977C51.9478 81.1805 51.205 81.0418 50.1085 81.1833C49.8729 81.2136 49.6213 81.2571 49.3531 81.3132C48.9005 81.4115 48.2351 81.7215 47.3517 82.2411C46.4683 82.7623 45.5552 83.348 44.6125 83.9975L43.7519 83.4995C42.8099 82.9707 42.2264 82.304 42.0037 81.4993C41.779 80.6948 41.9965 79.7834 42.6547 78.7633C43.519 77.4318 44.4208 76.2992 45.3679 75.3644C46.3112 74.4298 47.2054 73.6846 48.0473 73.1273C48.8889 72.5717 49.6276 72.2228 50.263 72.0787C50.3895 72.0503 50.5073 72.0291 50.6168 72.015C51.0575 71.9581 51.3604 72.0164 51.5245 72.1902C51.6462 72.3384 51.6349 72.6643 51.4912 73.1712C51.3459 73.6784 51.1288 74.2343 50.8421 74.8406C50.5538 75.4472 50.213 76.071 49.8236 76.7096C49.4327 77.3502 49.073 77.8538 48.7433 78.2207C48.1097 78.9294 47.5675 79.3135 47.1153 79.3717C47.0399 79.3815 46.9668 79.3821 46.8962 79.3737C46.4038 79.3148 46.1174 78.9861 46.0367 78.3872C45.7088 78.7954 45.6156 79.2751 45.7573 79.8261C45.9005 80.377 46.2584 80.6966 46.8325 80.7846C47.2026 80.8338 47.5683 80.8349 47.9297 80.7882C48.3276 80.7369 48.7205 80.6273 49.1078 80.4597C49.8462 80.1419 50.5033 79.6808 51.0788 79.0769C51.6125 78.5214 52.0958 77.8896 52.5287 77.1833C52.96 76.4771 53.3008 75.7532 53.5477 75.0089C53.7945 74.2661 53.9405 73.5554 53.9818 72.8805C54.0249 72.2038 53.9234 71.6371 53.6789 71.1804C53.4327 70.7256 53.0348 70.3593 52.4802 70.0859C51.9274 69.812 51.3237 69.6469 50.6679 69.5882C50.0961 69.5377 49.5239 69.5499 48.9511 69.6237Z" fill="#5E5E5E"/>
<path d="M59.1304 81.5755C57.3669 81.8031 55.7658 82.7623 54.3283 84.4524C53.547 85.2848 52.8386 86.2304 52.2012 87.2876C51.5638 88.3446 51.0188 89.4022 50.564 90.4564C50.1111 91.5122 49.7715 92.5204 49.5433 93.4852C49.3169 94.4496 49.2419 95.2926 49.3223 96.014C49.404 96.9386 49.6376 97.5796 50.0266 97.9349C50.4156 98.2918 50.8556 98.4783 51.3481 98.4958C51.5656 98.5038 51.7816 98.4938 51.9956 98.4661C52.2642 98.4314 52.5302 98.3687 52.793 98.2783C53.265 98.1172 53.6446 97.9561 53.9321 97.7966C54.3835 97.5345 54.8767 97.1155 55.4105 96.5376C55.9442 95.9613 56.4379 95.38 56.8897 94.7919C56.6007 95.7645 56.6307 96.4819 56.9775 96.946C57.3248 97.4101 57.8063 97.6413 58.4222 97.6429C58.526 97.6403 58.629 97.6325 58.7316 97.6193C59.3966 97.5335 60.032 97.2231 60.6379 96.6857C61.3354 96.0695 61.9719 95.3159 62.5483 94.4272C62.8783 93.898 63.238 93.3029 63.6292 92.6416C63.7489 92.4396 63.8658 92.2398 63.9797 92.0422C64.1939 91.3094 64.5301 90.343 64.9884 89.1429C65.0714 88.9261 65.1555 88.7063 65.2407 88.4835C64.36 90.1013 63.6187 91.3916 63.0155 92.3552C62.3766 93.3728 61.8737 94.1296 61.5036 94.6242C61.2559 94.9408 61.0918 95.1243 61.0101 95.1746C60.9867 95.1896 60.9664 95.1979 60.9497 95.2001C60.9078 95.2055 60.8867 95.1716 60.8869 95.0989C60.8871 94.9989 60.9186 94.8412 60.9801 94.6296C61.0432 94.4196 61.1359 94.1835 61.2583 93.9244C61.3824 93.6633 61.5677 93.284 61.8142 92.7845C62.0623 92.2849 62.3192 91.7651 62.5865 91.2217C62.8538 90.68 63.1315 90.1246 63.4199 89.5595C63.7083 88.9944 63.9545 88.5139 64.1607 88.1214C64.7792 86.9443 64.9845 86.0861 64.782 85.5412C64.5777 84.9998 64.1781 84.6752 63.5848 84.569C63.1719 84.4953 62.7293 84.4888 62.2573 84.5496C62.0493 84.5764 61.8359 84.6165 61.6164 84.6696C60.8973 84.8453 60.333 85.0802 59.9236 85.3767C60.208 85.8679 60.2378 86.5957 60.0114 87.5601C59.7832 88.5249 59.3929 89.5413 58.8355 90.6089C58.28 91.6763 57.6322 92.7157 56.8923 93.7257C56.1524 94.7358 55.4339 95.5291 54.7348 96.1076C54.3048 96.4755 53.9699 96.6749 53.7304 96.7059C53.2841 96.7633 53.1685 96.2366 53.3847 95.1243C53.5503 94.209 53.8393 93.2261 54.2522 92.1755C54.6634 91.1269 55.1475 90.1001 55.703 89.093C56.2584 88.0861 56.8449 87.1563 57.461 86.3037C58.0788 85.4527 58.6736 84.7461 59.249 84.1835C59.7426 83.6729 60.2235 83.295 60.6974 83.0509C60.8337 82.9804 60.9693 82.9363 61.104 82.919C61.4341 82.8764 61.7596 82.9932 62.0804 83.2693C62.2029 82.8479 62.1827 82.5141 62.0197 82.2712C61.8565 82.0283 61.6221 81.8446 61.3144 81.722C61.0066 81.5997 60.6585 81.5324 60.2689 81.5206C59.8788 81.5098 59.5011 81.5276 59.1304 81.5755Z" fill="#5E5E5E"/>
<path d="M71.9183 69.3947C71.8374 69.4051 71.7551 69.4194 71.6708 69.4378C70.9936 69.5855 70.3876 69.8173 69.8543 70.1295C69.321 70.4417 68.9307 70.7475 68.6847 71.0432C68.4389 71.3388 68.5204 71.4614 68.9294 71.4085C69.5857 71.3238 69.9434 71.6725 70.0044 72.4585C70.0638 73.2428 69.9382 74.2858 69.6291 75.5851C69.3186 76.8866 68.8944 78.344 68.3587 79.9575C67.8228 81.5709 67.2559 83.1694 66.6574 84.7494C66.1567 86.0765 65.6845 87.3209 65.2405 88.4829C65.1554 88.7057 65.0713 88.9254 64.9883 89.1422C64.5299 90.3423 64.1938 91.3087 63.9795 92.0415C63.9534 92.1309 63.9289 92.2172 63.9065 92.2996C63.6175 93.2737 63.5027 94.1014 63.562 94.7839C63.6233 95.468 63.8989 95.981 64.3891 96.3231C64.8772 96.6537 65.4768 96.7725 66.1906 96.6805C66.4377 96.6485 66.6985 96.5914 66.9729 96.509C68.0386 96.1886 68.8803 95.6622 69.4979 94.9322C69.8258 94.5242 70.1959 93.9586 70.6081 93.2342C70.6509 93.1586 70.6935 93.0827 70.7359 93.0069C70.6668 92.7068 70.6242 92.387 70.6088 92.0475C70.386 92.4839 70.1602 92.919 69.9308 93.3528C69.7665 93.6983 69.489 94.1104 69.098 94.587C68.7073 95.0653 68.2664 95.3759 67.7735 95.5207C67.1992 95.4724 66.923 95.1939 66.9449 94.6821C66.9669 94.172 67.0794 93.5778 67.2861 92.9007C67.4508 92.31 67.792 91.3927 68.3081 90.1477C68.8223 88.9029 69.3977 87.5069 70.0377 85.9593C70.6761 84.4136 71.3057 82.8089 71.9235 81.1435C72.5411 79.4781 73.0576 77.9482 73.4694 76.5526C74.0479 74.4868 74.2965 72.9311 74.2185 71.8835C74.137 70.8381 73.8617 70.1299 73.391 69.7646C72.979 69.4442 72.4887 69.321 71.9183 69.3947Z" fill="#5E5E5E"/>
<path d="M76.6854 88.5309C76.2118 88.592 75.7266 88.4468 75.2298 88.0949C75.436 87.6214 75.7329 87.0758 76.124 86.456C76.5152 85.8362 76.9357 85.2228 77.3894 84.6155C77.8415 84.0085 78.2828 83.4322 78.7157 82.8896C79.1466 82.3457 79.5061 81.9127 79.7938 81.5909C80.2955 81.0312 80.6467 80.7379 80.849 80.7118C80.9118 80.7038 80.9603 80.7214 80.9944 80.7649C81.1385 80.9515 81.1885 81.3108 81.1472 81.8442C81.1465 82.1686 80.9799 82.7908 80.6508 83.7063C80.3203 84.6237 79.8885 85.4923 79.3544 86.3135C78.8183 87.1349 78.1922 87.7733 77.4744 88.2316C77.2152 88.3965 76.9522 88.4963 76.6854 88.5309ZM80.5763 78.7763C80.5331 78.7819 80.4894 78.7881 80.4453 78.7944C79.277 78.9659 77.9534 79.6131 76.475 80.7391C75.6523 81.3733 74.873 82.1554 74.133 83.0845C73.3933 84.0133 72.7544 84.9914 72.2198 86.0145C71.6853 87.0393 71.2741 88.0777 70.9849 89.1313C70.6954 90.1849 70.57 91.1571 70.6083 92.0458C70.6083 92.0466 70.6083 92.0474 70.6083 92.048C70.6237 92.3875 70.6663 92.7073 70.7354 93.0073C70.8473 93.4918 71.029 93.925 71.2806 94.3057C71.69 94.9241 72.3452 95.3173 73.2464 95.4858C73.7234 95.5814 74.2078 95.5976 74.6991 95.5341C75.2218 95.4666 75.7524 95.3093 76.2912 95.0618C77.3379 94.5815 78.3645 93.8901 79.3705 92.9872C80.3764 92.0859 81.3219 91.0287 82.2066 89.8172C83.0897 88.6057 83.8822 87.3439 84.5829 86.0336C84.8291 85.5549 84.8804 85.2551 84.7378 85.1304C84.6941 85.093 84.6474 85.0775 84.5981 85.0838C84.4849 85.0984 84.3573 85.228 84.215 85.4721C83.3907 86.9191 82.4254 88.3155 81.3158 89.6579C80.2045 91.0006 79.1477 92.0514 78.1422 92.8111C77.3427 93.4154 76.6412 93.7561 76.038 93.834C75.8811 93.8543 75.7307 93.8567 75.5871 93.8415C74.8893 93.7711 74.522 93.0457 74.4847 91.6665C74.4023 91.1096 74.4347 90.567 74.5803 90.0392C74.7241 89.5134 74.9199 88.9686 75.1683 88.4085C75.7244 89.2385 76.447 89.5952 77.3342 89.4809C77.4879 89.4611 77.6465 89.427 77.8099 89.3791C78.9174 89.0531 80.0048 88.2933 81.0742 87.0976C81.7317 86.3622 82.2763 85.6001 82.7094 84.8126C83.1408 84.0253 83.4505 83.2641 83.6365 82.5291C83.8225 81.7943 83.8742 81.137 83.7936 80.5573C83.713 79.9792 83.4668 79.5314 83.0584 79.2184C82.5065 78.7811 81.6802 78.6336 80.5763 78.7763Z" fill="#5E5E5E"/>
</svg>
