<svg width="120" height="110" viewBox="0 0 120 110" fill="none" xmlns="http://www.w3.org/2000/svg">
<g clip-path="url(#clip0_1417_12876)">
<path d="M17.1794 47.7734C18.3116 46.2257 18.5167 44.4972 17.7943 42.589C17.4088 41.5703 16.8078 40.808 15.9925 40.3018C15.1767 39.7959 14.3017 39.475 13.3672 39.3381C12.4324 39.2021 11.2242 39.1048 9.74277 39.0458C8.5192 39.0087 7.55507 38.9464 6.84999 38.8594C6.14492 38.7721 5.51 38.5784 4.94563 38.2791C4.38088 37.979 3.98266 37.5223 3.74982 36.9075C3.40056 35.9857 3.51621 35.1376 4.09677 34.3632C4.67694 33.5889 5.69774 32.9513 7.15955 32.4502C8.19576 32.0951 9.12982 31.9759 9.96173 32.0926C10.7932 32.2096 11.3372 32.6076 11.5947 33.2866C11.6437 33.4161 11.7346 33.7319 11.8672 34.2345C11.9143 34.5107 11.9964 34.8027 12.1124 35.1097C12.247 35.4652 12.5118 35.722 12.9073 35.8786C13.3024 36.0352 13.7211 36.0382 14.1629 35.8863C14.7912 35.671 15.1694 35.2491 15.2966 34.6211C15.4235 33.9927 15.2943 33.1692 14.9084 32.1505C14.5168 31.1157 13.8761 30.349 12.9863 29.8494C12.0962 29.3509 11.0677 29.1055 9.89966 29.1124C8.73122 29.1205 7.52693 29.3369 6.28639 29.7621C4.62066 30.3329 3.26718 31.0805 2.22479 32.0034C1.18241 32.9275 0.505473 33.9542 0.194376 35.084C-0.117106 36.2139 -0.0523422 37.3606 0.388667 38.5253C0.811172 39.6408 1.45765 40.4742 2.32888 41.0252C3.19972 41.5762 4.12992 41.9291 5.11949 42.0828C6.10868 42.2365 7.3496 42.3318 8.84186 42.3681C10.0084 42.4067 10.9224 42.4635 11.5843 42.538C12.2462 42.6125 12.8391 42.7841 13.363 43.0519C13.8865 43.3201 14.2531 43.7287 14.4613 44.2786C14.7982 45.1681 14.6517 45.999 14.0226 46.7716C13.3938 47.5448 12.3568 48.1783 10.9124 48.6736C9.51879 49.1512 8.36808 49.3452 7.46023 49.2542C6.552 49.164 5.96065 48.7543 5.68502 48.0265C5.61756 47.8489 5.56628 47.6747 5.53043 47.5041C5.49497 47.3335 5.4649 47.2161 5.44023 47.1512C5.39936 46.8911 5.31764 46.5995 5.19544 46.276C5.0609 45.9205 4.80608 45.6788 4.43138 45.5511C4.05668 45.4238 3.63995 45.4389 3.18121 45.5962C2.55246 45.8116 2.16504 46.2096 2.01971 46.7892C1.87437 47.3687 1.97036 48.1031 2.3069 48.9927C2.94336 50.6746 4.096 51.6911 5.76482 52.041C7.43325 52.3921 9.39775 52.1801 11.6579 51.405C14.2064 50.533 16.0468 49.3221 17.1794 47.7734Z" fill="#5E5E5E"/>
<path d="M17.2627 37.9507C17.4397 38.0574 17.6085 38.0831 17.77 38.0277C17.9659 37.9606 18.105 37.7955 18.1875 37.5314C18.4493 36.7108 18.7519 36.0652 19.0946 35.5945C19.4369 35.1243 19.7812 34.8293 20.127 34.7108C20.3112 34.6478 20.4828 34.6632 20.6424 34.7571C20.8016 34.851 20.9311 35.0296 21.031 35.2926C21.2052 35.7534 21.324 36.1954 21.3868 36.6202C21.4496 37.0446 21.4862 37.3043 21.4967 37.4001L22.2056 42.4707C22.317 43.2128 22.4643 43.8251 22.647 44.3074C22.9708 45.1629 23.4766 45.7604 24.1655 46.1001C24.8536 46.4402 25.682 46.4442 26.65 46.1126C27.8019 45.7179 28.6592 44.9472 29.2209 43.8005C29.7825 42.6541 30.0462 41.1766 30.0123 39.367C30.2845 40.6366 30.4996 41.4792 30.6572 41.8959C30.9394 42.6417 31.4221 43.1604 32.1055 43.4524C32.789 43.7447 33.6086 43.7271 34.565 43.3992C35.2103 43.178 35.7666 42.8078 36.2335 42.288C36.7007 41.7686 37.1031 41.061 37.4408 40.1648C37.5642 39.8376 37.5453 39.4602 37.3834 39.0328C37.2963 38.8028 37.1845 38.6366 37.0484 38.5347C36.9123 38.4323 36.7689 38.4074 36.6193 38.4587C36.4466 38.5178 36.3198 38.6484 36.24 38.849C35.9563 39.5779 35.6783 40.1256 35.4069 40.491C35.1352 40.8567 34.8094 41.1047 34.4293 41.2349C34.072 41.3574 33.7424 41.3372 33.4401 41.1744C33.1375 41.0119 32.9016 40.7055 32.7312 40.2562C32.6152 39.9495 32.4826 39.4624 32.3338 38.7944C31.9868 37.3278 31.6514 35.702 31.3276 33.9181C31.1491 33.0007 31.0065 32.2879 30.8989 31.7799C30.791 31.2718 30.6811 30.8698 30.569 30.5738C30.3739 30.0587 30.1349 29.7194 29.8519 29.5562C29.5686 29.3929 29.2255 29.3808 28.8223 29.5191C28.3728 29.6732 28.1122 29.8863 28.0393 30.1589C27.9668 30.4318 27.9958 30.8614 28.1272 31.4479C28.7143 33.9966 29.0015 36.1554 28.988 37.9254C28.9745 39.6949 28.7467 41.0522 28.3034 41.9968C27.8604 42.9414 27.2934 43.5323 26.6018 43.7693C26.2217 43.8995 25.8882 43.8962 25.6022 43.7587C25.3162 43.6218 25.1065 43.3775 24.9735 43.0268C24.8906 42.8075 24.8239 42.5793 24.773 42.3431C24.7225 42.1065 24.6782 41.8523 24.6404 41.5804C24.6026 41.3086 24.5764 41.1193 24.5621 41.0126L24.1311 37.7603C24.0197 36.8821 23.9153 36.1932 23.8177 35.6939C23.7198 35.1951 23.5652 34.6657 23.3532 34.1063C23.0544 33.3169 22.6292 32.7876 22.0784 32.518C21.5271 32.2487 20.8999 32.2348 20.1975 32.4754C18.6189 33.0165 17.533 34.256 16.9385 36.1936C16.7778 36.7317 16.762 37.1712 16.8903 37.5108C16.962 37.6979 17.0858 37.8439 17.2627 37.9507Z" fill="#5E5E5E"/>
<path d="M48.7279 25.0557C49.0159 24.957 49.2741 24.9768 49.5024 25.1151C49.7306 25.2538 49.9172 25.515 50.0625 25.8987C50.1454 26.118 50.2124 26.3462 50.2629 26.5824C50.3134 26.819 50.3574 27.0732 50.3956 27.3451C50.4333 27.6172 50.4592 27.8062 50.4738 27.9129L50.9221 31.1593C51.1103 32.4821 51.3269 33.4671 51.5721 34.1141C51.9248 35.0459 52.4826 35.6941 53.2452 36.058C54.0081 36.4222 54.8789 36.4365 55.8584 36.1005C56.5034 35.8793 57.06 35.5092 57.5273 34.9898C57.9945 34.4703 58.3969 33.7627 58.7346 32.8666C58.858 32.5393 58.8387 32.1619 58.6768 31.7345C58.5897 31.5045 58.4779 31.3384 58.3418 31.2364C58.2057 31.1344 58.0623 31.1091 57.9128 31.1604C57.7401 31.2195 57.6136 31.3497 57.5334 31.5507C57.2497 32.2796 56.9721 32.8273 56.7004 33.1923C56.429 33.558 56.1029 33.806 55.7228 33.9366C55.3195 34.0749 54.9622 34.0672 54.6503 33.9139C54.3384 33.7609 54.0956 33.4538 53.9209 32.9935C53.7714 32.5988 53.6503 32.1076 53.5582 31.5199L52.8319 26.4551C52.7201 25.713 52.5728 25.1012 52.3901 24.6184C52.054 23.7303 51.5763 23.1133 50.9576 22.7681C50.3389 22.4226 49.6257 22.3885 48.8196 22.6651C47.817 23.0088 47.0545 23.6416 46.5317 24.5641C46.0086 25.4867 45.7457 26.8033 45.7422 28.5138C45.6428 27.9412 45.524 27.4738 45.3872 27.1118C45.0387 26.1907 44.5526 25.552 43.9296 25.1958C43.3066 24.8396 42.6205 24.7901 41.8718 25.0469C40.8927 25.3829 40.1274 26.0443 39.5773 27.0318C39.0268 28.0197 38.762 29.5196 38.7817 31.5317C38.7674 31.4253 38.7354 31.2378 38.6861 30.9701C38.6363 30.7019 38.565 30.3582 38.471 29.9382C38.3769 29.5185 38.274 29.1601 38.1622 28.8641C37.8842 28.1297 37.5022 27.629 37.0173 27.3612C36.5319 27.0941 35.9726 27.0692 35.3388 27.2864C34.6588 27.5193 34.0551 27.9525 33.5266 28.5857C32.9981 29.2192 32.5968 29.998 32.3215 30.9216C32.2359 31.2111 32.1897 31.4594 32.1835 31.6656C32.1769 31.8721 32.207 32.0636 32.2737 32.2385C32.3442 32.4249 32.468 32.5713 32.6449 32.6776C32.8219 32.7844 32.9907 32.8101 33.1523 32.7547C33.3481 32.6875 33.4872 32.5225 33.5697 32.2584C33.8357 31.4488 34.1241 30.8266 34.4348 30.3916C34.7451 29.9569 35.0501 29.688 35.35 29.5853C35.7301 29.4551 36.0138 29.6366 36.2004 30.1297C36.3997 30.6561 36.5967 31.3317 36.7921 32.1567C37.0967 33.4766 37.4251 35.0488 37.7771 36.8731C37.9571 37.8642 38.1101 38.6386 38.2366 39.1958C38.363 39.7534 38.4906 40.202 38.6194 40.5417C38.8102 41.0461 39.0322 41.3572 39.2851 41.4749C39.538 41.5927 39.8773 41.5784 40.304 41.4324C40.7535 41.2783 41.0145 41.0648 41.0869 40.7926C41.1594 40.5201 41.1301 40.0901 40.9991 39.5032C40.3788 36.7307 40.0604 34.4711 40.0434 32.7242C40.0264 30.977 40.2022 29.6972 40.5712 28.8828C40.9397 28.0692 41.4065 27.5655 41.9713 27.3718C42.3055 27.2574 42.5931 27.2699 42.8352 27.41C43.0769 27.5501 43.2766 27.8285 43.4342 28.2449C43.7249 29.0127 44.1069 30.8138 44.5819 33.6483C44.7596 34.7022 44.923 35.6156 45.0722 36.3881C45.2214 37.161 45.3814 37.7718 45.5514 38.2211C45.7341 38.7039 45.9477 39.0021 46.1929 39.1158C46.4377 39.2303 46.7561 39.22 47.1477 39.0858C47.5972 38.9317 47.8802 38.7079 47.9966 38.4137C48.113 38.1203 48.0872 37.6302 47.9187 36.9446C47.3231 34.3742 47.0028 32.2297 46.9573 30.5112C46.9118 28.7926 47.0602 27.4999 47.4026 26.633C47.7441 25.7673 48.1863 25.2413 48.7279 25.0557Z" fill="#5E5E5E"/>
<path d="M77.2854 15.0528C76.9912 15.8411 76.9939 16.6301 77.2927 17.4192C77.5128 18.0006 77.8933 18.4646 78.4349 18.8113C78.9762 19.1583 79.6222 19.3083 80.3724 19.2617C79.2402 19.984 78.48 20.787 78.0914 21.6692C77.7032 22.5518 77.6874 23.4645 78.0444 24.4072C78.1446 24.6725 78.2769 24.9146 78.4399 25.1347C78.2888 25.4406 78.1396 25.6948 77.992 25.8933C77.7202 26.259 77.3945 26.507 77.0144 26.6372C76.6107 26.7755 76.2534 26.7678 75.9415 26.6144C75.6296 26.4615 75.3868 26.1544 75.2122 25.6941C75.0626 25.2994 74.9419 24.8086 74.8494 24.2205L74.1235 19.1561C74.0117 18.4136 73.8648 17.8018 73.6821 17.3194C73.346 16.4313 72.8683 15.8147 72.2496 15.4695C71.6309 15.1239 70.9181 15.0902 70.1116 15.3664C69.1093 15.7101 68.3464 16.3429 67.8237 17.2655C67.3006 18.188 67.0377 19.5046 67.0342 21.2151C66.9347 20.6425 66.8164 20.1751 66.6792 19.8135C66.3303 18.8924 65.8446 18.2537 65.2216 17.8975C64.5986 17.5417 63.9125 17.4918 63.1638 17.7486C62.1843 18.0842 61.4194 18.7456 60.8693 19.7335C60.3188 20.7214 60.0536 22.2213 60.0737 24.2334C60.0594 24.1266 60.0274 23.9395 59.9781 23.6718C59.9283 23.404 59.857 23.0603 59.7633 22.6399C59.6693 22.2202 59.5664 21.8622 59.4542 21.5662C59.1762 20.8318 58.7942 20.3307 58.3092 20.0633C57.8239 19.7962 57.2645 19.7713 56.6308 19.9884C55.9508 20.2214 55.3471 20.6542 54.8186 21.2874C54.29 21.9209 53.8887 22.6997 53.6135 23.6233C53.5279 23.9128 53.4817 24.1611 53.4755 24.3676C53.4689 24.5742 53.499 24.7656 53.5653 24.941C53.6359 25.1273 53.7596 25.2737 53.9369 25.3801C54.1139 25.4868 54.2827 25.5125 54.4442 25.4571C54.6401 25.39 54.7792 25.2249 54.8617 24.9612C55.1281 24.1516 55.4161 23.5294 55.7268 23.0944C56.0375 22.6597 56.3421 22.3908 56.642 22.2881C57.0221 22.1575 57.3058 22.3391 57.4924 22.8325C57.6917 23.3589 57.8887 24.0342 58.0837 24.8595C58.3883 26.1794 58.7167 27.7516 59.0687 29.5759C59.2487 30.567 59.4017 31.3414 59.5282 31.8986C59.6542 32.4562 59.7822 32.9048 59.9106 33.2445C60.1014 33.7489 60.3235 34.06 60.5764 34.1777C60.8289 34.2955 61.1685 34.2812 61.5948 34.1352C62.0443 33.9811 62.3053 33.768 62.3778 33.4954C62.4503 33.2229 62.421 32.7929 62.2899 32.206C61.67 29.4335 61.3512 27.1739 61.3342 25.4267C61.3173 23.6795 61.4931 22.3996 61.862 21.5852C62.2305 20.7716 62.6974 20.268 63.2621 20.0743C63.5963 19.9598 63.8839 19.9723 64.126 20.1124C64.3677 20.2526 64.5678 20.531 64.7255 20.9473C65.0161 21.7151 65.3982 23.5162 65.8731 26.3511C66.0508 27.405 66.2143 28.3184 66.3638 29.0909C66.513 29.8638 66.6726 30.4746 66.843 30.9239C67.0257 31.4067 67.2393 31.7049 67.4845 31.8186C67.7293 31.9331 68.0477 31.9228 68.4397 31.7886C68.8892 31.6345 69.1722 31.4104 69.2886 31.1165C69.405 30.8231 69.3792 30.333 69.2107 29.6474C68.6151 27.077 68.2948 24.9325 68.2493 23.214C68.2038 21.4954 68.3522 20.2027 68.6945 19.3358C69.0369 18.4694 69.4786 17.943 70.0203 17.7574C70.3082 17.6587 70.5665 17.6785 70.7943 17.8168C71.0226 17.9555 71.2095 18.2167 71.3545 18.6004C71.4377 18.8201 71.5044 19.0479 71.5546 19.2841C71.6051 19.5207 71.6494 19.7749 71.6872 20.0468C71.7249 20.3189 71.7508 20.5079 71.7654 20.6146L72.2134 23.861C72.4019 25.1842 72.6185 26.1691 72.8633 26.8158C73.216 27.7476 73.7739 28.3958 74.5368 28.7597C75.2993 29.1236 76.1701 29.1379 77.1497 28.8022C77.795 28.581 78.3513 28.2109 78.8185 27.6911C79.1751 27.2945 79.4935 26.788 79.7745 26.1721C80.4121 26.4512 81.2001 26.5818 82.1399 26.5616C83.2374 26.5385 84.5123 26.2781 85.9641 25.7806C87.0126 25.4212 88.0442 24.9656 89.0588 24.4131C90.0731 23.861 90.8622 23.3148 91.4262 22.7749C91.7589 22.4502 91.9651 22.1443 92.0449 21.8567C92.1247 21.5691 92.1023 21.261 91.9778 20.9319C91.8992 20.7239 91.7885 20.5695 91.6467 20.4697C91.5044 20.3696 91.3414 20.3512 91.1571 20.4147C91.0418 20.4543 90.9104 20.5365 90.7624 20.6616C90.1182 21.2294 89.3032 21.8028 88.3187 22.3816C87.3337 22.9608 86.3631 23.4142 85.407 23.7422C83.9552 24.24 82.8296 24.4304 82.0308 24.3141C81.2317 24.1982 80.7036 23.8001 80.4464 23.12C80.293 22.7147 80.2895 22.2851 80.4372 21.8317C80.5844 21.3787 80.9283 20.9297 81.4695 20.484C82.0104 20.0383 82.7548 19.641 83.7027 19.2911C84.3901 19.0435 84.5963 18.5578 84.3226 17.8341C84.2355 17.6037 84.1214 17.457 83.9803 17.3939C83.8396 17.3308 83.6399 17.3374 83.3824 17.4129C82.3678 17.7236 81.5748 17.7882 81.0046 17.6055C80.4345 17.4232 80.0517 17.0744 79.8566 16.5593C79.6034 15.8906 79.6959 15.2582 80.1342 14.6617C80.5725 14.0653 81.281 13.5998 82.2606 13.2641C82.9865 13.0154 83.5516 12.9607 83.956 13.1005C84.3604 13.2406 84.6376 13.508 84.7868 13.9028C84.8365 14.0344 84.9012 14.2912 84.9807 14.6724C85.0061 14.9115 85.0539 15.1239 85.1245 15.3103C85.2282 15.5843 85.3982 15.7585 85.6345 15.8323C85.8704 15.9064 86.1499 15.8877 86.4725 15.7769C86.9332 15.6188 87.2119 15.2978 87.3083 14.8121C87.4043 14.3272 87.3303 13.7612 87.0851 13.1141C86.7324 12.1823 86.0878 11.5455 85.1514 11.2036C84.2147 10.8621 83.0324 10.9362 81.6037 11.4259C80.5436 11.7895 79.6323 12.2872 78.8694 12.9204C78.1076 13.5543 77.5791 14.2648 77.2854 15.0528Z" fill="#5E5E5E"/>
<path d="M92.1871 20.5841C93.0529 21.5166 94.0189 22.1446 95.0856 22.4677C96.1519 22.7913 97.2282 22.7667 98.3149 22.394C99.3041 22.0547 99.9475 21.551 100.244 20.8823C100.541 20.2143 100.592 19.3816 100.398 18.3842C100.366 18.2037 100.269 17.7052 100.106 16.8887C99.7655 15.0696 99.5666 13.987 99.5092 13.6408C99.9645 13.5366 100.383 13.5417 100.765 13.6543C101.147 13.768 101.587 14.0226 102.085 14.4184C102.583 14.8142 103.299 15.4452 104.231 16.3113C105.393 17.3956 106.445 18.0808 107.388 18.3677C108.33 18.6553 109.329 18.6182 110.383 18.2566C111.47 17.8839 112.319 17.3186 112.929 16.5596C113.54 15.801 114.065 14.8407 114.505 13.6785C114.678 13.2178 114.651 12.6866 114.423 12.0847C114.301 11.7608 114.143 11.5267 113.951 11.3833C113.76 11.2395 113.558 11.2043 113.347 11.2766C113.104 11.3598 112.926 11.5432 112.813 11.8261C112.403 12.8734 112.026 13.6437 111.681 14.1363C111.336 14.6297 110.905 14.9654 110.386 15.1429C109.802 15.3432 109.205 15.3036 108.595 15.0244C107.986 14.7453 107.278 14.22 106.474 13.45C105.725 12.7303 105.055 12.2193 104.463 11.9159C103.872 11.6133 103.149 11.4944 102.294 11.5605C103.41 10.8298 104.278 10.0004 104.898 9.07228C105.518 8.14494 105.887 7.19486 106.004 6.22166C106.121 5.24884 106.017 4.32993 105.689 3.46532C105.316 2.47782 104.724 1.67776 103.915 1.06553C103.106 0.453659 102.09 0.104439 100.866 0.0178672C99.6422 -0.0679706 98.2517 0.155428 96.6943 0.689163C94.4561 1.45657 92.6697 2.63152 91.3351 4.21328C90.0005 5.79541 89.2156 7.69081 88.9797 9.89911C88.7438 12.1074 89.1166 14.5079 90.098 17.101C90.625 18.491 91.3208 19.6516 92.1871 20.5841ZM91.6493 10.3056C91.7561 8.60384 92.2645 7.17432 93.1732 6.01661C94.0822 4.85963 95.3308 4.00859 96.9206 3.46385C98.2667 3.00238 99.3935 2.92938 100.302 3.24632C101.21 3.56289 101.848 4.20741 102.216 5.1795C102.52 5.98249 102.576 6.77374 102.386 7.55362C102.196 8.33423 101.807 9.02533 101.219 9.62729C100.632 10.23 99.9089 10.7043 99.0508 11.051L98.3257 6.95752C98.3068 6.85958 98.2656 6.72569 98.2012 6.55548C97.9032 5.76826 97.2922 5.53349 96.3674 5.85043C95.2159 6.24514 94.7244 6.98026 94.8936 8.0558C95.081 9.22965 95.3316 10.6174 95.645 12.2186L95.0367 12.4273C94.7121 12.5384 94.4653 12.7453 94.2957 13.0476C94.1261 13.3499 94.1115 13.6862 94.2518 14.0564C94.3686 14.3656 94.5748 14.6088 94.8713 14.7856C95.1673 14.9632 95.5914 14.9573 96.143 14.7684L96.8007 18.4664C96.8886 18.9422 96.9021 19.3039 96.84 19.5515C96.7779 19.7994 96.6415 19.9594 96.431 20.0316C96.1554 20.1263 95.7961 20.0489 95.3535 19.7994C94.911 19.55 94.4495 19.1065 93.97 18.4686C93.49 17.8314 93.0637 17.0185 92.6897 16.0303C91.8891 13.9159 91.5421 12.008 91.6493 10.3056Z" fill="#5E5E5E"/>
<path d="M35.9428 55.5104C31.9044 51.5439 28.1064 56.2489 28.1064 56.2489C33.9251 53.2765 36.045 57.0159 36.045 57.0159L36.0639 56.9983C37.6016 52.494 42.2839 53.1866 42.2839 53.1866C38.0843 50.7949 35.9428 55.5104 35.9428 55.5104Z" fill="#5E5E5E"/>
<path d="M62.6241 74.7303L62.6356 74.712C62.9278 70.7077 66.9274 70.3621 66.9274 70.3621C62.9579 69.2169 62.2147 73.5124 62.2147 73.5124C58.0382 71.04 55.9307 75.651 55.9307 75.651C60.074 72.0697 62.6241 74.7303 62.6241 74.7303Z" fill="#5E5E5E"/>
<path d="M48.7428 80.8213L48.7601 80.8121C50.821 77.8646 54.0445 79.2612 54.0445 79.2612C51.528 76.7344 48.9875 79.7179 48.9875 79.7179C46.9209 76.0881 43.1904 78.7465 43.1904 78.7465C48.0091 77.723 48.7428 80.8213 48.7428 80.8213Z" fill="#5E5E5E"/>
<path d="M99.3503 90.1436L104.577 83.58C107.07 80.9282 109.158 78.2114 110.874 75.6726L120 64.2118L112.751 62.213L112.675 62.1587C112.648 62.1392 109.968 60.1899 110.045 57.9038C110.09 56.5543 111.132 55.233 113.14 53.9773L115.173 52.6974L113.009 51.6212C112.987 51.6105 110.878 50.5412 110.454 48.578C110.143 47.1356 110.788 45.4673 112.371 43.6196L113.398 42.4171L112.017 41.5961C111.045 41.0184 108.461 39.0555 108.183 36.9389C108.046 35.8931 108.48 34.8872 109.509 33.8638L111.372 32.0076L108.712 31.5718C108.677 31.5663 105.284 30.9882 104.005 28.8987C103.376 27.8709 103.355 26.6193 103.94 25.0727L101.239 24.1465C100.357 26.4744 100.456 28.5411 101.533 30.2887C102.646 32.0967 104.584 33.1224 106.092 33.6778C105.422 34.8267 105.168 36.0354 105.335 37.2899C105.682 39.886 107.829 41.9465 109.245 43.0458C107.753 45.165 107.216 47.2178 107.649 49.1627C108.017 50.8208 109.03 52.0438 109.952 52.8526C108.162 54.35 107.229 56.0202 107.174 57.8345C107.139 58.9596 107.46 59.9896 107.926 60.8832L106.578 60.5116C107.151 57.7476 107.444 54.9102 107.444 52.0295C107.444 43.1485 104.643 34.611 99.3438 27.3394L96.9842 28.8962C101.949 35.7082 104.573 43.7076 104.573 52.0291C104.573 54.6486 104.312 57.2296 103.806 59.7468L95.9618 57.584L79.9968 76.458L75.862 58.377C77.2224 58.059 78.5589 57.7252 79.8596 57.3796L79.614 53.2503L83.5974 56.3342C87.792 55.1024 91.5089 53.8163 94.4534 52.7195L91.0629 50.5511L96.9984 51.7459C99.8407 50.6293 101.499 49.8762 101.499 49.8762C98.7813 48.5086 96.138 47.4151 93.5729 46.56C93.0282 46.7853 92.379 47.0483 91.6354 47.3407L89.6867 46.9485C89.7048 46.9415 89.7237 46.9349 89.7418 46.928L86.8144 45.0557L91.9392 46.0872C94.3932 45.1232 95.8246 44.4728 95.8246 44.4728C65.5572 29.2395 45.8745 53.2965 45.8745 53.2965C47.5934 53.6607 49.3694 53.9043 51.1805 54.0455C52.3728 53.1747 54.1847 51.8816 54.1847 51.8816L53.0941 53.6982C52.4603 54.1523 51.5656 54.7961 50.8763 55.2994C50.1944 55.2462 49.5175 55.1787 48.8467 55.0954C45.4582 57.8811 43.6456 60.0964 43.6456 60.0964C45.6367 60.5182 47.6933 60.8003 49.7912 60.9639C51.1724 59.9551 53.271 58.4574 53.271 58.4574L51.6967 61.0795C55.7941 61.2599 60.018 61.0182 64.1926 60.4988L66.7465 54.6974L67.8895 59.9676C70.2071 59.5909 72.49 59.1389 74.7124 58.6404L78.5747 78.1403L72.1974 85.6793C69.8671 86.7439 67.6713 87.5542 65.7619 88.1646L54.5035 88.2812L62.8252 92.6615C62.5045 92.6681 62.183 92.6725 61.8611 92.6725C50.4523 92.6725 39.7266 88.4448 31.6593 80.7686C23.592 73.092 19.1495 62.8857 19.1495 52.0295H16.2783C16.2783 53.6094 16.3697 55.1757 16.5439 56.7248C15.0544 54.0059 12.0444 52.7616 11.8971 52.7022L10.7715 55.2157C10.8008 55.2278 13.6986 56.4475 14.3558 58.8642C14.7988 60.4914 14.1488 62.3993 12.4241 64.535L10.8829 66.4436L13.3952 66.7242C13.4195 66.7268 15.8708 67.0485 17.1249 68.8903C18.104 70.3287 18.1622 72.3862 17.2983 75.0054L16.7864 76.5567L18.4807 76.7691C18.515 76.7735 21.9397 77.2551 23.0696 79.2833C23.7038 80.4216 23.5199 81.9579 22.5226 83.8492L20.9798 86.7758L24.2512 85.7604C24.2828 85.7505 27.4712 84.8151 29.3525 86.1569C30.4569 86.9449 30.98 88.465 30.9079 90.6763L30.8316 93.0166L33.0105 91.9282C33.0309 91.918 35.1218 90.922 37.025 91.6986C38.4213 92.2683 39.4679 93.6897 40.136 95.9226L40.5805 97.4086L42.0758 96.8074C42.1132 96.7924 45.8714 95.3401 48.2037 96.5151C49.1566 96.9952 49.7569 97.8815 50.0383 99.2234L50.5649 101.736L52.4638 99.9196C52.4873 99.8968 54.9029 97.6592 57.3824 97.8507C58.6113 97.9475 59.6846 98.632 60.6637 99.9434L62.3129 98.8286L83.538 110.001L92.8031 98.3661L116.822 94.9615L99.3503 90.1436ZM80.3704 50.049C83.3391 49.177 86.0299 48.2742 88.3039 47.4551L89.4392 48.1814C86.8969 49.1286 83.6876 50.239 80.0662 51.3024L77.0239 48.947L76.931 47.3865L80.3704 50.049ZM66.504 54.4384L65.5172 49.8883L63.3121 54.8973C59.7081 55.3456 56.0613 55.5543 52.5232 55.3988L53.2676 54.1593C56.6677 54.2799 60.1611 54.0742 63.6159 53.6442L65.8209 48.6352L66.8078 53.1853C70.2576 52.6248 73.6226 51.8743 76.7702 51.0489L76.8388 52.2052C73.5864 53.069 70.0899 53.8559 66.504 54.4384ZM82.9787 97.2538L84.6802 96.9299L84.6348 96.7311C89.1189 95.2161 93.0775 93.0801 96.5497 90.6161L97.2455 90.8079L92.1119 97.2549L77.9602 99.2608L76.7448 98.621C78.9221 98.3015 80.9987 97.8378 82.9787 97.2538ZM97.7833 89.7115C98.0778 89.4885 98.3689 89.2636 98.6561 89.0362L98.0582 89.7874L97.7833 89.7115ZM115.278 68.1629C116.062 66.5995 116.601 65.3644 116.915 64.6054L117.895 64.8758L115.278 68.1629ZM96.3959 58.9794C93.4846 69.0921 87.3922 75.9745 80.9509 80.6233L80.3419 77.9591L96.3959 58.9794ZM78.882 79.6842L79.2941 81.7656C77.8427 82.7227 76.3863 83.5726 74.9561 84.3254L78.882 79.6842ZM61.2277 89.4063C60.6537 89.5362 60.1734 89.6337 59.8037 89.7038L59.2771 89.4265L61.2277 89.4063ZM15.8597 64.5794C16.6071 63.374 17.0744 62.1979 17.2652 61.0564C17.6838 62.9485 18.2316 64.8057 18.9093 66.616C17.9683 65.5922 16.8296 64.9623 15.8597 64.5794ZM21.4725 74.7449C21.1098 74.6066 20.7601 74.4936 20.4409 74.403C20.7485 73.0905 20.8426 71.8785 20.7293 70.7689C21.6545 72.6037 22.7161 74.3796 23.9135 76.0827C23.2292 75.5538 22.4104 75.1029 21.4725 74.7449ZM26.041 82.7212C26.4331 81.2748 26.4053 79.9509 25.9582 78.7609C27.09 80.1321 28.3143 81.448 29.63 82.6999C30.0367 83.0869 30.4515 83.4629 30.8706 83.8331C29.3347 82.8313 27.509 82.6453 26.041 82.7212ZM52.1577 96.6838C51.5648 95.5419 50.6921 94.6765 49.5475 94.0995C47.1447 92.889 44.1671 93.3611 42.4216 93.8214C41.4706 91.5108 40.04 89.9551 38.1568 89.1866C36.5374 88.5259 34.9198 88.6051 33.7047 88.8502C33.5077 87.1962 32.953 85.8561 32.0475 84.8411C39.0127 90.5893 47.5252 94.1384 56.6418 95.1215C54.8689 95.2304 53.2834 95.9777 52.1577 96.6838ZM58.6896 95.2994C59.7409 95.3676 60.7987 95.4043 61.8623 95.4043C62.582 95.4043 63.299 95.3874 64.0133 95.3559L62.2408 97.4512C61.1938 96.3404 60.0053 95.62 58.6896 95.2994ZM83.1945 108.453L63.3726 98.0198L65.7161 95.2495C66.2901 95.204 66.8625 95.1508 67.4319 95.0852L77.7247 100.503L91.0271 98.6173L83.1945 108.453ZM98.5377 91.1641L110.946 94.5852L93.8882 97.0029L98.5377 91.1641Z" fill="#5E5E5E"/>
<path d="M19.5752 26.871L20.0208 29.5702C22.2567 29.236 23.9086 28.3303 24.9386 26.8773L27.1279 28.371C31.0044 23.227 36.1589 18.9564 42.0347 16.0206C48.1032 12.9884 54.9592 11.3858 61.862 11.3858C66.6487 11.3858 71.3479 12.1334 75.8282 13.6076L76.7668 11.0255C71.984 9.45148 66.969 8.65326 61.862 8.65326C54.4963 8.65326 47.1788 10.3641 40.6997 13.6014C34.7881 16.5555 29.5619 20.7762 25.5173 25.8491C26.1344 24.436 26.146 22.9152 25.9972 21.7384C27.4752 21.7079 28.5554 21.2146 29.2728 20.719C31.277 19.3342 32.0854 16.8643 32.4065 15.2855C34.8081 15.4675 36.7503 14.9653 38.1913 13.787C39.3882 12.808 39.9815 11.5512 40.2749 10.5065C42.286 11.1723 44.077 11.1319 45.6159 10.3832C47.1911 9.61691 48.1448 8.24938 48.7103 7.03408C50.0576 8.09678 51.4979 8.61254 53.0117 8.56339C55.3224 8.49222 57.1608 7.08507 58.2298 6.01796C60.4275 7.66942 62.6214 8.3807 64.7663 8.1375C66.4467 7.94601 67.7551 7.19108 68.6598 6.46073C70.0781 8.46141 71.8001 9.6657 73.7966 10.0479C77.5066 10.7577 80.6249 8.25378 80.7556 8.14667L78.8848 6.07372C78.8632 6.09133 76.6774 7.81102 74.3629 7.36936C72.7746 7.06526 71.378 5.78723 70.2122 3.57122L69.0927 1.42674L67.7281 3.43293C67.7157 3.45054 66.466 5.20507 64.3997 5.42737C62.7717 5.60125 60.9726 4.81257 59.0494 3.08004L57.8135 1.96635L56.8682 3.31334C56.8509 3.33755 55.0884 5.76559 52.9188 5.83235C51.6925 5.865 50.4385 5.10786 49.1984 3.56645L47.1282 0.999023L46.6367 4.20437C46.5161 4.99231 45.8607 7.20135 44.3002 7.95408C43.1942 8.48745 41.6785 8.27616 39.7953 7.32534L37.6099 6.22229L37.6878 8.57512C37.6886 8.59493 37.714 10.5747 36.3197 11.7148C35.2834 12.5622 33.6412 12.7955 31.4389 12.4088L29.8379 12.1308L29.745 13.6773C29.6864 14.648 29.1837 17.4091 27.5801 18.5114C26.801 19.047 25.8091 19.1508 24.547 18.8287L21.9433 18.1677L22.8188 20.5957C22.8288 20.6236 23.8049 23.3895 22.6488 25.2152C22.0859 26.1044 21.0806 26.6458 19.5752 26.871Z" fill="#5E5E5E"/>
</g>
<defs>
<clipPath id="clip0_1417_12876">
<rect width="120" height="110" fill="white"/>
</clipPath>
</defs>
</svg>
