<svg xmlns="http://www.w3.org/2000/svg" version="1.1" xmlns:xlink="http://www.w3.org/1999/xlink" xmlns:svgjs="http://svgjs.com/svgjs" width="512" height="512" x="0" y="0" viewBox="0 0 682.667 682.667" style="enable-background:new 0 0 512 512" xml:space="preserve" class=""><g><defs><clipPath id="a" clipPathUnits="userSpaceOnUse"><path d="M0 512h512V0H0Z" fill="#ff2f00" data-original="#000000" class=""></path></clipPath></defs><g clip-path="url(#a)" transform="matrix(1.33333 0 0 -1.33333 0 682.667)"><path d="m0 0-87.701 197.579-76.986-76.986L-42.57-45.283c4.695-6.378 13.966-7.078 19.566-1.478l17.578 17.578A26.226 26.226 0 0 1 0 0Z" style="stroke-width:15;stroke-linecap:round;stroke-linejoin:round;stroke-miterlimit:10;stroke-dasharray:none;stroke-opacity:1" transform="translate(457.406 100.054)" fill="none" stroke="#ff2f00" stroke-width="15" stroke-linecap="round" stroke-linejoin="round" stroke-miterlimit="10" stroke-dasharray="none" stroke-opacity="" data-original="#000000" class=""></path><path d="m0 0 197.579-87.701-76.986-76.986L-45.283-42.57c-6.377 4.695-7.077 13.966-1.478 19.566l17.577 17.578A26.226 26.226 0 0 0 0 0Z" style="stroke-width:15;stroke-linecap:round;stroke-linejoin:round;stroke-miterlimit:10;stroke-dasharray:none;stroke-opacity:1" transform="translate(100.054 457.406)" fill="none" stroke="#ff2f00" stroke-width="15" stroke-linecap="round" stroke-linejoin="round" stroke-miterlimit="10" stroke-dasharray="none" stroke-opacity="" data-original="#000000" class=""></path><path d="m0 0-122.117 165.876-23.374-23.374L-23.374-23.374c4.695-6.377 13.967-7.078 19.566-1.478L13.771-7.274a26.302 26.302 0 0 1 3.077 3.732C11.306-6.728 3.997-5.43 0 0Z" style="stroke-width:15;stroke-linecap:round;stroke-linejoin:round;stroke-miterlimit:10;stroke-dasharray:none;stroke-opacity:1" transform="translate(438.21 78.145)" fill="none" stroke="#ff2f00" stroke-width="15" stroke-linecap="round" stroke-linejoin="round" stroke-miterlimit="10" stroke-dasharray="none" stroke-opacity="" data-original="#000000" class=""></path><path d="m0 0-3.832 92.422A233.886 233.886 0 0 0-22.14 80.644l-52.375-30.296 22.803-70.689c3.433-10.644 14.454-16.878 25.346-14.337C-10.39-30.95.68-16.391 0 0Z" style="stroke-width:15;stroke-linecap:round;stroke-linejoin:round;stroke-miterlimit:10;stroke-dasharray:none;stroke-opacity:1" transform="translate(206.408 42.745)" fill="none" stroke="#ff2f00" stroke-width="15" stroke-linecap="round" stroke-linejoin="round" stroke-miterlimit="10" stroke-dasharray="none" stroke-opacity="" data-original="#000000" class=""></path><path d="M0 0a233.681 233.681 0 0 0 11.778 18.307l-92.423 3.833c-16.39.679-30.949-10.39-34.677-26.366l.001-.001c-2.542-10.891 3.691-21.912 14.336-25.346l70.689-22.802z" style="stroke-width:15;stroke-linecap:round;stroke-linejoin:round;stroke-miterlimit:10;stroke-dasharray:none;stroke-opacity:1" transform="translate(123.389 184.269)" fill="none" stroke="#ff2f00" stroke-width="15" stroke-linecap="round" stroke-linejoin="round" stroke-miterlimit="10" stroke-dasharray="none" stroke-opacity="" data-original="#000000" class=""></path><path d="M0 0v0c-6.295 6.295-16.501 6.295-22.796 0l-59.515-59.514c-6.293-6.295-6.293-16.501.001-22.796 6.295-6.294 16.5-6.294 22.795 0L0-22.795C6.295-16.5 6.295-6.294 0 0Z" style="stroke-width:15;stroke-linecap:round;stroke-linejoin:round;stroke-miterlimit:10;stroke-dasharray:none;stroke-opacity:1" transform="translate(157.174 157.173)" fill="none" stroke="#ff2f00" stroke-width="15" stroke-linecap="round" stroke-linejoin="round" stroke-miterlimit="10" stroke-dasharray="none" stroke-opacity="" data-original="#000000" class=""></path><path d="m0 0-.636 3.315a40.421 40.421 0 0 1-32.086 32.086l-3.314.635" style="stroke-width:15;stroke-linecap:round;stroke-linejoin:round;stroke-miterlimit:10;stroke-dasharray:none;stroke-opacity:1" transform="translate(467.296 431.26)" fill="none" stroke="#ff2f00" stroke-width="15" stroke-linecap="round" stroke-linejoin="round" stroke-miterlimit="10" stroke-dasharray="none" stroke-opacity="" data-original="#000000" class=""></path><path d="m0 0 39.184 39.183c5.405 5.405 5.405 14.251 0 19.656L15.159 82.863c-5.405 5.406-14.251 5.406-19.656 0l-22.359-22.359Z" style="stroke-width:15;stroke-linecap:round;stroke-linejoin:round;stroke-miterlimit:10;stroke-dasharray:none;stroke-opacity:1" transform="translate(418.408 187.911)" fill="none" stroke="#ff2f00" stroke-width="15" stroke-linecap="round" stroke-linejoin="round" stroke-miterlimit="10" stroke-dasharray="none" stroke-opacity="" data-original="#000000" class=""></path><path d="m0 0 22.359 22.359c5.406 5.406 5.406 14.251 0 19.657L-1.665 66.04c-5.405 5.405-14.25 5.405-19.656 0l-39.183-39.184Z" style="stroke-width:15;stroke-linecap:round;stroke-linejoin:round;stroke-miterlimit:10;stroke-dasharray:none;stroke-opacity:1" transform="translate(248.415 391.552)" fill="none" stroke="#ff2f00" stroke-width="15" stroke-linecap="round" stroke-linejoin="round" stroke-miterlimit="10" stroke-dasharray="none" stroke-opacity="" data-original="#000000" class=""></path><path d="m0 0 49.491 49.492c12.527 12.526 19.726 29.602 19.155 47.307-.353 10.909-3.45 22.452-12.458 31.461-9.009 9.009-20.552 12.106-31.461 12.458-17.706.571-34.782-6.628-47.308-19.154l-252.807-252.807a233.71 233.71 0 0 1-37.046-48.238l-40.178-69.461a23.042 23.042 0 0 1-3.087-11.889l54.255 54.255c6.295 6.295 16.501 6.295 22.796 0 6.294-6.295 6.294-16.501 0-22.795l-54.256-54.256a23.052 23.052 0 0 1 11.889 3.087l69.461 40.179a233.734 233.734 0 0 1 48.239 37.046L-24.749-24.749" style="stroke-width:15;stroke-linecap:round;stroke-linejoin:round;stroke-miterlimit:10;stroke-dasharray:none;stroke-opacity:1" transform="translate(435.822 363.75)" fill="none" stroke="#ff2f00" stroke-width="15" stroke-linecap="round" stroke-linejoin="round" stroke-miterlimit="10" stroke-dasharray="none" stroke-opacity="" data-original="#000000" class=""></path><path d="m0 0-89.208 65.674c-5.43 3.998-6.728 11.306-3.541 16.848a26.126 26.126 0 0 1-3.733-3.078l-17.578-17.577c-5.599-5.6-4.899-14.871 1.478-19.567L53.294-79.817l23.374 23.374-48.159 35.455" style="stroke-width:15;stroke-linecap:round;stroke-linejoin:round;stroke-miterlimit:10;stroke-dasharray:none;stroke-opacity:1" transform="translate(167.352 372.536)" fill="none" stroke="#ff2f00" stroke-width="15" stroke-linecap="round" stroke-linejoin="round" stroke-miterlimit="10" stroke-dasharray="none" stroke-opacity="" data-original="#000000" class=""></path></g></g></svg>