<svg width="18" height="18" viewBox="0 0 18 18" fill="none" xmlns="http://www.w3.org/2000/svg">
<path d="M4.95 1.90059C4.90078 1.95302 3.97266 3.03771 2.88633 4.31247C1.32187 6.15414 0.914062 6.65553 0.914062 6.72762C0.914062 6.80627 0.966798 6.86198 1.21992 7.0586C1.39219 7.1864 1.75078 7.50427 2.02148 7.7566C3.11836 8.78886 3.76172 9.79818 3.98672 10.8304C4.06055 11.1581 4.06055 11.8037 3.98672 12.2035C3.76875 13.4029 2.91445 14.8415 1.71563 16.0343C1.51523 16.2309 1.44141 16.3293 1.44141 16.3915C1.44141 16.6045 1.60313 16.6078 2.12344 16.4046C3.6 15.8246 5.08359 14.9038 6.16992 13.8879C7.57617 12.5771 8.39883 11.1418 8.73984 9.41477C8.83828 8.92649 8.83125 7.9991 8.72578 7.52066C8.32149 5.65932 7.2 3.74554 5.58984 2.16275C5.18906 1.76951 5.11172 1.74002 4.95 1.90059Z" fill="#90B956"/>
<path d="M13.2117 1.90069C13.1625 1.95312 12.2344 3.03781 11.148 4.31256C9.58359 6.15424 9.17578 6.65563 9.17578 6.72772C9.17578 6.80637 9.22852 6.86208 9.48516 7.0587C9.65391 7.1865 10.0125 7.50437 10.2832 7.7567C11.3801 8.78896 12.0234 9.79828 12.2484 10.8305C12.3223 11.1582 12.3223 11.8038 12.2484 12.2036C12.1816 12.5608 12.0023 13.1113 11.8125 13.5177C11.4434 14.3107 10.698 15.3266 9.93164 16.0803C9.76992 16.2409 9.70313 16.3326 9.70313 16.3949C9.70313 16.6046 9.86484 16.6079 10.3852 16.4047C12.2098 15.6903 14.0449 14.4385 15.1594 13.1507C15.968 12.2167 16.5832 11.0796 16.8715 9.98834C17.0297 9.39193 17.0648 9.11994 17.0648 8.48092C17.0648 7.92711 17.0578 7.81241 16.9699 7.44538C16.5445 5.5906 15.4441 3.72598 13.8516 2.16285C13.4508 1.76961 13.3734 1.74012 13.2117 1.90069Z" fill="#90B956"/>
</svg>
