<svg width="16" height="16" viewBox="0 0 16 16" fill="none" xmlns="http://www.w3.org/2000/svg">
<path d="M4.4 1.05273C4.35625 1.10273 3.53125 2.1371 2.56562 3.35273C1.175 5.10898 0.8125 5.5871 0.8125 5.65585C0.8125 5.73085 0.859375 5.78398 1.08437 5.97148C1.2375 6.09335 1.55625 6.39647 1.79688 6.6371C2.77188 7.62148 3.34375 8.58398 3.54375 9.56835C3.60938 9.88085 3.60938 10.4965 3.54375 10.8777C3.35 12.0215 2.59062 13.3934 1.525 14.5309C1.34688 14.7184 1.28125 14.8121 1.28125 14.8715C1.28125 15.0746 1.425 15.0777 1.8875 14.884C3.2 14.3309 4.51875 13.4527 5.48438 12.484C6.73438 11.234 7.46562 9.86523 7.76875 8.21835C7.85625 7.75273 7.85 6.86835 7.75625 6.4121C7.39688 4.6371 6.4 2.8121 4.96875 1.30273C4.6125 0.927726 4.54375 0.8996 4.4 1.05273Z" fill="white"/>
<path d="M11.7438 1.05309C11.7 1.10309 10.875 2.13746 9.90937 3.35309C8.51875 5.10934 8.15625 5.58746 8.15625 5.65621C8.15625 5.73121 8.20313 5.78434 8.43125 5.97184C8.58125 6.09371 8.9 6.39684 9.14063 6.63746C10.1156 7.62184 10.6875 8.58434 10.8875 9.56871C10.9531 9.88121 10.9531 10.4968 10.8875 10.8781C10.8281 11.2187 10.6688 11.7437 10.5 12.1312C10.1719 12.8875 9.50937 13.8562 8.82813 14.575C8.68438 14.7281 8.625 14.8156 8.625 14.875C8.625 15.075 8.76875 15.0781 9.23125 14.8843C10.8531 14.2031 12.4844 13.0093 13.475 11.7812C14.1938 10.8906 14.7406 9.80621 14.9969 8.76559C15.1375 8.19684 15.1687 7.93746 15.1687 7.32809C15.1687 6.79996 15.1625 6.69059 15.0844 6.34059C14.7063 4.57184 13.7281 2.79371 12.3125 1.30309C11.9563 0.928088 11.8875 0.899963 11.7438 1.05309Z" fill="white"/>
</svg>
