<svg width="60" height="60" viewBox="0 0 60 60" fill="none" xmlns="http://www.w3.org/2000/svg">
<path d="M8.78891 10.3945C6.72641 10.7344 5.03891 12.1875 4.33578 14.2383C4.04282 15.0937 4.01938 16.6758 4.28891 17.5898C4.80453 19.3594 6.23422 20.7891 8.07407 21.3867C8.9061 21.6563 10.5467 21.6563 11.3788 21.3867C15.4569 20.0625 16.6873 14.9883 13.6756 11.9531C12.492 10.7461 10.4764 10.1133 8.78891 10.3945Z" fill="white"/>
<path d="M44.8828 19.6289C44.8828 23.9062 44.8477 26.0156 44.7656 26.0156C44.4844 26.0156 43.5703 24.9961 43.2188 24.293C42.8789 23.6016 42.8555 23.4258 42.7969 22.0898L42.7383 20.625H40.9219H39.1055L39.1758 22.3008C39.293 24.9961 39.9375 26.5898 41.5078 28.0664C42.3984 28.9102 43.0781 29.3438 44.1094 29.7188L44.8242 29.9766L44.8594 33.7383C44.8711 35.8008 44.8594 37.5 44.8242 37.5C44.7891 37.5 44.543 37.3242 44.2734 37.1133C43.9922 36.9141 43.4414 36.5859 43.043 36.4102C40.5352 35.2852 37.7578 35.6367 35.5781 37.3359C35.2148 37.6172 34.9219 37.8984 34.9336 37.9453C34.9453 37.9922 36.7969 39.8203 39.0703 42.0117L43.1953 45.9961L40.8047 46.0312L38.4258 46.0547L33.3047 41.0859C30.4805 38.3555 27.9141 35.8945 27.5977 35.6367C26.2148 34.4883 24.3984 33.8555 22.4883 33.8555C20.6484 33.8438 19.1602 34.2773 17.7539 35.2383C17.3672 35.4961 14.6484 38.0391 11.7188 40.8867L6.38672 46.0547H3.19922H0V47.8711V49.6875H30H60V47.8711V46.0547H56.8125H53.6133L51.0703 43.582L48.5156 41.1094V33.293V25.4648L49.0195 25.3242C50.7422 24.8086 52.5586 23.2734 53.4023 21.6211C54.0117 20.4258 54.2578 19.2656 54.2578 17.5195V16.1719H52.4531H50.6484L50.6016 17.6602C50.5664 18.9258 50.5195 19.2422 50.2969 19.6992C49.9688 20.3672 49.3594 21.082 48.8789 21.3633L48.5156 21.5742V17.4141V13.2422H46.6992H44.8828V19.6289Z" fill="white"/>
</svg>
