<svg width="370" height="19" viewBox="0 0 370 19" fill="none" xmlns="http://www.w3.org/2000/svg">
<path d="M184.946 1.48527C183.9 1.8126 183.054 2.64911 182.735 3.6602L182.601 4.07482L182 4.09664L181.391 4.11846L181.02 3.79113C180.508 3.34015 179.944 2.98372 179.15 2.62002C176.649 1.45618 173.62 1.69622 171.305 3.23831C170.629 3.68202 169.746 4.54036 169.308 5.16592C167.074 8.33011 167.408 12.4836 170.117 15.1677C171.668 16.7098 173.613 17.4954 175.847 17.4954C178.823 17.4954 181.599 15.8151 182.905 13.2255L183.21 12.6291L183.915 12.4981C184.909 12.3163 187.091 12.3163 188.086 12.4981L188.791 12.6291L189.073 13.1891C190.401 15.8296 193.14 17.4954 196.153 17.4954C199.894 17.4954 203.004 15.124 203.924 11.5743C204.585 9.01387 203.85 6.2643 201.979 4.32214C201.297 3.61656 200.643 3.15102 199.693 2.69276C198.758 2.24177 198.053 2.04537 196.97 1.92899C194.81 1.69622 192.427 2.45999 190.891 3.87115C190.631 4.11846 190.617 4.11846 190.008 4.09664L189.399 4.07482L189.266 3.6602C188.939 2.62002 188.049 1.76896 186.972 1.46345C186.431 1.3107 185.481 1.31797 184.946 1.48527ZM186.868 2.72913C187.581 3.03464 188.108 3.74022 188.197 4.51126C188.227 4.73675 188.308 4.99862 188.39 5.09318C188.516 5.25321 188.59 5.27503 189.051 5.27503C189.333 5.27503 189.563 5.28958 189.563 5.30413C189.563 5.32595 189.444 5.5369 189.295 5.78421C188.939 6.38795 188.642 7.10081 188.442 7.87185C188.308 8.38103 188.271 8.71564 188.271 9.53032C188.264 10.0904 188.293 10.7233 188.323 10.9415L188.383 11.3343L188.138 11.2834C188.004 11.2543 187.47 11.2033 186.95 11.1597C186.045 11.0797 184.575 11.1452 183.855 11.2834C183.61 11.3343 183.603 11.3343 183.655 11.1233C183.759 10.6505 183.788 9.28301 183.707 8.65744C183.595 7.83548 183.195 6.64982 182.786 5.93697C182.616 5.63146 182.467 5.36232 182.452 5.33322C182.438 5.29685 182.66 5.27503 182.942 5.27503C183.41 5.27503 183.484 5.25321 183.61 5.09318C183.692 4.99862 183.774 4.73675 183.803 4.51126C183.981 3.03464 185.51 2.13993 186.868 2.72913ZM177.532 3.31105C180.76 4.21303 182.831 7.159 182.504 10.3523C182.148 13.7347 179.268 16.2879 175.795 16.2879C173.925 16.2879 172.359 15.6332 171.008 14.3021C169.746 13.0582 169.078 11.4652 169.078 9.71945C169.078 7.95914 169.709 6.42432 170.949 5.15865C171.928 4.15483 173.079 3.51472 174.407 3.23104C175.268 3.04919 176.73 3.08556 177.532 3.31105ZM197.541 3.23104C198.907 3.50745 200.042 4.12574 201.037 5.1441C204.273 8.4465 203.211 13.7929 198.944 15.7205C197.675 16.2952 196.02 16.4552 194.654 16.1278C192.747 15.6623 191.166 14.4548 190.238 12.7527C188.709 9.94494 189.511 6.38795 192.108 4.46762C193.014 3.79841 194.075 3.34015 195.07 3.17284C195.76 3.06373 196.829 3.08556 197.541 3.23104Z" fill="white"/>
<path d="M185.295 3.44929C184.523 3.90755 184.323 4.76588 184.805 5.50783C185.072 5.91517 185.458 6.11157 186 6.11157C186.542 6.11157 186.928 5.91517 187.195 5.50783C187.447 5.11503 187.522 4.72951 187.41 4.33671C187.321 4.00211 186.972 3.57294 186.661 3.41292C186.356 3.26016 185.57 3.28198 185.295 3.44929Z" fill="white"/>
<path d="M174.637 4.21295C172.477 4.65667 170.815 6.24968 170.258 8.40278C170.028 9.28294 170.08 10.5777 170.377 11.4433C171.008 13.2764 172.566 14.6875 174.474 15.1458C175.209 15.3204 176.515 15.2985 177.264 15.1021C179.268 14.5784 180.864 12.9781 181.354 10.9996C181.517 10.3668 181.525 9.10109 181.369 8.4537C180.901 6.47517 179.439 4.94763 177.428 4.32934C176.76 4.12567 175.357 4.06747 174.637 4.21295ZM176.886 5.46408C177.665 5.64593 178.266 5.99509 178.912 6.62065C179.595 7.28258 179.921 7.82086 180.137 8.66465C180.745 10.9923 179.246 13.3709 176.797 13.9747C176.144 14.1347 175.008 14.0838 174.355 13.8583C173.746 13.6473 172.878 13.0727 172.455 12.5999C171.72 11.7779 171.349 10.7887 171.349 9.67573C171.349 9.05744 171.379 8.86104 171.572 8.33004C171.846 7.559 172.225 6.99162 172.804 6.48244C173.242 6.08965 173.984 5.66048 174.511 5.50045C175.194 5.28223 176.077 5.26768 176.886 5.46408Z" fill="white"/>
<path d="M175.216 6.3735C173.903 6.5699 172.752 7.64645 172.448 8.96305C172.248 9.8432 172.426 10.2942 172.968 10.2942C173.368 10.2869 173.606 9.99596 173.606 9.51587C173.606 9.36312 173.702 9.04306 173.814 8.80302C174.148 8.11926 174.801 7.63918 175.513 7.55916C176.018 7.50097 176.248 7.39914 176.344 7.19546C176.463 6.92633 176.448 6.75902 176.263 6.55535C176.062 6.32986 175.795 6.28621 175.216 6.3735Z" fill="white"/>
<path d="M195.188 4.18386C193.355 4.48937 191.626 5.84961 190.921 7.54445C190.505 8.54826 190.386 9.98852 190.646 10.9996C191.136 12.9781 192.732 14.5784 194.735 15.1021C195.485 15.2985 196.791 15.3204 197.526 15.1458C199.433 14.6875 201 13.2764 201.623 11.4433C201.786 10.956 201.838 10.665 201.86 9.96669C201.935 8.22821 201.43 6.94071 200.213 5.74777C199.344 4.89671 198.461 4.43118 197.311 4.21296C196.71 4.10385 195.76 4.0893 195.188 4.18386ZM197.311 5.46408C198.031 5.63866 198.743 6.04601 199.359 6.65702C200.242 7.52263 200.658 8.50462 200.651 9.7121C200.643 11.2033 199.931 12.498 198.662 13.3346C197.912 13.8292 197.341 14.011 196.428 14.0547C195.878 14.0838 195.559 14.062 195.203 13.9747C193.511 13.5601 192.175 12.2289 191.826 10.6141C191.373 8.51189 192.546 6.41698 194.624 5.60956C195.455 5.28951 196.361 5.23859 197.311 5.46408Z" fill="white"/>
<path d="M195.611 6.37336C194.068 6.59886 192.754 8.0973 192.754 9.62484C192.754 10.2068 193.325 10.4977 193.748 10.1268C193.897 10.0031 193.956 9.85761 194.008 9.47209C194.09 8.8829 194.327 8.45373 194.787 8.06093C195.136 7.75542 195.715 7.52993 196.138 7.52993C196.91 7.52993 197.044 6.4461 196.279 6.33699C196.153 6.32245 195.856 6.33699 195.611 6.37336Z" fill="white"/>
<rect x="215" y="8.45581" width="155" height="1.93111" rx="0.965557" fill="url(#paint0_linear_1417_10411)"/>
<rect y="8.45581" width="157" height="1.93111" rx="0.965557" fill="url(#paint1_linear_1417_10411)"/>
<defs>
<linearGradient id="paint0_linear_1417_10411" x1="215" y1="9.42136" x2="370" y2="9.42135" gradientUnits="userSpaceOnUse">
<stop stop-color="white"/>
<stop offset="1" stop-color="white" stop-opacity="0"/>
</linearGradient>
<linearGradient id="paint1_linear_1417_10411" x1="-2.0562e-07" y1="9.42136" x2="157" y2="9.42135" gradientUnits="userSpaceOnUse">
<stop stop-color="white" stop-opacity="0"/>
<stop offset="1" stop-color="white"/>
</linearGradient>
</defs>
</svg>
