<svg width="30" height="38" viewBox="0 0 30 38" fill="none" xmlns="http://www.w3.org/2000/svg">
<path d="M0 16.5C0 14.2909 1.79086 12.5 4 12.5H26C28.2091 12.5 30 14.2909 30 16.5V34C30 36.2091 28.2091 38 26 38H16L3.97805 37.934C1.77751 37.9219 0 36.1346 0 33.9341V16.5Z" fill="white"/>
<path d="M25.1417 9.85351H23.8005V4.15851C23.8005 2.77081 22.648 1.64225 21.232 1.64225H20.4142V0.328451H21.232C23.3881 0.328451 25.1417 2.0469 25.1417 4.15851V9.85351Z" fill="#D55437"/>
<path d="M9.58645 0.329435V1.64324H8.7683C7.3533 1.64324 6.19984 2.76982 6.19984 4.15917V9.8545H4.85861V4.15917C4.85861 2.04723 6.61227 0.329435 8.7683 0.329435H9.58645V0.329435Z" fill="#D55437"/>
<path d="M18.421 1.9707H11.5794C11.0238 1.9707 10.5735 1.52959 10.5735 0.985351C10.5735 0.441109 11.0238 0 11.5794 0H18.421C18.9766 0 19.4269 0.441109 19.4269 0.985351C19.4269 1.52959 18.9766 1.9707 18.421 1.9707Z" fill="#D55437"/>
<path d="M15.8933 37.9928H4.18775C3.97315 37.9928 3.76526 37.9764 3.56072 37.9436C3.14494 37.8812 2.74927 37.7564 2.38379 37.5856L11.0448 29.1017L15.8665 37.9436L15.8933 37.9928Z" fill="#D55437"/>
<path d="M7.09512 25.2358L0 32.1858V21.5211L7.09512 25.2358Z" fill="#D55437"/>
<path d="M30 12.6956V33.8905C30 35.9367 28.471 37.6348 26.4726 37.9436C26.258 37.9764 26.04 37.9928 25.8154 37.9928H19.297L19.2903 37.9436L18.8074 34.3996L20.0246 33.2073C20.4538 32.7836 20.4538 32.1004 20.0246 31.68C19.5954 31.2596 18.8946 31.2596 18.4654 31.68L18.4386 31.7063L17.2549 23.0188L20.551 19.7901C21.1881 19.1694 21.7414 18.4763 22.1974 17.7373C22.6568 16.9983 23.0189 16.21 23.2704 15.3955C23.4917 14.6926 23.3039 14.0521 22.8848 13.6382C22.4623 13.2277 21.8084 13.0438 21.0875 13.2572C20.2593 13.5069 19.4546 13.8616 18.7001 14.3083C17.9457 14.7583 17.2382 15.3002 16.6011 15.9243L13.305 19.1529L4.43948 17.9902L4.4663 17.9672C4.8955 17.5435 4.8955 16.8603 4.4663 16.4399C4.03375 16.0162 3.33631 16.0162 2.90712 16.4399L1.68995 17.6322L0 17.4089V12.6956C0 10.4293 1.87437 8.59653 4.188 8.59653H25.8154C28.1256 8.59653 30 10.4293 30 12.6956Z" fill="#D55437"/>
</svg>
