<svg xmlns="http://www.w3.org/2000/svg" version="1.1" xmlns:xlink="http://www.w3.org/1999/xlink" xmlns:svgjs="http://svgjs.com/svgjs" width="512" height="512" x="0" y="0" viewBox="0 0 64 64" style="enable-background:new 0 0 512 512" xml:space="preserve" class=""><g><g data-name="Layer 32"><path d="M36 43H16a1 1 0 0 0-1 1 5.006 5.006 0 0 0 5 5h12a5.006 5.006 0 0 0 5-5 1 1 0 0 0-1-1Zm-4 4H20a3.006 3.006 0 0 1-2.829-2h17.658A3.006 3.006 0 0 1 32 47Z" fill="#ff2f00" data-original="#000000" class=""></path><path d="M51 34.143A3.144 3.144 0 0 0 47.861 31h-3.915l-.928-3.4A6.254 6.254 0 0 0 37 23h-5.382L29.9 19.553A1 1 0 0 0 29 19h-7a1 1 0 0 0-.895.553L19.382 23H15a6.254 6.254 0 0 0-6.018 4.6L8.054 31H4.139a3.142 3.142 0 0 0-.439 6.253l.557.079-.133.133A10.584 10.584 0 0 0 1 45v8a3.987 3.987 0 0 0 2 3.444V60a3 3 0 0 0 3 3h4a3 3 0 0 0 3-3v-3h26v3a3 3 0 0 0 3 3h4a3 3 0 0 0 3-3v-3.556A3.987 3.987 0 0 0 51 53v-8a10.584 10.584 0 0 0-3.121-7.534l-.133-.133.557-.079A3.158 3.158 0 0 0 51 34.143ZM41.854 47H49v2.047a11.4 11.4 0 0 0-3.228.766l-1.286.516A3.935 3.935 0 0 0 42 54a2.961 2.961 0 0 0 .185 1H35.9a5.009 5.009 0 0 0-4.9-4H21a5.009 5.009 0 0 0-4.9 4H9.816A2.966 2.966 0 0 0 10 54a3.936 3.936 0 0 0-2.484-3.671l-1.289-.516A11.365 11.365 0 0 0 3 49.047V47h7.146a2.854 2.854 0 0 0 1.276-5.407 19.61 19.61 0 0 0-6.562-1.946 8.726 8.726 0 0 1 .675-.768L8.414 36h35.172l2.879 2.879a8.726 8.726 0 0 1 .675.768 19.61 19.61 0 0 0-6.562 1.946A2.854 2.854 0 0 0 41.854 47Zm-8.038 8H18.184A3 3 0 0 1 21 53h10a3 3 0 0 1 2.816 2ZM3 53v-1.943a9.3 9.3 0 0 1 2.483.614l1.289.516A1.94 1.94 0 0 1 8 54a1 1 0 0 1-1 1H5a2 2 0 0 1-2-2Zm19.618-32h5.764l1 2h-7.764Zm-11.706 7.123A4.248 4.248 0 0 1 15 25h22a4.248 4.248 0 0 1 4.088 3.122L42.691 34H9.309ZM3.98 35.272A1.142 1.142 0 0 1 4.139 33h3.37l-.4 1.48-1.087 1.084Zm-.253 6.259.857.1a17.581 17.581 0 0 1 5.943 1.755.854.854 0 0 1-.381 1.614H3a8.646 8.646 0 0 1 .727-3.469ZM11 60a1 1 0 0 1-1 1H6a1 1 0 0 1-1-1v-3h6Zm36 0a1 1 0 0 1-1 1h-4a1 1 0 0 1-1-1v-3h6Zm0-5h-2a1 1 0 0 1-1-1 1.941 1.941 0 0 1 1.229-1.813l1.287-.516A9.32 9.32 0 0 1 49 51.057V53a2 2 0 0 1-2 2Zm2-10h-7.146a.854.854 0 0 1-.381-1.618 17.581 17.581 0 0 1 5.943-1.755l.857-.1A8.642 8.642 0 0 1 49 45Zm-3.022-9.436L44.9 34.48 44.5 33h3.37a1.142 1.142 0 0 1 .159 2.272ZM35.001 10H37v5h2v-5h2V8h-5.999v2zM45.707 8.293a1 1 0 0 0-1.414 0l-2 2A1 1 0 0 0 42 11v4h2v-1h2v1h2v-4a1 1 0 0 0-.293-.707ZM44 12v-.586l1-1 1 1V12ZM55 10V8h-2v1.5l-1 .75-1-.75V8h-2v2a1 1 0 0 0 .4.8l.933.7-.934.7a1 1 0 0 0-.4.8v2h2v-1.5l1-.75 1 .75V15h2v-2a1 1 0 0 0-.4-.8l-.934-.7.933-.7A1 1 0 0 0 55 10ZM56 8h2v7h-2z" fill="#ff2f00" data-original="#000000" class=""></path><path d="M57.355 1h-20.71a5.649 5.649 0 0 0-5.58 6.5l1.335 8.7A5.633 5.633 0 0 0 38 21h5.719l-.689 2.758a1 1 0 0 0 1.525 1.074L50.3 21H56a5.633 5.633 0 0 0 5.6-4.8l1.338-8.7A5.649 5.649 0 0 0 57.355 1Zm3.6 6.2-1.335 8.7A3.643 3.643 0 0 1 56 19h-6a1.006 1.006 0 0 0-.555.168L45.6 21.733l.372-1.491A1 1 0 0 0 45 19h-7a3.643 3.643 0 0 1-3.62-3.1l-1.338-8.7a3.647 3.647 0 0 1 3.6-4.2h20.71a3.647 3.647 0 0 1 3.6 4.2Z" fill="#ff2f00" data-original="#000000" class=""></path></g></g></svg>