<svg width="22" height="22" viewBox="0 0 22 22" fill="none" xmlns="http://www.w3.org/2000/svg">
<g clip-path="url(#clip0_1417_8182)">
<path d="M1.61134 0.103113C1.31915 0.3953 1.48244 0.820691 1.90783 0.880847C2.01955 0.898035 2.16994 0.958191 2.24728 1.01405C2.32033 1.06991 2.43205 1.14725 2.4879 1.19022C2.62111 1.28905 2.87892 1.28905 3.01212 1.19022C3.06798 1.14725 3.1797 1.06991 3.25275 1.01405C3.33009 0.958191 3.48048 0.898035 3.5922 0.880847C4.01759 0.820691 4.18087 0.3953 3.88869 0.103113C3.74689 -0.0386841 3.34728 -0.0386841 2.99923 0.103113L2.75001 0.206238L2.50509 0.103113C2.15275 -0.0386841 1.75314 -0.0386841 1.61134 0.103113Z" fill="#09100D"/>
<path d="M16.9942 0.0472655C16.5474 0.150391 16.1263 0.365234 15.7696 0.670312C15.5376 0.867969 15.2411 1.22461 15.1595 1.40078C15.1208 1.48242 15.095 1.48672 14.9575 1.45664C14.7083 1.39648 14.2571 1.41367 14.0036 1.48672C13.1614 1.73594 12.6243 2.3332 12.4567 3.20117C12.4009 3.48477 12.4438 3.7082 12.5771 3.84141L12.6888 3.95312H14.631H16.5731L16.6806 3.8457C16.8868 3.63945 16.8653 3.3043 16.6376 3.14961C16.5302 3.08086 16.3884 3.07227 14.9876 3.05937C14.1411 3.05078 13.4493 3.03789 13.4493 3.025C13.4493 2.95625 13.6985 2.65117 13.836 2.55664C14.2099 2.29883 14.5278 2.26445 15.0091 2.42773C15.2927 2.52656 15.3399 2.53086 15.4946 2.48359C15.645 2.43203 15.6794 2.39336 15.847 2.0625C16.0833 1.59414 16.3755 1.29336 16.7966 1.08281C17.1103 0.928125 17.1274 0.923828 17.613 0.923828C18.0856 0.923828 18.1286 0.932422 18.4036 1.06133C18.7646 1.2332 19.1212 1.56836 19.3403 1.93789C19.5251 2.25586 19.6024 2.30312 20.0063 2.3332C20.1481 2.34609 20.3329 2.38906 20.4146 2.42773C20.595 2.51797 20.87 2.77578 20.9517 2.93047L21.0161 3.05078H20.4618C20.1567 3.05078 19.8474 3.06367 19.77 3.07656C19.422 3.14531 19.2974 3.575 19.5466 3.82852L19.6712 3.95312H20.711H21.7509L21.8755 3.82852C21.9872 3.7168 22.0001 3.67383 22.0001 3.4375C22.0001 2.93047 21.7638 2.38906 21.3685 2.00234C21.1321 1.77031 20.6595 1.52109 20.3458 1.46523C20.1868 1.43516 20.1095 1.39648 20.045 1.31055C19.538 0.61875 18.9923 0.227734 18.3048 0.0687499C17.9997 -0.00429702 17.2692 -0.0171876 16.9942 0.0472655Z" fill="#09100D"/>
<path d="M8.46914 2.43633C8.3918 2.51367 7.53242 4.1293 6.15313 6.78906C4.95 9.11797 3.92734 11.0945 3.88008 11.1848L3.79844 11.348L3.60938 11.0129C3.35156 10.5574 3.27422 10.4844 3.03359 10.4844C2.8918 10.4844 2.81016 10.5102 2.73281 10.5789C2.6125 10.6949 1.01836 13.4148 0.971094 13.591C0.906641 13.8445 1.15586 14.1367 1.43945 14.1367C1.49961 14.1367 1.54688 14.1453 1.54688 14.1582C1.54688 14.1711 1.34063 14.532 1.09141 14.9617C0.837891 15.3914 0.610156 15.8039 0.575781 15.8812C0.442578 16.1992 0.631641 16.4656 1.01406 16.5L1.24609 16.5215L0.623047 17.5871C0.0816406 18.5109 0 18.6785 0 18.8375C0 18.9793 0.0257813 19.048 0.111719 19.1383L0.227734 19.25H11H21.7723L21.8883 19.1383C22.1461 18.8805 22.318 19.2328 18.7773 12.8176C17.0027 9.60781 15.5031 6.93945 15.443 6.88359C15.284 6.7418 15.0262 6.75469 14.8715 6.90508C14.8113 6.97383 14.1883 8.05664 13.4965 9.31133C12.8047 10.5703 12.2332 11.6016 12.2289 11.6016C12.2246 11.6016 12.0184 11.2922 11.7734 10.9141C11.5242 10.5402 11.2793 10.2051 11.2277 10.1793C11.1031 10.1105 10.8969 10.1105 10.7723 10.1793C10.7121 10.2094 9.625 11.8379 8.16836 14.0766C6.78906 16.1863 5.64609 17.9094 5.62891 17.8965C5.59883 17.8793 4.85977 16.6375 4.82109 16.5344C4.8125 16.5172 4.90703 16.5 5.02734 16.5C5.21641 16.5 5.26797 16.4828 5.37539 16.3754C5.47422 16.2723 5.5 16.2121 5.5 16.0617C5.5 15.9027 5.42695 15.7523 4.98438 15.009L4.47305 14.1367H4.60195C4.76094 14.1367 4.96719 14.0336 5.02734 13.9262C5.13906 13.7156 5.0832 13.5309 4.70937 12.8906L4.34414 12.2676L4.64922 11.6789C4.8125 11.3566 4.97148 11.0602 5.00156 11.0215C5.04883 10.957 5.09609 10.9742 5.45273 11.2105C5.67188 11.3523 5.92969 11.4941 6.02852 11.5199C6.40234 11.6187 6.89648 11.4641 7.1457 11.1719C7.22305 11.0816 7.5625 10.5059 7.90625 9.9C8.33164 9.14375 8.56367 8.76992 8.64102 8.72695C8.74414 8.67109 8.76133 8.67539 9.00625 8.86445C9.38438 9.15234 9.66797 9.2125 10.102 9.08359C10.3039 9.02344 10.3855 8.96328 10.7078 8.62383C10.9141 8.40898 11.0902 8.24141 11.0988 8.2543C11.1074 8.26289 11.2449 8.5207 11.4039 8.83008C11.5629 9.13516 11.7477 9.44023 11.8207 9.50469C12.1 9.7668 12.5469 9.55625 12.5469 9.16523C12.5469 9.00625 9.22109 2.59101 9.06211 2.43633C8.96758 2.35039 8.89453 2.32031 8.76562 2.32031C8.63672 2.32031 8.56367 2.35039 8.46914 2.43633ZM9.70234 5.54727C10.2051 6.51836 10.609 7.33477 10.6004 7.36055C10.5574 7.46797 9.86992 8.20703 9.78828 8.23281C9.72813 8.25 9.65508 8.21562 9.54766 8.12539C9.24258 7.86758 9.075 7.79883 8.72266 7.79883C8.09531 7.79883 7.94063 7.95781 7.13281 9.41445C6.58711 10.3984 6.41953 10.6562 6.325 10.6562C6.30352 10.6562 6.09727 10.5359 5.86953 10.3855L5.45703 10.1148L7.10273 6.94805C8.00508 5.20781 8.75273 3.78125 8.76562 3.78125C8.77852 3.78125 9.19961 4.57617 9.70234 5.54727ZM16.7578 11.0516C17.6215 12.6156 18.4078 14.0422 18.5109 14.2312L18.6957 14.5664L18.5668 14.6953C18.498 14.7684 18.3949 14.8242 18.3391 14.8242C18.2746 14.8242 17.9137 14.5664 17.3164 14.0895C16.8094 13.6855 16.3152 13.316 16.2207 13.2645C16.0832 13.1914 15.9715 13.1699 15.6836 13.1699C15.2066 13.1699 15.0734 13.2387 14.4461 13.823C14.1797 14.0723 13.9563 14.2699 13.952 14.2613C13.9434 14.2527 13.6813 13.8488 13.3676 13.3676C12.8133 12.5168 12.7961 12.4867 12.8562 12.3707C13.0066 12.0656 15.1508 8.20703 15.168 8.20703C15.1809 8.20703 15.8941 9.4875 16.7578 11.0516ZM3.42891 12.5125C3.64805 12.8863 3.82422 13.2 3.82422 13.2129C3.82422 13.2258 3.75547 13.2344 3.66953 13.2344C3.54922 13.2344 3.48047 13.2687 3.36445 13.3848C3.14102 13.6082 3.1668 13.707 3.75547 14.7125C4.03047 15.1809 4.25391 15.5719 4.25391 15.5805C4.25391 15.5891 4.18516 15.5977 4.09922 15.5977C3.89297 15.5977 3.67383 15.7051 3.61367 15.8383C3.50625 16.0746 3.54922 16.182 4.18945 17.2734C4.5332 17.8621 4.8125 18.352 4.8125 18.3648C4.8125 18.3777 4.00039 18.3906 3.01211 18.3906H1.20742L1.77031 17.4367C2.07539 16.9082 2.36328 16.4055 2.41055 16.3195C2.52656 16.0918 2.51367 15.9242 2.37188 15.7652C2.27305 15.6535 2.20859 15.6234 2.02813 15.6062C1.90352 15.5977 1.80469 15.5762 1.80469 15.5676C1.80469 15.5547 2.01094 15.1937 2.26445 14.7641C2.51367 14.3387 2.7457 13.9262 2.77578 13.8488C2.90039 13.5523 2.68984 13.2344 2.36328 13.2344H2.1957L2.6125 12.5254C2.84023 12.1387 3.0293 11.825 3.0293 11.8293C3.03359 11.8336 3.21406 12.143 3.42891 12.5125ZM10.5703 13.4621V14.8457L9.42305 16.616L8.27148 18.3863L7.36055 18.3906H6.44531L6.78047 17.8793C6.96094 17.5957 7.88477 16.1777 8.83008 14.7211C9.77539 13.2687 10.5531 12.0785 10.5617 12.0785C10.566 12.0742 10.5703 12.6973 10.5703 13.4621ZM12.8305 14.2098L13.0625 14.5664H12.2461H11.4297V13.316V12.0613L12.0141 12.9594C12.3406 13.4535 12.7059 14.0164 12.8305 14.2098ZM16.7148 14.7855C17.2219 15.1895 17.716 15.559 17.8105 15.6062C18.1586 15.7867 18.7559 15.7395 19.0523 15.5074L19.1598 15.4215L19.2199 15.5203C19.293 15.632 20.6207 18.0426 20.7281 18.2488L20.8012 18.3906H18.7215H16.6461L15.5633 16.732C14.9703 15.8168 14.4934 15.0563 14.502 15.0348C14.5148 15.0176 14.7555 14.7855 15.0391 14.5277C15.4387 14.1582 15.5762 14.0508 15.6707 14.0508C15.7609 14.0508 16.0188 14.2312 16.7148 14.7855ZM13.4492 16.702C13.4492 17.3766 13.4406 17.9223 13.432 17.9137C13.3934 17.875 11.8594 15.5074 11.8594 15.4902C11.8594 15.4773 12.216 15.4688 12.6543 15.4688H13.4492V16.702ZM11.8379 17.1445L12.6328 18.3691L11.8164 18.382C11.3695 18.3863 10.6348 18.3863 10.1836 18.382L9.36719 18.3691L10.1707 17.1316C10.6133 16.4527 10.9871 15.9027 11.0086 15.907C11.0258 15.9156 11.3996 16.4699 11.8379 17.1445ZM14.5578 16.8523C14.648 17.0027 14.9145 17.4066 15.1379 17.7547L15.5547 18.3906H14.9531H14.3516V17.4883C14.3516 16.9898 14.3602 16.5859 14.3688 16.5859C14.3773 16.5859 14.4633 16.7062 14.5578 16.8523Z" fill="#09100D"/>
<path d="M3.51057 2.87889C3.26135 3.17538 3.42033 3.57069 3.81135 3.63085C4.06057 3.66522 4.14651 3.70819 4.32698 3.88007C4.43869 3.98749 4.50315 4.00897 4.66213 4.00897C4.82112 4.00897 4.88557 3.98749 4.99729 3.88007C5.17776 3.70819 5.26369 3.66522 5.50862 3.63085C5.79651 3.58788 5.92971 3.44608 5.92971 3.17968C5.92971 3.01639 5.90823 2.95194 5.81369 2.85741C5.69768 2.74569 5.67619 2.74139 5.37112 2.75858C5.15198 2.77147 4.98869 2.81014 4.86408 2.8746L4.67502 2.96913L4.47737 2.8746C4.34416 2.81444 4.16369 2.77147 3.94885 2.75858C3.62658 2.74139 3.62658 2.74139 3.51057 2.87889Z" fill="#09100D"/>
<path d="M17.9695 3.10235C17.8148 3.14532 17.6602 3.34728 17.6602 3.51485C17.6602 3.88439 18.1328 4.09923 18.4035 3.85001C18.7602 3.51915 18.4465 2.97774 17.9695 3.10235Z" fill="#09100D"/>
<path d="M0.20625 4.5332C0.0558594 4.61914 0 4.72227 0 4.91992C0 5.18633 0.201953 5.37109 0.489844 5.37109C0.575781 5.37109 0.683203 5.43125 0.983984 5.65039C1.19453 5.80508 1.36641 5.79219 1.61133 5.60313C1.84336 5.43125 1.93359 5.38828 2.16563 5.34961C2.38906 5.31094 2.53516 5.15195 2.53516 4.93281C2.53516 4.71797 2.4793 4.61484 2.31172 4.52891C2.13125 4.43438 1.73594 4.46875 1.46953 4.60625L1.26758 4.70508L1.05273 4.60195C0.782031 4.47305 0.369531 4.43867 0.20625 4.5332Z" fill="#09100D"/>
<path d="M15.4687 4.71796C15.3871 4.75663 15.2926 4.84686 15.2625 4.91132C15.1465 5.15194 15.2969 5.46991 15.5461 5.52147C15.8598 5.58593 15.9801 5.63749 16.1433 5.77928C16.3926 5.98983 16.6074 5.98983 16.8566 5.77928C17.0199 5.63749 17.1402 5.58593 17.4539 5.52147C17.7031 5.46991 17.8535 5.15194 17.7375 4.91132C17.7074 4.84686 17.6043 4.75233 17.514 4.70936C17.368 4.63632 17.3164 4.63202 17.0887 4.67499C16.9469 4.70077 16.7535 4.76093 16.659 4.80819C16.5086 4.88124 16.4785 4.88553 16.3969 4.83397C16.298 4.76522 15.8426 4.64061 15.7051 4.64061C15.6578 4.64061 15.5504 4.67499 15.4687 4.71796Z" fill="#09100D"/>
<path d="M19.0266 8.23282C18.8762 8.31446 18.8203 8.41758 18.8203 8.62383C18.8203 8.90313 18.9578 9.02344 19.3488 9.0879C19.4348 9.10079 19.5723 9.16954 19.6496 9.23399C19.9676 9.51329 20.1395 9.52188 20.4574 9.28125C20.582 9.18672 20.7539 9.09649 20.8398 9.0836C21.2137 9.02344 21.3555 8.89024 21.3555 8.60665C21.3512 8.34454 21.1578 8.16407 20.8699 8.16407C20.7023 8.16407 20.3027 8.27579 20.1738 8.36172C20.0965 8.41329 20.0707 8.41329 19.9977 8.36172C19.8773 8.27579 19.4734 8.16407 19.2973 8.16407C19.2113 8.16836 19.091 8.19415 19.0266 8.23282Z" fill="#09100D"/>
<path d="M2.43203 19.8773C2.3418 19.9676 2.32031 20.032 2.32031 20.1953C2.32031 20.3586 2.3418 20.423 2.43203 20.5133L2.54805 20.625H4.38281H6.21758L6.33359 20.5133C6.49258 20.35 6.49258 20.0406 6.33359 19.8773L6.21758 19.7656H4.38281H2.54805L2.43203 19.8773Z" fill="#09100D"/>
<path d="M15.7566 19.8773C15.5589 20.075 15.5675 20.3414 15.7737 20.5348C15.8726 20.625 15.8855 20.625 18.8116 20.625H21.7507L21.8753 20.5004C21.9741 20.4016 21.9999 20.3371 21.9999 20.1953C21.9999 20.0535 21.9741 19.9891 21.8753 19.8902L21.7507 19.7656H18.8073H15.8683L15.7566 19.8773Z" fill="#09100D"/>
<path d="M7.07266 21.2523C6.98242 21.3426 6.96094 21.407 6.96094 21.5703C6.96094 21.8539 7.10703 22 7.39062 22C7.67422 22 7.82031 21.8539 7.82031 21.5703C7.82031 21.407 7.79883 21.3426 7.70859 21.2523C7.61836 21.1621 7.55391 21.1406 7.39062 21.1406C7.22734 21.1406 7.16289 21.1621 7.07266 21.2523Z" fill="#09100D"/>
<path d="M8.74844 21.2523C8.6582 21.3426 8.63672 21.407 8.63672 21.5703C8.63672 21.7336 8.6582 21.798 8.74844 21.8883L8.86445 22H11.8379H14.8113L14.9273 21.8883C15.0176 21.798 15.0391 21.7336 15.0391 21.5703C15.0391 21.407 15.0176 21.3426 14.9273 21.2523L14.8113 21.1406H11.8379H8.86445L8.74844 21.2523Z" fill="#09100D"/>
</g>
<defs>
<clipPath id="clip0_1417_8182">
<rect width="22" height="22" fill="white"/>
</clipPath>
</defs>
</svg>
