<svg width="60" height="60" viewBox="0 0 60 60" fill="none" xmlns="http://www.w3.org/2000/svg">
<path d="M28.5704 5.16797C24.1642 5.74219 20.5431 9.22266 19.6876 13.7109C19.5001 14.6602 19.5353 16.7109 19.7462 17.7188C20.7423 22.5703 25.0079 26.0156 30.0001 26.0156C34.9923 26.0156 39.2579 22.5703 40.254 17.7188C40.465 16.7109 40.5001 14.6602 40.3126 13.7109C39.8673 11.3789 38.8712 9.55078 37.1134 7.88672C35.5431 6.39844 33.4923 5.4375 31.2775 5.15625C30.1759 5.02735 29.6954 5.02735 28.5704 5.16797ZM32.0157 9.02344C34.8282 9.89063 36.8087 12.5742 36.8087 15.5156C36.797 17.4492 36.1525 19.043 34.7931 20.3906C33.5157 21.6797 31.8048 22.3828 30.0001 22.3828C28.1954 22.3828 26.4845 21.6797 25.2071 20.3906C23.8595 19.043 23.2032 17.4492 23.1915 15.5273C23.1915 12.2344 25.5939 9.375 28.8634 8.78906C29.6954 8.64844 31.1368 8.75391 32.0157 9.02344Z" fill="white"/>
<path d="M10.1253 14.9414C5.16827 16.0195 2.44952 21.4453 4.61749 25.957C6.25812 29.4023 9.9964 31.1601 13.6644 30.2343C18.5042 29.0039 20.9769 23.6484 18.762 19.1601C17.18 15.9609 13.5589 14.1914 10.1253 14.9414ZM13.4183 18.7968C15.3284 19.664 16.3831 21.9257 15.762 23.8125C14.5081 27.5859 9.56281 27.9023 7.88702 24.3164C7.60577 23.7187 7.5589 23.4609 7.5589 22.6172C7.5589 21.7265 7.60577 21.5273 7.94562 20.8359C8.33234 20.039 9.07062 19.2656 9.78546 18.8906C10.8636 18.3281 12.3167 18.2929 13.4183 18.7968Z" fill="white"/>
<path d="M46.5825 14.9531C41.6138 16.0664 38.9888 21.5859 41.2505 26.1562C42.5747 28.8281 45.2583 30.4688 48.2818 30.4688C52.6294 30.4688 56.1216 26.9883 56.1333 22.6406C56.1451 19.2422 53.8482 16.1367 50.5669 15.1172C49.4771 14.7773 47.6958 14.707 46.5825 14.9531ZM49.2779 18.5625C50.5435 18.8906 51.481 19.6641 52.0552 20.8359C52.395 21.5273 52.4419 21.7266 52.4419 22.6172C52.4419 23.4609 52.395 23.7187 52.1138 24.3164C51.399 25.8516 49.9107 26.8359 48.2818 26.8359C45.8794 26.8359 43.9458 24.7852 44.0865 22.4062C44.2388 19.7812 46.7935 17.8945 49.2779 18.5625Z" fill="white"/>
<path d="M23.965 26.9062C23.051 27.0234 22.1369 27.2578 21.4338 27.5391C19.8166 28.1953 18.1642 29.5781 17.3088 31.0312C16.9689 31.582 16.8986 31.6406 16.6408 31.5703C16.1135 31.418 7.96894 31.3828 7.14862 31.5234C4.11347 32.0508 1.40644 34.418 0.375188 37.4648L0.0587813 38.3789L0.023625 44.4609C-0.0115312 50.3555 0.000187532 50.5547 0.234563 51.2695C0.867375 53.168 2.53144 54.5625 4.47675 54.8438C5.46112 54.9961 54.5392 54.9961 55.5236 54.8438C57.4689 54.5625 59.133 53.168 59.7658 51.2695C60.0002 50.5547 60.0119 50.3555 59.9767 44.4609L59.9416 38.3789L59.6252 37.4648C58.5939 34.418 55.8869 32.0508 52.8517 31.5234C52.0314 31.3828 43.8869 31.418 43.3596 31.5703C43.1017 31.6406 43.0314 31.582 42.6916 31.0312C41.8478 29.6016 40.1838 28.1953 38.6252 27.5625C37.0432 26.918 37.0666 26.918 30.4689 26.8945C27.0822 26.8711 24.1642 26.8828 23.965 26.9062ZM35.9767 30.5859C37.8752 30.8906 39.5041 32.2852 40.1721 34.1953C40.3361 34.6875 40.3596 35.707 40.3947 43.0312L40.4416 51.3281H30.0002H19.5588L19.6057 43.0312C19.6408 35.707 19.6642 34.6875 19.8283 34.1953C20.4846 32.332 22.1252 30.8906 23.9064 30.5977C24.8205 30.457 35.0392 30.4453 35.9767 30.5859ZM15.6799 35.1094L15.9377 35.1797V43.2539V51.3398L10.3478 51.3047L4.74628 51.2695L4.35956 51C3.55097 50.4258 3.57441 50.5664 3.57441 44.707C3.57441 39.4688 3.57441 39.4336 3.85566 38.6367C4.383 37.0898 5.70722 35.7656 7.20722 35.2852C7.84003 35.0742 8.27362 35.0508 11.6603 35.0508C13.7228 35.0391 15.5275 35.0742 15.6799 35.1094ZM52.7463 35.2734C54.2814 35.7539 55.6057 37.0664 56.1447 38.6367C56.426 39.4336 56.426 39.4688 56.426 44.707C56.426 50.5664 56.4494 50.4258 55.6408 51L55.2541 51.2695L49.6642 51.3047L44.0627 51.3398V43.2539C44.0627 35.6602 44.0744 35.168 44.2736 35.1211C44.3791 35.0859 46.1721 35.0625 48.2346 35.0508C51.7033 35.0391 52.0666 35.0625 52.7463 35.2734Z" fill="white"/>
</svg>
