<?xml version='1.0' encoding='utf-8'?>
<svg xmlns="http://www.w3.org/2000/svg" viewBox="0 0 2843.38 3384.82"><defs><style>.cls-1{fill:#314e71;}.cls-2{fill:#d2d2d2;}.cls-3{fill:#161616;}.cls-4{fill:#c18b66;}.cls-5{fill:#a07557;}.cls-6{fill:#a7a499;}.cls-7{fill:#577088;}.cls-8{fill:#251f1c;}.cls-9{fill:#2b211d;}.cls-10{fill:#2f2722;}.cls-11{fill:#41332a;}.cls-12{fill:#365574;}.cls-13{fill:#626b7b;}</style></defs><title>guy with laptop</title><g id="Layer_2" data-name="Layer 2"><g id="Layer_1-2" data-name="Layer 1"><path class="cls-1" d="M1827,2992.83c5.82,9,7.31,19.16,7.16,29.44a102.31,102.31,0,0,0,11,47.76c11.4,22.84,15.47,47,17.81,72.29,5,54.62,2.92,109.22,3,163.85,0,24.94-11.76,45.91-19.09,68.38-3.14,9.6-12,10.63-21.24,10.19-22.75-1.09-45.53-1.56-68.29-2.3-54.63-1.76-109.26-4.76-163.89-5-77.41-.36-154.83,1.32-232.25,2.09-82.55.82-165.11,1.87-247.62-2.17-54.63-2.68-109.33-.08-164-2.09a762,762,0,0,0-104,3.17c-17.4,1.74-35.22-1-52.86-1.21q-69.19-.64-138.37-.76c-79.14-.19-158.29,1.4-237.37-3.3-24-1.43-24.51-1.33-20.48-24.78,8.1-47.15,11.46-94.85,17.57-142.18,6.24-48.34,13.5-96.87,28.12-143.82,16.9-54.29,22.68-110.2,21.73-166.85-.22-13.05-2.46-26.05-3.5-39.09-.62-7.81-4.54-10.18-12.21-10.52-30.7-1.36-61.48-1.7-92-6-10.14-1.42-20.26-3-30.34-4.74-9.64-1.71-18.76-4.82-25.85-12.06-5.21-5.32-11.29-7.31-18.63-5.67-13.5,3-27.24,2.6-40.85,1.62-24.95-1.8-50.1-2.06-74.73-6.79-29.26-5.63-55.09-17.65-73.79-42.24a85.31,85.31,0,0,1-14.71-28.6c-2.78-9.84-5.36-19.83-9.3-29.22C55,2681,49.62,2647.72,42.73,2615c-5.25-24.92-5-50.94-8.64-76.26-3.37-23.61-6.61-47.31-12.73-70.47-5.58-21.09-5.8-42.87-6.66-64.42-1-26.21-4.15-52.19-6.2-78.27-1.82-23.21-.77-46.73-5-69.69-11.15-59.74,6.68-115.1,25.61-170,13.52-39.22,26.48-78.64,41.23-117.48,11.52-30.34,15.64-63,17.91-95.35,3.64-52.18,14.64-102.3,36.06-150.11,5.36-12,10.73-23.8,17.37-35.14,17.63-30.12,30.69-62.15,37.07-96.56,3.23-17.41,11.38-31.63,22.85-44.93,24.08-27.93,48.77-55.45,60.8-91.67,4.43-13.37,12.51-25.49,18.43-38.4,8.46-18.45,22.81-30.44,40-40.54,35.52-20.9,74.14-34.72,112-50q109.86-44.39,220.72-86.3c36.17-13.68,71.45-29.66,108-42.27,35.12-12.14,54.94-37.31,65.7-70.81,9.1-28.33,19.76-55.72,37.11-80.13,7.79-2.15,10.4,4.09,11.89,8.95,13.52,44,49,70.53,79.56,101,48.39,37,98.1,72.2,149.3,105.09,37.18,23.88,65.15,54.6,83,94.75s42.93,76.3,66.23,113.37c9,14.41,12.67,14.5,19.64-1.19,10.27-23.09,24.89-43.39,38.21-64.53,6.28-10,9.6-20.41,9.27-32.25-1-35.82,12.73-66.86,38.64-89.68,24-21.13,29.69-48.75,37.92-76.27,2.43-8.12-.59-15.8-4-23.09-9.32-20.17-16.85-41.06-25.21-61.66-6.57-22.56-3.51-45.57-3.2-68.41.08-5.68,1.91-11.11,8-13.67,15.31-.91,25.72,6.74,33.92,18.87a177.49,177.49,0,0,1,27,62.17c2.29,10.54,4.66,21.08,7.54,31.47,6.13,22.15,19.46,37.68,41.09,46.83,27.17,11.49,55.86,19.34,81.64,34.16,15.75,9.06,31.74,17.62,48,25.83,38,19.22,78.28,33.7,115.58,54.42,41.75,23.2,86.81,39.43,129,61.67,50.7,26.71,104.59,47.44,151,82.06,10.17,7.59,19.29,15.8,26.19,26.48,17.58,27.21,33.3,55.06,44.19,86,15.46,43.94,27.64,88.88,42.68,132.91,2,5.88,2.65,12.51,10.18,14.38-1.87,9.56-10.07,8.38-16.08,8.09-63.83-3.1-127.11,6.62-190.77,8.38-70.31,2-140.84,5-211,11.44-30.62,2.81-61.42.74-92.14,1-32.39.3-64.64-.31-96.9,5.68-35.74,6.64-72.58,4.51-108.56,10.86a112.73,112.73,0,0,0-41,15.9c-12.06,7.55-19.08,18.17-19.55,32.16-2.81,81.88-19.14,162.47-22.08,244.45-2.28,63.56-11.71,126.75-17.78,190.13-3.08,32.28-.79,64.84-5.45,97-3.88,26.87.25,54.72-9.86,80.82-6.24,6.58-14,3.76-20.94,2.57-57.7-10-115.56-8.06-173.57-3.72-31.77,2.37-63.75-1.74-95.53,2.37-50.76,6.58-101.43,13.82-152.1,21-72.08,10.16-144,6.46-214.94-13.05-42.92-11.81-61.27-3.41-88.45,32.64-18.89,25-36.2,51.08-52.75,77.66a182.89,182.89,0,0,1-48.54,52.23c-12.91,9.29-19.86,21.17-22.43,36.64-5.62,33.84-8.41,68-5.48,102,2.23,25.89,18.92,45.83,34.06,65.67,5.6,7.34,15.36,6.28,23.94,6.45,103.57,2.05,205.83-6.28,305.19-38a45.18,45.18,0,0,1,13.38-2.5c27.59,4.77,54,14.13,80.07,23.64,84.59,30.92,171.37,54.46,257.55,80.12,43.61,13,86,30.78,131.48,36.14,48.53,5.72,97.14,8.77,146.31,4.47,32.8-2.86,65.74-4.84,98.55-8,27.12,3.29,53.74,9.41,80.45,14.94,22.91,4.74,46.06,7.22,69.29,8.92,10.18.75,18.72,3.62,26,10.87,22.23,22.16,49.1,34.35,80.36,37.16a198,198,0,0,1,32,5.38C1813.47,2979.61,1823.36,2981.87,1827,2992.83Z"/><path class="cls-2" d="M1297.16,2422.27c5.41-22.88,4.19-46.42,6.87-69.59,2.48-21.45,3.27-43.14,3.85-64.74,1.23-46.15,7.54-91.83,11.9-137.69,3.17-33.39,8-66.74,9-100.2,1.54-53,8.51-105.4,14.86-157.9,2.87-23.67,4.49-47.52,5.75-71.34,1.84-34.76,14.08-51.53,48.16-61,22.5-6.25,45.88-8.36,69.12-10,26.05-1.8,52.06-2.63,77.88-7.62,24.12-4.66,48.86-2.12,73.29-2.06,53.56.14,106.94-2.42,160.32-6.63,30-2.38,60.34-.44,90.39-3.75,38.58-4.26,77.31-3.15,116-3.73a221,221,0,0,0,32.2-3.37c31.7-5.18,63.65-2,95.44-3.54,6.51-.32,13.72,2.06,19.43-3.37,4.3,1.34,8.54,4.19,13.14,2.65,12.81-4.3,26-2.69,39-2.63,26.75.14,53.18-2.63,79.6-6.4a384.09,384.09,0,0,1,40.63-3.1c26.12-.9,52.17-3.17,78.19-4.81,50-3.15,100.1-1,150-3.78,40.77-2.31,81.41-6.7,122.33-6.17,2.27,0,4.73.22,6.79-.52,22.56-8.11,46-6,69.25-6.11,21-.14,42,.71,62.92-.17a47.33,47.33,0,0,1,49.9,50.1c-1.34,19.23-2.63,38.25-5.52,57.43-3.79,25.1-8,50.27-9.14,75.87-1.1,25.39-4.62,50.73-8,76-4.7,34.75-9.71,69.49-15.71,104-6.13,35.36-5.23,71-7.19,106.59-1.33,24.18-6.78,48.16-10.92,72.14-4.06,23.44-7.17,47-9.17,70.67-2.47,29.31-6.27,58.51-9.27,87.78-1.49,14.65-2.28,29.39-3.55,44-2.54,29.39-6.17,58.61-11.49,87.53-4.41,24-6.39,48.25-9.5,72.36-5,38.71-8,77.68-16.08,116a253.6,253.6,0,0,0-4.39,33.67c-1.37,18.93-10.79,31.66-27.7,39.7-12,5.72-25,7.91-37.82,9.45-32.08,3.88-63.55,11.16-95.47,15.82-15.67,2.29-31.25,5-47.24,5.43-26,.67-52,3.9-77.92,5.62-20.93,1.38-41.78,4.29-62.81,4.5-5.33,0-12-1.8-13.56,6.51-29.92,2.65-59.77,7-89.72,8.16-41,1.52-81.62,6.21-122.35,9.94-39.74,3.65-42.86,2.5-47.48-36.27-2.17-18.11-4.48-36.13-9.15-53.77-4.82-18.19-14.49-27.42-29.57-28.53-18.1-1.34-28.65,5.54-36.08,24.75-9.57,24.8-6.12,50.51-3.67,75.92,2.21,22.92-1.14,28.06-23,30.37-15.29,1.63-21.41-2.84-22.65-18.07-1.29-15.89-.4-31.86-.46-47.8,0-9.69-.47-19.32-2.49-28.85-2.17-10.32-4.89-20.53-16.42-24-12.41-3.67-23.84-.32-33.22,8.3a59.59,59.59,0,0,0-18.8,33.79c-4.65,26.38-16.56,50.93-19,77.82-1,10.83-8.86,13.57-18.08,14.32-48.76,4-97.27,10-145.72,16.84-56.33,7.91-113.33,9.12-169.81,15.58-12,1.38-23.69-3.23-35.58-.58-56.29,8.32-113,11.07-169.77,10.4-55.25-.65-109.44-8.18-162.1-26.89-63.62-22.6-129.33-38.63-194-58-25.52-7.64-50.43-17.3-75.73-25.68-37.69-12.5-75.49-24.68-113.25-37-10.77-.18-21.16-1.78-30.93-6.85-13.43-7-19.77-27.53-12.31-40.56,2.62-4.58,6.61-5.67,11.37-5.48,98.66,27.27,195.26,61.5,293.85,89,55.35,15.43,110.47,31.44,165,49.45,5.94,2,12,3.48,18.1,5,9.26,2.24,13.66-1.25,14.91-10.79,3.85-29.34,5.09-58.91,6.39-88.35,1.19-26.77,3.42-53.28,7.19-79.74.06-3,.07-5.93.06-8.91,5.49-64.9,4.67-130.16,11.47-195,1.07-10.17,1.77-20.31,1.86-30.52C1289.75,2435.93,1290.61,2428.12,1297.16,2422.27Z"/><path class="cls-3" d="M851.08,984.11C835.8,949,817.54,915.3,799.22,881.68c-7.91-5.57-10.89-14.45-14.21-22.7-11.8-29.4-24.25-58.5-37.66-87.19-8.41-18-6.65-37.73-10.13-56.56-1.65-8.93-3.31-17.78-6.15-26.39-6.2-18.85-12.16-23.52-31.78-24.08-6.47-.19-12.61-.08-15.57-7.3-17.3-30.69-32.8-62.17-45.43-95.16a170.72,170.72,0,0,0-30.87-50.84c-9.49-10.9-13.91-22.71-13.58-37.3.38-17.22-1.8-33.83-16.2-46.69-7.84-7-4.6-17.19-1.82-25.77,3.67-11.33,8.2-22.41,13-33.34,6.41-14.71,7.75-28.7,1.48-44.41-5.81-14.53-4-30.21,2.75-44.79,5.77-12.41,12.34-24.32,21.61-34.59,12.55-13.91,22.86-29.7,36.45-42.78,5.07-4.88,10.62-10.77.86-17.55-4.89-3.39-3.12-9.35-1.87-14.31,2.48-9.92,9.23-17,17-22.89C703.3,119.58,739.37,91.77,781,72.47c10.2-4.74,20.48-9.35,28.22-16.26.91-4.41-2.22-4.71-3.4-6.42-6.16-8.88-4.79-13.45,5.66-15.11C828.31,32,845.27,30,862.22,28c18.67-2.13,37.27-4.52,55.08-10.87A74.65,74.65,0,0,1,942.42,13c32.91,0,65.79-.54,98.44,5.54,21.9,4.08,44.24,3,66.44,2.1,4-.15,7.9-.69,10.74-4.32-3.29-5.21-9.92-5.11-14.12-8.77-1.17-1-2.57-2.54-2.63-3.89-.14-2.84,2.37-3.68,4.64-3.61,4,.14,8,.19,11.81,1.22,28.67,7.84,56.07,18.47,80.35,36.2,35.38,25.84,72.27,49.45,108.77,73.65,42.72,28.33,68.31,67.44,70.56,120.1,1.44,33.85,12.42,65.91,21.35,98.11,7.5,27,13.44,54.16,15,82,1.23,21.5,5.32,43,2.58,64.64-1.29,9.06-8.48,13.31-15.18,17.31-15.2,9.07-18.79,22.35-14.1,38.11,17.27,58,17.47,117.7,18.5,177.34.14,7.87,1,16.05-4.17,23-.13,7.35-.61,14.71-.31,22,1.68,40.39-3.38,80.22-10,119.89-4,23.55-12.13,45.84-21.65,67.66-1.37,1.65-1.29,4-2.57,5.64l0,.13c-7.7,24.26-26.86,40.35-42.52,58.79-46,54.15-104.34,91.27-172.93,105.92-62.26,13.29-124.51,4.47-181.07-28.9-20.58-12.13-41.51-23.66-62.43-35.17C881.2,1033,862.9,1011.63,851.08,984.11Z"/><path class="cls-4" d="M1517.54,2903.92c12.35-5.1,25.69-2.47,38.53-5,17.17-3.32,35-3,52.54-4.6,33.31-3,66.64-5.65,99.92-9,45.15-4.49,89.58-15.18,135.2-15.24,10.23,0,20.09-3.85,30.46-3.17,5.92.39,8.31-3.41,7.75-8.68-1.69-16,6.41-29.74,10-44.51,2.67-11,6.42-21.72,8.13-33,2-13.2,8.51-24.69,16.56-35.12,10.58-13.68,25.69-16.3,41.42-14,11,1.63,18.28,9.48,20,20.7,1.42,9.51,3.47,18.93,3.33,28.74-.28,18.76.21,37.55.66,56.32.38,15.82,2,17,16.81,14.3,1.11-.21,2.18-.7,3.29-.89,19.47-3.37,18.49-3.24,16-23.55-3.43-27.54-6.77-55.31,4.67-82.24,8.72-20.51,18.68-26.66,42.86-25.11,14.65.93,27.67,13.39,31.63,31.08,5.72,25.49,9.77,51.28,11,77.38.41,8.66,3.32,12.42,12.25,11.72,25.46-2,50.95-3.51,76.4-5.48,19.23-1.49,38.4-4.32,57.64-4.85,23.32-.64,46.34-3.47,69.46-6,12.17-1.31,24.89-4,36.83,2.14,4.2,4.62,8.79,9,12.54,13.91,9.82,13,7.11,26.21-6.83,34.56a50.07,50.07,0,0,1-17.46,6.49c-37.49,6.34-74.05,16.88-111.23,24.63-13.3,2.78-26.85,4.32-40.29,6.41-19.66,3-39,7.09-57.61,14.52-13.74,5.49-27.85,9.81-42.94,9.57-7.74-.12-14.21,2.78-20.09,7.88a240.69,240.69,0,0,1-20.18,15.66c-26.34,18.39-55.52,28.38-87.81,27.77-42.6-.79-85.16.37-127.71,2-4.93.19-10.4-1.44-14.2,3.51-15.32-13-34.5-14-52.94-15.83-32.94-3.22-61.54-14.81-84.81-38.73-4.74-4.88-9.63-9.33-17.4-9.43-35.95-.48-70.88-8.28-105.9-15.37C1549.82,2910.22,1533.67,2907.1,1517.54,2903.92Z"/><path class="cls-4" d="M851.08,984.11c6.79,4.77,9.54,12.59,13.95,19.07,14.53,21.33,34.62,35.88,56.85,47.85,26.52,14.29,52.09,30.44,80.11,41.82,24.65,10,49.52,19.31,76.78,18.59,24.44-.65,48.92.46,73.27-3.13A121.47,121.47,0,0,0,1192.3,1095q32.33-17.37,64.51-35c13.12-7.13,24.56-16.65,35-27,25.1-24.82,49.55-50.28,69.26-79.83,1.53-2.29,3.77-4.1,5.67-6.14,2.77,24.49,2.94,49.1,3.46,73.69.12,6.11-.61,12.41,3.31,17.83a20.9,20.9,0,0,0-3.47,11.22c.21,24.84-3.31,49.87,3.66,74.38,3.41,23.17-10.91,39.9-22.44,56.75-12.35,18-30.61,30.24-50.72,39.1-33.18,14.61-67.66,23.12-104.19,21.88-5.68-.2-11.43-.58-17,.05-71.82,8.12-131.85-20.83-188.83-59.63-12.12-8.26-24.06-16.81-37-23.86-21.21-17.18-40.58-36.13-57.45-57.68-9.9-12.64-18.17-25.87-22.49-41.53-1.41-5.13-2.35-11.51-9.34-13.06C858.88,1025.69,853.51,1005.22,851.08,984.11Z"/><path class="cls-4" d="M1401.42,731.66c-2.28-32.77-1.25-65.63-3.17-98.45-1.87-31.82-5.59-63.09-14.25-93.74-.77-2.73-1.6-5.44-2.21-8.2-5.18-23.4-3-28.7,17-42.33,6-4.12,11.75-8.72,17.6-13.08,1.34,1,2.57,2.66,4,2.95,33.6,6.4,51.79,25.1,55.3,58.85,3.32,32,1.51,63.55-13,93.29-9.11,18.75-12.61,38.71-11.89,59.57.95,27.51-2.46,34.66-35.86,40.62C1410.6,731.93,1406,731.52,1401.42,731.66Z"/><path class="cls-4" d="M683.72,657.46c4.75,4.27,10.08,3.35,15.89,2.67,17.9-2.11,29.17,5.86,34.57,22.72a230.58,230.58,0,0,1,10.49,58.39,89.68,89.68,0,0,0,7.67,31.24c15.39,35.34,31,70.57,46.49,105.86a11.34,11.34,0,0,1,.39,3.34c-19.15,13.11-45.86,4.05-53.92-22.11-4.73-15.35-13.16-27.22-24.25-38.1-24.35-23.87-42.21-52.36-51.55-84.83C661.53,708.92,660,680.41,683.72,657.46Z"/><path class="cls-4" d="M1366.84,946.89c-.79-2.64,0-4.56,2.58-5.65C1370.2,943.88,1369,945.6,1366.84,946.89Z"/><path class="cls-4" d="M1297.16,2422.27c-4.17,22.38-1.88,45.3-5.64,67.73-5.09,30.45-1.93,61.26-3.71,91.84-1.76,30-4.57,59.95-6.91,89.92a5.23,5.23,0,0,1-4.4,2.24c-7.69-.88-15.49-.35-23.16-1.6a59.47,59.47,0,0,1-34.62-20.44c-17-20.25-36.78-21.72-61.43-14.52-44.34,13-86.82,30.68-130.17,46.2-5.28,1.76-10.12,4.61-15.42,6.32-33.22,8.27-67.46,9-101.12,14-35.38,5.25-70.84,9.7-106.38,13.75-10.9,1.24-21.5-.76-32.24-1.19-5.37.13-10.39.71-10.33,7.93,0,2.25,0,4.5-.07,6.75-.35,19.55-.36,19.58,17.63,26.65,7.8,3.06,15.68,6,23.52,8.91-30.71,10.25-62.1,17.91-93.53,25.51-22.74,5.5-46,7-69,9.52-16.92,1.83-33.81,3.77-50.68,5.94a100.8,100.8,0,0,1-11.86,1.13c-34.69.24-69.39.08-104.08.72-9,.17-15.47-2.86-20.15-10-10.92-16.6-21.38-33.5-29.93-51.46-2.7-5.67-3.37-12-3.43-18.3-.34-34.7.69-69.27,6.72-103.59,2.47-14,7.67-25.4,20.06-33.89,27.76-19,47.86-45.06,64.05-74.2,13-23.48,29.42-44.71,46.4-65.19,10.69-12.9,24.68-23.41,39.27-32.43,5.57-3.44,11.07-4.25,17.78-2.3,13.05,3.78,26.7,5.56,39.69,9.54,48.51,14.86,98.34,16.18,148.45,15.89,31.4-.18,62-5.59,92.83-10.77,34.08-5.73,68.62-8.66,102.86-13.57,36.23-5.19,72.77-1.16,108.93-4.2,36.4-3.07,72.71-1.93,109.07-2.48C1243.62,2412.25,1270.16,2419,1297.16,2422.27Z"/><path class="cls-5" d="M953.57,1158.43c15.37,2.11,26.19,13.13,38.36,20.84,35.23,22.31,72.08,40.8,111.55,54.17a74.87,74.87,0,0,0,25.08,3.92c25-.24,50.1,0,75.16-.11,43.08-.09,83.1-11.76,119.06-35,14.06-9.1,26.91-21.19,33.88-37.51,5.76-13.49,15.71-25.23,17.08-40.57q13.38,31.27,26.76,62.54c3.26,7.58,4.08,14.92,1,23.07a211.63,211.63,0,0,0-11,39.32c-1.45,8.38-6.87,14.1-12.81,19.59-14.25,13.16-27.15,27.31-36.84,44.43-8.86,15.69-16.21,32.19-14.52,50,2.25,23.77-8.6,42-21.1,59.51-9.65,13.54-18.36,27.24-24.49,42.71-3.54,8.92-9.08,16.8-16.6,24.27-6.23-5-9.46-11.73-13.22-17.76-22.83-36.6-47.33-72.13-65.6-111.57-11.88-25.65-25-51.25-48-69.59a810.84,810.84,0,0,0-70.74-50.46c-27.38-17.37-53.67-36.17-79.26-56C976.12,1175.48,963.22,1169.08,953.57,1158.43Z"/><path class="cls-6" d="M772,2716.54c2-2.33,4.65-3.06,7.58-3.15,47.48-1.5,94.14-9.75,141.06-16.2,22.27-3.06,44.85-4.65,67.21-7.71,8.93-1.23,17.87-2.35,26.81-3.52,6.34-3.1,13.69-2.92,20-6.13a64.83,64.83,0,0,1,18.48-2.45,1750.69,1750.69,0,0,0,178.08-8.85c6.29-.65,12.41.38,18.54,1.38,7.44,1,15,1.31,22.35,2.92,3.64,1,6.07,3.74,8.72,6.17-4.19,29.74-5.67,59.65-7.35,89.64-1.54,27.59-1.91,55.42-6,82.92-1.78,12.1-5.09,15.26-16.52,11.76-29.26-9-58.16-19.2-87.64-27.38-27.82-7.72-54.84-18.2-83.31-23.73-10.54-2.05-20.87-5.29-31.15-8.46q-74.8-23-149.53-46.28c-34.62-10.74-68.79-22.92-104.09-31.49C787.27,2724,778.5,2722.65,772,2716.54Z"/><path class="cls-7" d="M1280.8,2679a7.76,7.76,0,0,1-6.88-2.79,5,5,0,0,1,4.16-4.21,20.62,20.62,0,0,1,2.82-.23C1280.87,2674.17,1280.83,2676.58,1280.8,2679Z"/><path class="cls-4" d="M805.76,519.38c-8.06,3.8-13.73,10.77-18.11,17.67-7.12,11.2-17.13,17.77-28.23,23.66-8.55,4.54-17,9.32-24,16.12-5.17,5-9.19,5.64-12.66-2.24-11.1-25.19-17.8-50.72-5.92-77.43,11.08-24.92,8-50.11,2.54-75.38-1.83-8.47-1.89-16.92-2.28-25.44-.37-8.08,3.41-12.87,10.88-15.16,1.63-.5,3.23-1.1,4.9-1.45C786.3,368.3,828,337.81,864.3,298.61c6.14-6.64,12.91-10.83,22.06-11.29,27.43-1.37,50.44-13,70-31.56,11.77-11.13,26.66-15.7,41.36-19.09,37.84-8.72,74.31-21.29,110.31-35.46,25.06-9.86,50.7-16.44,77.77-17.87,23-1.22,41.09,7,55.05,24.8a99.13,99.13,0,0,1,15.23,26.59c4.16,11.2,9.16,22.08,13.36,33.2,13.12,34.75,33.74,65.54,50.19,98.49,8.64,17.29,11.29,36.86,16.33,55.48,1.58,5.8-1.61,8.43-7.32,8.49-12,.12-24.38.36-34.77-6.45-29.29-19.22-61-22.37-94.89-17.74-18.79,2.56-36.78,5.75-54,14.2-22.42,11-38.76,28.12-50.53,49.26-6.19,11.1-12,16.32-25.82,15.8-21.09-.79-42.05,3.63-60.5,15-6.45,4-10.51,3.61-16.37-1.15-28.59-23.26-61.46-27.55-96.62-20.42-19.92,10-43,11.81-61.93,24.92C824.69,509.71,816.93,517.77,805.76,519.38Z"/><path class="cls-4" d="M1015,536.26c-.14-2.8-.1-5.62-.44-8.4-1.86-15.18-1.86-15.1,11.54-20.19s27.14-7,41.08-8.15c6.93-.56,15-1.84,19.43,6.37,3.6,3.39,4.13,8,4.7,12.47,3.65,28.74,17.37,52.39,36.89,73.1a29.32,29.32,0,0,1,6.07,10.13c29,26.89,63.1,28.77,98.76,19,50.67-13.82,78.74-48.43,89.86-99.07a150.17,150.17,0,0,0,2.06-55.74c-1.9-12.35,3.69-18.85,13.06-25.26,6.81,10.91,5,22.8,7.19,33.67,2.54,12.3,4.74,24.62,9.85,36.07,12,26.83,17.26,55.33,20.8,84.12,3.4,27.67,4.5,55.54,4.63,83.47.12,26.49-11.13,47.64-30.48,64.08-14.66,12.47-31.27,22.68-47.23,33.57a48.12,48.12,0,0,1-13.81,6.55c-15.48,4.35-23.06,1-26-14.93-6.92-37.11-39.78-55.92-73.39-56.5-23.33-.4-46.59-.48-69.24,7-9.27,3-18.32,6.18-26.3,11.83-6.06,4.3-12.55,5.71-19.2,2.18-15-8-30.13-4.55-44.61.43-34.1,11.73-66,27.7-93.18,52-10.06,9-14.88,19.81-14.75,33.06.11,10.79-.06,21.52,2.08,32.28,3.17,15.89-.18,19.73-16.58,18.09-18.64-1.85-37.15-5-55.72-7.63a11.07,11.07,0,0,0-1.67-.36c-24,.12-37-11.74-43.62-34.93C802,807.91,793.41,792,784.6,776.78,765,743,757.14,705.94,752.38,668.11a207,207,0,0,0-16.65-58.71c-6.11-13.78-5.49-14.06,4.85-22.82,8.9-7.54,24.1-10.48,31.42-6.45,4.3,2.37,3.85,6.74,5,10.32,7.09,21.78,16,42.54,32.31,59.25a26.79,26.79,0,0,1,12.8,8c41.62,44,111.75,39.08,156.43,2,15.41-12.8,25.33-30.49,30-50.53C1011.75,585,1019.18,561.13,1015,536.26Z"/><path class="cls-4" d="M813.44,645.41c-4.45-7.89-8.8-15.84-13.37-23.66-10.72-18.36-12.82-38.54-12-59.14.65-16.5,11.7-27.71,21.8-39.23,24.36-25.31,53.17-40.77,89.21-39.53,15.72.54,31.55-1.84,47.18,1.53,8.83,3.82,17.63,7.71,26.5,11.45,20.87,8.81,30.14,26.35,35.19,46.93,1.62,6.59,2.45,13.38,3.64,20.07,7.37,13.26.66,26.35-.48,39.5-15.46,71.43-95,101.1-151.69,80.14C839.88,676.26,823.18,664.84,813.44,645.41Z"/><path class="cls-4" d="M1093,495.75c3.64-12,9.7-23.05,15.83-33.84,13-22.82,35-34.43,59-40.31,26.91-6.61,54.42-9.91,82.68-5.05,33.49,5.76,51.8,26.71,61.25,56.75,12.09,38.41,1,72.7-22.32,103.82-7.61,10.16-17.65,17.62-29.29,22.84-30.38,13.61-61.72,18.49-94.66,11.34-10.37-2.26-18.44-8.56-27.4-13.33C1106.6,580.24,1085.83,533.1,1093,495.75Z"/><path class="cls-4" d="M1159.54,755.92c18.54.32,32.55,2.88,46.12,7.12,15.61,4.88,21,12.47,20.07,29.34-2.14,39-16,70.5-55.16,86.38-25.08,10.17-50.93,15.45-77.76,17.42-23.39,1.71-46.31,2.34-68.77-6.91-30.13-12.41-46.94-35-53-66.09-3.14-16.22.84-22.34,16.67-29.08,25.27-10.74,51.81-16.89,78.84-21.21,20.76-3.33,41.27-7.76,61.67-13C1139.69,757,1151.84,756.84,1159.54,755.92Z"/><path class="cls-8" d="M813.44,645.41c4.06,3.92,8.25,7.7,12.14,11.77C849,681.59,878,689.74,910.71,685.51c46-6,78.44-29.73,94.46-74.16.77-2.12,1.85-4.13,2.78-6.19,6.71-.27,4.78,3.75,3.66,7.38-7.85,40.88-50,71.36-87.46,78.29a143.5,143.5,0,0,1-55.8-.85c-25-5.22-43.82-20.29-59-40.28Z"/><path class="cls-9" d="M946.25,485.38c-27.08-.54-54.09-2.41-80.6,6.58-15.29,5.19-28.4,13.63-41.74,22.05-4.76,3-9.37,6.24-14,9.37l-4.1-4c25.71-22.54,54.37-38.58,89.41-40.53,9.06,6.45,19.31,1.65,28.9,3.08C931.47,483,939.64,479.21,946.25,485.38Z"/><path class="cls-10" d="M1093,495.75c-1.59,41.4,16.39,74.16,45,102.22l-3.78,3.62c-30-24.9-47.42-56-47.66-95.7C1090.82,503.82,1088.86,497.86,1093,495.75Z"/><path class="cls-11" d="M1011.61,612.54c-.57-2.78-.61-5.83-3.66-7.38,2.78-13.64,2.74-27.52,3.63-41.33,6.38-8.54,1.09-18.52,3.42-27.57,6.32,17.64,2.58,35.67,1.39,53.45C1015.89,597.28,1016.55,605.66,1011.61,612.54Z"/><path class="cls-1" d="M1253.81,2672c-46,5.87-92.39,7.14-138.62,9.9-27.67,1.66-55.49.81-83.24,1.09-3.08,1-6.64,3.09-6.39-3,46.14-18.58,92.66-35.94,140.57-49.64,19.83-5.67,35.7-2.57,49.12,12.49,10.74,12,22.6,22.08,38.6,26.2,1.12.67,1.48,1.34,1.1,2S1254.19,2672,1253.81,2672Z"/><path class="cls-12" d="M1253.81,2672c0-1,0-2,0-2.95,8.13.54,16.56-1.36,24.23,2.95l-4.15,4.21Z"/><path class="cls-13" d="M1025.56,2680c1.46,2.42,4,2.43,6.39,3-5.09,5-11.44,2.65-17.33,3C1017.32,2682.23,1021.29,2680.83,1025.56,2680Z"/></g></g></svg>