<svg xmlns="http://www.w3.org/2000/svg" version="1.1" xmlns:xlink="http://www.w3.org/1999/xlink" xmlns:svgjs="http://svgjs.com/svgjs" width="512" height="512" x="0" y="0" viewBox="0 0 480 480" style="enable-background:new 0 0 512 512" xml:space="preserve" class=""><g><path d="M240 216c-26.469 0-48 21.531-48 48s21.531 48 48 48 48-21.531 48-48-21.531-48-48-48zm0 80c-17.645 0-32-14.352-32-32s14.355-32 32-32 32 14.352 32 32-14.355 32-32 32z" fill="#9d9d9d" data-original="#000000" class=""></path><path d="M240 0C107.664 0 0 107.664 0 240s107.664 240 240 240 240-107.664 240-240S372.336 0 240 0zm0 464C116.484 464 16 363.516 16 240S116.484 16 240 16s224 100.484 224 224-100.484 224-224 224z" fill="#9d9d9d" data-original="#000000" class=""></path><path d="M240 48C134.133 48 48 134.133 48 240s86.133 192 192 192 192-86.133 192-192S345.867 48 240 48zm0 16c74.785 0 138.781 46.905 164.228 112.825l-59.938 19.979c-20.559 6.852-42.785 5.781-62.602-3.031-26.492-11.781-56.887-11.781-83.371 0l-3.031 1.344c-18.016 8.016-38.441 9.633-57.512 4.547L73.672 182.57C97.54 113.646 163.061 64 240 64zM64 240c0-1.63.079-3.241.124-4.86l5.556 1.852c78.876 26.291 134.657 95.203 144.579 177.107C129.373 401.603 64 328.302 64 240zm176 176c-3.177 0-6.332-.095-9.468-.262-9.454-89.602-69.874-165.284-155.79-193.918l-9.406-3.135a174.976 174.976 0 0 1 3.788-20.774l64.524 17.207a102.513 102.513 0 0 0 26.398 3.453c14.297 0 28.559-2.969 41.734-8.828l3.031-1.344c22.359-9.953 48.008-9.945 70.398.008 23.457 10.414 49.785 11.695 74.141 3.57l59.939-19.98a174.647 174.647 0 0 1 5.373 26.688l-9.406 3.135c-85.917 28.634-146.336 104.316-155.79 193.918-3.134.167-6.289.262-9.466.262zm25.742-1.901c9.922-81.904 65.702-150.816 144.579-177.107l5.556-1.852c.044 1.619.124 3.23.124 4.86-.001 88.302-65.374 161.603-150.259 174.099z" fill="#9d9d9d" data-original="#000000" class=""></path></g></svg>